solid OpenSCAD_Model
  facet normal 1 -0 0
    outer loop
      vertex 30 18.8797 2.475
      vertex 30 30 0.825
      vertex 30 30 2.475
    endloop
  endfacet
  facet normal 1 -0 0
    outer loop
      vertex 30 11.1202 2.475
      vertex 30 30 0.825
      vertex 30 18.8797 2.475
    endloop
  endfacet
  facet normal 1 0 0
    outer loop
      vertex 30 0 0.825
      vertex 30 11.1202 2.475
      vertex 30 0 2.475
    endloop
  endfacet
  facet normal 1 0 0
    outer loop
      vertex 30 11.1202 2.475
      vertex 30 0 0.825
      vertex 30 30 0.825
    endloop
  endfacet
  facet normal 0 0 1
    outer loop
      vertex 3.25 7.87025 2.475
      vertex 0 11.1202 2.475
      vertex 3.25 3.3 2.475
    endloop
  endfacet
  facet normal -0 0 1
    outer loop
      vertex 3.25 3.3 2.475
      vertex 11.1202 0 2.475
      vertex 7.82025 3.3 2.475
    endloop
  endfacet
  facet normal 0 0 1
    outer loop
      vertex 3.25 3.3 2.475
      vertex 0 0 2.475
      vertex 11.1202 0 2.475
    endloop
  endfacet
  facet normal 0 0 1
    outer loop
      vertex 0 0 2.475
      vertex 3.25 3.3 2.475
      vertex 0 11.1202 2.475
    endloop
  endfacet
  facet normal -0 0 1
    outer loop
      vertex 26.7 7.82025 2.475
      vertex 30 0 2.475
      vertex 30 11.1202 2.475
    endloop
  endfacet
  facet normal -0 0 1
    outer loop
      vertex 26.7 3.3 2.475
      vertex 30 0 2.475
      vertex 26.7 7.82025 2.475
    endloop
  endfacet
  facet normal -0 0 1
    outer loop
      vertex 22.1797 3.3 2.475
      vertex 30 0 2.475
      vertex 26.7 3.3 2.475
    endloop
  endfacet
  facet normal 0 0 1
    outer loop
      vertex 30 0 2.475
      vertex 22.1797 3.3 2.475
      vertex 18.8797 0 2.475
    endloop
  endfacet
  facet normal -0 0 1
    outer loop
      vertex 0 30 2.475
      vertex 7.77025 26.65 2.475
      vertex 11.1202 30 2.475
    endloop
  endfacet
  facet normal 0 0 1
    outer loop
      vertex 7.77025 26.65 2.475
      vertex 0 30 2.475
      vertex 3.25 26.65 2.475
    endloop
  endfacet
  facet normal 0 0 1
    outer loop
      vertex 0 18.8797 2.475
      vertex 3.25 26.65 2.475
      vertex 0 30 2.475
    endloop
  endfacet
  facet normal 0 0 1
    outer loop
      vertex 3.25 26.65 2.475
      vertex 0 18.8797 2.475
      vertex 3.25 22.1297 2.475
    endloop
  endfacet
  facet normal 0 0 1
    outer loop
      vertex 30 30 2.475
      vertex 26.7 26.65 2.475
      vertex 30 18.8797 2.475
    endloop
  endfacet
  facet normal 0 0 1
    outer loop
      vertex 30 30 2.475
      vertex 22.2298 26.65 2.475
      vertex 26.7 26.65 2.475
    endloop
  endfacet
  facet normal 0 -0 1
    outer loop
      vertex 22.2298 26.65 2.475
      vertex 30 30 2.475
      vertex 18.8797 30 2.475
    endloop
  endfacet
  facet normal 0 0 1
    outer loop
      vertex 30 18.8797 2.475
      vertex 26.7 26.65 2.475
      vertex 26.7 22.1797 2.475
    endloop
  endfacet
  facet normal 0 0 1
    outer loop
      vertex 26.7 22.1797 2.475
      vertex 30 11.1202 2.475
      vertex 30 18.8797 2.475
    endloop
  endfacet
  facet normal 0 0 1
    outer loop
      vertex 26.7 22.1797 2.475
      vertex 26.7 7.82025 2.475
      vertex 30 11.1202 2.475
    endloop
  endfacet
  facet normal 0 0 1
    outer loop
      vertex 22.2298 26.65 2.475
      vertex 26.7 7.82025 2.475
      vertex 26.7 22.1797 2.475
    endloop
  endfacet
  facet normal 0 0 1
    outer loop
      vertex 22.2298 26.65 2.475
      vertex 22.1797 3.3 2.475
      vertex 26.7 7.82025 2.475
    endloop
  endfacet
  facet normal 0 0 1
    outer loop
      vertex 7.77025 26.65 2.475
      vertex 22.2298 26.65 2.475
      vertex 18.8797 30 2.475
    endloop
  endfacet
  facet normal 0 0 1
    outer loop
      vertex 22.2298 26.65 2.475
      vertex 7.77025 26.65 2.475
      vertex 22.1797 3.3 2.475
    endloop
  endfacet
  facet normal 0 0 1
    outer loop
      vertex 7.77025 26.65 2.475
      vertex 18.8797 30 2.475
      vertex 11.1202 30 2.475
    endloop
  endfacet
  facet normal 0 -0 1
    outer loop
      vertex 7.82025 3.3 2.475
      vertex 22.1797 3.3 2.475
      vertex 7.77025 26.65 2.475
    endloop
  endfacet
  facet normal 0 0 1
    outer loop
      vertex 18.8797 0 2.475
      vertex 7.82025 3.3 2.475
      vertex 11.1202 0 2.475
    endloop
  endfacet
  facet normal 0 0 1
    outer loop
      vertex 22.1797 3.3 2.475
      vertex 7.82025 3.3 2.475
      vertex 18.8797 0 2.475
    endloop
  endfacet
  facet normal -0 0 1
    outer loop
      vertex 3.25 22.1297 2.475
      vertex 7.82025 3.3 2.475
      vertex 7.77025 26.65 2.475
    endloop
  endfacet
  facet normal 0 0 1
    outer loop
      vertex 3.25 22.1297 2.475
      vertex 3.25 7.87025 2.475
      vertex 7.82025 3.3 2.475
    endloop
  endfacet
  facet normal -0 0 1
    outer loop
      vertex 0 18.8797 2.475
      vertex 3.25 7.87025 2.475
      vertex 3.25 22.1297 2.475
    endloop
  endfacet
  facet normal 0 0 1
    outer loop
      vertex 3.25 7.87025 2.475
      vertex 0 18.8797 2.475
      vertex 0 11.1202 2.475
    endloop
  endfacet
  facet normal -1 0 0
    outer loop
      vertex 0 30 0.825
      vertex 0 18.8797 2.475
      vertex 0 30 2.475
    endloop
  endfacet
  facet normal -1 0 0
    outer loop
      vertex 0 30 0.825
      vertex 0 11.1202 2.475
      vertex 0 18.8797 2.475
    endloop
  endfacet
  facet normal -1 0 0
    outer loop
      vertex 0 0 0.825
      vertex 0 11.1202 2.475
      vertex 0 30 0.825
    endloop
  endfacet
  facet normal -1 -0 0
    outer loop
      vertex 0 11.1202 2.475
      vertex 0 0 0.825
      vertex 0 0 2.475
    endloop
  endfacet
  facet normal 0 1 -0
    outer loop
      vertex 30 30 0.825
      vertex 18.8797 30 2.475
      vertex 30 30 2.475
    endloop
  endfacet
  facet normal 0 1 0
    outer loop
      vertex 18.8797 30 2.475
      vertex 30 30 0.825
      vertex 11.1202 30 2.475
    endloop
  endfacet
  facet normal 0 1 0
    outer loop
      vertex 0 30 0.825
      vertex 11.1202 30 2.475
      vertex 30 30 0.825
    endloop
  endfacet
  facet normal 0 1 0
    outer loop
      vertex 11.1202 30 2.475
      vertex 0 30 0.825
      vertex 0 30 2.475
    endloop
  endfacet
  facet normal 0 0 -1
    outer loop
      vertex 29.175 0.825 0
      vertex 26.375 8.75 0
      vertex 29.175 14.25 0
    endloop
  endfacet
  facet normal 0 0 -1
    outer loop
      vertex 29.175 0.825 0
      vertex 24.875 8.75 0
      vertex 26.375 8.75 0
    endloop
  endfacet
  facet normal 0 0 -1
    outer loop
      vertex 15.75 0.825 0
      vertex 24.875 8.75 0
      vertex 29.175 0.825 0
    endloop
  endfacet
  facet normal 0 0 -1
    outer loop
      vertex 15.75 4.56699 0
      vertex 24.875 8.75 0
      vertex 15.75 0.825 0
    endloop
  endfacet
  facet normal -0 0 -1
    outer loop
      vertex 24.875 8.75 0
      vertex 15.75 4.56699 0
      vertex 24.875 9.83531 0
    endloop
  endfacet
  facet normal -0 0 -1
    outer loop
      vertex 29.175 14.25 0
      vertex 26.375 8.75 0
      vertex 26.375 14.25 0
    endloop
  endfacet
  facet normal 0 0 -1
    outer loop
      vertex 23.1268 21.174 0
      vertex 15.75 25.433 0
      vertex 22.601 22.0846 0
    endloop
  endfacet
  facet normal 0 0 -1
    outer loop
      vertex 24.875 21.146 0
      vertex 23.9001 22.8346 0
      vertex 24.875 21.25 0
    endloop
  endfacet
  facet normal 0 0 -1
    outer loop
      vertex 26.375 21.25 0
      vertex 29.175 15.75 0
      vertex 26.375 15.75 0
    endloop
  endfacet
  facet normal 0 0 -1
    outer loop
      vertex 29.175 15.75 0
      vertex 26.375 21.25 0
      vertex 29.175 29.175 0
    endloop
  endfacet
  facet normal 0 0 -1
    outer loop
      vertex 23.9001 22.8346 0
      vertex 26.375 21.25 0
      vertex 24.875 21.25 0
    endloop
  endfacet
  facet normal 0 0 -1
    outer loop
      vertex 26.375 21.25 0
      vertex 23.9001 22.8346 0
      vertex 29.175 29.175 0
    endloop
  endfacet
  facet normal 0 0 -1
    outer loop
      vertex 15.75 25.433 0
      vertex 23.9001 22.8346 0
      vertex 22.601 22.0846 0
    endloop
  endfacet
  facet normal 0 0 -1
    outer loop
      vertex 23.9001 22.8346 0
      vertex 15.75 25.433 0
      vertex 15.75 29.175 0
    endloop
  endfacet
  facet normal 0 0 -1
    outer loop
      vertex 23.9001 22.8346 0
      vertex 15.75 29.175 0
      vertex 29.175 29.175 0
    endloop
  endfacet
  facet normal 0 0 -1
    outer loop
      vertex 0.825001 0.825 0
      vertex 14.625 5.64952 0
      vertex 14.25 5 0
    endloop
  endfacet
  facet normal 0 0 -1
    outer loop
      vertex 14.25 5 0
      vertex 14.625 5.64952 0
      vertex 15 5 0
    endloop
  endfacet
  facet normal 0 0 -1
    outer loop
      vertex 24.875 11.5674 0
      vertex 24.851 18.1875 0
      vertex 24.875 18.2013 0
    endloop
  endfacet
  facet normal 0 0 -1
    outer loop
      vertex 21.3253 18.375 0
      vertex 24.851 18.1875 0
      vertex 24.875 11.5674 0
    endloop
  endfacet
  facet normal 0 0 -1
    outer loop
      vertex 24.851 18.1875 0
      vertex 21.3253 18.375 0
      vertex 24.7428 18.375 0
    endloop
  endfacet
  facet normal 0 0 -1
    outer loop
      vertex 14.625 24.3505 0
      vertex 21.3253 18.375 0
      vertex 14.625 5.64952 0
    endloop
  endfacet
  facet normal 0 0 -1
    outer loop
      vertex 14.625 5.64952 0
      vertex 21.3253 18.375 0
      vertex 24.875 11.5674 0
    endloop
  endfacet
  facet normal 0 0 -1
    outer loop
      vertex 21.3253 19.875 0
      vertex 14.625 24.3505 0
      vertex 22.3768 19.875 0
    endloop
  endfacet
  facet normal 0 0 -1
    outer loop
      vertex 21.3253 18.375 0
      vertex 14.625 24.3505 0
      vertex 21.3253 19.875 0
    endloop
  endfacet
  facet normal 0 0 -1
    outer loop
      vertex 14.625 24.3505 0
      vertex 14.25 24.75 0
      vertex 14.8557 24.75 0
    endloop
  endfacet
  facet normal 0 0 -1
    outer loop
      vertex 14.625 5.64952 0
      vertex 14.25 24.75 0
      vertex 14.625 24.3505 0
    endloop
  endfacet
  facet normal 0 0 -1
    outer loop
      vertex 0.825001 0.825 0
      vertex 14.25 5 0
      vertex 14.25 0.825 0
    endloop
  endfacet
  facet normal -0 0 -1
    outer loop
      vertex 14.625 5.64952 0
      vertex 0.825001 0.825 0
      vertex 14.25 24.75 0
    endloop
  endfacet
  facet normal 0 0 -1
    outer loop
      vertex 0.825001 29.175 0
      vertex 14.25 24.75 0
      vertex 0.825001 0.825 0
    endloop
  endfacet
  facet normal 0 0 -1
    outer loop
      vertex 14.25 24.75 0
      vertex 0.825001 29.175 0
      vertex 14.25 29.175 0
    endloop
  endfacet
  facet normal 0 -1 0
    outer loop
      vertex 6.22533e-07 0 0.825
      vertex 11.1202 0 2.475
      vertex 0 0 2.475
    endloop
  endfacet
  facet normal 0 -1 -0
    outer loop
      vertex 11.1202 0 2.475
      vertex 6.22533e-07 0 0.825
      vertex 18.8797 0 2.475
    endloop
  endfacet
  facet normal 0 -1 0
    outer loop
      vertex 6.22533e-07 0 0.825
      vertex 0 0 2.475
      vertex 0 0 0.825
    endloop
  endfacet
  facet normal 0 -1 0
    outer loop
      vertex 30 0 0.825
      vertex 18.8797 0 2.475
      vertex 6.22533e-07 0 0.825
    endloop
  endfacet
  facet normal 0 -1 0
    outer loop
      vertex 18.8797 0 2.475
      vertex 30 0 0.825
      vertex 30 0 2.475
    endloop
  endfacet
  facet normal 1 -0 0
    outer loop
      vertex 26.7 3.3 6
      vertex 26.7 7.82025 2.475
      vertex 26.7 7.82025 6
    endloop
  endfacet
  facet normal 1 0 0
    outer loop
      vertex 26.7 7.82025 2.475
      vertex 26.7 3.3 6
      vertex 26.7 3.3 2.475
    endloop
  endfacet
  facet normal 1 -0 0
    outer loop
      vertex 26.7 22.1797 6
      vertex 26.7 26.65 2.475
      vertex 26.7 26.65 6
    endloop
  endfacet
  facet normal 1 0 0
    outer loop
      vertex 26.7 26.65 2.475
      vertex 26.7 22.1797 6
      vertex 26.7 22.1797 2.475
    endloop
  endfacet
  facet normal 0 0 1
    outer loop
      vertex 3.25 3.3 6
      vertex 7.82025 3.3 6
      vertex 3.25 7.87025 6
    endloop
  endfacet
  facet normal 0 0 1
    outer loop
      vertex 22.1797 3.3 6
      vertex 26.7 3.3 6
      vertex 26.7 7.82025 6
    endloop
  endfacet
  facet normal 0 0 1
    outer loop
      vertex 3.25 22.1297 6
      vertex 7.77025 26.65 6
      vertex 3.25 26.65 6
    endloop
  endfacet
  facet normal -0 0 1
    outer loop
      vertex 22.2298 26.65 6
      vertex 26.7 22.1797 6
      vertex 26.7 26.65 6
    endloop
  endfacet
  facet normal -1 0 0
    outer loop
      vertex 3.25 3.3 2.475
      vertex 3.25 7.87025 6
      vertex 3.25 7.87025 2.475
    endloop
  endfacet
  facet normal -1 -0 0
    outer loop
      vertex 3.25 7.87025 6
      vertex 3.25 3.3 2.475
      vertex 3.25 3.3 6
    endloop
  endfacet
  facet normal -1 0 0
    outer loop
      vertex 3.25 22.1297 2.475
      vertex 3.25 26.65 6
      vertex 3.25 26.65 2.475
    endloop
  endfacet
  facet normal -1 -0 0
    outer loop
      vertex 3.25 26.65 6
      vertex 3.25 22.1297 2.475
      vertex 3.25 22.1297 6
    endloop
  endfacet
  facet normal 0 -1 0
    outer loop
      vertex 3.25 3.3 2.475
      vertex 7.82025 3.3 6
      vertex 3.25 3.3 6
    endloop
  endfacet
  facet normal 0 -1 -0
    outer loop
      vertex 7.82025 3.3 6
      vertex 3.25 3.3 2.475
      vertex 7.82025 3.3 2.475
    endloop
  endfacet
  facet normal 0 -1 0
    outer loop
      vertex 22.1797 3.3 2.475
      vertex 26.7 3.3 6
      vertex 22.1797 3.3 6
    endloop
  endfacet
  facet normal 0 -1 -0
    outer loop
      vertex 26.7 3.3 6
      vertex 22.1797 3.3 2.475
      vertex 26.7 3.3 2.475
    endloop
  endfacet
  facet normal 0 1 -0
    outer loop
      vertex 7.77025 26.65 2.475
      vertex 3.25 26.65 6
      vertex 7.77025 26.65 6
    endloop
  endfacet
  facet normal 0 1 0
    outer loop
      vertex 3.25 26.65 6
      vertex 7.77025 26.65 2.475
      vertex 3.25 26.65 2.475
    endloop
  endfacet
  facet normal 0 1 -0
    outer loop
      vertex 26.7 26.65 2.475
      vertex 22.2298 26.65 6
      vertex 26.7 26.65 6
    endloop
  endfacet
  facet normal 0 1 0
    outer loop
      vertex 22.2298 26.65 6
      vertex 26.7 26.65 2.475
      vertex 22.2298 26.65 2.475
    endloop
  endfacet
  facet normal 0.707111 -0.707103 0
    outer loop
      vertex 3.25 22.1297 6
      vertex 7.77025 26.65 2.475
      vertex 7.77025 26.65 6
    endloop
  endfacet
  facet normal 0.707111 -0.707103 0
    outer loop
      vertex 7.77025 26.65 2.475
      vertex 3.25 22.1297 6
      vertex 3.25 22.1297 2.475
    endloop
  endfacet
  facet normal -0.707115 -0.707099 0
    outer loop
      vertex 26.7 22.1797 2.475
      vertex 22.2298 26.65 6
      vertex 22.2298 26.65 2.475
    endloop
  endfacet
  facet normal -0.707115 -0.707099 0
    outer loop
      vertex 22.2298 26.65 6
      vertex 26.7 22.1797 2.475
      vertex 26.7 22.1797 6
    endloop
  endfacet
  facet normal -0.707103 0.707111 0
    outer loop
      vertex 26.7 7.82025 2.475
      vertex 22.1797 3.3 6
      vertex 26.7 7.82025 6
    endloop
  endfacet
  facet normal -0.707103 0.707111 0
    outer loop
      vertex 22.1797 3.3 6
      vertex 26.7 7.82025 2.475
      vertex 22.1797 3.3 2.475
    endloop
  endfacet
  facet normal 0.707107 0.707107 0
    outer loop
      vertex 7.82025 3.3 6
      vertex 3.25 7.87025 2.475
      vertex 3.25 7.87025 6
    endloop
  endfacet
  facet normal 0.707107 0.707107 0
    outer loop
      vertex 3.25 7.87025 2.475
      vertex 7.82025 3.3 6
      vertex 7.82025 3.3 2.475
    endloop
  endfacet
  facet normal 0 -0.707107 -0.707107
    outer loop
      vertex 6.22533e-07 0 0.825
      vertex 14.25 0.135 0.69
      vertex 30 0 0.825
    endloop
  endfacet
  facet normal 0 -0.707107 -0.707107
    outer loop
      vertex 0.825001 0.825 0
      vertex 14.25 0.135 0.69
      vertex 6.22533e-07 0 0.825
    endloop
  endfacet
  facet normal 0 -0.707107 -0.707107
    outer loop
      vertex 14.25 0.135 0.69
      vertex 0.825001 0.825 0
      vertex 14.25 0.825 0
    endloop
  endfacet
  facet normal -0 -0.707107 -0.707107
    outer loop
      vertex 15.75 0.135 0.69
      vertex 30 0 0.825
      vertex 14.25 0.135 0.69
    endloop
  endfacet
  facet normal -0 -0.707107 -0.707107
    outer loop
      vertex 29.175 0.825 0
      vertex 15.75 0.135 0.69
      vertex 15.75 0.825 0
    endloop
  endfacet
  facet normal 0 -0.707107 -0.707107
    outer loop
      vertex 15.75 0.135 0.69
      vertex 29.175 0.825 0
      vertex 30 0 0.825
    endloop
  endfacet
  facet normal 0.707107 0 -0.707107
    outer loop
      vertex 30 0 0.825
      vertex 29.865 14.25 0.69
      vertex 30 30 0.825
    endloop
  endfacet
  facet normal 0.707107 8.08987e-17 -0.707107
    outer loop
      vertex 29.175 0.825 0
      vertex 29.865 14.25 0.69
      vertex 30 0 0.825
    endloop
  endfacet
  facet normal 0.707107 0 -0.707107
    outer loop
      vertex 29.865 14.25 0.69
      vertex 29.175 0.825 0
      vertex 29.175 14.25 0
    endloop
  endfacet
  facet normal 0.707107 0 -0.707107
    outer loop
      vertex 29.865 15.75 0.69
      vertex 30 30 0.825
      vertex 29.865 14.25 0.69
    endloop
  endfacet
  facet normal 0.707107 0 -0.707107
    outer loop
      vertex 29.175 29.175 0
      vertex 29.865 15.75 0.69
      vertex 29.175 15.75 0
    endloop
  endfacet
  facet normal 0.707107 -8.25841e-17 -0.707107
    outer loop
      vertex 29.865 15.75 0.69
      vertex 29.175 29.175 0
      vertex 30 30 0.825
    endloop
  endfacet
  facet normal 0 -0.707107 -0.707107
    outer loop
      vertex 0 0 0.825
      vertex 0.825001 0.825 0
      vertex 6.22533e-07 0 0.825
    endloop
  endfacet
  facet normal -0.707106 0 -0.707107
    outer loop
      vertex 0.825001 0.825 0
      vertex 0 0 0.825
      vertex 0.825001 29.175 0
    endloop
  endfacet
  facet normal -0.707106 0 -0.707107
    outer loop
      vertex 0.825001 29.175 0
      vertex 0 0 0.825
      vertex 0 30 0.825
    endloop
  endfacet
  facet normal 0 0.707107 -0.707107
    outer loop
      vertex 14.25 29.175 0
      vertex 0.825001 29.175 0
      vertex 14.25 29.865 0.69
    endloop
  endfacet
  facet normal 0 0.707107 -0.707107
    outer loop
      vertex 15.75 29.865 0.69
      vertex 29.175 29.175 0
      vertex 15.75 29.175 0
    endloop
  endfacet
  facet normal -8.08987e-17 0.707107 -0.707107
    outer loop
      vertex 29.175 29.175 0
      vertex 15.75 29.865 0.69
      vertex 30 30 0.825
    endloop
  endfacet
  facet normal 0 0.707107 -0.707107
    outer loop
      vertex 14.25 29.865 0.69
      vertex 30 30 0.825
      vertex 15.75 29.865 0.69
    endloop
  endfacet
  facet normal 0 0.707107 -0.707107
    outer loop
      vertex 14.25 29.865 0.69
      vertex 0 30 0.825
      vertex 30 30 0.825
    endloop
  endfacet
  facet normal 8.34268e-17 0.707107 -0.707107
    outer loop
      vertex 0 30 0.825
      vertex 14.25 29.865 0.69
      vertex 0.825001 29.175 0
    endloop
  endfacet
  facet normal 0.86598 -0.500079 0
    outer loop
      vertex 14.625 24.3505 0.69
      vertex 14.8557 24.75 0
      vertex 14.8557 24.75 0.69
    endloop
  endfacet
  facet normal 0.86598 -0.500079 0
    outer loop
      vertex 14.8557 24.75 0
      vertex 14.625 24.3505 0.69
      vertex 14.625 24.3505 0
    endloop
  endfacet
  facet normal 0 0 -1
    outer loop
      vertex 14.25 0.135 0.69
      vertex 15.75 4.56699 0.69
      vertex 15.75 0.135 0.69
    endloop
  endfacet
  facet normal 0 0 -1
    outer loop
      vertex 14.25 5 0.69
      vertex 15.75 4.56699 0.69
      vertex 14.25 0.135 0.69
    endloop
  endfacet
  facet normal 0 0 -1
    outer loop
      vertex 15.75 4.56699 0.69
      vertex 14.25 5 0.69
      vertex 15 5 0.69
    endloop
  endfacet
  facet normal 0 0 -1
    outer loop
      vertex 24.7428 18.375 0.69
      vertex 24.875 18.2013 0.69
      vertex 24.851 18.1875 0.69
    endloop
  endfacet
  facet normal 0 0 -1
    outer loop
      vertex 24.875 18.2013 0.69
      vertex 24.7428 18.375 0.69
      vertex 24.875 21.146 0.69
    endloop
  endfacet
  facet normal 0 0 -1
    outer loop
      vertex 23.1268 21.174 0.69
      vertex 24.875 21.146 0.69
      vertex 24.7428 18.375 0.69
    endloop
  endfacet
  facet normal 0 0 -1
    outer loop
      vertex 24.875 21.146 0.69
      vertex 23.1268 21.174 0.69
      vertex 23.9001 22.8346 0.69
    endloop
  endfacet
  facet normal 0 0 -1
    outer loop
      vertex 24.7428 18.375 0.69
      vertex 22.3768 19.875 0.69
      vertex 23.1268 21.174 0.69
    endloop
  endfacet
  facet normal 0 0 -1
    outer loop
      vertex 21.3253 18.375 0.69
      vertex 22.3768 19.875 0.69
      vertex 24.7428 18.375 0.69
    endloop
  endfacet
  facet normal -0 0 -1
    outer loop
      vertex 22.3768 19.875 0.69
      vertex 21.3253 18.375 0.69
      vertex 21.3253 19.875 0.69
    endloop
  endfacet
  facet normal 0 0 -1
    outer loop
      vertex 14.625 5.64952 0.69
      vertex 24.875 9.83531 0.69
      vertex 15.75 4.56699 0.69
    endloop
  endfacet
  facet normal 0 0 -1
    outer loop
      vertex 14.625 5.64952 0.69
      vertex 15.75 4.56699 0.69
      vertex 15 5 0.69
    endloop
  endfacet
  facet normal -0 0 -1
    outer loop
      vertex 24.875 9.83531 0.69
      vertex 14.625 5.64952 0.69
      vertex 24.875 11.5674 0.69
    endloop
  endfacet
  facet normal 0 0 -1
    outer loop
      vertex 24.875 11.5674 0.69
      vertex 26.375 14.25 0.69
      vertex 26.375 8.75 0.69
    endloop
  endfacet
  facet normal 0 0 -1
    outer loop
      vertex 24.875 18.2013 0.69
      vertex 26.375 14.25 0.69
      vertex 24.875 11.5674 0.69
    endloop
  endfacet
  facet normal 0 0 -1
    outer loop
      vertex 24.875 9.83531 0.69
      vertex 26.375 8.75 0.69
      vertex 24.875 8.75 0.69
    endloop
  endfacet
  facet normal 0 0 -1
    outer loop
      vertex 24.875 11.5674 0.69
      vertex 26.375 8.75 0.69
      vertex 24.875 9.83531 0.69
    endloop
  endfacet
  facet normal 0 0 -1
    outer loop
      vertex 26.375 14.25 0.69
      vertex 24.875 18.2013 0.69
      vertex 26.375 15.75 0.69
    endloop
  endfacet
  facet normal 0 0 -1
    outer loop
      vertex 26.375 15.75 0.69
      vertex 24.875 18.2013 0.69
      vertex 26.375 21.25 0.69
    endloop
  endfacet
  facet normal 0 0 -1
    outer loop
      vertex 24.875 21.146 0.69
      vertex 26.375 21.25 0.69
      vertex 24.875 18.2013 0.69
    endloop
  endfacet
  facet normal -0 0 -1
    outer loop
      vertex 26.375 21.25 0.69
      vertex 24.875 21.146 0.69
      vertex 24.875 21.25 0.69
    endloop
  endfacet
  facet normal 0 0 -1
    outer loop
      vertex 26.375 14.25 0.69
      vertex 29.865 15.75 0.69
      vertex 29.865 14.25 0.69
    endloop
  endfacet
  facet normal -0 0 -1
    outer loop
      vertex 29.865 15.75 0.69
      vertex 26.375 14.25 0.69
      vertex 26.375 15.75 0.69
    endloop
  endfacet
  facet normal 0 0 -1
    outer loop
      vertex 23.9001 22.8346 0.69
      vertex 23.1268 21.174 0.69
      vertex 22.601 22.0846 0.69
    endloop
  endfacet
  facet normal 0 0 -1
    outer loop
      vertex 22.3768 19.875 0.69
      vertex 15.75 25.433 0.69
      vertex 23.1268 21.174 0.69
    endloop
  endfacet
  facet normal 0 0 -1
    outer loop
      vertex 14.25 24.75 0.69
      vertex 15.75 25.433 0.69
      vertex 14.8557 24.75 0.69
    endloop
  endfacet
  facet normal 0 0 -1
    outer loop
      vertex 14.625 24.3505 0.69
      vertex 15.75 25.433 0.69
      vertex 22.3768 19.875 0.69
    endloop
  endfacet
  facet normal 0 0 -1
    outer loop
      vertex 15.75 25.433 0.69
      vertex 14.625 24.3505 0.69
      vertex 14.8557 24.75 0.69
    endloop
  endfacet
  facet normal -0 0 -1
    outer loop
      vertex 15.75 25.433 0.69
      vertex 14.25 24.75 0.69
      vertex 14.25 29.865 0.69
    endloop
  endfacet
  facet normal 0 0 -1
    outer loop
      vertex 15.75 25.433 0.69
      vertex 14.25 29.865 0.69
      vertex 15.75 29.865 0.69
    endloop
  endfacet
  facet normal -0.5 -0.866025 0
    outer loop
      vertex 15.75 25.433 0
      vertex 23.1268 21.174 0.69
      vertex 15.75 25.433 0.69
    endloop
  endfacet
  facet normal -0.5 -0.866025 -0
    outer loop
      vertex 23.1268 21.174 0.69
      vertex 15.75 25.433 0
      vertex 23.1268 21.174 0
    endloop
  endfacet
  facet normal 0.5 0.866026 -0
    outer loop
      vertex 22.3768 19.875 0
      vertex 14.625 24.3505 0.69
      vertex 22.3768 19.875 0.69
    endloop
  endfacet
  facet normal 0.5 0.866026 0
    outer loop
      vertex 14.625 24.3505 0.69
      vertex 22.3768 19.875 0
      vertex 14.625 24.3505 0
    endloop
  endfacet
  facet normal 0.499982 -0.866036 0
    outer loop
      vertex 22.601 22.0846 0
      vertex 23.9001 22.8346 0.69
      vertex 22.601 22.0846 0.69
    endloop
  endfacet
  facet normal 0.499982 -0.866036 0
    outer loop
      vertex 23.9001 22.8346 0.69
      vertex 22.601 22.0846 0
      vertex 23.9001 22.8346 0
    endloop
  endfacet
  facet normal -0.866028 -0.499995 0
    outer loop
      vertex 24.875 21.146 0
      vertex 23.9001 22.8346 0.69
      vertex 23.9001 22.8346 0
    endloop
  endfacet
  facet normal -0.866028 -0.499995 0
    outer loop
      vertex 23.9001 22.8346 0.69
      vertex 24.875 21.146 0
      vertex 24.875 21.146 0.69
    endloop
  endfacet
  facet normal -0.498471 0.866906 0
    outer loop
      vertex 24.875 18.2013 0
      vertex 24.851 18.1875 0.69
      vertex 24.875 18.2013 0.69
    endloop
  endfacet
  facet normal -0.498471 0.866906 0
    outer loop
      vertex 24.851 18.1875 0.69
      vertex 24.875 18.2013 0
      vertex 24.851 18.1875 0
    endloop
  endfacet
  facet normal 0.865999 0.500046 0
    outer loop
      vertex 23.1268 21.174 0.69
      vertex 22.601 22.0846 0
      vertex 22.601 22.0846 0.69
    endloop
  endfacet
  facet normal 0.865999 0.500046 0
    outer loop
      vertex 22.601 22.0846 0
      vertex 23.1268 21.174 0.69
      vertex 23.1268 21.174 0
    endloop
  endfacet
  facet normal 0.866132 0.499816 0
    outer loop
      vertex 24.851 18.1875 0.69
      vertex 24.7428 18.375 0
      vertex 24.7428 18.375 0.69
    endloop
  endfacet
  facet normal 0.866132 0.499816 0
    outer loop
      vertex 24.7428 18.375 0
      vertex 24.851 18.1875 0.69
      vertex 24.851 18.1875 0
    endloop
  endfacet
  facet normal 1 -0 0
    outer loop
      vertex 21.3253 18.375 0.69
      vertex 21.3253 19.875 0
      vertex 21.3253 19.875 0.69
    endloop
  endfacet
  facet normal 1 0 0
    outer loop
      vertex 21.3253 19.875 0
      vertex 21.3253 18.375 0.69
      vertex 21.3253 18.375 0
    endloop
  endfacet
  facet normal 0 -1 0
    outer loop
      vertex 21.3253 19.875 0
      vertex 22.3768 19.875 0.69
      vertex 21.3253 19.875 0.69
    endloop
  endfacet
  facet normal 0 -1 -0
    outer loop
      vertex 22.3768 19.875 0.69
      vertex 21.3253 19.875 0
      vertex 22.3768 19.875 0
    endloop
  endfacet
  facet normal 0 1 -0
    outer loop
      vertex 24.7428 18.375 0
      vertex 21.3253 18.375 0.69
      vertex 24.7428 18.375 0.69
    endloop
  endfacet
  facet normal 0 1 0
    outer loop
      vertex 21.3253 18.375 0.69
      vertex 24.7428 18.375 0
      vertex 21.3253 18.375 0
    endloop
  endfacet
  facet normal -1 0 0
    outer loop
      vertex 26.375 15.75 0
      vertex 26.375 21.25 0.69
      vertex 26.375 21.25 0
    endloop
  endfacet
  facet normal -1 -0 0
    outer loop
      vertex 26.375 21.25 0.69
      vertex 26.375 15.75 0
      vertex 26.375 15.75 0.69
    endloop
  endfacet
  facet normal -1 0 0
    outer loop
      vertex 26.375 8.75 0
      vertex 26.375 14.25 0.69
      vertex 26.375 14.25 0
    endloop
  endfacet
  facet normal -1 -0 0
    outer loop
      vertex 26.375 14.25 0.69
      vertex 26.375 8.75 0
      vertex 26.375 8.75 0.69
    endloop
  endfacet
  facet normal 1 -0 0
    outer loop
      vertex 24.875 21.146 0.69
      vertex 24.875 21.25 0
      vertex 24.875 21.25 0.69
    endloop
  endfacet
  facet normal 1 0 0
    outer loop
      vertex 24.875 21.25 0
      vertex 24.875 21.146 0.69
      vertex 24.875 21.146 0
    endloop
  endfacet
  facet normal 1 -0 0
    outer loop
      vertex 24.875 8.75 0.69
      vertex 24.875 9.83531 0
      vertex 24.875 9.83531 0.69
    endloop
  endfacet
  facet normal 1 0 0
    outer loop
      vertex 24.875 9.83531 0
      vertex 24.875 8.75 0.69
      vertex 24.875 8.75 0
    endloop
  endfacet
  facet normal 1 -0 0
    outer loop
      vertex 24.875 11.5674 0.69
      vertex 24.875 18.2013 0
      vertex 24.875 18.2013 0.69
    endloop
  endfacet
  facet normal 1 0 0
    outer loop
      vertex 24.875 18.2013 0
      vertex 24.875 11.5674 0.69
      vertex 24.875 11.5674 0
    endloop
  endfacet
  facet normal 0 1 -0
    outer loop
      vertex 26.375 8.75 0
      vertex 24.875 8.75 0.69
      vertex 26.375 8.75 0.69
    endloop
  endfacet
  facet normal 0 1 0
    outer loop
      vertex 24.875 8.75 0.69
      vertex 26.375 8.75 0
      vertex 24.875 8.75 0
    endloop
  endfacet
  facet normal 0 -1 0
    outer loop
      vertex 24.875 21.25 0
      vertex 26.375 21.25 0.69
      vertex 24.875 21.25 0.69
    endloop
  endfacet
  facet normal 0 -1 -0
    outer loop
      vertex 26.375 21.25 0.69
      vertex 24.875 21.25 0
      vertex 26.375 21.25 0
    endloop
  endfacet
  facet normal -0.5 0.866025 0
    outer loop
      vertex 24.875 9.83531 0
      vertex 15.75 4.56699 0.69
      vertex 24.875 9.83531 0.69
    endloop
  endfacet
  facet normal -0.5 0.866025 0
    outer loop
      vertex 15.75 4.56699 0.69
      vertex 24.875 9.83531 0
      vertex 15.75 4.56699 0
    endloop
  endfacet
  facet normal 0.866026 0.499999 0
    outer loop
      vertex 15 5 0.69
      vertex 14.625 5.64952 0
      vertex 14.625 5.64952 0.69
    endloop
  endfacet
  facet normal 0.866026 0.499999 0
    outer loop
      vertex 14.625 5.64952 0
      vertex 15 5 0.69
      vertex 15 5 0
    endloop
  endfacet
  facet normal 0.500003 -0.866024 0
    outer loop
      vertex 14.625 5.64952 0
      vertex 24.875 11.5674 0.69
      vertex 14.625 5.64952 0.69
    endloop
  endfacet
  facet normal 0.500003 -0.866024 0
    outer loop
      vertex 24.875 11.5674 0.69
      vertex 14.625 5.64952 0
      vertex 24.875 11.5674 0
    endloop
  endfacet
  facet normal 0 1 -0
    outer loop
      vertex 29.175 14.25 0
      vertex 26.375 14.25 0.69
      vertex 29.865 14.25 0.69
    endloop
  endfacet
  facet normal 0 1 0
    outer loop
      vertex 26.375 14.25 0.69
      vertex 29.175 14.25 0
      vertex 26.375 14.25 0
    endloop
  endfacet
  facet normal 0 -1 0
    outer loop
      vertex 29.175 15.75 0
      vertex 26.375 15.75 0.69
      vertex 26.375 15.75 0
    endloop
  endfacet
  facet normal 0 -1 0
    outer loop
      vertex 26.375 15.75 0.69
      vertex 29.175 15.75 0
      vertex 29.865 15.75 0.69
    endloop
  endfacet
  facet normal -1 0 0
    outer loop
      vertex 15.75 25.433 0.69
      vertex 15.75 29.175 0
      vertex 15.75 25.433 0
    endloop
  endfacet
  facet normal -1 0 0
    outer loop
      vertex 15.75 29.175 0
      vertex 15.75 25.433 0.69
      vertex 15.75 29.865 0.69
    endloop
  endfacet
  facet normal 1 -0 0
    outer loop
      vertex 14.25 24.75 0.69
      vertex 14.25 29.175 0
      vertex 14.25 29.865 0.69
    endloop
  endfacet
  facet normal 1 0 0
    outer loop
      vertex 14.25 29.175 0
      vertex 14.25 24.75 0.69
      vertex 14.25 24.75 0
    endloop
  endfacet
  facet normal 0 1 -0
    outer loop
      vertex 14.8557 24.75 0
      vertex 14.25 24.75 0.69
      vertex 14.8557 24.75 0.69
    endloop
  endfacet
  facet normal 0 1 0
    outer loop
      vertex 14.25 24.75 0.69
      vertex 14.8557 24.75 0
      vertex 14.25 24.75 0
    endloop
  endfacet
  facet normal -1 0 0
    outer loop
      vertex 15.75 0.825 0
      vertex 15.75 4.56699 0.69
      vertex 15.75 4.56699 0
    endloop
  endfacet
  facet normal -1 -0 0
    outer loop
      vertex 15.75 4.56699 0.69
      vertex 15.75 0.825 0
      vertex 15.75 0.135 0.69
    endloop
  endfacet
  facet normal 1 0 0
    outer loop
      vertex 14.25 5 0.69
      vertex 14.25 0.825 0
      vertex 14.25 5 0
    endloop
  endfacet
  facet normal 1 0 -0
    outer loop
      vertex 14.25 0.825 0
      vertex 14.25 5 0.69
      vertex 14.25 0.135 0.69
    endloop
  endfacet
  facet normal 0 -1 0
    outer loop
      vertex 14.25 5 0
      vertex 15 5 0.69
      vertex 14.25 5 0.69
    endloop
  endfacet
  facet normal 0 -1 -0
    outer loop
      vertex 15 5 0.69
      vertex 14.25 5 0
      vertex 15 5 0
    endloop
  endfacet
endsolid OpenSCAD_Model
