solid OpenSCAD_Model
  facet normal -1 0 0
    outer loop
      vertex 0 30 0.825
      vertex 0 18.8797 2.475
      vertex 0 30 2.475
    endloop
  endfacet
  facet normal -1 0 0
    outer loop
      vertex 0 30 0.825
      vertex 0 11.1202 2.475
      vertex 0 18.8797 2.475
    endloop
  endfacet
  facet normal -1 0 0
    outer loop
      vertex 0 0 0.825
      vertex 0 11.1202 2.475
      vertex 0 30 0.825
    endloop
  endfacet
  facet normal -1 -0 0
    outer loop
      vertex 0 11.1202 2.475
      vertex 0 0 0.825
      vertex 0 0 2.475
    endloop
  endfacet
  facet normal -0 0 1
    outer loop
      vertex 26.7 7.82025 2.475
      vertex 30 0 2.475
      vertex 30 11.1202 2.475
    endloop
  endfacet
  facet normal -0 0 1
    outer loop
      vertex 26.7 3.3 2.475
      vertex 30 0 2.475
      vertex 26.7 7.82025 2.475
    endloop
  endfacet
  facet normal -0 0 1
    outer loop
      vertex 22.1797 3.3 2.475
      vertex 30 0 2.475
      vertex 26.7 3.3 2.475
    endloop
  endfacet
  facet normal 0 0 1
    outer loop
      vertex 30 0 2.475
      vertex 22.1797 3.3 2.475
      vertex 18.8797 0 2.475
    endloop
  endfacet
  facet normal 0 0 1
    outer loop
      vertex 3.3 7.82025 2.475
      vertex 0 11.1202 2.475
      vertex 3.3 3.3 2.475
    endloop
  endfacet
  facet normal -0 0 1
    outer loop
      vertex 3.3 3.3 2.475
      vertex 11.1202 0 2.475
      vertex 7.82025 3.3 2.475
    endloop
  endfacet
  facet normal 0 0 1
    outer loop
      vertex 3.3 3.3 2.475
      vertex 0 0 2.475
      vertex 11.1202 0 2.475
    endloop
  endfacet
  facet normal 0 0 1
    outer loop
      vertex 0 0 2.475
      vertex 3.3 3.3 2.475
      vertex 0 11.1202 2.475
    endloop
  endfacet
  facet normal 0 0 1
    outer loop
      vertex 30 30 2.475
      vertex 26.7 26.7 2.475
      vertex 30 18.8797 2.475
    endloop
  endfacet
  facet normal 0 0 1
    outer loop
      vertex 30 30 2.475
      vertex 22.1798 26.7 2.475
      vertex 26.7 26.7 2.475
    endloop
  endfacet
  facet normal 0 -0 1
    outer loop
      vertex 22.1798 26.7 2.475
      vertex 30 30 2.475
      vertex 18.8797 30 2.475
    endloop
  endfacet
  facet normal 0 0 1
    outer loop
      vertex 30 18.8797 2.475
      vertex 26.7 26.7 2.475
      vertex 26.7 22.1798 2.475
    endloop
  endfacet
  facet normal 0 0 1
    outer loop
      vertex 11.1202 30 2.475
      vertex 3.3 26.7 2.475
      vertex 7.82025 26.7 2.475
    endloop
  endfacet
  facet normal -0 0 1
    outer loop
      vertex 0 30 2.475
      vertex 3.3 26.7 2.475
      vertex 11.1202 30 2.475
    endloop
  endfacet
  facet normal 0 0 1
    outer loop
      vertex 0 30 2.475
      vertex 3.3 22.1797 2.475
      vertex 3.3 26.7 2.475
    endloop
  endfacet
  facet normal 0 0 1
    outer loop
      vertex 3.3 22.1797 2.475
      vertex 0 30 2.475
      vertex 0 18.8797 2.475
    endloop
  endfacet
  facet normal 0 0 1
    outer loop
      vertex 26.7 22.1798 2.475
      vertex 30 11.1202 2.475
      vertex 30 18.8797 2.475
    endloop
  endfacet
  facet normal 0 0 1
    outer loop
      vertex 26.7 22.1798 2.475
      vertex 26.7 7.82025 2.475
      vertex 30 11.1202 2.475
    endloop
  endfacet
  facet normal 0 0 1
    outer loop
      vertex 22.1798 26.7 2.475
      vertex 26.7 7.82025 2.475
      vertex 26.7 22.1798 2.475
    endloop
  endfacet
  facet normal 0 0 1
    outer loop
      vertex 22.1798 26.7 2.475
      vertex 22.1797 3.3 2.475
      vertex 26.7 7.82025 2.475
    endloop
  endfacet
  facet normal 0 0 1
    outer loop
      vertex 7.82025 26.7 2.475
      vertex 22.1798 26.7 2.475
      vertex 18.8797 30 2.475
    endloop
  endfacet
  facet normal 0 0 1
    outer loop
      vertex 22.1798 26.7 2.475
      vertex 7.82025 26.7 2.475
      vertex 22.1797 3.3 2.475
    endloop
  endfacet
  facet normal 0 0 1
    outer loop
      vertex 7.82025 26.7 2.475
      vertex 18.8797 30 2.475
      vertex 11.1202 30 2.475
    endloop
  endfacet
  facet normal 0 0 1
    outer loop
      vertex 7.82025 3.3 2.475
      vertex 22.1797 3.3 2.475
      vertex 7.82025 26.7 2.475
    endloop
  endfacet
  facet normal 0 0 1
    outer loop
      vertex 18.8797 0 2.475
      vertex 7.82025 3.3 2.475
      vertex 11.1202 0 2.475
    endloop
  endfacet
  facet normal 0 0 1
    outer loop
      vertex 22.1797 3.3 2.475
      vertex 7.82025 3.3 2.475
      vertex 18.8797 0 2.475
    endloop
  endfacet
  facet normal -0 0 1
    outer loop
      vertex 3.3 22.1797 2.475
      vertex 7.82025 3.3 2.475
      vertex 7.82025 26.7 2.475
    endloop
  endfacet
  facet normal 0 0 1
    outer loop
      vertex 3.3 22.1797 2.475
      vertex 3.3 7.82025 2.475
      vertex 7.82025 3.3 2.475
    endloop
  endfacet
  facet normal -0 0 1
    outer loop
      vertex 0 18.8797 2.475
      vertex 3.3 7.82025 2.475
      vertex 3.3 22.1797 2.475
    endloop
  endfacet
  facet normal 0 0 1
    outer loop
      vertex 3.3 7.82025 2.475
      vertex 0 18.8797 2.475
      vertex 0 11.1202 2.475
    endloop
  endfacet
  facet normal 1 -0 0
    outer loop
      vertex 30 18.8797 2.475
      vertex 30 30 0.825
      vertex 30 30 2.475
    endloop
  endfacet
  facet normal 1 -0 0
    outer loop
      vertex 30 11.1202 2.475
      vertex 30 30 0.825
      vertex 30 18.8797 2.475
    endloop
  endfacet
  facet normal 1 0 0
    outer loop
      vertex 30 0 0.825
      vertex 30 11.1202 2.475
      vertex 30 0 2.475
    endloop
  endfacet
  facet normal 1 0 0
    outer loop
      vertex 30 11.1202 2.475
      vertex 30 0 0.825
      vertex 30 30 0.825
    endloop
  endfacet
  facet normal 0 1 -0
    outer loop
      vertex 30 30 0.825
      vertex 18.8797 30 2.475
      vertex 30 30 2.475
    endloop
  endfacet
  facet normal 0 1 0
    outer loop
      vertex 18.8797 30 2.475
      vertex 30 30 0.825
      vertex 11.1202 30 2.475
    endloop
  endfacet
  facet normal 0 1 0
    outer loop
      vertex 0 30 0.825
      vertex 11.1202 30 2.475
      vertex 30 30 0.825
    endloop
  endfacet
  facet normal 0 1 0
    outer loop
      vertex 11.1202 30 2.475
      vertex 0 30 0.825
      vertex 0 30 2.475
    endloop
  endfacet
  facet normal -0 0 -1
    outer loop
      vertex 9.775 15.5773 0
      vertex 9.64103 15.5 0
      vertex 9.775 20 0
    endloop
  endfacet
  facet normal 0 0 -1
    outer loop
      vertex 29.175 0.825 0
      vertex 27.9 14.5 0
      vertex 29.175 29.175 0
    endloop
  endfacet
  facet normal 0 0 -1
    outer loop
      vertex 29.175 0.825 0
      vertex 19.275 10 0
      vertex 27.9 14.5 0
    endloop
  endfacet
  facet normal 0 0 -1
    outer loop
      vertex 18.1853 9.56699 0
      vertex 19.275 10 0
      vertex 29.175 0.825 0
    endloop
  endfacet
  facet normal -0 0 -1
    outer loop
      vertex 19.275 10 0
      vertex 18.1853 9.56699 0
      vertex 18.4353 10 0
    endloop
  endfacet
  facet normal 0 0 -1
    outer loop
      vertex 0.825 0.825 0
      vertex 18.1853 9.56699 0
      vertex 29.175 0.825 0
    endloop
  endfacet
  facet normal -0 0 -1
    outer loop
      vertex 18.1853 9.56699 0
      vertex 0.825 0.825 0
      vertex 10.775 10 0
    endloop
  endfacet
  facet normal 0 0 -1
    outer loop
      vertex 9.775 10 0
      vertex 9.64103 14.5 0
      vertex 9.775 14.4227 0
    endloop
  endfacet
  facet normal 0 0 -1
    outer loop
      vertex 9.775 10 0
      vertex 1.65 14.5 0
      vertex 9.64103 14.5 0
    endloop
  endfacet
  facet normal -0 0 -1
    outer loop
      vertex 1.65 14.5 0
      vertex 0.825 0.825 0
      vertex 1.65 15.5 0
    endloop
  endfacet
  facet normal -0 0 -1
    outer loop
      vertex 9.775 10 0
      vertex 0.825 0.825 0
      vertex 1.65 14.5 0
    endloop
  endfacet
  facet normal -0 0 -1
    outer loop
      vertex 10.775 10 0
      vertex 0.825 0.825 0
      vertex 9.775 10 0
    endloop
  endfacet
  facet normal 0 0 -1
    outer loop
      vertex 27.9 15.5 0
      vertex 29.175 29.175 0
      vertex 27.9 14.5 0
    endloop
  endfacet
  facet normal 0 0 -1
    outer loop
      vertex 19.275 20 0
      vertex 27.9 15.5 0
      vertex 19.275 15.5 0
    endloop
  endfacet
  facet normal 0 0 -1
    outer loop
      vertex 27.9 15.5 0
      vertex 19.275 20 0
      vertex 29.175 29.175 0
    endloop
  endfacet
  facet normal 0 0 -1
    outer loop
      vertex 18.1853 20.433 0
      vertex 19.275 20 0
      vertex 18.4353 20 0
    endloop
  endfacet
  facet normal 0 0 -1
    outer loop
      vertex 19.275 20 0
      vertex 18.1853 20.433 0
      vertex 29.175 29.175 0
    endloop
  endfacet
  facet normal 0 0 -1
    outer loop
      vertex 10.775 20 0
      vertex 18.1853 20.433 0
      vertex 10.775 16.1547 0
    endloop
  endfacet
  facet normal 0 0 -1
    outer loop
      vertex 0.825 29.175 0
      vertex 18.1853 20.433 0
      vertex 10.775 20 0
    endloop
  endfacet
  facet normal 0 0 -1
    outer loop
      vertex 0.825 29.175 0
      vertex 10.775 20 0
      vertex 9.775 20 0
    endloop
  endfacet
  facet normal 0 0 -1
    outer loop
      vertex 1.65 15.5 0
      vertex 9.775 20 0
      vertex 9.64103 15.5 0
    endloop
  endfacet
  facet normal 0 0 -1
    outer loop
      vertex 18.1853 20.433 0
      vertex 0.825 29.175 0
      vertex 29.175 29.175 0
    endloop
  endfacet
  facet normal 0 0 -1
    outer loop
      vertex 1.65 15.5 0
      vertex 0.825 29.175 0
      vertex 9.775 20 0
    endloop
  endfacet
  facet normal 0 0 -1
    outer loop
      vertex 0.825 29.175 0
      vertex 1.65 15.5 0
      vertex 0.825 0.825 0
    endloop
  endfacet
  facet normal -0 0 -1
    outer loop
      vertex 27.9 14.5 0
      vertex 19.275 10 0
      vertex 19.275 14.5 0
    endloop
  endfacet
  facet normal 0 0 -1
    outer loop
      vertex 18.1853 9.56699 0
      vertex 10.775 10 0
      vertex 10.775 13.8453 0
    endloop
  endfacet
  facet normal 0 0 -1
    outer loop
      vertex 11.275 14.7113 0
      vertex 18.275 19.3301 0
      vertex 18.275 10.6699 0
    endloop
  endfacet
  facet normal 0 0 -1
    outer loop
      vertex 18.275 19.3301 0
      vertex 11.275 14.7113 0
      vertex 11.275 15.2887 0
    endloop
  endfacet
  facet normal 0 -1 0
    outer loop
      vertex 0 0 0.825
      vertex 11.1202 0 2.475
      vertex 0 0 2.475
    endloop
  endfacet
  facet normal 0 -1 -0
    outer loop
      vertex 11.1202 0 2.475
      vertex 0 0 0.825
      vertex 18.8797 0 2.475
    endloop
  endfacet
  facet normal 0 -1 0
    outer loop
      vertex 18.8797 0 2.475
      vertex 30 0 0.825
      vertex 30 0 2.475
    endloop
  endfacet
  facet normal 0 -1 0
    outer loop
      vertex 30 0 0.825
      vertex 18.8797 0 2.475
      vertex 0 0 0.825
    endloop
  endfacet
  facet normal -1 0 0
    outer loop
      vertex 3.3 3.3 2.475
      vertex 3.3 7.82025 6
      vertex 3.3 7.82025 2.475
    endloop
  endfacet
  facet normal -1 -0 0
    outer loop
      vertex 3.3 7.82025 6
      vertex 3.3 3.3 2.475
      vertex 3.3 3.3 6
    endloop
  endfacet
  facet normal -1 0 0
    outer loop
      vertex 3.3 22.1797 2.475
      vertex 3.3 26.7 6
      vertex 3.3 26.7 2.475
    endloop
  endfacet
  facet normal -1 -0 0
    outer loop
      vertex 3.3 26.7 6
      vertex 3.3 22.1797 2.475
      vertex 3.3 22.1797 6
    endloop
  endfacet
  facet normal 0 0 1
    outer loop
      vertex 26.7 7.82025 6
      vertex 22.1797 3.3 6
      vertex 26.7 3.3 6
    endloop
  endfacet
  facet normal 0 0 1
    outer loop
      vertex 3.3 7.82025 6
      vertex 3.3 3.3 6
      vertex 7.82025 3.3 6
    endloop
  endfacet
  facet normal 0 0 1
    outer loop
      vertex 26.7 26.7 6
      vertex 22.1798 26.7 6
      vertex 26.7 22.1798 6
    endloop
  endfacet
  facet normal -0 0 1
    outer loop
      vertex 3.3 26.7 6
      vertex 3.3 22.1797 6
      vertex 7.82025 26.7 6
    endloop
  endfacet
  facet normal 1 -0 0
    outer loop
      vertex 26.7 3.3 6
      vertex 26.7 7.82025 2.475
      vertex 26.7 7.82025 6
    endloop
  endfacet
  facet normal 1 0 0
    outer loop
      vertex 26.7 7.82025 2.475
      vertex 26.7 3.3 6
      vertex 26.7 3.3 2.475
    endloop
  endfacet
  facet normal 1 -0 0
    outer loop
      vertex 26.7 22.1798 6
      vertex 26.7 26.7 2.475
      vertex 26.7 26.7 6
    endloop
  endfacet
  facet normal 1 0 0
    outer loop
      vertex 26.7 26.7 2.475
      vertex 26.7 22.1798 6
      vertex 26.7 22.1798 2.475
    endloop
  endfacet
  facet normal 0 1 -0
    outer loop
      vertex 26.7 26.7 2.475
      vertex 22.1798 26.7 6
      vertex 26.7 26.7 6
    endloop
  endfacet
  facet normal 0 1 0
    outer loop
      vertex 22.1798 26.7 6
      vertex 26.7 26.7 2.475
      vertex 22.1798 26.7 2.475
    endloop
  endfacet
  facet normal 0 1 -0
    outer loop
      vertex 7.82025 26.7 2.475
      vertex 3.3 26.7 6
      vertex 7.82025 26.7 6
    endloop
  endfacet
  facet normal 0 1 0
    outer loop
      vertex 3.3 26.7 6
      vertex 7.82025 26.7 2.475
      vertex 3.3 26.7 2.475
    endloop
  endfacet
  facet normal 0 -1 0
    outer loop
      vertex 22.1797 3.3 2.475
      vertex 26.7 3.3 6
      vertex 22.1797 3.3 6
    endloop
  endfacet
  facet normal 0 -1 -0
    outer loop
      vertex 26.7 3.3 6
      vertex 22.1797 3.3 2.475
      vertex 26.7 3.3 2.475
    endloop
  endfacet
  facet normal 0 -1 0
    outer loop
      vertex 3.3 3.3 2.475
      vertex 7.82025 3.3 6
      vertex 3.3 3.3 6
    endloop
  endfacet
  facet normal 0 -1 -0
    outer loop
      vertex 7.82025 3.3 6
      vertex 3.3 3.3 2.475
      vertex 7.82025 3.3 2.475
    endloop
  endfacet
  facet normal -0.707107 -0.707107 0
    outer loop
      vertex 26.7 22.1798 2.475
      vertex 22.1798 26.7 6
      vertex 22.1798 26.7 2.475
    endloop
  endfacet
  facet normal -0.707107 -0.707107 0
    outer loop
      vertex 22.1798 26.7 6
      vertex 26.7 22.1798 2.475
      vertex 26.7 22.1798 6
    endloop
  endfacet
  facet normal 0.707107 0.707107 0
    outer loop
      vertex 7.82025 3.3 6
      vertex 3.3 7.82025 2.475
      vertex 3.3 7.82025 6
    endloop
  endfacet
  facet normal 0.707107 0.707107 0
    outer loop
      vertex 3.3 7.82025 2.475
      vertex 7.82025 3.3 6
      vertex 7.82025 3.3 2.475
    endloop
  endfacet
  facet normal -0.707103 0.707111 0
    outer loop
      vertex 26.7 7.82025 2.475
      vertex 22.1797 3.3 6
      vertex 26.7 7.82025 6
    endloop
  endfacet
  facet normal -0.707103 0.707111 0
    outer loop
      vertex 22.1797 3.3 6
      vertex 26.7 7.82025 2.475
      vertex 22.1797 3.3 2.475
    endloop
  endfacet
  facet normal 0.707111 -0.707103 0
    outer loop
      vertex 3.3 22.1797 6
      vertex 7.82025 26.7 2.475
      vertex 7.82025 26.7 6
    endloop
  endfacet
  facet normal 0.707111 -0.707103 0
    outer loop
      vertex 7.82025 26.7 2.475
      vertex 3.3 22.1797 6
      vertex 3.3 22.1797 2.475
    endloop
  endfacet
  facet normal 0 -0.707107 -0.707107
    outer loop
      vertex 0.825 0.825 0
      vertex 30 0 0.825
      vertex 0 0 0.825
    endloop
  endfacet
  facet normal 0 -0.707107 -0.707107
    outer loop
      vertex 30 0 0.825
      vertex 0.825 0.825 0
      vertex 29.175 0.825 0
    endloop
  endfacet
  facet normal -0.707107 0 -0.707107
    outer loop
      vertex 0.825 0.825 0
      vertex 0 30 0.825
      vertex 0.825 29.175 0
    endloop
  endfacet
  facet normal -0.707107 -0 -0.707107
    outer loop
      vertex 0 30 0.825
      vertex 0.825 0.825 0
      vertex 0 0 0.825
    endloop
  endfacet
  facet normal 0.707107 0 -0.707107
    outer loop
      vertex 29.175 0.825 0
      vertex 30 30 0.825
      vertex 30 0 0.825
    endloop
  endfacet
  facet normal 0.707107 0 -0.707107
    outer loop
      vertex 30 30 0.825
      vertex 29.175 0.825 0
      vertex 29.175 29.175 0
    endloop
  endfacet
  facet normal 0 0.707107 -0.707107
    outer loop
      vertex 0.825 29.175 0
      vertex 30 30 0.825
      vertex 29.175 29.175 0
    endloop
  endfacet
  facet normal 0 0.707107 -0.707107
    outer loop
      vertex 30 30 0.825
      vertex 0.825 29.175 0
      vertex 0 30 0.825
    endloop
  endfacet
  facet normal 1 -0 0
    outer loop
      vertex 1.65 14.5 0.49
      vertex 1.65 15.5 0
      vertex 1.65 15.5 0.49
    endloop
  endfacet
  facet normal 1 0 0
    outer loop
      vertex 1.65 15.5 0
      vertex 1.65 14.5 0.49
      vertex 1.65 14.5 0
    endloop
  endfacet
  facet normal 0 0 -1
    outer loop
      vertex 9.64103 14.5 0.49
      vertex 9.775 15.5773 0.49
      vertex 9.775 14.4227 0.49
    endloop
  endfacet
  facet normal 0 0 -1
    outer loop
      vertex 9.64103 14.5 0.49
      vertex 9.64103 15.5 0.49
      vertex 9.775 15.5773 0.49
    endloop
  endfacet
  facet normal 0 0 -1
    outer loop
      vertex 1.65 14.5 0.49
      vertex 9.64103 15.5 0.49
      vertex 9.64103 14.5 0.49
    endloop
  endfacet
  facet normal -0 0 -1
    outer loop
      vertex 9.64103 15.5 0.49
      vertex 1.65 14.5 0.49
      vertex 1.65 15.5 0.49
    endloop
  endfacet
  facet normal 0 0 -1
    outer loop
      vertex 9.775 10 0.49
      vertex 10.775 13.8453 0.49
      vertex 10.775 10 0.49
    endloop
  endfacet
  facet normal 0 0 -1
    outer loop
      vertex 10.775 13.8453 0.49
      vertex 9.775 14.4227 0.49
      vertex 10.775 16.1547 0.49
    endloop
  endfacet
  facet normal -0 0 -1
    outer loop
      vertex 10.775 13.8453 0.49
      vertex 9.775 10 0.49
      vertex 9.775 14.4227 0.49
    endloop
  endfacet
  facet normal 0 0 -1
    outer loop
      vertex 9.775 15.5773 0.49
      vertex 10.775 16.1547 0.49
      vertex 9.775 14.4227 0.49
    endloop
  endfacet
  facet normal 0 0 -1
    outer loop
      vertex 9.775 20 0.49
      vertex 10.775 16.1547 0.49
      vertex 9.775 15.5773 0.49
    endloop
  endfacet
  facet normal 0 0 -1
    outer loop
      vertex 10.775 16.1547 0.49
      vertex 9.775 20 0.49
      vertex 10.775 20 0.49
    endloop
  endfacet
  facet normal 0 0 -1
    outer loop
      vertex 18.275 10.6699 0.49
      vertex 19.275 14.5 0.49
      vertex 19.275 10 0.49
    endloop
  endfacet
  facet normal -0 0 -1
    outer loop
      vertex 19.275 14.5 0.49
      vertex 18.275 10.6699 0.49
      vertex 19.275 15.5 0.49
    endloop
  endfacet
  facet normal 0 0 -1
    outer loop
      vertex 18.275 10.6699 0.49
      vertex 19.275 10 0.49
      vertex 18.4353 10 0.49
    endloop
  endfacet
  facet normal 0 0 -1
    outer loop
      vertex 18.275 19.3301 0.49
      vertex 19.275 15.5 0.49
      vertex 18.275 10.6699 0.49
    endloop
  endfacet
  facet normal 0 0 -1
    outer loop
      vertex 19.275 15.5 0.49
      vertex 18.275 19.3301 0.49
      vertex 19.275 20 0.49
    endloop
  endfacet
  facet normal 0 0 -1
    outer loop
      vertex 18.1853 9.56699 0.49
      vertex 18.275 10.6699 0.49
      vertex 18.4353 10 0.49
    endloop
  endfacet
  facet normal 0 0 -1
    outer loop
      vertex 10.775 13.8453 0.49
      vertex 18.275 10.6699 0.49
      vertex 18.1853 9.56699 0.49
    endloop
  endfacet
  facet normal -0 0 -1
    outer loop
      vertex 11.275 14.7113 0.49
      vertex 10.775 13.8453 0.49
      vertex 11.275 15.2887 0.49
    endloop
  endfacet
  facet normal 0 0 -1
    outer loop
      vertex 18.275 10.6699 0.49
      vertex 10.775 13.8453 0.49
      vertex 11.275 14.7113 0.49
    endloop
  endfacet
  facet normal 0 0 -1
    outer loop
      vertex 19.275 14.5 0.49
      vertex 27.9 15.5 0.49
      vertex 27.9 14.5 0.49
    endloop
  endfacet
  facet normal -0 0 -1
    outer loop
      vertex 27.9 15.5 0.49
      vertex 19.275 14.5 0.49
      vertex 19.275 15.5 0.49
    endloop
  endfacet
  facet normal -0 0 -1
    outer loop
      vertex 19.275 20 0.49
      vertex 18.275 19.3301 0.49
      vertex 18.4353 20 0.49
    endloop
  endfacet
  facet normal 0 0 -1
    outer loop
      vertex 18.275 19.3301 0.49
      vertex 18.1853 20.433 0.49
      vertex 18.4353 20 0.49
    endloop
  endfacet
  facet normal 0 0 -1
    outer loop
      vertex 10.775 16.1547 0.49
      vertex 18.275 19.3301 0.49
      vertex 11.275 15.2887 0.49
    endloop
  endfacet
  facet normal -0 0 -1
    outer loop
      vertex 18.275 19.3301 0.49
      vertex 10.775 16.1547 0.49
      vertex 18.1853 20.433 0.49
    endloop
  endfacet
  facet normal 0 0 -1
    outer loop
      vertex 10.775 16.1547 0.49
      vertex 11.275 15.2887 0.49
      vertex 10.775 13.8453 0.49
    endloop
  endfacet
  facet normal -1 0 0
    outer loop
      vertex 11.275 14.7113 0
      vertex 11.275 15.2887 0.49
      vertex 11.275 15.2887 0
    endloop
  endfacet
  facet normal -1 -0 0
    outer loop
      vertex 11.275 15.2887 0.49
      vertex 11.275 14.7113 0
      vertex 11.275 14.7113 0.49
    endloop
  endfacet
  facet normal 0 1 -0
    outer loop
      vertex 9.64103 14.5 0
      vertex 1.65 14.5 0.49
      vertex 9.64103 14.5 0.49
    endloop
  endfacet
  facet normal 0 1 0
    outer loop
      vertex 1.65 14.5 0.49
      vertex 9.64103 14.5 0
      vertex 1.65 14.5 0
    endloop
  endfacet
  facet normal 0 -1 0
    outer loop
      vertex 1.65 15.5 0
      vertex 9.64103 15.5 0.49
      vertex 1.65 15.5 0.49
    endloop
  endfacet
  facet normal 0 -1 -0
    outer loop
      vertex 9.64103 15.5 0.49
      vertex 1.65 15.5 0
      vertex 9.64103 15.5 0
    endloop
  endfacet
  facet normal 1 -0 0
    outer loop
      vertex 18.275 10.6699 0.49
      vertex 18.275 19.3301 0
      vertex 18.275 19.3301 0.49
    endloop
  endfacet
  facet normal 1 0 0
    outer loop
      vertex 18.275 19.3301 0
      vertex 18.275 10.6699 0.49
      vertex 18.275 10.6699 0
    endloop
  endfacet
  facet normal -1 0 0
    outer loop
      vertex 27.9 14.5 0
      vertex 27.9 15.5 0.49
      vertex 27.9 15.5 0
    endloop
  endfacet
  facet normal -1 -0 0
    outer loop
      vertex 27.9 15.5 0.49
      vertex 27.9 14.5 0
      vertex 27.9 14.5 0.49
    endloop
  endfacet
  facet normal 0 1 -0
    outer loop
      vertex 27.9 14.5 0
      vertex 19.275 14.5 0.49
      vertex 27.9 14.5 0.49
    endloop
  endfacet
  facet normal 0 1 0
    outer loop
      vertex 19.275 14.5 0.49
      vertex 27.9 14.5 0
      vertex 19.275 14.5 0
    endloop
  endfacet
  facet normal 0 -1 0
    outer loop
      vertex 19.275 15.5 0
      vertex 27.9 15.5 0.49
      vertex 19.275 15.5 0.49
    endloop
  endfacet
  facet normal 0 -1 -0
    outer loop
      vertex 27.9 15.5 0.49
      vertex 19.275 15.5 0
      vertex 27.9 15.5 0
    endloop
  endfacet
  facet normal 1 -0 0
    outer loop
      vertex 9.775 10 0.49
      vertex 9.775 14.4227 0
      vertex 9.775 14.4227 0.49
    endloop
  endfacet
  facet normal 1 0 0
    outer loop
      vertex 9.775 14.4227 0
      vertex 9.775 10 0.49
      vertex 9.775 10 0
    endloop
  endfacet
  facet normal 1 -0 0
    outer loop
      vertex 9.775 15.5773 0.49
      vertex 9.775 20 0
      vertex 9.775 20 0.49
    endloop
  endfacet
  facet normal 1 0 0
    outer loop
      vertex 9.775 20 0
      vertex 9.775 15.5773 0.49
      vertex 9.775 15.5773 0
    endloop
  endfacet
  facet normal -1 0 0
    outer loop
      vertex 10.775 10 0
      vertex 10.775 13.8453 0.49
      vertex 10.775 13.8453 0
    endloop
  endfacet
  facet normal -1 -0 0
    outer loop
      vertex 10.775 13.8453 0.49
      vertex 10.775 10 0
      vertex 10.775 10 0.49
    endloop
  endfacet
  facet normal -1 0 0
    outer loop
      vertex 10.775 16.1547 0
      vertex 10.775 20 0.49
      vertex 10.775 20 0
    endloop
  endfacet
  facet normal -1 -0 0
    outer loop
      vertex 10.775 20 0.49
      vertex 10.775 16.1547 0
      vertex 10.775 16.1547 0.49
    endloop
  endfacet
  facet normal 0 1 -0
    outer loop
      vertex 10.775 10 0
      vertex 9.775 10 0.49
      vertex 10.775 10 0.49
    endloop
  endfacet
  facet normal 0 1 0
    outer loop
      vertex 9.775 10 0.49
      vertex 10.775 10 0
      vertex 9.775 10 0
    endloop
  endfacet
  facet normal 0 -1 0
    outer loop
      vertex 9.775 20 0
      vertex 10.775 20 0.49
      vertex 9.775 20 0.49
    endloop
  endfacet
  facet normal 0 -1 -0
    outer loop
      vertex 10.775 20 0.49
      vertex 9.775 20 0
      vertex 10.775 20 0
    endloop
  endfacet
  facet normal -1 0 0
    outer loop
      vertex 19.275 10 0
      vertex 19.275 14.5 0.49
      vertex 19.275 14.5 0
    endloop
  endfacet
  facet normal -1 -0 0
    outer loop
      vertex 19.275 14.5 0.49
      vertex 19.275 10 0
      vertex 19.275 10 0.49
    endloop
  endfacet
  facet normal -1 0 0
    outer loop
      vertex 19.275 15.5 0
      vertex 19.275 20 0.49
      vertex 19.275 20 0
    endloop
  endfacet
  facet normal -1 -0 0
    outer loop
      vertex 19.275 20 0.49
      vertex 19.275 15.5 0
      vertex 19.275 15.5 0.49
    endloop
  endfacet
  facet normal 0 -1 0
    outer loop
      vertex 18.4353 20 0
      vertex 19.275 20 0.49
      vertex 18.4353 20 0.49
    endloop
  endfacet
  facet normal 0 -1 -0
    outer loop
      vertex 19.275 20 0.49
      vertex 18.4353 20 0
      vertex 19.275 20 0
    endloop
  endfacet
  facet normal 0 1 -0
    outer loop
      vertex 19.275 10 0
      vertex 18.4353 10 0.49
      vertex 19.275 10 0.49
    endloop
  endfacet
  facet normal 0 1 0
    outer loop
      vertex 18.4353 10 0.49
      vertex 19.275 10 0
      vertex 18.4353 10 0
    endloop
  endfacet
  facet normal -0.866019 -0.500011 0
    outer loop
      vertex 18.4353 20 0
      vertex 18.1853 20.433 0.49
      vertex 18.1853 20.433 0
    endloop
  endfacet
  facet normal -0.866019 -0.500011 0
    outer loop
      vertex 18.1853 20.433 0.49
      vertex 18.4353 20 0
      vertex 18.4353 20 0.49
    endloop
  endfacet
  facet normal 0.499997 -0.866027 0
    outer loop
      vertex 10.775 16.1547 0
      vertex 18.1853 20.433 0.49
      vertex 10.775 16.1547 0.49
    endloop
  endfacet
  facet normal 0.499997 -0.866027 0
    outer loop
      vertex 18.1853 20.433 0.49
      vertex 10.775 16.1547 0
      vertex 18.1853 20.433 0
    endloop
  endfacet
  facet normal 0.499769 -0.866159 0
    outer loop
      vertex 9.64103 15.5 0
      vertex 9.775 15.5773 0.49
      vertex 9.64103 15.5 0.49
    endloop
  endfacet
  facet normal 0.499769 -0.866159 0
    outer loop
      vertex 9.775 15.5773 0.49
      vertex 9.64103 15.5 0
      vertex 9.775 15.5773 0
    endloop
  endfacet
  facet normal -0.499995 0.866028 0
    outer loop
      vertex 18.275 19.3301 0
      vertex 11.275 15.2887 0.49
      vertex 18.275 19.3301 0.49
    endloop
  endfacet
  facet normal -0.499995 0.866028 0
    outer loop
      vertex 11.275 15.2887 0.49
      vertex 18.275 19.3301 0
      vertex 11.275 15.2887 0
    endloop
  endfacet
  facet normal -0.866024 0.500002 0
    outer loop
      vertex 18.1853 9.56699 0
      vertex 18.4353 10 0.49
      vertex 18.4353 10 0
    endloop
  endfacet
  facet normal -0.866024 0.500002 0
    outer loop
      vertex 18.4353 10 0.49
      vertex 18.1853 9.56699 0
      vertex 18.1853 9.56699 0.49
    endloop
  endfacet
  facet normal -0.499995 -0.866028 0
    outer loop
      vertex 11.275 14.7113 0
      vertex 18.275 10.6699 0.49
      vertex 11.275 14.7113 0.49
    endloop
  endfacet
  facet normal -0.499995 -0.866028 -0
    outer loop
      vertex 18.275 10.6699 0.49
      vertex 11.275 14.7113 0
      vertex 18.275 10.6699 0
    endloop
  endfacet
  facet normal 0.499997 0.866027 -0
    outer loop
      vertex 18.1853 9.56699 0
      vertex 10.775 13.8453 0.49
      vertex 18.1853 9.56699 0.49
    endloop
  endfacet
  facet normal 0.499997 0.866027 0
    outer loop
      vertex 10.775 13.8453 0.49
      vertex 18.1853 9.56699 0
      vertex 10.775 13.8453 0
    endloop
  endfacet
  facet normal 0.499769 0.866159 -0
    outer loop
      vertex 9.775 14.4227 0
      vertex 9.64103 14.5 0.49
      vertex 9.775 14.4227 0.49
    endloop
  endfacet
  facet normal 0.499769 0.866159 0
    outer loop
      vertex 9.64103 14.5 0.49
      vertex 9.775 14.4227 0
      vertex 9.64103 14.5 0
    endloop
  endfacet
endsolid OpenSCAD_Model
