solid OpenSCAD_Model
  facet normal -1 0 0
    outer loop
      vertex 0 30 0.825
      vertex 0 18.8797 2.475
      vertex 0 30 2.475
    endloop
  endfacet
  facet normal -1 0 0
    outer loop
      vertex 0 30 0.825
      vertex 0 11.1202 2.475
      vertex 0 18.8797 2.475
    endloop
  endfacet
  facet normal -1 0 0
    outer loop
      vertex 0 0 0.825
      vertex 0 11.1202 2.475
      vertex 0 30 0.825
    endloop
  endfacet
  facet normal -1 -0 0
    outer loop
      vertex 0 11.1202 2.475
      vertex 0 0 0.825
      vertex 0 0 2.475
    endloop
  endfacet
  facet normal -0 0 1
    outer loop
      vertex 26.75 7.87025 2.475
      vertex 30 0 2.475
      vertex 30 11.1202 2.475
    endloop
  endfacet
  facet normal -0 0 1
    outer loop
      vertex 26.75 3.3 2.475
      vertex 30 0 2.475
      vertex 26.75 7.87025 2.475
    endloop
  endfacet
  facet normal -0 0 1
    outer loop
      vertex 22.1797 3.3 2.475
      vertex 30 0 2.475
      vertex 26.75 3.3 2.475
    endloop
  endfacet
  facet normal 0 0 1
    outer loop
      vertex 30 0 2.475
      vertex 22.1797 3.3 2.475
      vertex 18.8797 0 2.475
    endloop
  endfacet
  facet normal 0 0 1
    outer loop
      vertex 3.3 7.82025 2.475
      vertex 0 11.1202 2.475
      vertex 3.3 3.3 2.475
    endloop
  endfacet
  facet normal -0 0 1
    outer loop
      vertex 3.3 3.3 2.475
      vertex 11.1202 0 2.475
      vertex 7.82025 3.3 2.475
    endloop
  endfacet
  facet normal 0 0 1
    outer loop
      vertex 3.3 3.3 2.475
      vertex 0 0 2.475
      vertex 11.1202 0 2.475
    endloop
  endfacet
  facet normal 0 0 1
    outer loop
      vertex 0 0 2.475
      vertex 3.3 3.3 2.475
      vertex 0 11.1202 2.475
    endloop
  endfacet
  facet normal 0 0 1
    outer loop
      vertex 30 30 2.475
      vertex 26.75 26.65 2.475
      vertex 30 18.8797 2.475
    endloop
  endfacet
  facet normal 0 0 1
    outer loop
      vertex 30 30 2.475
      vertex 22.2298 26.65 2.475
      vertex 26.75 26.65 2.475
    endloop
  endfacet
  facet normal 0 -0 1
    outer loop
      vertex 22.2298 26.65 2.475
      vertex 30 30 2.475
      vertex 18.8797 30 2.475
    endloop
  endfacet
  facet normal 0 0 1
    outer loop
      vertex 30 18.8797 2.475
      vertex 26.75 26.65 2.475
      vertex 26.75 22.1297 2.475
    endloop
  endfacet
  facet normal 0 0 1
    outer loop
      vertex 11.1202 30 2.475
      vertex 3.3 26.65 2.475
      vertex 7.77025 26.65 2.475
    endloop
  endfacet
  facet normal -0 0 1
    outer loop
      vertex 0 30 2.475
      vertex 3.3 26.65 2.475
      vertex 11.1202 30 2.475
    endloop
  endfacet
  facet normal 0 0 1
    outer loop
      vertex 0 30 2.475
      vertex 3.3 22.1797 2.475
      vertex 3.3 26.65 2.475
    endloop
  endfacet
  facet normal 0 0 1
    outer loop
      vertex 3.3 22.1797 2.475
      vertex 0 30 2.475
      vertex 0 18.8797 2.475
    endloop
  endfacet
  facet normal 0 0 1
    outer loop
      vertex 26.75 22.1297 2.475
      vertex 30 11.1202 2.475
      vertex 30 18.8797 2.475
    endloop
  endfacet
  facet normal 0 0 1
    outer loop
      vertex 26.75 22.1297 2.475
      vertex 26.75 7.87025 2.475
      vertex 30 11.1202 2.475
    endloop
  endfacet
  facet normal 0 0 1
    outer loop
      vertex 22.2298 26.65 2.475
      vertex 26.75 7.87025 2.475
      vertex 26.75 22.1297 2.475
    endloop
  endfacet
  facet normal 0 0 1
    outer loop
      vertex 22.2298 26.65 2.475
      vertex 22.1797 3.3 2.475
      vertex 26.75 7.87025 2.475
    endloop
  endfacet
  facet normal 0 0 1
    outer loop
      vertex 7.77025 26.65 2.475
      vertex 22.2298 26.65 2.475
      vertex 18.8797 30 2.475
    endloop
  endfacet
  facet normal 0 0 1
    outer loop
      vertex 22.2298 26.65 2.475
      vertex 7.77025 26.65 2.475
      vertex 22.1797 3.3 2.475
    endloop
  endfacet
  facet normal 0 0 1
    outer loop
      vertex 7.77025 26.65 2.475
      vertex 18.8797 30 2.475
      vertex 11.1202 30 2.475
    endloop
  endfacet
  facet normal 0 -0 1
    outer loop
      vertex 7.82025 3.3 2.475
      vertex 22.1797 3.3 2.475
      vertex 7.77025 26.65 2.475
    endloop
  endfacet
  facet normal 0 0 1
    outer loop
      vertex 18.8797 0 2.475
      vertex 7.82025 3.3 2.475
      vertex 11.1202 0 2.475
    endloop
  endfacet
  facet normal 0 0 1
    outer loop
      vertex 22.1797 3.3 2.475
      vertex 7.82025 3.3 2.475
      vertex 18.8797 0 2.475
    endloop
  endfacet
  facet normal -0 0 1
    outer loop
      vertex 3.3 22.1797 2.475
      vertex 7.82025 3.3 2.475
      vertex 7.77025 26.65 2.475
    endloop
  endfacet
  facet normal 0 0 1
    outer loop
      vertex 3.3 22.1797 2.475
      vertex 3.3 7.82025 2.475
      vertex 7.82025 3.3 2.475
    endloop
  endfacet
  facet normal -0 0 1
    outer loop
      vertex 0 18.8797 2.475
      vertex 3.3 7.82025 2.475
      vertex 3.3 22.1797 2.475
    endloop
  endfacet
  facet normal 0 0 1
    outer loop
      vertex 3.3 7.82025 2.475
      vertex 0 18.8797 2.475
      vertex 0 11.1202 2.475
    endloop
  endfacet
  facet normal 1 -0 0
    outer loop
      vertex 30 18.8797 2.475
      vertex 30 30 0.825
      vertex 30 30 2.475
    endloop
  endfacet
  facet normal 1 -0 0
    outer loop
      vertex 30 11.1202 2.475
      vertex 30 30 0.825
      vertex 30 18.8797 2.475
    endloop
  endfacet
  facet normal 1 0 0
    outer loop
      vertex 30 0 0.825
      vertex 30 11.1202 2.475
      vertex 30 0 2.475
    endloop
  endfacet
  facet normal 1 0 0
    outer loop
      vertex 30 11.1202 2.475
      vertex 30 0 0.825
      vertex 30 30 0.825
    endloop
  endfacet
  facet normal 0 0 -1
    outer loop
      vertex 14.25 0.825 0
      vertex 5.125 8.75 0
      vertex 14.25 4.56699 0
    endloop
  endfacet
  facet normal 0 0 -1
    outer loop
      vertex 0.825 0.825 0
      vertex 5.125 8.75 0
      vertex 14.25 0.825 0
    endloop
  endfacet
  facet normal -0 0 -1
    outer loop
      vertex 5.125 8.75 0
      vertex 0.825 0.825 0
      vertex 3.625 8.75 0
    endloop
  endfacet
  facet normal 0 0 -1
    outer loop
      vertex 0.825 14.25 0
      vertex 3.625 8.75 0
      vertex 0.825 0.825 0
    endloop
  endfacet
  facet normal 0 0 -1
    outer loop
      vertex 3.625 8.75 0
      vertex 0.825 14.25 0
      vertex 3.625 14.25 0
    endloop
  endfacet
  facet normal 0 0 -1
    outer loop
      vertex 14.25 4.56699 0
      vertex 5.125 8.75 0
      vertex 5.125 9.83531 0
    endloop
  endfacet
  facet normal 0 0 -1
    outer loop
      vertex 3.625 15.75 0
      vertex 0.825 15.75 0
      vertex 3.625 21.25 0
    endloop
  endfacet
  facet normal 0 0 -1
    outer loop
      vertex 6.09992 22.8346 0
      vertex 14.25 25.433 0
      vertex 7.39896 22.0846 0
    endloop
  endfacet
  facet normal 0 -0 -1
    outer loop
      vertex 7.39896 22.0846 0
      vertex 14.25 25.433 0
      vertex 6.87324 21.174 0
    endloop
  endfacet
  facet normal -0 0 -1
    outer loop
      vertex 14.25 25.433 0
      vertex 6.09992 22.8346 0
      vertex 14.25 29.175 0
    endloop
  endfacet
  facet normal 0 0 -1
    outer loop
      vertex 5.125 21.25 0
      vertex 6.09992 22.8346 0
      vertex 5.125 21.146 0
    endloop
  endfacet
  facet normal 0 0 -1
    outer loop
      vertex 3.625 21.25 0
      vertex 6.09992 22.8346 0
      vertex 5.125 21.25 0
    endloop
  endfacet
  facet normal 0 0 -1
    outer loop
      vertex 0.825 29.175 0
      vertex 6.09992 22.8346 0
      vertex 3.625 21.25 0
    endloop
  endfacet
  facet normal 0 0 -1
    outer loop
      vertex 6.09992 22.8346 0
      vertex 0.825 29.175 0
      vertex 14.25 29.175 0
    endloop
  endfacet
  facet normal 0 0 -1
    outer loop
      vertex 0.825 29.175 0
      vertex 3.625 21.25 0
      vertex 0.825 15.75 0
    endloop
  endfacet
  facet normal 0 0 -1
    outer loop
      vertex 15.375 5.64952 0
      vertex 8.67468 18.375 0
      vertex 15.375 24.3505 0
    endloop
  endfacet
  facet normal 0 0 -1
    outer loop
      vertex 5.125 11.5674 0
      vertex 8.67468 18.375 0
      vertex 15.375 5.64952 0
    endloop
  endfacet
  facet normal 0 -0 -1
    outer loop
      vertex 5.14896 18.1875 0
      vertex 8.67468 18.375 0
      vertex 5.125 11.5674 0
    endloop
  endfacet
  facet normal -0 0 -1
    outer loop
      vertex 8.67468 18.375 0
      vertex 5.14896 18.1875 0
      vertex 5.25721 18.375 0
    endloop
  endfacet
  facet normal -0 0 -1
    outer loop
      vertex 5.14896 18.1875 0
      vertex 5.125 11.5674 0
      vertex 5.125 18.2013 0
    endloop
  endfacet
  facet normal 0 0 -1
    outer loop
      vertex 29.175 0.825 0
      vertex 15.375 5.64952 0
      vertex 15.75 24.75 0
    endloop
  endfacet
  facet normal 0 -0 -1
    outer loop
      vertex 15.375 5.64952 0
      vertex 15.75 5 0
      vertex 15 5 0
    endloop
  endfacet
  facet normal 0 0 -1
    outer loop
      vertex 15.75 5 0
      vertex 29.175 0.825 0
      vertex 15.75 0.825 0
    endloop
  endfacet
  facet normal 0 0 -1
    outer loop
      vertex 15.375 5.64952 0
      vertex 29.175 0.825 0
      vertex 15.75 5 0
    endloop
  endfacet
  facet normal 0 0 -1
    outer loop
      vertex 29.175 0.825 0
      vertex 15.75 24.75 0
      vertex 29.175 29.175 0
    endloop
  endfacet
  facet normal -0 0 -1
    outer loop
      vertex 29.175 29.175 0
      vertex 15.75 24.75 0
      vertex 15.75 29.175 0
    endloop
  endfacet
  facet normal 0 0 -1
    outer loop
      vertex 15.375 24.3505 0
      vertex 15.75 24.75 0
      vertex 15.375 5.64952 0
    endloop
  endfacet
  facet normal -0 0 -1
    outer loop
      vertex 15.75 24.75 0
      vertex 15.375 24.3505 0
      vertex 15.1443 24.75 0
    endloop
  endfacet
  facet normal 0 0 -1
    outer loop
      vertex 8.67468 19.875 0
      vertex 15.375 24.3505 0
      vertex 8.67468 18.375 0
    endloop
  endfacet
  facet normal 0 0 -1
    outer loop
      vertex 15.375 24.3505 0
      vertex 8.67468 19.875 0
      vertex 7.62324 19.875 0
    endloop
  endfacet
  facet normal 0 -1 0
    outer loop
      vertex 0 0 0.825
      vertex 11.1202 0 2.475
      vertex 0 0 2.475
    endloop
  endfacet
  facet normal 0 -1 -0
    outer loop
      vertex 11.1202 0 2.475
      vertex 0 0 0.825
      vertex 18.8797 0 2.475
    endloop
  endfacet
  facet normal 0 -1 0
    outer loop
      vertex 18.8797 0 2.475
      vertex 30 0 0.825
      vertex 30 0 2.475
    endloop
  endfacet
  facet normal 0 -1 0
    outer loop
      vertex 30 0 0.825
      vertex 18.8797 0 2.475
      vertex 0 0 0.825
    endloop
  endfacet
  facet normal 0 1 -0
    outer loop
      vertex 30 30 0.825
      vertex 18.8797 30 2.475
      vertex 30 30 2.475
    endloop
  endfacet
  facet normal 0 1 0
    outer loop
      vertex 18.8797 30 2.475
      vertex 30 30 0.825
      vertex 11.1202 30 2.475
    endloop
  endfacet
  facet normal 0 1 0
    outer loop
      vertex 0 30 0.825
      vertex 11.1202 30 2.475
      vertex 30 30 0.825
    endloop
  endfacet
  facet normal 0 1 0
    outer loop
      vertex 11.1202 30 2.475
      vertex 0 30 0.825
      vertex 0 30 2.475
    endloop
  endfacet
  facet normal -1 0 0
    outer loop
      vertex 3.3 3.3 2.475
      vertex 3.3 7.82025 6
      vertex 3.3 7.82025 2.475
    endloop
  endfacet
  facet normal -1 -0 0
    outer loop
      vertex 3.3 7.82025 6
      vertex 3.3 3.3 2.475
      vertex 3.3 3.3 6
    endloop
  endfacet
  facet normal -1 0 0
    outer loop
      vertex 3.3 22.1797 2.475
      vertex 3.3 26.65 6
      vertex 3.3 26.65 2.475
    endloop
  endfacet
  facet normal -1 -0 0
    outer loop
      vertex 3.3 26.65 6
      vertex 3.3 22.1797 2.475
      vertex 3.3 22.1797 6
    endloop
  endfacet
  facet normal 0 0 1
    outer loop
      vertex 26.75 7.87025 6
      vertex 22.1797 3.3 6
      vertex 26.75 3.3 6
    endloop
  endfacet
  facet normal 0 0 1
    outer loop
      vertex 3.3 7.82025 6
      vertex 3.3 3.3 6
      vertex 7.82025 3.3 6
    endloop
  endfacet
  facet normal 0 0 1
    outer loop
      vertex 26.75 26.65 6
      vertex 22.2298 26.65 6
      vertex 26.75 22.1297 6
    endloop
  endfacet
  facet normal -0 0 1
    outer loop
      vertex 3.3 26.65 6
      vertex 3.3 22.1797 6
      vertex 7.77025 26.65 6
    endloop
  endfacet
  facet normal 1 -0 0
    outer loop
      vertex 26.75 3.3 6
      vertex 26.75 7.87025 2.475
      vertex 26.75 7.87025 6
    endloop
  endfacet
  facet normal 1 0 0
    outer loop
      vertex 26.75 7.87025 2.475
      vertex 26.75 3.3 6
      vertex 26.75 3.3 2.475
    endloop
  endfacet
  facet normal 1 -0 0
    outer loop
      vertex 26.75 22.1297 6
      vertex 26.75 26.65 2.475
      vertex 26.75 26.65 6
    endloop
  endfacet
  facet normal 1 0 0
    outer loop
      vertex 26.75 26.65 2.475
      vertex 26.75 22.1297 6
      vertex 26.75 22.1297 2.475
    endloop
  endfacet
  facet normal 0 1 -0
    outer loop
      vertex 26.75 26.65 2.475
      vertex 22.2298 26.65 6
      vertex 26.75 26.65 6
    endloop
  endfacet
  facet normal 0 1 0
    outer loop
      vertex 22.2298 26.65 6
      vertex 26.75 26.65 2.475
      vertex 22.2298 26.65 2.475
    endloop
  endfacet
  facet normal 0 1 -0
    outer loop
      vertex 7.77025 26.65 2.475
      vertex 3.3 26.65 6
      vertex 7.77025 26.65 6
    endloop
  endfacet
  facet normal 0 1 0
    outer loop
      vertex 3.3 26.65 6
      vertex 7.77025 26.65 2.475
      vertex 3.3 26.65 2.475
    endloop
  endfacet
  facet normal 0 -1 0
    outer loop
      vertex 22.1797 3.3 2.475
      vertex 26.75 3.3 6
      vertex 22.1797 3.3 6
    endloop
  endfacet
  facet normal 0 -1 -0
    outer loop
      vertex 26.75 3.3 6
      vertex 22.1797 3.3 2.475
      vertex 26.75 3.3 2.475
    endloop
  endfacet
  facet normal 0 -1 0
    outer loop
      vertex 3.3 3.3 2.475
      vertex 7.82025 3.3 6
      vertex 3.3 3.3 6
    endloop
  endfacet
  facet normal 0 -1 -0
    outer loop
      vertex 7.82025 3.3 6
      vertex 3.3 3.3 2.475
      vertex 7.82025 3.3 2.475
    endloop
  endfacet
  facet normal -0.707115 -0.707099 0
    outer loop
      vertex 26.75 22.1297 2.475
      vertex 22.2298 26.65 6
      vertex 22.2298 26.65 2.475
    endloop
  endfacet
  facet normal -0.707115 -0.707099 0
    outer loop
      vertex 22.2298 26.65 6
      vertex 26.75 22.1297 2.475
      vertex 26.75 22.1297 6
    endloop
  endfacet
  facet normal 0.707111 -0.707103 0
    outer loop
      vertex 3.3 22.1797 6
      vertex 7.77025 26.65 2.475
      vertex 7.77025 26.65 6
    endloop
  endfacet
  facet normal 0.707111 -0.707103 0
    outer loop
      vertex 7.77025 26.65 2.475
      vertex 3.3 22.1797 6
      vertex 3.3 22.1797 2.475
    endloop
  endfacet
  facet normal 0.707107 0.707107 0
    outer loop
      vertex 7.82025 3.3 6
      vertex 3.3 7.82025 2.475
      vertex 3.3 7.82025 6
    endloop
  endfacet
  facet normal 0.707107 0.707107 0
    outer loop
      vertex 3.3 7.82025 2.475
      vertex 7.82025 3.3 6
      vertex 7.82025 3.3 2.475
    endloop
  endfacet
  facet normal -0.707103 0.707111 0
    outer loop
      vertex 26.75 7.87025 2.475
      vertex 22.1797 3.3 6
      vertex 26.75 7.87025 6
    endloop
  endfacet
  facet normal -0.707103 0.707111 0
    outer loop
      vertex 22.1797 3.3 6
      vertex 26.75 7.87025 2.475
      vertex 22.1797 3.3 2.475
    endloop
  endfacet
  facet normal 0 -0.707107 -0.707107
    outer loop
      vertex 0 0 0.825
      vertex 14.25 0.135 0.69
      vertex 30 0 0.825
    endloop
  endfacet
  facet normal 0 -0.707107 -0.707107
    outer loop
      vertex 0.825 0.825 0
      vertex 14.25 0.135 0.69
      vertex 0 0 0.825
    endloop
  endfacet
  facet normal 0 -0.707107 -0.707107
    outer loop
      vertex 14.25 0.135 0.69
      vertex 0.825 0.825 0
      vertex 14.25 0.825 0
    endloop
  endfacet
  facet normal -0 -0.707107 -0.707107
    outer loop
      vertex 15.75 0.135 0.69
      vertex 30 0 0.825
      vertex 14.25 0.135 0.69
    endloop
  endfacet
  facet normal -0 -0.707107 -0.707107
    outer loop
      vertex 29.175 0.825 0
      vertex 15.75 0.135 0.69
      vertex 15.75 0.825 0
    endloop
  endfacet
  facet normal 0 -0.707107 -0.707107
    outer loop
      vertex 15.75 0.135 0.69
      vertex 29.175 0.825 0
      vertex 30 0 0.825
    endloop
  endfacet
  facet normal -0.707107 -0 -0.707107
    outer loop
      vertex 0.825 14.25 0
      vertex 0.825 0.825 0
      vertex 0.135 14.25 0.69
    endloop
  endfacet
  facet normal -0.707107 0 -0.707107
    outer loop
      vertex 0.135 15.75 0.69
      vertex 0.825 29.175 0
      vertex 0.825 15.75 0
    endloop
  endfacet
  facet normal -0.707107 0 -0.707107
    outer loop
      vertex 0.825 29.175 0
      vertex 0.135 15.75 0.69
      vertex 0 30 0.825
    endloop
  endfacet
  facet normal -0.707107 0 -0.707107
    outer loop
      vertex 0.135 14.25 0.69
      vertex 0 30 0.825
      vertex 0.135 15.75 0.69
    endloop
  endfacet
  facet normal -0.707107 0 -0.707107
    outer loop
      vertex 0.135 14.25 0.69
      vertex 0 0 0.825
      vertex 0 30 0.825
    endloop
  endfacet
  facet normal -0.707107 0 -0.707107
    outer loop
      vertex 0 0 0.825
      vertex 0.135 14.25 0.69
      vertex 0.825 0.825 0
    endloop
  endfacet
  facet normal 0.707107 0 -0.707107
    outer loop
      vertex 29.175 0.825 0
      vertex 30 30 0.825
      vertex 30 0 0.825
    endloop
  endfacet
  facet normal 0.707107 0 -0.707107
    outer loop
      vertex 30 30 0.825
      vertex 29.175 0.825 0
      vertex 29.175 29.175 0
    endloop
  endfacet
  facet normal 0 0.707107 -0.707107
    outer loop
      vertex 14.25 29.175 0
      vertex 0.825 29.175 0
      vertex 14.25 29.865 0.69
    endloop
  endfacet
  facet normal 0 0.707107 -0.707107
    outer loop
      vertex 15.75 29.865 0.69
      vertex 29.175 29.175 0
      vertex 15.75 29.175 0
    endloop
  endfacet
  facet normal -8.08987e-17 0.707107 -0.707107
    outer loop
      vertex 29.175 29.175 0
      vertex 15.75 29.865 0.69
      vertex 30 30 0.825
    endloop
  endfacet
  facet normal 0 0.707107 -0.707107
    outer loop
      vertex 14.25 29.865 0.69
      vertex 30 30 0.825
      vertex 15.75 29.865 0.69
    endloop
  endfacet
  facet normal 0 0.707107 -0.707107
    outer loop
      vertex 14.25 29.865 0.69
      vertex 0 30 0.825
      vertex 30 30 0.825
    endloop
  endfacet
  facet normal 8.34268e-17 0.707107 -0.707107
    outer loop
      vertex 0 30 0.825
      vertex 14.25 29.865 0.69
      vertex 0.825 29.175 0
    endloop
  endfacet
  facet normal -0.86598 -0.500079 0
    outer loop
      vertex 15.375 24.3505 0
      vertex 15.1443 24.75 0.69
      vertex 15.1443 24.75 0
    endloop
  endfacet
  facet normal -0.86598 -0.500079 0
    outer loop
      vertex 15.1443 24.75 0.69
      vertex 15.375 24.3505 0
      vertex 15.375 24.3505 0.69
    endloop
  endfacet
  facet normal 0 0 -1
    outer loop
      vertex 14.25 4.56699 0.69
      vertex 15.75 5 0.69
      vertex 15.75 0.135 0.69
    endloop
  endfacet
  facet normal 0 0 -1
    outer loop
      vertex 14.25 4.56699 0.69
      vertex 15.75 0.135 0.69
      vertex 14.25 0.135 0.69
    endloop
  endfacet
  facet normal -0 0 -1
    outer loop
      vertex 15.75 5 0.69
      vertex 14.25 4.56699 0.69
      vertex 15 5 0.69
    endloop
  endfacet
  facet normal 0 0 -1
    outer loop
      vertex 14.25 4.56699 0.69
      vertex 15.375 5.64952 0.69
      vertex 15 5 0.69
    endloop
  endfacet
  facet normal 0 0 -1
    outer loop
      vertex 5.125 9.83531 0.69
      vertex 15.375 5.64952 0.69
      vertex 14.25 4.56699 0.69
    endloop
  endfacet
  facet normal 0 0 -1
    outer loop
      vertex 15.375 5.64952 0.69
      vertex 5.125 9.83531 0.69
      vertex 5.125 11.5674 0.69
    endloop
  endfacet
  facet normal 0 0 -1
    outer loop
      vertex 0.135 14.25 0.69
      vertex 3.625 15.75 0.69
      vertex 3.625 14.25 0.69
    endloop
  endfacet
  facet normal -0 0 -1
    outer loop
      vertex 3.625 15.75 0.69
      vertex 0.135 14.25 0.69
      vertex 0.135 15.75 0.69
    endloop
  endfacet
  facet normal 0 0 -1
    outer loop
      vertex 3.625 8.75 0.69
      vertex 5.125 9.83531 0.69
      vertex 5.125 8.75 0.69
    endloop
  endfacet
  facet normal -0 0 -1
    outer loop
      vertex 5.125 9.83531 0.69
      vertex 3.625 8.75 0.69
      vertex 5.125 11.5674 0.69
    endloop
  endfacet
  facet normal 0 0 -1
    outer loop
      vertex 5.125 11.5674 0.69
      vertex 3.625 14.25 0.69
      vertex 5.125 18.2013 0.69
    endloop
  endfacet
  facet normal 0 0 -1
    outer loop
      vertex 3.625 15.75 0.69
      vertex 5.125 18.2013 0.69
      vertex 3.625 14.25 0.69
    endloop
  endfacet
  facet normal -0 0 -1
    outer loop
      vertex 5.125 11.5674 0.69
      vertex 3.625 8.75 0.69
      vertex 3.625 14.25 0.69
    endloop
  endfacet
  facet normal 0 0 -1
    outer loop
      vertex 3.625 21.25 0.69
      vertex 5.125 18.2013 0.69
      vertex 3.625 15.75 0.69
    endloop
  endfacet
  facet normal 0 0 -1
    outer loop
      vertex 5.125 18.2013 0.69
      vertex 3.625 21.25 0.69
      vertex 5.125 21.146 0.69
    endloop
  endfacet
  facet normal 0 0 -1
    outer loop
      vertex 5.125 21.146 0.69
      vertex 3.625 21.25 0.69
      vertex 5.125 21.25 0.69
    endloop
  endfacet
  facet normal 0 0 -1
    outer loop
      vertex 8.67468 18.375 0.69
      vertex 7.62324 19.875 0.69
      vertex 8.67468 19.875 0.69
    endloop
  endfacet
  facet normal 0 0 -1
    outer loop
      vertex 5.25721 18.375 0.69
      vertex 7.62324 19.875 0.69
      vertex 8.67468 18.375 0.69
    endloop
  endfacet
  facet normal 0 0 -1
    outer loop
      vertex 5.25721 18.375 0.69
      vertex 6.87324 21.174 0.69
      vertex 7.62324 19.875 0.69
    endloop
  endfacet
  facet normal 0 0 -1
    outer loop
      vertex 5.125 21.146 0.69
      vertex 6.87324 21.174 0.69
      vertex 5.25721 18.375 0.69
    endloop
  endfacet
  facet normal 0 0 -1
    outer loop
      vertex 5.125 18.2013 0.69
      vertex 5.25721 18.375 0.69
      vertex 5.14896 18.1875 0.69
    endloop
  endfacet
  facet normal -0 0 -1
    outer loop
      vertex 5.25721 18.375 0.69
      vertex 5.125 18.2013 0.69
      vertex 5.125 21.146 0.69
    endloop
  endfacet
  facet normal -0 0 -1
    outer loop
      vertex 6.87324 21.174 0.69
      vertex 5.125 21.146 0.69
      vertex 6.09992 22.8346 0.69
    endloop
  endfacet
  facet normal 0 0 -1
    outer loop
      vertex 15.375 24.3505 0.69
      vertex 14.25 25.433 0.69
      vertex 15.1443 24.75 0.69
    endloop
  endfacet
  facet normal 0 0 -1
    outer loop
      vertex 7.62324 19.875 0.69
      vertex 14.25 25.433 0.69
      vertex 15.375 24.3505 0.69
    endloop
  endfacet
  facet normal 0 0 -1
    outer loop
      vertex 14.25 25.433 0.69
      vertex 7.62324 19.875 0.69
      vertex 6.87324 21.174 0.69
    endloop
  endfacet
  facet normal 0 0 -1
    outer loop
      vertex 14.25 25.433 0.69
      vertex 15.75 24.75 0.69
      vertex 15.1443 24.75 0.69
    endloop
  endfacet
  facet normal 0 0 -1
    outer loop
      vertex 15.75 24.75 0.69
      vertex 14.25 25.433 0.69
      vertex 15.75 29.865 0.69
    endloop
  endfacet
  facet normal -0 0 -1
    outer loop
      vertex 15.75 29.865 0.69
      vertex 14.25 25.433 0.69
      vertex 14.25 29.865 0.69
    endloop
  endfacet
  facet normal -0 0 -1
    outer loop
      vertex 7.39896 22.0846 0.69
      vertex 6.87324 21.174 0.69
      vertex 6.09992 22.8346 0.69
    endloop
  endfacet
  facet normal 0.500002 -0.866024 0
    outer loop
      vertex 6.87324 21.174 0
      vertex 14.25 25.433 0.69
      vertex 6.87324 21.174 0.69
    endloop
  endfacet
  facet normal 0.500002 -0.866024 0
    outer loop
      vertex 14.25 25.433 0.69
      vertex 6.87324 21.174 0
      vertex 14.25 25.433 0
    endloop
  endfacet
  facet normal -0.500002 0.866024 0
    outer loop
      vertex 15.375 24.3505 0
      vertex 7.62324 19.875 0.69
      vertex 15.375 24.3505 0.69
    endloop
  endfacet
  facet normal -0.500002 0.866024 0
    outer loop
      vertex 7.62324 19.875 0.69
      vertex 15.375 24.3505 0
      vertex 7.62324 19.875 0
    endloop
  endfacet
  facet normal -0.499999 -0.866026 0
    outer loop
      vertex 6.09992 22.8346 0
      vertex 7.39896 22.0846 0.69
      vertex 6.09992 22.8346 0.69
    endloop
  endfacet
  facet normal -0.499999 -0.866026 -0
    outer loop
      vertex 7.39896 22.0846 0.69
      vertex 6.09992 22.8346 0
      vertex 7.39896 22.0846 0
    endloop
  endfacet
  facet normal 0.499096 0.866547 -0
    outer loop
      vertex 5.14896 18.1875 0
      vertex 5.125 18.2013 0.69
      vertex 5.14896 18.1875 0.69
    endloop
  endfacet
  facet normal 0.499096 0.866547 0
    outer loop
      vertex 5.125 18.2013 0.69
      vertex 5.14896 18.1875 0
      vertex 5.125 18.2013 0
    endloop
  endfacet
  facet normal 0.866024 -0.500002 0
    outer loop
      vertex 5.125 21.146 0.69
      vertex 6.09992 22.8346 0
      vertex 6.09992 22.8346 0.69
    endloop
  endfacet
  facet normal 0.866024 -0.500002 0
    outer loop
      vertex 6.09992 22.8346 0
      vertex 5.125 21.146 0.69
      vertex 5.125 21.146 0
    endloop
  endfacet
  facet normal -0.866032 0.499989 0
    outer loop
      vertex 6.87324 21.174 0
      vertex 7.39896 22.0846 0.69
      vertex 7.39896 22.0846 0
    endloop
  endfacet
  facet normal -0.866032 0.499989 0
    outer loop
      vertex 7.39896 22.0846 0.69
      vertex 6.87324 21.174 0
      vertex 6.87324 21.174 0.69
    endloop
  endfacet
  facet normal -0.866032 0.499989 0
    outer loop
      vertex 5.14896 18.1875 0
      vertex 5.25721 18.375 0.69
      vertex 5.25721 18.375 0
    endloop
  endfacet
  facet normal -0.866032 0.499989 0
    outer loop
      vertex 5.25721 18.375 0.69
      vertex 5.14896 18.1875 0
      vertex 5.14896 18.1875 0.69
    endloop
  endfacet
  facet normal -1 0 0
    outer loop
      vertex 8.67468 18.375 0
      vertex 8.67468 19.875 0.69
      vertex 8.67468 19.875 0
    endloop
  endfacet
  facet normal -1 -0 0
    outer loop
      vertex 8.67468 19.875 0.69
      vertex 8.67468 18.375 0
      vertex 8.67468 18.375 0.69
    endloop
  endfacet
  facet normal 0 -1 0
    outer loop
      vertex 7.62324 19.875 0
      vertex 8.67468 19.875 0.69
      vertex 7.62324 19.875 0.69
    endloop
  endfacet
  facet normal 0 -1 -0
    outer loop
      vertex 8.67468 19.875 0.69
      vertex 7.62324 19.875 0
      vertex 8.67468 19.875 0
    endloop
  endfacet
  facet normal 0 1 -0
    outer loop
      vertex 8.67468 18.375 0
      vertex 5.25721 18.375 0.69
      vertex 8.67468 18.375 0.69
    endloop
  endfacet
  facet normal 0 1 0
    outer loop
      vertex 5.25721 18.375 0.69
      vertex 8.67468 18.375 0
      vertex 5.25721 18.375 0
    endloop
  endfacet
  facet normal 1 -0 0
    outer loop
      vertex 3.625 15.75 0.69
      vertex 3.625 21.25 0
      vertex 3.625 21.25 0.69
    endloop
  endfacet
  facet normal 1 0 0
    outer loop
      vertex 3.625 21.25 0
      vertex 3.625 15.75 0.69
      vertex 3.625 15.75 0
    endloop
  endfacet
  facet normal 1 -0 0
    outer loop
      vertex 3.625 8.75 0.69
      vertex 3.625 14.25 0
      vertex 3.625 14.25 0.69
    endloop
  endfacet
  facet normal 1 0 0
    outer loop
      vertex 3.625 14.25 0
      vertex 3.625 8.75 0.69
      vertex 3.625 8.75 0
    endloop
  endfacet
  facet normal -1 0 0
    outer loop
      vertex 5.125 21.146 0
      vertex 5.125 21.25 0.69
      vertex 5.125 21.25 0
    endloop
  endfacet
  facet normal -1 -0 0
    outer loop
      vertex 5.125 21.25 0.69
      vertex 5.125 21.146 0
      vertex 5.125 21.146 0.69
    endloop
  endfacet
  facet normal -1 0 0
    outer loop
      vertex 5.125 8.75 0
      vertex 5.125 9.83531 0.69
      vertex 5.125 9.83531 0
    endloop
  endfacet
  facet normal -1 -0 0
    outer loop
      vertex 5.125 9.83531 0.69
      vertex 5.125 8.75 0
      vertex 5.125 8.75 0.69
    endloop
  endfacet
  facet normal -1 0 0
    outer loop
      vertex 5.125 11.5674 0
      vertex 5.125 18.2013 0.69
      vertex 5.125 18.2013 0
    endloop
  endfacet
  facet normal -1 -0 0
    outer loop
      vertex 5.125 18.2013 0.69
      vertex 5.125 11.5674 0
      vertex 5.125 11.5674 0.69
    endloop
  endfacet
  facet normal 0 1 -0
    outer loop
      vertex 5.125 8.75 0
      vertex 3.625 8.75 0.69
      vertex 5.125 8.75 0.69
    endloop
  endfacet
  facet normal 0 1 0
    outer loop
      vertex 3.625 8.75 0.69
      vertex 5.125 8.75 0
      vertex 3.625 8.75 0
    endloop
  endfacet
  facet normal 0 -1 0
    outer loop
      vertex 3.625 21.25 0
      vertex 5.125 21.25 0.69
      vertex 3.625 21.25 0.69
    endloop
  endfacet
  facet normal 0 -1 -0
    outer loop
      vertex 5.125 21.25 0.69
      vertex 3.625 21.25 0
      vertex 5.125 21.25 0
    endloop
  endfacet
  facet normal 0.5 0.866025 -0
    outer loop
      vertex 14.25 4.56699 0
      vertex 5.125 9.83531 0.69
      vertex 14.25 4.56699 0.69
    endloop
  endfacet
  facet normal 0.5 0.866025 0
    outer loop
      vertex 5.125 9.83531 0.69
      vertex 14.25 4.56699 0
      vertex 5.125 9.83531 0
    endloop
  endfacet
  facet normal -0.866026 0.499999 0
    outer loop
      vertex 15 5 0
      vertex 15.375 5.64952 0.69
      vertex 15.375 5.64952 0
    endloop
  endfacet
  facet normal -0.866026 0.499999 0
    outer loop
      vertex 15.375 5.64952 0.69
      vertex 15 5 0
      vertex 15 5 0.69
    endloop
  endfacet
  facet normal -0.500003 -0.866024 0
    outer loop
      vertex 5.125 11.5674 0
      vertex 15.375 5.64952 0.69
      vertex 5.125 11.5674 0.69
    endloop
  endfacet
  facet normal -0.500003 -0.866024 -0
    outer loop
      vertex 15.375 5.64952 0.69
      vertex 5.125 11.5674 0
      vertex 15.375 5.64952 0
    endloop
  endfacet
  facet normal 0 -1 0
    outer loop
      vertex 0.825 15.75 0
      vertex 3.625 15.75 0.69
      vertex 0.135 15.75 0.69
    endloop
  endfacet
  facet normal 0 -1 -0
    outer loop
      vertex 3.625 15.75 0.69
      vertex 0.825 15.75 0
      vertex 3.625 15.75 0
    endloop
  endfacet
  facet normal 0 1 0
    outer loop
      vertex 0.825 14.25 0
      vertex 3.625 14.25 0.69
      vertex 3.625 14.25 0
    endloop
  endfacet
  facet normal 0 1 0
    outer loop
      vertex 3.625 14.25 0.69
      vertex 0.825 14.25 0
      vertex 0.135 14.25 0.69
    endloop
  endfacet
  facet normal 1 -0 0
    outer loop
      vertex 14.25 25.433 0.69
      vertex 14.25 29.175 0
      vertex 14.25 29.865 0.69
    endloop
  endfacet
  facet normal 1 0 0
    outer loop
      vertex 14.25 29.175 0
      vertex 14.25 25.433 0.69
      vertex 14.25 25.433 0
    endloop
  endfacet
  facet normal -1 0 0
    outer loop
      vertex 15.75 24.75 0.69
      vertex 15.75 29.175 0
      vertex 15.75 24.75 0
    endloop
  endfacet
  facet normal -1 0 0
    outer loop
      vertex 15.75 29.175 0
      vertex 15.75 24.75 0.69
      vertex 15.75 29.865 0.69
    endloop
  endfacet
  facet normal 0 1 -0
    outer loop
      vertex 15.75 24.75 0
      vertex 15.1443 24.75 0.69
      vertex 15.75 24.75 0.69
    endloop
  endfacet
  facet normal 0 1 0
    outer loop
      vertex 15.1443 24.75 0.69
      vertex 15.75 24.75 0
      vertex 15.1443 24.75 0
    endloop
  endfacet
  facet normal 1 0 0
    outer loop
      vertex 14.25 4.56699 0.69
      vertex 14.25 0.825 0
      vertex 14.25 4.56699 0
    endloop
  endfacet
  facet normal 1 0 -0
    outer loop
      vertex 14.25 0.825 0
      vertex 14.25 4.56699 0.69
      vertex 14.25 0.135 0.69
    endloop
  endfacet
  facet normal -1 0 0
    outer loop
      vertex 15.75 0.825 0
      vertex 15.75 5 0.69
      vertex 15.75 5 0
    endloop
  endfacet
  facet normal -1 -0 0
    outer loop
      vertex 15.75 5 0.69
      vertex 15.75 0.825 0
      vertex 15.75 0.135 0.69
    endloop
  endfacet
  facet normal 0 -1 0
    outer loop
      vertex 15 5 0
      vertex 15.75 5 0.69
      vertex 15 5 0.69
    endloop
  endfacet
  facet normal 0 -1 -0
    outer loop
      vertex 15.75 5 0.69
      vertex 15 5 0
      vertex 15.75 5 0
    endloop
  endfacet
endsolid OpenSCAD_Model
