solid OpenSCAD_Model
  facet normal -1 0 0
    outer loop
      vertex 0 30 0.825
      vertex 0 18.8797 2.475
      vertex 0 30 2.475
    endloop
  endfacet
  facet normal -1 0 0
    outer loop
      vertex 0 30 0.825
      vertex 0 11.1202 2.475
      vertex 0 18.8797 2.475
    endloop
  endfacet
  facet normal -1 0 0
    outer loop
      vertex 0 0 0.825
      vertex 0 11.1202 2.475
      vertex 0 30 0.825
    endloop
  endfacet
  facet normal -1 -0 0
    outer loop
      vertex 0 11.1202 2.475
      vertex 0 0 0.825
      vertex 0 0 2.475
    endloop
  endfacet
  facet normal -0 0 1
    outer loop
      vertex 26.7 7.82025 2.475
      vertex 30 0 2.475
      vertex 30 11.1202 2.475
    endloop
  endfacet
  facet normal -0 0 1
    outer loop
      vertex 26.7 3.3 2.475
      vertex 30 0 2.475
      vertex 26.7 7.82025 2.475
    endloop
  endfacet
  facet normal -0 0 1
    outer loop
      vertex 22.1797 3.3 2.475
      vertex 30 0 2.475
      vertex 26.7 3.3 2.475
    endloop
  endfacet
  facet normal 0 0 1
    outer loop
      vertex 30 0 2.475
      vertex 22.1797 3.3 2.475
      vertex 18.8797 0 2.475
    endloop
  endfacet
  facet normal 0 0 1
    outer loop
      vertex 3.3 7.82025 2.475
      vertex 0 11.1202 2.475
      vertex 3.3 3.3 2.475
    endloop
  endfacet
  facet normal -0 0 1
    outer loop
      vertex 3.3 3.3 2.475
      vertex 11.1202 0 2.475
      vertex 7.82025 3.3 2.475
    endloop
  endfacet
  facet normal 0 0 1
    outer loop
      vertex 3.3 3.3 2.475
      vertex 0 0 2.475
      vertex 11.1202 0 2.475
    endloop
  endfacet
  facet normal 0 0 1
    outer loop
      vertex 0 0 2.475
      vertex 3.3 3.3 2.475
      vertex 0 11.1202 2.475
    endloop
  endfacet
  facet normal 0 0 1
    outer loop
      vertex 30 30 2.475
      vertex 26.7 26.7 2.475
      vertex 30 18.8797 2.475
    endloop
  endfacet
  facet normal 0 0 1
    outer loop
      vertex 30 30 2.475
      vertex 22.1798 26.7 2.475
      vertex 26.7 26.7 2.475
    endloop
  endfacet
  facet normal 0 -0 1
    outer loop
      vertex 22.1798 26.7 2.475
      vertex 30 30 2.475
      vertex 18.8797 30 2.475
    endloop
  endfacet
  facet normal 0 0 1
    outer loop
      vertex 30 18.8797 2.475
      vertex 26.7 26.7 2.475
      vertex 26.7 22.1798 2.475
    endloop
  endfacet
  facet normal 0 0 1
    outer loop
      vertex 11.1202 30 2.475
      vertex 3.3 26.7 2.475
      vertex 7.82025 26.7 2.475
    endloop
  endfacet
  facet normal -0 0 1
    outer loop
      vertex 0 30 2.475
      vertex 3.3 26.7 2.475
      vertex 11.1202 30 2.475
    endloop
  endfacet
  facet normal 0 0 1
    outer loop
      vertex 0 30 2.475
      vertex 3.3 22.1797 2.475
      vertex 3.3 26.7 2.475
    endloop
  endfacet
  facet normal 0 0 1
    outer loop
      vertex 3.3 22.1797 2.475
      vertex 0 30 2.475
      vertex 0 18.8797 2.475
    endloop
  endfacet
  facet normal 0 0 1
    outer loop
      vertex 26.7 22.1798 2.475
      vertex 30 11.1202 2.475
      vertex 30 18.8797 2.475
    endloop
  endfacet
  facet normal 0 0 1
    outer loop
      vertex 26.7 22.1798 2.475
      vertex 26.7 7.82025 2.475
      vertex 30 11.1202 2.475
    endloop
  endfacet
  facet normal 0 0 1
    outer loop
      vertex 22.1798 26.7 2.475
      vertex 26.7 7.82025 2.475
      vertex 26.7 22.1798 2.475
    endloop
  endfacet
  facet normal 0 0 1
    outer loop
      vertex 22.1798 26.7 2.475
      vertex 22.1797 3.3 2.475
      vertex 26.7 7.82025 2.475
    endloop
  endfacet
  facet normal 0 0 1
    outer loop
      vertex 7.82025 26.7 2.475
      vertex 22.1798 26.7 2.475
      vertex 18.8797 30 2.475
    endloop
  endfacet
  facet normal 0 0 1
    outer loop
      vertex 22.1798 26.7 2.475
      vertex 7.82025 26.7 2.475
      vertex 22.1797 3.3 2.475
    endloop
  endfacet
  facet normal 0 0 1
    outer loop
      vertex 7.82025 26.7 2.475
      vertex 18.8797 30 2.475
      vertex 11.1202 30 2.475
    endloop
  endfacet
  facet normal 0 0 1
    outer loop
      vertex 7.82025 3.3 2.475
      vertex 22.1797 3.3 2.475
      vertex 7.82025 26.7 2.475
    endloop
  endfacet
  facet normal 0 0 1
    outer loop
      vertex 18.8797 0 2.475
      vertex 7.82025 3.3 2.475
      vertex 11.1202 0 2.475
    endloop
  endfacet
  facet normal 0 0 1
    outer loop
      vertex 22.1797 3.3 2.475
      vertex 7.82025 3.3 2.475
      vertex 18.8797 0 2.475
    endloop
  endfacet
  facet normal -0 0 1
    outer loop
      vertex 3.3 22.1797 2.475
      vertex 7.82025 3.3 2.475
      vertex 7.82025 26.7 2.475
    endloop
  endfacet
  facet normal 0 0 1
    outer loop
      vertex 3.3 22.1797 2.475
      vertex 3.3 7.82025 2.475
      vertex 7.82025 3.3 2.475
    endloop
  endfacet
  facet normal -0 0 1
    outer loop
      vertex 0 18.8797 2.475
      vertex 3.3 7.82025 2.475
      vertex 3.3 22.1797 2.475
    endloop
  endfacet
  facet normal 0 0 1
    outer loop
      vertex 3.3 7.82025 2.475
      vertex 0 18.8797 2.475
      vertex 0 11.1202 2.475
    endloop
  endfacet
  facet normal 1 -0 0
    outer loop
      vertex 30 18.8797 2.475
      vertex 30 30 0.825
      vertex 30 30 2.475
    endloop
  endfacet
  facet normal 1 -0 0
    outer loop
      vertex 30 11.1202 2.475
      vertex 30 30 0.825
      vertex 30 18.8797 2.475
    endloop
  endfacet
  facet normal 1 0 0
    outer loop
      vertex 30 0 0.825
      vertex 30 11.1202 2.475
      vertex 30 0 2.475
    endloop
  endfacet
  facet normal 1 0 0
    outer loop
      vertex 30 11.1202 2.475
      vertex 30 0 0.825
      vertex 30 30 0.825
    endloop
  endfacet
  facet normal 0 1 -0
    outer loop
      vertex 30 30 0.825
      vertex 18.8797 30 2.475
      vertex 30 30 2.475
    endloop
  endfacet
  facet normal 0 1 0
    outer loop
      vertex 18.8797 30 2.475
      vertex 30 30 0.825
      vertex 11.1202 30 2.475
    endloop
  endfacet
  facet normal 0 1 0
    outer loop
      vertex 0 30 0.825
      vertex 11.1202 30 2.475
      vertex 30 30 0.825
    endloop
  endfacet
  facet normal 0 1 0
    outer loop
      vertex 11.1202 30 2.475
      vertex 0 30 0.825
      vertex 0 30 2.475
    endloop
  endfacet
  facet normal 0 0 -1
    outer loop
      vertex 14.5 0.825 0
      vertex 14.4624 13.5996 0
      vertex 14.5 13.5863 0
    endloop
  endfacet
  facet normal 0 0 -1
    outer loop
      vertex 14.5 0.825 0
      vertex 14.3899 13.6297 0
      vertex 14.4624 13.5996 0
    endloop
  endfacet
  facet normal 0 0 -1
    outer loop
      vertex 14.5 0.825 0
      vertex 14.319 13.6635 0
      vertex 14.3899 13.6297 0
    endloop
  endfacet
  facet normal 0 0 -1
    outer loop
      vertex 14.5 0.825 0
      vertex 14.25 13.701 0
      vertex 14.319 13.6635 0
    endloop
  endfacet
  facet normal 0 0 -1
    outer loop
      vertex 14.5 0.825 0
      vertex 14.183 13.742 0
      vertex 14.25 13.701 0
    endloop
  endfacet
  facet normal 0 0 -1
    outer loop
      vertex 14.5 0.825 0
      vertex 14.1183 13.7865 0
      vertex 14.183 13.742 0
    endloop
  endfacet
  facet normal 0 0 -1
    outer loop
      vertex 14.5 0.825 0
      vertex 14.056 13.8343 0
      vertex 14.1183 13.7865 0
    endloop
  endfacet
  facet normal 0 0 -1
    outer loop
      vertex 14.5 0.825 0
      vertex 13.9963 13.8853 0
      vertex 14.056 13.8343 0
    endloop
  endfacet
  facet normal 0 0 -1
    outer loop
      vertex 0.825 0.825 0
      vertex 13.9963 13.8853 0
      vertex 14.5 0.825 0
    endloop
  endfacet
  facet normal -0 0 -1
    outer loop
      vertex 13.9963 13.8853 0
      vertex 0.825 0.825 0
      vertex 13.9393 13.9393 0
    endloop
  endfacet
  facet normal -0 0 -1
    outer loop
      vertex 13.9393 13.9393 0
      vertex 0.825 0.825 0
      vertex 13.8853 13.9963 0
    endloop
  endfacet
  facet normal 0 0 -1
    outer loop
      vertex 0.825 14.5 0
      vertex 13.8853 13.9963 0
      vertex 0.825 0.825 0
    endloop
  endfacet
  facet normal 0 0 -1
    outer loop
      vertex 13.8853 13.9963 0
      vertex 0.825 14.5 0
      vertex 13.8343 14.056 0
    endloop
  endfacet
  facet normal 0 0 -1
    outer loop
      vertex 13.8343 14.056 0
      vertex 0.825 14.5 0
      vertex 13.7865 14.1183 0
    endloop
  endfacet
  facet normal 0 0 -1
    outer loop
      vertex 13.7865 14.1183 0
      vertex 0.825 14.5 0
      vertex 13.742 14.183 0
    endloop
  endfacet
  facet normal 0 0 -1
    outer loop
      vertex 13.742 14.183 0
      vertex 0.825 14.5 0
      vertex 13.701 14.25 0
    endloop
  endfacet
  facet normal 0 0 -1
    outer loop
      vertex 13.701 14.25 0
      vertex 0.825 14.5 0
      vertex 13.6635 14.319 0
    endloop
  endfacet
  facet normal 0 0 -1
    outer loop
      vertex 13.6635 14.319 0
      vertex 0.825 14.5 0
      vertex 13.6297 14.3899 0
    endloop
  endfacet
  facet normal 0 0 -1
    outer loop
      vertex 13.6297 14.3899 0
      vertex 0.825 14.5 0
      vertex 13.5996 14.4624 0
    endloop
  endfacet
  facet normal 0 0 -1
    outer loop
      vertex 13.5996 14.4624 0
      vertex 0.825 14.5 0
      vertex 13.5863 14.5 0
    endloop
  endfacet
  facet normal 0 0 -1
    outer loop
      vertex 16.4004 15.5376 0
      vertex 29.175 15.5 0
      vertex 16.4137 15.5 0
    endloop
  endfacet
  facet normal 0 0 -1
    outer loop
      vertex 16.3703 15.6101 0
      vertex 29.175 15.5 0
      vertex 16.4004 15.5376 0
    endloop
  endfacet
  facet normal 0 0 -1
    outer loop
      vertex 16.3365 15.681 0
      vertex 29.175 15.5 0
      vertex 16.3703 15.6101 0
    endloop
  endfacet
  facet normal 0 0 -1
    outer loop
      vertex 16.299 15.75 0
      vertex 29.175 15.5 0
      vertex 16.3365 15.681 0
    endloop
  endfacet
  facet normal 0 0 -1
    outer loop
      vertex 16.258 15.817 0
      vertex 29.175 15.5 0
      vertex 16.299 15.75 0
    endloop
  endfacet
  facet normal 0 0 -1
    outer loop
      vertex 16.2135 15.8817 0
      vertex 29.175 15.5 0
      vertex 16.258 15.817 0
    endloop
  endfacet
  facet normal 0 0 -1
    outer loop
      vertex 16.1657 15.944 0
      vertex 29.175 15.5 0
      vertex 16.2135 15.8817 0
    endloop
  endfacet
  facet normal 0 0 -1
    outer loop
      vertex 16.1147 16.0037 0
      vertex 29.175 15.5 0
      vertex 16.1657 15.944 0
    endloop
  endfacet
  facet normal 0 0 -1
    outer loop
      vertex 29.175 15.5 0
      vertex 16.1147 16.0037 0
      vertex 29.175 29.175 0
    endloop
  endfacet
  facet normal 0 0 -1
    outer loop
      vertex 16.0607 16.0607 0
      vertex 29.175 29.175 0
      vertex 16.1147 16.0037 0
    endloop
  endfacet
  facet normal 0 0 -1
    outer loop
      vertex 16.0037 16.1147 0
      vertex 29.175 29.175 0
      vertex 16.0607 16.0607 0
    endloop
  endfacet
  facet normal 0 0 -1
    outer loop
      vertex 15.944 16.1657 0
      vertex 29.175 29.175 0
      vertex 16.0037 16.1147 0
    endloop
  endfacet
  facet normal 0 0 -1
    outer loop
      vertex 15.8817 16.2135 0
      vertex 29.175 29.175 0
      vertex 15.944 16.1657 0
    endloop
  endfacet
  facet normal 0 0 -1
    outer loop
      vertex 15.817 16.258 0
      vertex 29.175 29.175 0
      vertex 15.8817 16.2135 0
    endloop
  endfacet
  facet normal 0 0 -1
    outer loop
      vertex 15.75 16.299 0
      vertex 29.175 29.175 0
      vertex 15.817 16.258 0
    endloop
  endfacet
  facet normal 0 0 -1
    outer loop
      vertex 15.681 16.3365 0
      vertex 29.175 29.175 0
      vertex 15.75 16.299 0
    endloop
  endfacet
  facet normal 0 0 -1
    outer loop
      vertex 15.6101 16.3703 0
      vertex 29.175 29.175 0
      vertex 15.681 16.3365 0
    endloop
  endfacet
  facet normal 0 0 -1
    outer loop
      vertex 15.5376 16.4004 0
      vertex 29.175 29.175 0
      vertex 15.6101 16.3703 0
    endloop
  endfacet
  facet normal 0 0 -1
    outer loop
      vertex 15.4635 16.4266 0
      vertex 29.175 29.175 0
      vertex 15.5376 16.4004 0
    endloop
  endfacet
  facet normal 0 0 -1
    outer loop
      vertex 15.3882 16.4489 0
      vertex 29.175 29.175 0
      vertex 15.4635 16.4266 0
    endloop
  endfacet
  facet normal 0 0 -1
    outer loop
      vertex 15.3119 16.4672 0
      vertex 29.175 29.175 0
      vertex 15.3882 16.4489 0
    endloop
  endfacet
  facet normal 0 0 -1
    outer loop
      vertex 15.2347 16.4815 0
      vertex 29.175 29.175 0
      vertex 15.3119 16.4672 0
    endloop
  endfacet
  facet normal 0 0 -1
    outer loop
      vertex 15.1568 16.4918 0
      vertex 29.175 29.175 0
      vertex 15.2347 16.4815 0
    endloop
  endfacet
  facet normal 0 0 -1
    outer loop
      vertex 15.0785 16.4979 0
      vertex 29.175 29.175 0
      vertex 15.1568 16.4918 0
    endloop
  endfacet
  facet normal 0 0 -1
    outer loop
      vertex 15 16.5 0
      vertex 29.175 29.175 0
      vertex 15.0785 16.4979 0
    endloop
  endfacet
  facet normal 0 0 -1
    outer loop
      vertex 0.825 29.175 0
      vertex 15 16.5 0
      vertex 14.9215 16.4979 0
    endloop
  endfacet
  facet normal 0 0 -1
    outer loop
      vertex 0.825 29.175 0
      vertex 14.9215 16.4979 0
      vertex 14.8432 16.4918 0
    endloop
  endfacet
  facet normal 0 0 -1
    outer loop
      vertex 0.825 29.175 0
      vertex 14.8432 16.4918 0
      vertex 14.7653 16.4815 0
    endloop
  endfacet
  facet normal 0 0 -1
    outer loop
      vertex 0.825 29.175 0
      vertex 14.7653 16.4815 0
      vertex 14.6881 16.4672 0
    endloop
  endfacet
  facet normal 0 0 -1
    outer loop
      vertex 0.825 29.175 0
      vertex 14.6881 16.4672 0
      vertex 14.6118 16.4489 0
    endloop
  endfacet
  facet normal 0 0 -1
    outer loop
      vertex 0.825 29.175 0
      vertex 14.6118 16.4489 0
      vertex 14.5365 16.4266 0
    endloop
  endfacet
  facet normal 0 0 -1
    outer loop
      vertex 0.825 29.175 0
      vertex 14.5365 16.4266 0
      vertex 14.4624 16.4004 0
    endloop
  endfacet
  facet normal 0 0 -1
    outer loop
      vertex 0.825 29.175 0
      vertex 14.4624 16.4004 0
      vertex 14.3899 16.3703 0
    endloop
  endfacet
  facet normal 0 0 -1
    outer loop
      vertex 0.825 29.175 0
      vertex 14.3899 16.3703 0
      vertex 14.319 16.3365 0
    endloop
  endfacet
  facet normal 0 0 -1
    outer loop
      vertex 0.825 29.175 0
      vertex 14.319 16.3365 0
      vertex 14.25 16.299 0
    endloop
  endfacet
  facet normal 0 0 -1
    outer loop
      vertex 0.825 29.175 0
      vertex 14.25 16.299 0
      vertex 14.183 16.258 0
    endloop
  endfacet
  facet normal 0 0 -1
    outer loop
      vertex 0.825 29.175 0
      vertex 14.183 16.258 0
      vertex 14.1183 16.2135 0
    endloop
  endfacet
  facet normal 0 0 -1
    outer loop
      vertex 0.825 29.175 0
      vertex 14.1183 16.2135 0
      vertex 14.056 16.1657 0
    endloop
  endfacet
  facet normal 0 0 -1
    outer loop
      vertex 0.825 29.175 0
      vertex 14.056 16.1657 0
      vertex 13.9963 16.1147 0
    endloop
  endfacet
  facet normal 0 0 -1
    outer loop
      vertex 0.825 15.5 0
      vertex 13.5996 15.5376 0
      vertex 13.5863 15.5 0
    endloop
  endfacet
  facet normal 0 0 -1
    outer loop
      vertex 0.825 15.5 0
      vertex 13.6297 15.6101 0
      vertex 13.5996 15.5376 0
    endloop
  endfacet
  facet normal 0 0 -1
    outer loop
      vertex 0.825 15.5 0
      vertex 13.6635 15.681 0
      vertex 13.6297 15.6101 0
    endloop
  endfacet
  facet normal 0 0 -1
    outer loop
      vertex 0.825 15.5 0
      vertex 13.701 15.75 0
      vertex 13.6635 15.681 0
    endloop
  endfacet
  facet normal 0 0 -1
    outer loop
      vertex 0.825 15.5 0
      vertex 13.742 15.817 0
      vertex 13.701 15.75 0
    endloop
  endfacet
  facet normal 0 0 -1
    outer loop
      vertex 0.825 15.5 0
      vertex 13.7865 15.8817 0
      vertex 13.742 15.817 0
    endloop
  endfacet
  facet normal 0 0 -1
    outer loop
      vertex 0.825 15.5 0
      vertex 13.8343 15.944 0
      vertex 13.7865 15.8817 0
    endloop
  endfacet
  facet normal 0 0 -1
    outer loop
      vertex 0.825 15.5 0
      vertex 13.8853 16.0037 0
      vertex 13.8343 15.944 0
    endloop
  endfacet
  facet normal 0 0 -1
    outer loop
      vertex 0.825 29.175 0
      vertex 13.8853 16.0037 0
      vertex 0.825 15.5 0
    endloop
  endfacet
  facet normal 0 0 -1
    outer loop
      vertex 13.8853 16.0037 0
      vertex 0.825 29.175 0
      vertex 13.9393 16.0607 0
    endloop
  endfacet
  facet normal 0 0 -1
    outer loop
      vertex 13.9393 16.0607 0
      vertex 0.825 29.175 0
      vertex 13.9963 16.1147 0
    endloop
  endfacet
  facet normal 0 0 -1
    outer loop
      vertex 15 16.5 0
      vertex 0.825 29.175 0
      vertex 29.175 29.175 0
    endloop
  endfacet
  facet normal 0 0 -1
    outer loop
      vertex 16.1147 13.9963 0
      vertex 29.175 14.5 0
      vertex 29.175 0.825 0
    endloop
  endfacet
  facet normal -0 0 -1
    outer loop
      vertex 29.175 14.5 0
      vertex 16.4004 14.4624 0
      vertex 16.4137 14.5 0
    endloop
  endfacet
  facet normal 0 0 -1
    outer loop
      vertex 29.175 14.5 0
      vertex 16.3703 14.3899 0
      vertex 16.4004 14.4624 0
    endloop
  endfacet
  facet normal 0 0 -1
    outer loop
      vertex 29.175 14.5 0
      vertex 16.3365 14.319 0
      vertex 16.3703 14.3899 0
    endloop
  endfacet
  facet normal 0 0 -1
    outer loop
      vertex 29.175 14.5 0
      vertex 16.299 14.25 0
      vertex 16.3365 14.319 0
    endloop
  endfacet
  facet normal 0 0 -1
    outer loop
      vertex 29.175 14.5 0
      vertex 16.258 14.183 0
      vertex 16.299 14.25 0
    endloop
  endfacet
  facet normal 0 0 -1
    outer loop
      vertex 29.175 14.5 0
      vertex 16.2135 14.1183 0
      vertex 16.258 14.183 0
    endloop
  endfacet
  facet normal 0 0 -1
    outer loop
      vertex 29.175 14.5 0
      vertex 16.1657 14.056 0
      vertex 16.2135 14.1183 0
    endloop
  endfacet
  facet normal 0 0 -1
    outer loop
      vertex 29.175 14.5 0
      vertex 16.1147 13.9963 0
      vertex 16.1657 14.056 0
    endloop
  endfacet
  facet normal 0 0 -1
    outer loop
      vertex 29.175 0.825 0
      vertex 16.0607 13.9393 0
      vertex 16.1147 13.9963 0
    endloop
  endfacet
  facet normal 0 0 -1
    outer loop
      vertex 29.175 0.825 0
      vertex 16.0037 13.8853 0
      vertex 16.0607 13.9393 0
    endloop
  endfacet
  facet normal 0 0 -1
    outer loop
      vertex 15.5 0.825 0
      vertex 16.0037 13.8853 0
      vertex 29.175 0.825 0
    endloop
  endfacet
  facet normal 0 0 -1
    outer loop
      vertex 16.0037 13.8853 0
      vertex 15.5 0.825 0
      vertex 15.944 13.8343 0
    endloop
  endfacet
  facet normal 0 0 -1
    outer loop
      vertex 15.944 13.8343 0
      vertex 15.5 0.825 0
      vertex 15.8817 13.7865 0
    endloop
  endfacet
  facet normal 0 0 -1
    outer loop
      vertex 15.8817 13.7865 0
      vertex 15.5 0.825 0
      vertex 15.817 13.742 0
    endloop
  endfacet
  facet normal 0 0 -1
    outer loop
      vertex 15.817 13.742 0
      vertex 15.5 0.825 0
      vertex 15.75 13.701 0
    endloop
  endfacet
  facet normal 0 0 -1
    outer loop
      vertex 15.75 13.701 0
      vertex 15.5 0.825 0
      vertex 15.681 13.6635 0
    endloop
  endfacet
  facet normal 0 0 -1
    outer loop
      vertex 15.681 13.6635 0
      vertex 15.5 0.825 0
      vertex 15.6101 13.6297 0
    endloop
  endfacet
  facet normal 0 0 -1
    outer loop
      vertex 15.6101 13.6297 0
      vertex 15.5 0.825 0
      vertex 15.5376 13.5996 0
    endloop
  endfacet
  facet normal 0 0 -1
    outer loop
      vertex 15.5376 13.5996 0
      vertex 15.5 0.825 0
      vertex 15.5 13.5863 0
    endloop
  endfacet
  facet normal 0 -1 0
    outer loop
      vertex 0 0 0.825
      vertex 11.1202 0 2.475
      vertex 0 0 2.475
    endloop
  endfacet
  facet normal 0 -1 -0
    outer loop
      vertex 11.1202 0 2.475
      vertex 0 0 0.825
      vertex 18.8797 0 2.475
    endloop
  endfacet
  facet normal 0 -1 0
    outer loop
      vertex 18.8797 0 2.475
      vertex 30 0 0.825
      vertex 30 0 2.475
    endloop
  endfacet
  facet normal 0 -1 0
    outer loop
      vertex 30 0 0.825
      vertex 18.8797 0 2.475
      vertex 0 0 0.825
    endloop
  endfacet
  facet normal -1 0 0
    outer loop
      vertex 3.3 3.3 2.475
      vertex 3.3 7.82025 6
      vertex 3.3 7.82025 2.475
    endloop
  endfacet
  facet normal -1 -0 0
    outer loop
      vertex 3.3 7.82025 6
      vertex 3.3 3.3 2.475
      vertex 3.3 3.3 6
    endloop
  endfacet
  facet normal -1 0 0
    outer loop
      vertex 3.3 22.1797 2.475
      vertex 3.3 26.7 6
      vertex 3.3 26.7 2.475
    endloop
  endfacet
  facet normal -1 -0 0
    outer loop
      vertex 3.3 26.7 6
      vertex 3.3 22.1797 2.475
      vertex 3.3 22.1797 6
    endloop
  endfacet
  facet normal 0 0 1
    outer loop
      vertex 26.7 7.82025 6
      vertex 22.1797 3.3 6
      vertex 26.7 3.3 6
    endloop
  endfacet
  facet normal 0 0 1
    outer loop
      vertex 3.3 7.82025 6
      vertex 3.3 3.3 6
      vertex 7.82025 3.3 6
    endloop
  endfacet
  facet normal 0 0 1
    outer loop
      vertex 26.7 26.7 6
      vertex 22.1798 26.7 6
      vertex 26.7 22.1798 6
    endloop
  endfacet
  facet normal -0 0 1
    outer loop
      vertex 3.3 26.7 6
      vertex 3.3 22.1797 6
      vertex 7.82025 26.7 6
    endloop
  endfacet
  facet normal 1 -0 0
    outer loop
      vertex 26.7 3.3 6
      vertex 26.7 7.82025 2.475
      vertex 26.7 7.82025 6
    endloop
  endfacet
  facet normal 1 0 0
    outer loop
      vertex 26.7 7.82025 2.475
      vertex 26.7 3.3 6
      vertex 26.7 3.3 2.475
    endloop
  endfacet
  facet normal 1 -0 0
    outer loop
      vertex 26.7 22.1798 6
      vertex 26.7 26.7 2.475
      vertex 26.7 26.7 6
    endloop
  endfacet
  facet normal 1 0 0
    outer loop
      vertex 26.7 26.7 2.475
      vertex 26.7 22.1798 6
      vertex 26.7 22.1798 2.475
    endloop
  endfacet
  facet normal 0 1 -0
    outer loop
      vertex 26.7 26.7 2.475
      vertex 22.1798 26.7 6
      vertex 26.7 26.7 6
    endloop
  endfacet
  facet normal 0 1 0
    outer loop
      vertex 22.1798 26.7 6
      vertex 26.7 26.7 2.475
      vertex 22.1798 26.7 2.475
    endloop
  endfacet
  facet normal 0 1 -0
    outer loop
      vertex 7.82025 26.7 2.475
      vertex 3.3 26.7 6
      vertex 7.82025 26.7 6
    endloop
  endfacet
  facet normal 0 1 0
    outer loop
      vertex 3.3 26.7 6
      vertex 7.82025 26.7 2.475
      vertex 3.3 26.7 2.475
    endloop
  endfacet
  facet normal 0 -1 0
    outer loop
      vertex 22.1797 3.3 2.475
      vertex 26.7 3.3 6
      vertex 22.1797 3.3 6
    endloop
  endfacet
  facet normal 0 -1 -0
    outer loop
      vertex 26.7 3.3 6
      vertex 22.1797 3.3 2.475
      vertex 26.7 3.3 2.475
    endloop
  endfacet
  facet normal 0 -1 0
    outer loop
      vertex 3.3 3.3 2.475
      vertex 7.82025 3.3 6
      vertex 3.3 3.3 6
    endloop
  endfacet
  facet normal 0 -1 -0
    outer loop
      vertex 7.82025 3.3 6
      vertex 3.3 3.3 2.475
      vertex 7.82025 3.3 2.475
    endloop
  endfacet
  facet normal -0.707107 -0.707107 0
    outer loop
      vertex 26.7 22.1798 2.475
      vertex 22.1798 26.7 6
      vertex 22.1798 26.7 2.475
    endloop
  endfacet
  facet normal -0.707107 -0.707107 0
    outer loop
      vertex 22.1798 26.7 6
      vertex 26.7 22.1798 2.475
      vertex 26.7 22.1798 6
    endloop
  endfacet
  facet normal 0.707107 0.707107 0
    outer loop
      vertex 7.82025 3.3 6
      vertex 3.3 7.82025 2.475
      vertex 3.3 7.82025 6
    endloop
  endfacet
  facet normal 0.707107 0.707107 0
    outer loop
      vertex 3.3 7.82025 2.475
      vertex 7.82025 3.3 6
      vertex 7.82025 3.3 2.475
    endloop
  endfacet
  facet normal -0.707103 0.707111 0
    outer loop
      vertex 26.7 7.82025 2.475
      vertex 22.1797 3.3 6
      vertex 26.7 7.82025 6
    endloop
  endfacet
  facet normal -0.707103 0.707111 0
    outer loop
      vertex 22.1797 3.3 6
      vertex 26.7 7.82025 2.475
      vertex 22.1797 3.3 2.475
    endloop
  endfacet
  facet normal 0.707111 -0.707103 0
    outer loop
      vertex 3.3 22.1797 6
      vertex 7.82025 26.7 2.475
      vertex 7.82025 26.7 6
    endloop
  endfacet
  facet normal 0.707111 -0.707103 0
    outer loop
      vertex 7.82025 26.7 2.475
      vertex 3.3 22.1797 6
      vertex 3.3 22.1797 2.475
    endloop
  endfacet
  facet normal 0 -0.707107 -0.707107
    outer loop
      vertex 0 0 0.825
      vertex 14.5 0.335 0.49
      vertex 30 0 0.825
    endloop
  endfacet
  facet normal 3.35888e-18 -0.707107 -0.707107
    outer loop
      vertex 0.825 0.825 0
      vertex 14.5 0.335 0.49
      vertex 0 0 0.825
    endloop
  endfacet
  facet normal 0 -0.707107 -0.707107
    outer loop
      vertex 14.5 0.335 0.49
      vertex 0.825 0.825 0
      vertex 14.5 0.825 0
    endloop
  endfacet
  facet normal -0 -0.707107 -0.707107
    outer loop
      vertex 15.5 0.335 0.49
      vertex 30 0 0.825
      vertex 14.5 0.335 0.49
    endloop
  endfacet
  facet normal -0 -0.707107 -0.707107
    outer loop
      vertex 29.175 0.825 0
      vertex 15.5 0.335 0.49
      vertex 15.5 0.825 0
    endloop
  endfacet
  facet normal -3.35888e-18 -0.707107 -0.707107
    outer loop
      vertex 15.5 0.335 0.49
      vertex 29.175 0.825 0
      vertex 30 0 0.825
    endloop
  endfacet
  facet normal -0.707107 -0 -0.707107
    outer loop
      vertex 0.825 14.5 0
      vertex 0.825 0.825 0
      vertex 0.335 14.5 0.49
    endloop
  endfacet
  facet normal -0.707107 0 -0.707107
    outer loop
      vertex 0.335 15.5 0.49
      vertex 0.825 29.175 0
      vertex 0.825 15.5 0
    endloop
  endfacet
  facet normal -0.707107 -3.35888e-18 -0.707107
    outer loop
      vertex 0.825 29.175 0
      vertex 0.335 15.5 0.49
      vertex 0 30 0.825
    endloop
  endfacet
  facet normal -0.707107 0 -0.707107
    outer loop
      vertex 0.335 14.5 0.49
      vertex 0 30 0.825
      vertex 0.335 15.5 0.49
    endloop
  endfacet
  facet normal -0.707107 0 -0.707107
    outer loop
      vertex 0.335 14.5 0.49
      vertex 0 0 0.825
      vertex 0 30 0.825
    endloop
  endfacet
  facet normal -0.707107 0 -0.707107
    outer loop
      vertex 0 0 0.825
      vertex 0.335 14.5 0.49
      vertex 0.825 0.825 0
    endloop
  endfacet
  facet normal 0.707107 0 -0.707107
    outer loop
      vertex 30 0 0.825
      vertex 29.665 14.5 0.49
      vertex 30 30 0.825
    endloop
  endfacet
  facet normal 0.707107 6.04599e-17 -0.707107
    outer loop
      vertex 29.175 0.825 0
      vertex 29.665 14.5 0.49
      vertex 30 0 0.825
    endloop
  endfacet
  facet normal 0.707107 0 -0.707107
    outer loop
      vertex 29.665 14.5 0.49
      vertex 29.175 0.825 0
      vertex 29.175 14.5 0
    endloop
  endfacet
  facet normal 0.707107 0 -0.707107
    outer loop
      vertex 29.665 15.5 0.49
      vertex 30 30 0.825
      vertex 29.665 14.5 0.49
    endloop
  endfacet
  facet normal 0.707107 0 -0.707107
    outer loop
      vertex 29.175 29.175 0
      vertex 29.665 15.5 0.49
      vertex 29.175 15.5 0
    endloop
  endfacet
  facet normal 0.707107 -5.7101e-17 -0.707107
    outer loop
      vertex 29.665 15.5 0.49
      vertex 29.175 29.175 0
      vertex 30 30 0.825
    endloop
  endfacet
  facet normal 0 0.707107 -0.707107
    outer loop
      vertex 0.825 29.175 0
      vertex 30 30 0.825
      vertex 29.175 29.175 0
    endloop
  endfacet
  facet normal 0 0.707107 -0.707107
    outer loop
      vertex 30 30 0.825
      vertex 0.825 29.175 0
      vertex 0 30 0.825
    endloop
  endfacet
  facet normal 0 0 -1
    outer loop
      vertex 14.5 13.5863 0.49
      vertex 15.5 13.5863 0.49
      vertex 15.5 0.335 0.49
    endloop
  endfacet
  facet normal 0 0 -1
    outer loop
      vertex 15.5 13.5863 0.49
      vertex 14.5 13.5863 0.49
      vertex 15.4635 16.4266 0.49
    endloop
  endfacet
  facet normal -0 0 -1
    outer loop
      vertex 15.4635 16.4266 0.49
      vertex 14.5 13.5863 0.49
      vertex 15.3882 16.4489 0.49
    endloop
  endfacet
  facet normal -0 0 -1
    outer loop
      vertex 15.3882 16.4489 0.49
      vertex 14.5 13.5863 0.49
      vertex 15.3119 16.4672 0.49
    endloop
  endfacet
  facet normal -0 0 -1
    outer loop
      vertex 15.3119 16.4672 0.49
      vertex 14.5 13.5863 0.49
      vertex 15.2347 16.4815 0.49
    endloop
  endfacet
  facet normal -0 0 -1
    outer loop
      vertex 15.2347 16.4815 0.49
      vertex 14.5 13.5863 0.49
      vertex 15.1568 16.4918 0.49
    endloop
  endfacet
  facet normal -0 0 -1
    outer loop
      vertex 15.1568 16.4918 0.49
      vertex 14.5 13.5863 0.49
      vertex 15.0785 16.4979 0.49
    endloop
  endfacet
  facet normal -0 0 -1
    outer loop
      vertex 15.0785 16.4979 0.49
      vertex 14.5 13.5863 0.49
      vertex 15 16.5 0.49
    endloop
  endfacet
  facet normal 0 0 -1
    outer loop
      vertex 15 16.5 0.49
      vertex 14.5 13.5863 0.49
      vertex 14.9215 16.4979 0.49
    endloop
  endfacet
  facet normal 0 0 -1
    outer loop
      vertex 14.9215 16.4979 0.49
      vertex 14.5 13.5863 0.49
      vertex 14.8432 16.4918 0.49
    endloop
  endfacet
  facet normal 0 0 -1
    outer loop
      vertex 14.8432 16.4918 0.49
      vertex 14.5 13.5863 0.49
      vertex 14.7653 16.4815 0.49
    endloop
  endfacet
  facet normal 0 0 -1
    outer loop
      vertex 14.7653 16.4815 0.49
      vertex 14.5 13.5863 0.49
      vertex 14.6881 16.4672 0.49
    endloop
  endfacet
  facet normal 0 0 -1
    outer loop
      vertex 14.6881 16.4672 0.49
      vertex 14.5 13.5863 0.49
      vertex 14.6118 16.4489 0.49
    endloop
  endfacet
  facet normal 0 0 -1
    outer loop
      vertex 14.5 13.5863 0.49
      vertex 15.5 0.335 0.49
      vertex 14.5 0.335 0.49
    endloop
  endfacet
  facet normal 0 0 -1
    outer loop
      vertex 14.6118 16.4489 0.49
      vertex 14.5 13.5863 0.49
      vertex 14.5365 16.4266 0.49
    endloop
  endfacet
  facet normal 0 0 -1
    outer loop
      vertex 14.3899 13.6297 0.49
      vertex 14.5 13.5863 0.49
      vertex 14.4624 13.5996 0.49
    endloop
  endfacet
  facet normal 0 0 -1
    outer loop
      vertex 14.5 13.5863 0.49
      vertex 14.4624 16.4004 0.49
      vertex 14.5365 16.4266 0.49
    endloop
  endfacet
  facet normal 0 0 -1
    outer loop
      vertex 14.5 13.5863 0.49
      vertex 14.3899 13.6297 0.49
      vertex 14.4624 16.4004 0.49
    endloop
  endfacet
  facet normal 0 0 -1
    outer loop
      vertex 14.3899 13.6297 0.49
      vertex 14.3899 16.3703 0.49
      vertex 14.4624 16.4004 0.49
    endloop
  endfacet
  facet normal 0 0 -1
    outer loop
      vertex 14.319 13.6635 0.49
      vertex 14.3899 16.3703 0.49
      vertex 14.3899 13.6297 0.49
    endloop
  endfacet
  facet normal 0 0 -1
    outer loop
      vertex 14.319 13.6635 0.49
      vertex 14.319 16.3365 0.49
      vertex 14.3899 16.3703 0.49
    endloop
  endfacet
  facet normal 0 0 -1
    outer loop
      vertex 14.25 13.701 0.49
      vertex 14.319 16.3365 0.49
      vertex 14.319 13.6635 0.49
    endloop
  endfacet
  facet normal 0 0 -1
    outer loop
      vertex 14.25 13.701 0.49
      vertex 14.25 16.299 0.49
      vertex 14.319 16.3365 0.49
    endloop
  endfacet
  facet normal 0 0 -1
    outer loop
      vertex 14.183 13.742 0.49
      vertex 14.25 16.299 0.49
      vertex 14.25 13.701 0.49
    endloop
  endfacet
  facet normal 0 0 -1
    outer loop
      vertex 14.183 13.742 0.49
      vertex 14.183 16.258 0.49
      vertex 14.25 16.299 0.49
    endloop
  endfacet
  facet normal 0 0 -1
    outer loop
      vertex 14.1183 13.7865 0.49
      vertex 14.183 16.258 0.49
      vertex 14.183 13.742 0.49
    endloop
  endfacet
  facet normal 0 0 -1
    outer loop
      vertex 14.1183 13.7865 0.49
      vertex 14.1183 16.2135 0.49
      vertex 14.183 16.258 0.49
    endloop
  endfacet
  facet normal 0 0 -1
    outer loop
      vertex 14.056 13.8343 0.49
      vertex 14.1183 16.2135 0.49
      vertex 14.1183 13.7865 0.49
    endloop
  endfacet
  facet normal 0 0 -1
    outer loop
      vertex 14.056 13.8343 0.49
      vertex 14.056 16.1657 0.49
      vertex 14.1183 16.2135 0.49
    endloop
  endfacet
  facet normal 0 0 -1
    outer loop
      vertex 13.9963 13.8853 0.49
      vertex 14.056 16.1657 0.49
      vertex 14.056 13.8343 0.49
    endloop
  endfacet
  facet normal 0 0 -1
    outer loop
      vertex 13.9963 13.8853 0.49
      vertex 13.9963 16.1147 0.49
      vertex 14.056 16.1657 0.49
    endloop
  endfacet
  facet normal 0 0 -1
    outer loop
      vertex 13.9393 13.9393 0.49
      vertex 13.9963 16.1147 0.49
      vertex 13.9963 13.8853 0.49
    endloop
  endfacet
  facet normal 0 0 -1
    outer loop
      vertex 13.9393 13.9393 0.49
      vertex 13.9393 16.0607 0.49
      vertex 13.9963 16.1147 0.49
    endloop
  endfacet
  facet normal 0 0 -1
    outer loop
      vertex 13.8853 13.9963 0.49
      vertex 13.9393 16.0607 0.49
      vertex 13.9393 13.9393 0.49
    endloop
  endfacet
  facet normal 0 0 -1
    outer loop
      vertex 13.8853 13.9963 0.49
      vertex 13.8853 16.0037 0.49
      vertex 13.9393 16.0607 0.49
    endloop
  endfacet
  facet normal 0 0 -1
    outer loop
      vertex 13.8343 14.056 0.49
      vertex 13.8853 16.0037 0.49
      vertex 13.8853 13.9963 0.49
    endloop
  endfacet
  facet normal 0 0 -1
    outer loop
      vertex 13.8343 14.056 0.49
      vertex 13.8343 15.944 0.49
      vertex 13.8853 16.0037 0.49
    endloop
  endfacet
  facet normal 0 0 -1
    outer loop
      vertex 13.7865 14.1183 0.49
      vertex 13.8343 15.944 0.49
      vertex 13.8343 14.056 0.49
    endloop
  endfacet
  facet normal 0 0 -1
    outer loop
      vertex 13.7865 14.1183 0.49
      vertex 13.7865 15.8817 0.49
      vertex 13.8343 15.944 0.49
    endloop
  endfacet
  facet normal 0 0 -1
    outer loop
      vertex 13.742 14.183 0.49
      vertex 13.7865 15.8817 0.49
      vertex 13.7865 14.1183 0.49
    endloop
  endfacet
  facet normal 0 0 -1
    outer loop
      vertex 13.742 14.183 0.49
      vertex 13.742 15.817 0.49
      vertex 13.7865 15.8817 0.49
    endloop
  endfacet
  facet normal 0 0 -1
    outer loop
      vertex 13.701 14.25 0.49
      vertex 13.742 15.817 0.49
      vertex 13.742 14.183 0.49
    endloop
  endfacet
  facet normal 0 0 -1
    outer loop
      vertex 13.701 14.25 0.49
      vertex 13.701 15.75 0.49
      vertex 13.742 15.817 0.49
    endloop
  endfacet
  facet normal 0 0 -1
    outer loop
      vertex 13.6635 14.319 0.49
      vertex 13.701 15.75 0.49
      vertex 13.701 14.25 0.49
    endloop
  endfacet
  facet normal 0 0 -1
    outer loop
      vertex 13.6635 14.319 0.49
      vertex 13.6635 15.681 0.49
      vertex 13.701 15.75 0.49
    endloop
  endfacet
  facet normal 0 0 -1
    outer loop
      vertex 13.6297 14.3899 0.49
      vertex 13.6635 15.681 0.49
      vertex 13.6635 14.319 0.49
    endloop
  endfacet
  facet normal 0 0 -1
    outer loop
      vertex 13.6297 14.3899 0.49
      vertex 13.6297 15.6101 0.49
      vertex 13.6635 15.681 0.49
    endloop
  endfacet
  facet normal 0 0 -1
    outer loop
      vertex 13.5996 14.4624 0.49
      vertex 13.6297 15.6101 0.49
      vertex 13.6297 14.3899 0.49
    endloop
  endfacet
  facet normal 0 0 -1
    outer loop
      vertex 13.5863 15.5 0.49
      vertex 13.6297 15.6101 0.49
      vertex 13.5996 14.4624 0.49
    endloop
  endfacet
  facet normal 0 0 -1
    outer loop
      vertex 13.6297 15.6101 0.49
      vertex 13.5863 15.5 0.49
      vertex 13.5996 15.5376 0.49
    endloop
  endfacet
  facet normal 0 0 -1
    outer loop
      vertex 13.5863 14.5 0.49
      vertex 13.5863 15.5 0.49
      vertex 13.5996 14.4624 0.49
    endloop
  endfacet
  facet normal 0 0 -1
    outer loop
      vertex 0.335 14.5 0.49
      vertex 13.5863 15.5 0.49
      vertex 13.5863 14.5 0.49
    endloop
  endfacet
  facet normal -0 0 -1
    outer loop
      vertex 13.5863 15.5 0.49
      vertex 0.335 14.5 0.49
      vertex 0.335 15.5 0.49
    endloop
  endfacet
  facet normal 0 0 -1
    outer loop
      vertex 16.4137 14.5 0.49
      vertex 29.665 15.5 0.49
      vertex 29.665 14.5 0.49
    endloop
  endfacet
  facet normal 0 0 -1
    outer loop
      vertex 16.4137 14.5 0.49
      vertex 16.4137 15.5 0.49
      vertex 29.665 15.5 0.49
    endloop
  endfacet
  facet normal 0 0 -1
    outer loop
      vertex 16.3703 14.3899 0.49
      vertex 16.4137 14.5 0.49
      vertex 16.4004 14.4624 0.49
    endloop
  endfacet
  facet normal -0 0 -1
    outer loop
      vertex 16.4137 14.5 0.49
      vertex 16.3703 14.3899 0.49
      vertex 16.4137 15.5 0.49
    endloop
  endfacet
  facet normal 0 0 -1
    outer loop
      vertex 16.3703 15.6101 0.49
      vertex 16.4137 15.5 0.49
      vertex 16.3703 14.3899 0.49
    endloop
  endfacet
  facet normal 0 0 -1
    outer loop
      vertex 16.4137 15.5 0.49
      vertex 16.3703 15.6101 0.49
      vertex 16.4004 15.5376 0.49
    endloop
  endfacet
  facet normal 0 0 -1
    outer loop
      vertex 16.3365 14.319 0.49
      vertex 16.3703 15.6101 0.49
      vertex 16.3703 14.3899 0.49
    endloop
  endfacet
  facet normal 0 0 -1
    outer loop
      vertex 16.3365 14.319 0.49
      vertex 16.3365 15.681 0.49
      vertex 16.3703 15.6101 0.49
    endloop
  endfacet
  facet normal 0 0 -1
    outer loop
      vertex 16.299 14.25 0.49
      vertex 16.3365 15.681 0.49
      vertex 16.3365 14.319 0.49
    endloop
  endfacet
  facet normal 0 0 -1
    outer loop
      vertex 16.299 14.25 0.49
      vertex 16.299 15.75 0.49
      vertex 16.3365 15.681 0.49
    endloop
  endfacet
  facet normal 0 0 -1
    outer loop
      vertex 16.258 14.183 0.49
      vertex 16.299 15.75 0.49
      vertex 16.299 14.25 0.49
    endloop
  endfacet
  facet normal 0 0 -1
    outer loop
      vertex 16.258 14.183 0.49
      vertex 16.258 15.817 0.49
      vertex 16.299 15.75 0.49
    endloop
  endfacet
  facet normal 0 0 -1
    outer loop
      vertex 16.2135 14.1183 0.49
      vertex 16.258 15.817 0.49
      vertex 16.258 14.183 0.49
    endloop
  endfacet
  facet normal 0 0 -1
    outer loop
      vertex 16.2135 14.1183 0.49
      vertex 16.2135 15.8817 0.49
      vertex 16.258 15.817 0.49
    endloop
  endfacet
  facet normal 0 0 -1
    outer loop
      vertex 16.1657 14.056 0.49
      vertex 16.2135 15.8817 0.49
      vertex 16.2135 14.1183 0.49
    endloop
  endfacet
  facet normal 0 0 -1
    outer loop
      vertex 16.1657 14.056 0.49
      vertex 16.1657 15.944 0.49
      vertex 16.2135 15.8817 0.49
    endloop
  endfacet
  facet normal 0 0 -1
    outer loop
      vertex 16.1147 13.9963 0.49
      vertex 16.1657 15.944 0.49
      vertex 16.1657 14.056 0.49
    endloop
  endfacet
  facet normal 0 0 -1
    outer loop
      vertex 16.1147 13.9963 0.49
      vertex 16.1147 16.0037 0.49
      vertex 16.1657 15.944 0.49
    endloop
  endfacet
  facet normal 0 0 -1
    outer loop
      vertex 16.0607 13.9393 0.49
      vertex 16.1147 16.0037 0.49
      vertex 16.1147 13.9963 0.49
    endloop
  endfacet
  facet normal 0 0 -1
    outer loop
      vertex 16.0607 13.9393 0.49
      vertex 16.0607 16.0607 0.49
      vertex 16.1147 16.0037 0.49
    endloop
  endfacet
  facet normal 0 0 -1
    outer loop
      vertex 16.0037 13.8853 0.49
      vertex 16.0607 16.0607 0.49
      vertex 16.0607 13.9393 0.49
    endloop
  endfacet
  facet normal 0 0 -1
    outer loop
      vertex 16.0037 13.8853 0.49
      vertex 16.0037 16.1147 0.49
      vertex 16.0607 16.0607 0.49
    endloop
  endfacet
  facet normal 0 0 -1
    outer loop
      vertex 15.944 13.8343 0.49
      vertex 16.0037 16.1147 0.49
      vertex 16.0037 13.8853 0.49
    endloop
  endfacet
  facet normal 0 0 -1
    outer loop
      vertex 15.944 13.8343 0.49
      vertex 15.944 16.1657 0.49
      vertex 16.0037 16.1147 0.49
    endloop
  endfacet
  facet normal 0 0 -1
    outer loop
      vertex 15.8817 13.7865 0.49
      vertex 15.944 16.1657 0.49
      vertex 15.944 13.8343 0.49
    endloop
  endfacet
  facet normal 0 0 -1
    outer loop
      vertex 15.8817 13.7865 0.49
      vertex 15.8817 16.2135 0.49
      vertex 15.944 16.1657 0.49
    endloop
  endfacet
  facet normal 0 0 -1
    outer loop
      vertex 15.817 13.742 0.49
      vertex 15.8817 16.2135 0.49
      vertex 15.8817 13.7865 0.49
    endloop
  endfacet
  facet normal 0 0 -1
    outer loop
      vertex 15.817 13.742 0.49
      vertex 15.817 16.258 0.49
      vertex 15.8817 16.2135 0.49
    endloop
  endfacet
  facet normal 0 0 -1
    outer loop
      vertex 15.75 13.701 0.49
      vertex 15.817 16.258 0.49
      vertex 15.817 13.742 0.49
    endloop
  endfacet
  facet normal 0 0 -1
    outer loop
      vertex 15.75 13.701 0.49
      vertex 15.75 16.299 0.49
      vertex 15.817 16.258 0.49
    endloop
  endfacet
  facet normal 0 0 -1
    outer loop
      vertex 15.681 13.6635 0.49
      vertex 15.75 16.299 0.49
      vertex 15.75 13.701 0.49
    endloop
  endfacet
  facet normal 0 0 -1
    outer loop
      vertex 15.681 13.6635 0.49
      vertex 15.681 16.3365 0.49
      vertex 15.75 16.299 0.49
    endloop
  endfacet
  facet normal 0 0 -1
    outer loop
      vertex 15.6101 13.6297 0.49
      vertex 15.681 16.3365 0.49
      vertex 15.681 13.6635 0.49
    endloop
  endfacet
  facet normal 0 0 -1
    outer loop
      vertex 15.6101 13.6297 0.49
      vertex 15.6101 16.3703 0.49
      vertex 15.681 16.3365 0.49
    endloop
  endfacet
  facet normal 0 0 -1
    outer loop
      vertex 15.5 13.5863 0.49
      vertex 15.6101 13.6297 0.49
      vertex 15.5376 13.5996 0.49
    endloop
  endfacet
  facet normal -0 0 -1
    outer loop
      vertex 15.6101 13.6297 0.49
      vertex 15.5 13.5863 0.49
      vertex 15.6101 16.3703 0.49
    endloop
  endfacet
  facet normal -0 0 -1
    outer loop
      vertex 15.6101 16.3703 0.49
      vertex 15.5 13.5863 0.49
      vertex 15.5376 16.4004 0.49
    endloop
  endfacet
  facet normal -0 0 -1
    outer loop
      vertex 15.5376 16.4004 0.49
      vertex 15.5 13.5863 0.49
      vertex 15.4635 16.4266 0.49
    endloop
  endfacet
  facet normal 0 -1 0
    outer loop
      vertex 0.825 15.5 0
      vertex 13.5863 15.5 0.49
      vertex 0.335 15.5 0.49
    endloop
  endfacet
  facet normal 0 -1 -0
    outer loop
      vertex 13.5863 15.5 0.49
      vertex 0.825 15.5 0
      vertex 13.5863 15.5 0
    endloop
  endfacet
  facet normal 0 -1 0
    outer loop
      vertex 29.175 15.5 0
      vertex 16.4137 15.5 0.49
      vertex 16.4137 15.5 0
    endloop
  endfacet
  facet normal 0 -1 0
    outer loop
      vertex 16.4137 15.5 0.49
      vertex 29.175 15.5 0
      vertex 29.665 15.5 0.49
    endloop
  endfacet
  facet normal 0 1 0
    outer loop
      vertex 0.825 14.5 0
      vertex 13.5863 14.5 0.49
      vertex 13.5863 14.5 0
    endloop
  endfacet
  facet normal 0 1 0
    outer loop
      vertex 13.5863 14.5 0.49
      vertex 0.825 14.5 0
      vertex 0.335 14.5 0.49
    endloop
  endfacet
  facet normal 0 1 -0
    outer loop
      vertex 29.175 14.5 0
      vertex 16.4137 14.5 0.49
      vertex 29.665 14.5 0.49
    endloop
  endfacet
  facet normal 0 1 0
    outer loop
      vertex 16.4137 14.5 0.49
      vertex 29.175 14.5 0
      vertex 16.4137 14.5 0
    endloop
  endfacet
  facet normal 1 0 0
    outer loop
      vertex 14.5 13.5863 0.49
      vertex 14.5 0.825 0
      vertex 14.5 13.5863 0
    endloop
  endfacet
  facet normal 1 0 -0
    outer loop
      vertex 14.5 0.825 0
      vertex 14.5 13.5863 0.49
      vertex 14.5 0.335 0.49
    endloop
  endfacet
  facet normal -1 0 0
    outer loop
      vertex 15.5 0.825 0
      vertex 15.5 13.5863 0.49
      vertex 15.5 13.5863 0
    endloop
  endfacet
  facet normal -1 -0 0
    outer loop
      vertex 15.5 13.5863 0.49
      vertex 15.5 0.825 0
      vertex 15.5 0.335 0.49
    endloop
  endfacet
  facet normal 0.026742 -0.999642 0
    outer loop
      vertex 14.9215 16.4979 0
      vertex 15 16.5 0.49
      vertex 14.9215 16.4979 0.49
    endloop
  endfacet
  facet normal 0.026742 -0.999642 0
    outer loop
      vertex 15 16.5 0.49
      vertex 14.9215 16.4979 0
      vertex 15 16.5 0
    endloop
  endfacet
  facet normal -0.687745 -0.725953 0
    outer loop
      vertex 16.0037 16.1147 0
      vertex 16.0607 16.0607 0.49
      vertex 16.0037 16.1147 0.49
    endloop
  endfacet
  facet normal -0.687745 -0.725953 -0
    outer loop
      vertex 16.0607 16.0607 0.49
      vertex 16.0037 16.1147 0
      vertex 16.0607 16.0607 0
    endloop
  endfacet
  facet normal 0.725953 -0.687745 0
    outer loop
      vertex 13.8853 16.0037 0.49
      vertex 13.9393 16.0607 0
      vertex 13.9393 16.0607 0.49
    endloop
  endfacet
  facet normal 0.725953 -0.687745 0
    outer loop
      vertex 13.9393 16.0607 0
      vertex 13.8853 16.0037 0.49
      vertex 13.8853 16.0037 0
    endloop
  endfacet
  facet normal 0.430329 -0.902672 0
    outer loop
      vertex 14.319 16.3365 0
      vertex 14.3899 16.3703 0.49
      vertex 14.319 16.3365 0.49
    endloop
  endfacet
  facet normal 0.430329 -0.902672 0
    outer loop
      vertex 14.3899 16.3703 0.49
      vertex 14.319 16.3365 0
      vertex 14.3899 16.3703 0
    endloop
  endfacet
  facet normal 0.902672 0.430329 0
    outer loop
      vertex 13.6635 14.319 0.49
      vertex 13.6297 14.3899 0
      vertex 13.6297 14.3899 0.49
    endloop
  endfacet
  facet normal 0.902672 0.430329 0
    outer loop
      vertex 13.6297 14.3899 0
      vertex 13.6635 14.319 0.49
      vertex 13.6635 14.319 0
    endloop
  endfacet
  facet normal -0.902672 -0.430329 0
    outer loop
      vertex 16.3703 15.6101 0
      vertex 16.3365 15.681 0.49
      vertex 16.3365 15.681 0
    endloop
  endfacet
  facet normal -0.902672 -0.430329 0
    outer loop
      vertex 16.3365 15.681 0.49
      vertex 16.3703 15.6101 0
      vertex 16.3703 15.6101 0.49
    endloop
  endfacet
  facet normal -0.383439 -0.923566 0
    outer loop
      vertex 15.5376 16.4004 0
      vertex 15.6101 16.3703 0.49
      vertex 15.5376 16.4004 0.49
    endloop
  endfacet
  facet normal -0.383439 -0.923566 -0
    outer loop
      vertex 15.6101 16.3703 0.49
      vertex 15.5376 16.4004 0
      vertex 15.6101 16.3703 0
    endloop
  endfacet
  facet normal -0.521965 -0.852967 0
    outer loop
      vertex 15.75 16.299 0
      vertex 15.817 16.258 0.49
      vertex 15.75 16.299 0.49
    endloop
  endfacet
  facet normal -0.521965 -0.852967 -0
    outer loop
      vertex 15.817 16.258 0.49
      vertex 15.75 16.299 0
      vertex 15.817 16.258 0
    endloop
  endfacet
  facet normal 0.923566 -0.383439 0
    outer loop
      vertex 13.5996 15.5376 0.49
      vertex 13.6297 15.6101 0
      vertex 13.6297 15.6101 0.49
    endloop
  endfacet
  facet normal 0.923566 -0.383439 0
    outer loop
      vertex 13.6297 15.6101 0
      vertex 13.5996 15.5376 0.49
      vertex 13.5996 15.5376 0
    endloop
  endfacet
  facet normal 0.233228 -0.972422 0
    outer loop
      vertex 14.6118 16.4489 0
      vertex 14.6881 16.4672 0.49
      vertex 14.6118 16.4489 0.49
    endloop
  endfacet
  facet normal 0.233228 -0.972422 0
    outer loop
      vertex 14.6881 16.4672 0.49
      vertex 14.6118 16.4489 0
      vertex 14.6881 16.4672 0
    endloop
  endfacet
  facet normal -0.82393 -0.566691 0
    outer loop
      vertex 16.258 15.817 0
      vertex 16.2135 15.8817 0.49
      vertex 16.2135 15.8817 0
    endloop
  endfacet
  facet normal -0.82393 -0.566691 0
    outer loop
      vertex 16.2135 15.8817 0.49
      vertex 16.258 15.817 0
      vertex 16.258 15.817 0.49
    endloop
  endfacet
  facet normal -0.878625 -0.477513 0
    outer loop
      vertex 16.3365 15.681 0
      vertex 16.299 15.75 0.49
      vertex 16.299 15.75 0
    endloop
  endfacet
  facet normal -0.878625 -0.477513 0
    outer loop
      vertex 16.299 15.75 0.49
      vertex 16.3365 15.681 0
      vertex 16.3365 15.681 0.49
    endloop
  endfacet
  facet normal -0.182135 -0.983274 0
    outer loop
      vertex 15.2347 16.4815 0
      vertex 15.3119 16.4672 0.49
      vertex 15.2347 16.4815 0.49
    endloop
  endfacet
  facet normal -0.182135 -0.983274 -0
    outer loop
      vertex 15.3119 16.4672 0.49
      vertex 15.2347 16.4815 0
      vertex 15.3119 16.4672 0
    endloop
  endfacet
  facet normal -0.477513 -0.878625 0
    outer loop
      vertex 15.681 16.3365 0
      vertex 15.75 16.299 0.49
      vertex 15.681 16.3365 0.49
    endloop
  endfacet
  facet normal -0.477513 -0.878625 -0
    outer loop
      vertex 15.75 16.299 0.49
      vertex 15.681 16.3365 0
      vertex 15.75 16.299 0
    endloop
  endfacet
  facet normal -0.608726 -0.793381 0
    outer loop
      vertex 15.8817 16.2135 0
      vertex 15.944 16.1657 0.49
      vertex 15.8817 16.2135 0.49
    endloop
  endfacet
  facet normal -0.608726 -0.793381 -0
    outer loop
      vertex 15.944 16.1657 0.49
      vertex 15.8817 16.2135 0
      vertex 15.944 16.1657 0
    endloop
  endfacet
  facet normal 0.852967 -0.521965 0
    outer loop
      vertex 13.701 15.75 0.49
      vertex 13.742 15.817 0
      vertex 13.742 15.817 0.49
    endloop
  endfacet
  facet normal 0.852967 -0.521965 0
    outer loop
      vertex 13.742 15.817 0
      vertex 13.701 15.75 0.49
      vertex 13.701 15.75 0
    endloop
  endfacet
  facet normal 0.878625 -0.477513 0
    outer loop
      vertex 13.6635 15.681 0.49
      vertex 13.701 15.75 0
      vertex 13.701 15.75 0.49
    endloop
  endfacet
  facet normal 0.878625 -0.477513 0
    outer loop
      vertex 13.701 15.75 0
      vertex 13.6635 15.681 0.49
      vertex 13.6635 15.681 0
    endloop
  endfacet
  facet normal 0.566691 -0.82393 0
    outer loop
      vertex 14.1183 16.2135 0
      vertex 14.183 16.258 0.49
      vertex 14.1183 16.2135 0.49
    endloop
  endfacet
  facet normal 0.566691 -0.82393 0
    outer loop
      vertex 14.183 16.258 0.49
      vertex 14.1183 16.2135 0
      vertex 14.183 16.258 0
    endloop
  endfacet
  facet normal 0.13108 -0.991372 0
    outer loop
      vertex 14.7653 16.4815 0
      vertex 14.8432 16.4918 0.49
      vertex 14.7653 16.4815 0.49
    endloop
  endfacet
  facet normal 0.13108 -0.991372 0
    outer loop
      vertex 14.8432 16.4918 0.49
      vertex 14.7653 16.4815 0
      vertex 14.8432 16.4918 0
    endloop
  endfacet
  facet normal -0.566691 0.82393 0
    outer loop
      vertex 15.8817 13.7865 0
      vertex 15.817 13.742 0.49
      vertex 15.8817 13.7865 0.49
    endloop
  endfacet
  facet normal -0.566691 0.82393 0
    outer loop
      vertex 15.817 13.742 0.49
      vertex 15.8817 13.7865 0
      vertex 15.817 13.742 0
    endloop
  endfacet
  facet normal -0.477513 0.878625 0
    outer loop
      vertex 15.75 13.701 0
      vertex 15.681 13.6635 0.49
      vertex 15.75 13.701 0.49
    endloop
  endfacet
  facet normal -0.477513 0.878625 0
    outer loop
      vertex 15.681 13.6635 0.49
      vertex 15.75 13.701 0
      vertex 15.681 13.6635 0
    endloop
  endfacet
  facet normal -0.942759 -0.333476 0
    outer loop
      vertex 16.4137 15.5 0
      vertex 16.4004 15.5376 0.49
      vertex 16.4004 15.5376 0
    endloop
  endfacet
  facet normal -0.942759 -0.333476 0
    outer loop
      vertex 16.4004 15.5376 0.49
      vertex 16.4137 15.5 0
      vertex 16.4137 15.5 0.49
    endloop
  endfacet
  facet normal -0.923566 -0.383439 0
    outer loop
      vertex 16.4004 15.5376 0
      vertex 16.3703 15.6101 0.49
      vertex 16.3703 15.6101 0
    endloop
  endfacet
  facet normal -0.923566 -0.383439 0
    outer loop
      vertex 16.3703 15.6101 0.49
      vertex 16.4004 15.5376 0
      vertex 16.4004 15.5376 0.49
    endloop
  endfacet
  facet normal -0.760334 -0.649532 0
    outer loop
      vertex 16.1657 15.944 0
      vertex 16.1147 16.0037 0.49
      vertex 16.1147 16.0037 0
    endloop
  endfacet
  facet normal -0.760334 -0.649532 0
    outer loop
      vertex 16.1147 16.0037 0.49
      vertex 16.1657 15.944 0
      vertex 16.1657 15.944 0.49
    endloop
  endfacet
  facet normal -0.793381 -0.608726 0
    outer loop
      vertex 16.2135 15.8817 0
      vertex 16.1657 15.944 0.49
      vertex 16.1657 15.944 0
    endloop
  endfacet
  facet normal -0.793381 -0.608726 0
    outer loop
      vertex 16.1657 15.944 0.49
      vertex 16.2135 15.8817 0
      vertex 16.2135 15.8817 0.49
    endloop
  endfacet
  facet normal -0.725953 -0.687745 0
    outer loop
      vertex 16.1147 16.0037 0
      vertex 16.0607 16.0607 0.49
      vertex 16.0607 16.0607 0
    endloop
  endfacet
  facet normal -0.725953 -0.687745 0
    outer loop
      vertex 16.0607 16.0607 0.49
      vertex 16.1147 16.0037 0
      vertex 16.1147 16.0037 0.49
    endloop
  endfacet
  facet normal -0.852967 -0.521965 0
    outer loop
      vertex 16.299 15.75 0
      vertex 16.258 15.817 0.49
      vertex 16.258 15.817 0
    endloop
  endfacet
  facet normal -0.852967 -0.521965 0
    outer loop
      vertex 16.258 15.817 0.49
      vertex 16.299 15.75 0
      vertex 16.299 15.75 0.49
    endloop
  endfacet
  facet normal -0.0776701 -0.996979 0
    outer loop
      vertex 15.0785 16.4979 0
      vertex 15.1568 16.4918 0.49
      vertex 15.0785 16.4979 0.49
    endloop
  endfacet
  facet normal -0.0776701 -0.996979 -0
    outer loop
      vertex 15.1568 16.4918 0.49
      vertex 15.0785 16.4979 0
      vertex 15.1568 16.4918 0
    endloop
  endfacet
  facet normal -0.283958 -0.958837 0
    outer loop
      vertex 15.3882 16.4489 0
      vertex 15.4635 16.4266 0.49
      vertex 15.3882 16.4489 0.49
    endloop
  endfacet
  facet normal -0.283958 -0.958837 -0
    outer loop
      vertex 15.4635 16.4266 0.49
      vertex 15.3882 16.4489 0
      vertex 15.4635 16.4266 0
    endloop
  endfacet
  facet normal -0.333352 -0.942802 0
    outer loop
      vertex 15.4635 16.4266 0
      vertex 15.5376 16.4004 0.49
      vertex 15.4635 16.4266 0.49
    endloop
  endfacet
  facet normal -0.333352 -0.942802 -0
    outer loop
      vertex 15.5376 16.4004 0.49
      vertex 15.4635 16.4266 0
      vertex 15.5376 16.4004 0
    endloop
  endfacet
  facet normal -0.233228 -0.972422 0
    outer loop
      vertex 15.3119 16.4672 0
      vertex 15.3882 16.4489 0.49
      vertex 15.3119 16.4672 0.49
    endloop
  endfacet
  facet normal -0.233228 -0.972422 -0
    outer loop
      vertex 15.3882 16.4489 0.49
      vertex 15.3119 16.4672 0
      vertex 15.3882 16.4489 0
    endloop
  endfacet
  facet normal -0.13108 -0.991372 0
    outer loop
      vertex 15.1568 16.4918 0
      vertex 15.2347 16.4815 0.49
      vertex 15.1568 16.4918 0.49
    endloop
  endfacet
  facet normal -0.13108 -0.991372 -0
    outer loop
      vertex 15.2347 16.4815 0.49
      vertex 15.1568 16.4918 0
      vertex 15.2347 16.4815 0
    endloop
  endfacet
  facet normal -0.026742 -0.999642 0
    outer loop
      vertex 15 16.5 0
      vertex 15.0785 16.4979 0.49
      vertex 15 16.5 0.49
    endloop
  endfacet
  facet normal -0.026742 -0.999642 -0
    outer loop
      vertex 15.0785 16.4979 0.49
      vertex 15 16.5 0
      vertex 15.0785 16.4979 0
    endloop
  endfacet
  facet normal -0.430329 -0.902672 0
    outer loop
      vertex 15.6101 16.3703 0
      vertex 15.681 16.3365 0.49
      vertex 15.6101 16.3703 0.49
    endloop
  endfacet
  facet normal -0.430329 -0.902672 -0
    outer loop
      vertex 15.681 16.3365 0.49
      vertex 15.6101 16.3703 0
      vertex 15.681 16.3365 0
    endloop
  endfacet
  facet normal -0.566691 -0.82393 0
    outer loop
      vertex 15.817 16.258 0
      vertex 15.8817 16.2135 0.49
      vertex 15.817 16.258 0.49
    endloop
  endfacet
  facet normal -0.566691 -0.82393 -0
    outer loop
      vertex 15.8817 16.2135 0.49
      vertex 15.817 16.258 0
      vertex 15.8817 16.2135 0
    endloop
  endfacet
  facet normal -0.649532 -0.760334 0
    outer loop
      vertex 15.944 16.1657 0
      vertex 16.0037 16.1147 0.49
      vertex 15.944 16.1657 0.49
    endloop
  endfacet
  facet normal -0.649532 -0.760334 -0
    outer loop
      vertex 16.0037 16.1147 0.49
      vertex 15.944 16.1657 0
      vertex 16.0037 16.1147 0
    endloop
  endfacet
  facet normal 0.793381 -0.608726 0
    outer loop
      vertex 13.7865 15.8817 0.49
      vertex 13.8343 15.944 0
      vertex 13.8343 15.944 0.49
    endloop
  endfacet
  facet normal 0.793381 -0.608726 0
    outer loop
      vertex 13.8343 15.944 0
      vertex 13.7865 15.8817 0.49
      vertex 13.7865 15.8817 0
    endloop
  endfacet
  facet normal 0.760334 -0.649532 0
    outer loop
      vertex 13.8343 15.944 0.49
      vertex 13.8853 16.0037 0
      vertex 13.8853 16.0037 0.49
    endloop
  endfacet
  facet normal 0.760334 -0.649532 0
    outer loop
      vertex 13.8853 16.0037 0
      vertex 13.8343 15.944 0.49
      vertex 13.8343 15.944 0
    endloop
  endfacet
  facet normal 0.82393 -0.566691 0
    outer loop
      vertex 13.742 15.817 0.49
      vertex 13.7865 15.8817 0
      vertex 13.7865 15.8817 0.49
    endloop
  endfacet
  facet normal 0.82393 -0.566691 0
    outer loop
      vertex 13.7865 15.8817 0
      vertex 13.742 15.817 0.49
      vertex 13.742 15.817 0
    endloop
  endfacet
  facet normal 0.902672 -0.430329 0
    outer loop
      vertex 13.6297 15.6101 0.49
      vertex 13.6635 15.681 0
      vertex 13.6635 15.681 0.49
    endloop
  endfacet
  facet normal 0.902672 -0.430329 0
    outer loop
      vertex 13.6635 15.681 0
      vertex 13.6297 15.6101 0.49
      vertex 13.6297 15.6101 0
    endloop
  endfacet
  facet normal 0.942759 -0.333476 0
    outer loop
      vertex 13.5863 15.5 0.49
      vertex 13.5996 15.5376 0
      vertex 13.5996 15.5376 0.49
    endloop
  endfacet
  facet normal 0.942759 -0.333476 0
    outer loop
      vertex 13.5996 15.5376 0
      vertex 13.5863 15.5 0.49
      vertex 13.5863 15.5 0
    endloop
  endfacet
  facet normal 0.649532 -0.760334 0
    outer loop
      vertex 13.9963 16.1147 0
      vertex 14.056 16.1657 0.49
      vertex 13.9963 16.1147 0.49
    endloop
  endfacet
  facet normal 0.649532 -0.760334 0
    outer loop
      vertex 14.056 16.1657 0.49
      vertex 13.9963 16.1147 0
      vertex 14.056 16.1657 0
    endloop
  endfacet
  facet normal 0.521965 -0.852967 0
    outer loop
      vertex 14.183 16.258 0
      vertex 14.25 16.299 0.49
      vertex 14.183 16.258 0.49
    endloop
  endfacet
  facet normal 0.521965 -0.852967 0
    outer loop
      vertex 14.25 16.299 0.49
      vertex 14.183 16.258 0
      vertex 14.25 16.299 0
    endloop
  endfacet
  facet normal 0.477513 -0.878625 0
    outer loop
      vertex 14.25 16.299 0
      vertex 14.319 16.3365 0.49
      vertex 14.25 16.299 0.49
    endloop
  endfacet
  facet normal 0.477513 -0.878625 0
    outer loop
      vertex 14.319 16.3365 0.49
      vertex 14.25 16.299 0
      vertex 14.319 16.3365 0
    endloop
  endfacet
  facet normal 0.608726 -0.793381 0
    outer loop
      vertex 14.056 16.1657 0
      vertex 14.1183 16.2135 0.49
      vertex 14.056 16.1657 0.49
    endloop
  endfacet
  facet normal 0.608726 -0.793381 0
    outer loop
      vertex 14.1183 16.2135 0.49
      vertex 14.056 16.1657 0
      vertex 14.1183 16.2135 0
    endloop
  endfacet
  facet normal 0.687745 -0.725953 0
    outer loop
      vertex 13.9393 16.0607 0
      vertex 13.9963 16.1147 0.49
      vertex 13.9393 16.0607 0.49
    endloop
  endfacet
  facet normal 0.687745 -0.725953 0
    outer loop
      vertex 13.9963 16.1147 0.49
      vertex 13.9393 16.0607 0
      vertex 13.9963 16.1147 0
    endloop
  endfacet
  facet normal 0.333352 -0.942802 0
    outer loop
      vertex 14.4624 16.4004 0
      vertex 14.5365 16.4266 0.49
      vertex 14.4624 16.4004 0.49
    endloop
  endfacet
  facet normal 0.333352 -0.942802 0
    outer loop
      vertex 14.5365 16.4266 0.49
      vertex 14.4624 16.4004 0
      vertex 14.5365 16.4266 0
    endloop
  endfacet
  facet normal 0.283958 -0.958837 0
    outer loop
      vertex 14.5365 16.4266 0
      vertex 14.6118 16.4489 0.49
      vertex 14.5365 16.4266 0.49
    endloop
  endfacet
  facet normal 0.283958 -0.958837 0
    outer loop
      vertex 14.6118 16.4489 0.49
      vertex 14.5365 16.4266 0
      vertex 14.6118 16.4489 0
    endloop
  endfacet
  facet normal 0.383439 -0.923566 0
    outer loop
      vertex 14.3899 16.3703 0
      vertex 14.4624 16.4004 0.49
      vertex 14.3899 16.3703 0.49
    endloop
  endfacet
  facet normal 0.383439 -0.923566 0
    outer loop
      vertex 14.4624 16.4004 0.49
      vertex 14.3899 16.3703 0
      vertex 14.4624 16.4004 0
    endloop
  endfacet
  facet normal 0.182135 -0.983274 0
    outer loop
      vertex 14.6881 16.4672 0
      vertex 14.7653 16.4815 0.49
      vertex 14.6881 16.4672 0.49
    endloop
  endfacet
  facet normal 0.182135 -0.983274 0
    outer loop
      vertex 14.7653 16.4815 0.49
      vertex 14.6881 16.4672 0
      vertex 14.7653 16.4815 0
    endloop
  endfacet
  facet normal 0.0776701 -0.996979 0
    outer loop
      vertex 14.8432 16.4918 0
      vertex 14.9215 16.4979 0.49
      vertex 14.8432 16.4918 0.49
    endloop
  endfacet
  facet normal 0.0776701 -0.996979 0
    outer loop
      vertex 14.9215 16.4979 0.49
      vertex 14.8432 16.4918 0
      vertex 14.9215 16.4979 0
    endloop
  endfacet
  facet normal -0.383439 0.923566 0
    outer loop
      vertex 15.6101 13.6297 0
      vertex 15.5376 13.5996 0.49
      vertex 15.6101 13.6297 0.49
    endloop
  endfacet
  facet normal -0.383439 0.923566 0
    outer loop
      vertex 15.5376 13.5996 0.49
      vertex 15.6101 13.6297 0
      vertex 15.5376 13.5996 0
    endloop
  endfacet
  facet normal -0.608726 0.793381 0
    outer loop
      vertex 15.944 13.8343 0
      vertex 15.8817 13.7865 0.49
      vertex 15.944 13.8343 0.49
    endloop
  endfacet
  facet normal -0.608726 0.793381 0
    outer loop
      vertex 15.8817 13.7865 0.49
      vertex 15.944 13.8343 0
      vertex 15.8817 13.7865 0
    endloop
  endfacet
  facet normal -0.687745 0.725953 0
    outer loop
      vertex 16.0607 13.9393 0
      vertex 16.0037 13.8853 0.49
      vertex 16.0607 13.9393 0.49
    endloop
  endfacet
  facet normal -0.687745 0.725953 0
    outer loop
      vertex 16.0037 13.8853 0.49
      vertex 16.0607 13.9393 0
      vertex 16.0037 13.8853 0
    endloop
  endfacet
  facet normal -0.521965 0.852967 0
    outer loop
      vertex 15.817 13.742 0
      vertex 15.75 13.701 0.49
      vertex 15.817 13.742 0.49
    endloop
  endfacet
  facet normal -0.521965 0.852967 0
    outer loop
      vertex 15.75 13.701 0.49
      vertex 15.817 13.742 0
      vertex 15.75 13.701 0
    endloop
  endfacet
  facet normal -0.760334 0.649532 0
    outer loop
      vertex 16.1147 13.9963 0
      vertex 16.1657 14.056 0.49
      vertex 16.1657 14.056 0
    endloop
  endfacet
  facet normal -0.760334 0.649532 0
    outer loop
      vertex 16.1657 14.056 0.49
      vertex 16.1147 13.9963 0
      vertex 16.1147 13.9963 0.49
    endloop
  endfacet
  facet normal -0.82393 0.566691 0
    outer loop
      vertex 16.2135 14.1183 0
      vertex 16.258 14.183 0.49
      vertex 16.258 14.183 0
    endloop
  endfacet
  facet normal -0.82393 0.566691 0
    outer loop
      vertex 16.258 14.183 0.49
      vertex 16.2135 14.1183 0
      vertex 16.2135 14.1183 0.49
    endloop
  endfacet
  facet normal -0.902672 0.430329 0
    outer loop
      vertex 16.3365 14.319 0
      vertex 16.3703 14.3899 0.49
      vertex 16.3703 14.3899 0
    endloop
  endfacet
  facet normal -0.902672 0.430329 0
    outer loop
      vertex 16.3703 14.3899 0.49
      vertex 16.3365 14.319 0
      vertex 16.3365 14.319 0.49
    endloop
  endfacet
  facet normal -0.852967 0.521965 0
    outer loop
      vertex 16.258 14.183 0
      vertex 16.299 14.25 0.49
      vertex 16.299 14.25 0
    endloop
  endfacet
  facet normal -0.852967 0.521965 0
    outer loop
      vertex 16.299 14.25 0.49
      vertex 16.258 14.183 0
      vertex 16.258 14.183 0.49
    endloop
  endfacet
  facet normal -0.942759 0.333476 0
    outer loop
      vertex 16.4004 14.4624 0
      vertex 16.4137 14.5 0.49
      vertex 16.4137 14.5 0
    endloop
  endfacet
  facet normal -0.942759 0.333476 0
    outer loop
      vertex 16.4137 14.5 0.49
      vertex 16.4004 14.4624 0
      vertex 16.4004 14.4624 0.49
    endloop
  endfacet
  facet normal 0.649532 0.760334 -0
    outer loop
      vertex 14.056 13.8343 0
      vertex 13.9963 13.8853 0.49
      vertex 14.056 13.8343 0.49
    endloop
  endfacet
  facet normal 0.649532 0.760334 0
    outer loop
      vertex 13.9963 13.8853 0.49
      vertex 14.056 13.8343 0
      vertex 13.9963 13.8853 0
    endloop
  endfacet
  facet normal 0.566691 0.82393 -0
    outer loop
      vertex 14.183 13.742 0
      vertex 14.1183 13.7865 0.49
      vertex 14.183 13.742 0.49
    endloop
  endfacet
  facet normal 0.566691 0.82393 0
    outer loop
      vertex 14.1183 13.7865 0.49
      vertex 14.183 13.742 0
      vertex 14.1183 13.7865 0
    endloop
  endfacet
  facet normal 0.430329 0.902672 -0
    outer loop
      vertex 14.3899 13.6297 0
      vertex 14.319 13.6635 0.49
      vertex 14.3899 13.6297 0.49
    endloop
  endfacet
  facet normal 0.430329 0.902672 0
    outer loop
      vertex 14.319 13.6635 0.49
      vertex 14.3899 13.6297 0
      vertex 14.319 13.6635 0
    endloop
  endfacet
  facet normal 0.521965 0.852967 -0
    outer loop
      vertex 14.25 13.701 0
      vertex 14.183 13.742 0.49
      vertex 14.25 13.701 0.49
    endloop
  endfacet
  facet normal 0.521965 0.852967 0
    outer loop
      vertex 14.183 13.742 0.49
      vertex 14.25 13.701 0
      vertex 14.183 13.742 0
    endloop
  endfacet
  facet normal 0.333476 0.942759 -0
    outer loop
      vertex 14.5 13.5863 0
      vertex 14.4624 13.5996 0.49
      vertex 14.5 13.5863 0.49
    endloop
  endfacet
  facet normal 0.333476 0.942759 0
    outer loop
      vertex 14.4624 13.5996 0.49
      vertex 14.5 13.5863 0
      vertex 14.4624 13.5996 0
    endloop
  endfacet
  facet normal 0.878625 0.477513 0
    outer loop
      vertex 13.701 14.25 0.49
      vertex 13.6635 14.319 0
      vertex 13.6635 14.319 0.49
    endloop
  endfacet
  facet normal 0.878625 0.477513 0
    outer loop
      vertex 13.6635 14.319 0
      vertex 13.701 14.25 0.49
      vertex 13.701 14.25 0
    endloop
  endfacet
  facet normal 0.82393 0.566691 0
    outer loop
      vertex 13.7865 14.1183 0.49
      vertex 13.742 14.183 0
      vertex 13.742 14.183 0.49
    endloop
  endfacet
  facet normal 0.82393 0.566691 0
    outer loop
      vertex 13.742 14.183 0
      vertex 13.7865 14.1183 0.49
      vertex 13.7865 14.1183 0
    endloop
  endfacet
  facet normal 0.793381 0.608726 0
    outer loop
      vertex 13.8343 14.056 0.49
      vertex 13.7865 14.1183 0
      vertex 13.7865 14.1183 0.49
    endloop
  endfacet
  facet normal 0.793381 0.608726 0
    outer loop
      vertex 13.7865 14.1183 0
      vertex 13.8343 14.056 0.49
      vertex 13.8343 14.056 0
    endloop
  endfacet
  facet normal 0.725953 0.687745 0
    outer loop
      vertex 13.9393 13.9393 0.49
      vertex 13.8853 13.9963 0
      vertex 13.8853 13.9963 0.49
    endloop
  endfacet
  facet normal 0.725953 0.687745 0
    outer loop
      vertex 13.8853 13.9963 0
      vertex 13.9393 13.9393 0.49
      vertex 13.9393 13.9393 0
    endloop
  endfacet
  facet normal 0.923566 0.383439 0
    outer loop
      vertex 13.6297 14.3899 0.49
      vertex 13.5996 14.4624 0
      vertex 13.5996 14.4624 0.49
    endloop
  endfacet
  facet normal 0.923566 0.383439 0
    outer loop
      vertex 13.5996 14.4624 0
      vertex 13.6297 14.3899 0.49
      vertex 13.6297 14.3899 0
    endloop
  endfacet
  facet normal -0.430329 0.902672 0
    outer loop
      vertex 15.681 13.6635 0
      vertex 15.6101 13.6297 0.49
      vertex 15.681 13.6635 0.49
    endloop
  endfacet
  facet normal -0.430329 0.902672 0
    outer loop
      vertex 15.6101 13.6297 0.49
      vertex 15.681 13.6635 0
      vertex 15.6101 13.6297 0
    endloop
  endfacet
  facet normal -0.333476 0.942759 0
    outer loop
      vertex 15.5376 13.5996 0
      vertex 15.5 13.5863 0.49
      vertex 15.5376 13.5996 0.49
    endloop
  endfacet
  facet normal -0.333476 0.942759 0
    outer loop
      vertex 15.5 13.5863 0.49
      vertex 15.5376 13.5996 0
      vertex 15.5 13.5863 0
    endloop
  endfacet
  facet normal -0.649532 0.760334 0
    outer loop
      vertex 16.0037 13.8853 0
      vertex 15.944 13.8343 0.49
      vertex 16.0037 13.8853 0.49
    endloop
  endfacet
  facet normal -0.649532 0.760334 0
    outer loop
      vertex 15.944 13.8343 0.49
      vertex 16.0037 13.8853 0
      vertex 15.944 13.8343 0
    endloop
  endfacet
  facet normal -0.725953 0.687745 0
    outer loop
      vertex 16.0607 13.9393 0
      vertex 16.1147 13.9963 0.49
      vertex 16.1147 13.9963 0
    endloop
  endfacet
  facet normal -0.725953 0.687745 0
    outer loop
      vertex 16.1147 13.9963 0.49
      vertex 16.0607 13.9393 0
      vertex 16.0607 13.9393 0.49
    endloop
  endfacet
  facet normal -0.793381 0.608726 0
    outer loop
      vertex 16.1657 14.056 0
      vertex 16.2135 14.1183 0.49
      vertex 16.2135 14.1183 0
    endloop
  endfacet
  facet normal -0.793381 0.608726 0
    outer loop
      vertex 16.2135 14.1183 0.49
      vertex 16.1657 14.056 0
      vertex 16.1657 14.056 0.49
    endloop
  endfacet
  facet normal -0.923566 0.383439 0
    outer loop
      vertex 16.3703 14.3899 0
      vertex 16.4004 14.4624 0.49
      vertex 16.4004 14.4624 0
    endloop
  endfacet
  facet normal -0.923566 0.383439 0
    outer loop
      vertex 16.4004 14.4624 0.49
      vertex 16.3703 14.3899 0
      vertex 16.3703 14.3899 0.49
    endloop
  endfacet
  facet normal -0.878625 0.477513 0
    outer loop
      vertex 16.299 14.25 0
      vertex 16.3365 14.319 0.49
      vertex 16.3365 14.319 0
    endloop
  endfacet
  facet normal -0.878625 0.477513 0
    outer loop
      vertex 16.3365 14.319 0.49
      vertex 16.299 14.25 0
      vertex 16.299 14.25 0.49
    endloop
  endfacet
  facet normal 0.608726 0.793381 -0
    outer loop
      vertex 14.1183 13.7865 0
      vertex 14.056 13.8343 0.49
      vertex 14.1183 13.7865 0.49
    endloop
  endfacet
  facet normal 0.608726 0.793381 0
    outer loop
      vertex 14.056 13.8343 0.49
      vertex 14.1183 13.7865 0
      vertex 14.056 13.8343 0
    endloop
  endfacet
  facet normal 0.383439 0.923566 -0
    outer loop
      vertex 14.4624 13.5996 0
      vertex 14.3899 13.6297 0.49
      vertex 14.4624 13.5996 0.49
    endloop
  endfacet
  facet normal 0.383439 0.923566 0
    outer loop
      vertex 14.3899 13.6297 0.49
      vertex 14.4624 13.5996 0
      vertex 14.3899 13.6297 0
    endloop
  endfacet
  facet normal 0.477513 0.878625 -0
    outer loop
      vertex 14.319 13.6635 0
      vertex 14.25 13.701 0.49
      vertex 14.319 13.6635 0.49
    endloop
  endfacet
  facet normal 0.477513 0.878625 0
    outer loop
      vertex 14.25 13.701 0.49
      vertex 14.319 13.6635 0
      vertex 14.25 13.701 0
    endloop
  endfacet
  facet normal 0.852967 0.521965 0
    outer loop
      vertex 13.742 14.183 0.49
      vertex 13.701 14.25 0
      vertex 13.701 14.25 0.49
    endloop
  endfacet
  facet normal 0.852967 0.521965 0
    outer loop
      vertex 13.701 14.25 0
      vertex 13.742 14.183 0.49
      vertex 13.742 14.183 0
    endloop
  endfacet
  facet normal 0.760334 0.649532 0
    outer loop
      vertex 13.8853 13.9963 0.49
      vertex 13.8343 14.056 0
      vertex 13.8343 14.056 0.49
    endloop
  endfacet
  facet normal 0.760334 0.649532 0
    outer loop
      vertex 13.8343 14.056 0
      vertex 13.8853 13.9963 0.49
      vertex 13.8853 13.9963 0
    endloop
  endfacet
  facet normal 0.687745 0.725953 -0
    outer loop
      vertex 13.9963 13.8853 0
      vertex 13.9393 13.9393 0.49
      vertex 13.9963 13.8853 0.49
    endloop
  endfacet
  facet normal 0.687745 0.725953 0
    outer loop
      vertex 13.9393 13.9393 0.49
      vertex 13.9963 13.8853 0
      vertex 13.9393 13.9393 0
    endloop
  endfacet
  facet normal 0.942759 0.333476 0
    outer loop
      vertex 13.5996 14.4624 0.49
      vertex 13.5863 14.5 0
      vertex 13.5863 14.5 0.49
    endloop
  endfacet
  facet normal 0.942759 0.333476 0
    outer loop
      vertex 13.5863 14.5 0
      vertex 13.5996 14.4624 0.49
      vertex 13.5996 14.4624 0
    endloop
  endfacet
endsolid OpenSCAD_Model
