solid OpenSCAD_Model
  facet normal -1 0 0
    outer loop
      vertex 0 30 0.825
      vertex 0 18.8797 2.475
      vertex 0 30 2.475
    endloop
  endfacet
  facet normal -1 0 0
    outer loop
      vertex 0 30 0.825
      vertex 0 11.1202 2.475
      vertex 0 18.8797 2.475
    endloop
  endfacet
  facet normal -1 0 0
    outer loop
      vertex 0 0 0.825
      vertex 0 11.1202 2.475
      vertex 0 30 0.825
    endloop
  endfacet
  facet normal -1 -0 0
    outer loop
      vertex 0 11.1202 2.475
      vertex 0 0 0.825
      vertex 0 0 2.475
    endloop
  endfacet
  facet normal -0 0 1
    outer loop
      vertex 26.75 7.87025 2.475
      vertex 30 0 2.475
      vertex 30 11.1202 2.475
    endloop
  endfacet
  facet normal -0 0 1
    outer loop
      vertex 26.75 3.3 2.475
      vertex 30 0 2.475
      vertex 26.75 7.87025 2.475
    endloop
  endfacet
  facet normal -0 0 1
    outer loop
      vertex 22.1797 3.3 2.475
      vertex 30 0 2.475
      vertex 26.75 3.3 2.475
    endloop
  endfacet
  facet normal 0 0 1
    outer loop
      vertex 30 0 2.475
      vertex 22.1797 3.3 2.475
      vertex 18.8797 0 2.475
    endloop
  endfacet
  facet normal 0 0 1
    outer loop
      vertex 3.3 7.82025 2.475
      vertex 0 11.1202 2.475
      vertex 3.3 3.3 2.475
    endloop
  endfacet
  facet normal -0 0 1
    outer loop
      vertex 3.3 3.3 2.475
      vertex 11.1202 0 2.475
      vertex 7.82025 3.3 2.475
    endloop
  endfacet
  facet normal 0 0 1
    outer loop
      vertex 3.3 3.3 2.475
      vertex 0 0 2.475
      vertex 11.1202 0 2.475
    endloop
  endfacet
  facet normal 0 0 1
    outer loop
      vertex 0 0 2.475
      vertex 3.3 3.3 2.475
      vertex 0 11.1202 2.475
    endloop
  endfacet
  facet normal 0 0 1
    outer loop
      vertex 30 30 2.475
      vertex 26.75 26.65 2.475
      vertex 30 18.8797 2.475
    endloop
  endfacet
  facet normal 0 0 1
    outer loop
      vertex 30 30 2.475
      vertex 22.2298 26.65 2.475
      vertex 26.75 26.65 2.475
    endloop
  endfacet
  facet normal 0 -0 1
    outer loop
      vertex 22.2298 26.65 2.475
      vertex 30 30 2.475
      vertex 18.8797 30 2.475
    endloop
  endfacet
  facet normal 0 0 1
    outer loop
      vertex 30 18.8797 2.475
      vertex 26.75 26.65 2.475
      vertex 26.75 22.1297 2.475
    endloop
  endfacet
  facet normal 0 0 1
    outer loop
      vertex 11.1202 30 2.475
      vertex 3.3 26.65 2.475
      vertex 7.77025 26.65 2.475
    endloop
  endfacet
  facet normal -0 0 1
    outer loop
      vertex 0 30 2.475
      vertex 3.3 26.65 2.475
      vertex 11.1202 30 2.475
    endloop
  endfacet
  facet normal 0 0 1
    outer loop
      vertex 0 30 2.475
      vertex 3.3 22.1797 2.475
      vertex 3.3 26.65 2.475
    endloop
  endfacet
  facet normal 0 0 1
    outer loop
      vertex 3.3 22.1797 2.475
      vertex 0 30 2.475
      vertex 0 18.8797 2.475
    endloop
  endfacet
  facet normal 0 0 1
    outer loop
      vertex 26.75 22.1297 2.475
      vertex 30 11.1202 2.475
      vertex 30 18.8797 2.475
    endloop
  endfacet
  facet normal 0 0 1
    outer loop
      vertex 26.75 22.1297 2.475
      vertex 26.75 7.87025 2.475
      vertex 30 11.1202 2.475
    endloop
  endfacet
  facet normal 0 0 1
    outer loop
      vertex 22.2298 26.65 2.475
      vertex 26.75 7.87025 2.475
      vertex 26.75 22.1297 2.475
    endloop
  endfacet
  facet normal 0 0 1
    outer loop
      vertex 22.2298 26.65 2.475
      vertex 22.1797 3.3 2.475
      vertex 26.75 7.87025 2.475
    endloop
  endfacet
  facet normal 0 0 1
    outer loop
      vertex 7.77025 26.65 2.475
      vertex 22.2298 26.65 2.475
      vertex 18.8797 30 2.475
    endloop
  endfacet
  facet normal 0 0 1
    outer loop
      vertex 22.2298 26.65 2.475
      vertex 7.77025 26.65 2.475
      vertex 22.1797 3.3 2.475
    endloop
  endfacet
  facet normal 0 0 1
    outer loop
      vertex 7.77025 26.65 2.475
      vertex 18.8797 30 2.475
      vertex 11.1202 30 2.475
    endloop
  endfacet
  facet normal 0 -0 1
    outer loop
      vertex 7.82025 3.3 2.475
      vertex 22.1797 3.3 2.475
      vertex 7.77025 26.65 2.475
    endloop
  endfacet
  facet normal 0 0 1
    outer loop
      vertex 18.8797 0 2.475
      vertex 7.82025 3.3 2.475
      vertex 11.1202 0 2.475
    endloop
  endfacet
  facet normal 0 0 1
    outer loop
      vertex 22.1797 3.3 2.475
      vertex 7.82025 3.3 2.475
      vertex 18.8797 0 2.475
    endloop
  endfacet
  facet normal -0 0 1
    outer loop
      vertex 3.3 22.1797 2.475
      vertex 7.82025 3.3 2.475
      vertex 7.77025 26.65 2.475
    endloop
  endfacet
  facet normal 0 0 1
    outer loop
      vertex 3.3 22.1797 2.475
      vertex 3.3 7.82025 2.475
      vertex 7.82025 3.3 2.475
    endloop
  endfacet
  facet normal -0 0 1
    outer loop
      vertex 0 18.8797 2.475
      vertex 3.3 7.82025 2.475
      vertex 3.3 22.1797 2.475
    endloop
  endfacet
  facet normal 0 0 1
    outer loop
      vertex 3.3 7.82025 2.475
      vertex 0 18.8797 2.475
      vertex 0 11.1202 2.475
    endloop
  endfacet
  facet normal 1 -0 0
    outer loop
      vertex 30 18.8797 2.475
      vertex 30 30 0.825
      vertex 30 30 2.475
    endloop
  endfacet
  facet normal 1 -0 0
    outer loop
      vertex 30 11.1202 2.475
      vertex 30 30 0.825
      vertex 30 18.8797 2.475
    endloop
  endfacet
  facet normal 1 0 0
    outer loop
      vertex 30 0 0.825
      vertex 30 11.1202 2.475
      vertex 30 0 2.475
    endloop
  endfacet
  facet normal 1 0 0
    outer loop
      vertex 30 11.1202 2.475
      vertex 30 0 0.825
      vertex 30 30 0.825
    endloop
  endfacet
  facet normal 0 1 -0
    outer loop
      vertex 30 30 0.825
      vertex 18.8797 30 2.475
      vertex 30 30 2.475
    endloop
  endfacet
  facet normal 0 1 0
    outer loop
      vertex 18.8797 30 2.475
      vertex 30 30 0.825
      vertex 11.1202 30 2.475
    endloop
  endfacet
  facet normal 0 1 0
    outer loop
      vertex 0 30 0.825
      vertex 11.1202 30 2.475
      vertex 30 30 0.825
    endloop
  endfacet
  facet normal 0 1 0
    outer loop
      vertex 11.1202 30 2.475
      vertex 0 30 0.825
      vertex 0 30 2.475
    endloop
  endfacet
  facet normal 0 0 -1
    outer loop
      vertex 29.175 0.825 0
      vertex 24 14.25 0
      vertex 29.175 14.25 0
    endloop
  endfacet
  facet normal 0 0 -1
    outer loop
      vertex 24 14.25 0
      vertex 21 16 0
      vertex 24 18.25 0
    endloop
  endfacet
  facet normal 0 0 -1
    outer loop
      vertex 29.175 0.825 0
      vertex 21 16 0
      vertex 24 14.25 0
    endloop
  endfacet
  facet normal 0 0 -1
    outer loop
      vertex 29.175 0.825 0
      vertex 9 16 0
      vertex 21 16 0
    endloop
  endfacet
  facet normal 0 0 -1
    outer loop
      vertex 6 18.25 0
      vertex 9 16 0
      vertex 6 14.25 0
    endloop
  endfacet
  facet normal 0 0 -1
    outer loop
      vertex 0.825 0.825 0
      vertex 9 16 0
      vertex 29.175 0.825 0
    endloop
  endfacet
  facet normal 0 0 -1
    outer loop
      vertex 9 16 0
      vertex 0.825 0.825 0
      vertex 6 14.25 0
    endloop
  endfacet
  facet normal -0 0 -1
    outer loop
      vertex 6 14.25 0
      vertex 0.825 0.825 0
      vertex 0.825 14.25 0
    endloop
  endfacet
  facet normal -0 0 -1
    outer loop
      vertex 24 18.25 0
      vertex 21 16 0
      vertex 21 18.25 0
    endloop
  endfacet
  facet normal 0 0 -1
    outer loop
      vertex 9 16 0
      vertex 6 18.25 0
      vertex 9 18.25 0
    endloop
  endfacet
  facet normal 0 0 -1
    outer loop
      vertex 4.5 15.75 0
      vertex 0.825 15.75 0
      vertex 4.5 19.75 0
    endloop
  endfacet
  facet normal 0 0 -1
    outer loop
      vertex 9 19.75 0
      vertex 4.5 19.75 0
      vertex 9 22 0
    endloop
  endfacet
  facet normal 0 0 -1
    outer loop
      vertex 14.5304 22 0
      vertex 9 22 0
      vertex 11.541 25.9672 0
    endloop
  endfacet
  facet normal 0 0 -1
    outer loop
      vertex 12.7389 26.8699 0
      vertex 14.25 29.175 0
      vertex 14.25 24.8646 0
    endloop
  endfacet
  facet normal 0 0 -1
    outer loop
      vertex 11.541 25.9672 0
      vertex 14.25 29.175 0
      vertex 12.7389 26.8699 0
    endloop
  endfacet
  facet normal 0 0 -1
    outer loop
      vertex 0.825 29.175 0
      vertex 9 22 0
      vertex 4.5 19.75 0
    endloop
  endfacet
  facet normal 0 0 -1
    outer loop
      vertex 9 22 0
      vertex 0.825 29.175 0
      vertex 11.541 25.9672 0
    endloop
  endfacet
  facet normal 0 0 -1
    outer loop
      vertex 11.541 25.9672 0
      vertex 0.825 29.175 0
      vertex 14.25 29.175 0
    endloop
  endfacet
  facet normal 0 0 -1
    outer loop
      vertex 0.825 29.175 0
      vertex 4.5 19.75 0
      vertex 0.825 15.75 0
    endloop
  endfacet
  facet normal 0 0 -1
    outer loop
      vertex 21 22 0
      vertex 15.4696 22 0
      vertex 18.459 25.9672 0
    endloop
  endfacet
  facet normal 0 0 -1
    outer loop
      vertex 25.5 19.75 0
      vertex 29.175 15.75 0
      vertex 25.5 15.75 0
    endloop
  endfacet
  facet normal 0 0 -1
    outer loop
      vertex 29.175 15.75 0
      vertex 25.5 19.75 0
      vertex 29.175 29.175 0
    endloop
  endfacet
  facet normal 0 0 -1
    outer loop
      vertex 21 22 0
      vertex 25.5 19.75 0
      vertex 21 19.75 0
    endloop
  endfacet
  facet normal 0 0 -1
    outer loop
      vertex 25.5 19.75 0
      vertex 21 22 0
      vertex 29.175 29.175 0
    endloop
  endfacet
  facet normal 0 0 -1
    outer loop
      vertex 18.459 25.9672 0
      vertex 29.175 29.175 0
      vertex 21 22 0
    endloop
  endfacet
  facet normal 0 0 -1
    outer loop
      vertex 15.75 29.175 0
      vertex 18.459 25.9672 0
      vertex 17.2611 26.8699 0
    endloop
  endfacet
  facet normal 0 0 -1
    outer loop
      vertex 18.459 25.9672 0
      vertex 15.75 29.175 0
      vertex 29.175 29.175 0
    endloop
  endfacet
  facet normal 0 0 -1
    outer loop
      vertex 15.75 29.175 0
      vertex 17.2611 26.8699 0
      vertex 15.75 24.8646 0
    endloop
  endfacet
  facet normal 0 0 -1
    outer loop
      vertex 10.5 17.5 0
      vertex 19.5 20.5 0
      vertex 19.5 17.5 0
    endloop
  endfacet
  facet normal -0 0 -1
    outer loop
      vertex 19.5 20.5 0
      vertex 10.5 17.5 0
      vertex 10.5 20.5 0
    endloop
  endfacet
  facet normal 0 -1 0
    outer loop
      vertex 0 0 0.825
      vertex 11.1202 0 2.475
      vertex 0 0 2.475
    endloop
  endfacet
  facet normal 0 -1 -0
    outer loop
      vertex 11.1202 0 2.475
      vertex 0 0 0.825
      vertex 18.8797 0 2.475
    endloop
  endfacet
  facet normal 0 -1 0
    outer loop
      vertex 18.8797 0 2.475
      vertex 30 0 0.825
      vertex 30 0 2.475
    endloop
  endfacet
  facet normal 0 -1 0
    outer loop
      vertex 30 0 0.825
      vertex 18.8797 0 2.475
      vertex 0 0 0.825
    endloop
  endfacet
  facet normal -1 0 0
    outer loop
      vertex 3.3 3.3 2.475
      vertex 3.3 7.82025 6
      vertex 3.3 7.82025 2.475
    endloop
  endfacet
  facet normal -1 -0 0
    outer loop
      vertex 3.3 7.82025 6
      vertex 3.3 3.3 2.475
      vertex 3.3 3.3 6
    endloop
  endfacet
  facet normal -1 0 0
    outer loop
      vertex 3.3 22.1797 2.475
      vertex 3.3 26.65 6
      vertex 3.3 26.65 2.475
    endloop
  endfacet
  facet normal -1 -0 0
    outer loop
      vertex 3.3 26.65 6
      vertex 3.3 22.1797 2.475
      vertex 3.3 22.1797 6
    endloop
  endfacet
  facet normal 0 0 1
    outer loop
      vertex 26.75 7.87025 6
      vertex 22.1797 3.3 6
      vertex 26.75 3.3 6
    endloop
  endfacet
  facet normal 0 0 1
    outer loop
      vertex 3.3 7.82025 6
      vertex 3.3 3.3 6
      vertex 7.82025 3.3 6
    endloop
  endfacet
  facet normal 0 0 1
    outer loop
      vertex 26.75 26.65 6
      vertex 22.2298 26.65 6
      vertex 26.75 22.1297 6
    endloop
  endfacet
  facet normal -0 0 1
    outer loop
      vertex 3.3 26.65 6
      vertex 3.3 22.1797 6
      vertex 7.77025 26.65 6
    endloop
  endfacet
  facet normal 1 -0 0
    outer loop
      vertex 26.75 3.3 6
      vertex 26.75 7.87025 2.475
      vertex 26.75 7.87025 6
    endloop
  endfacet
  facet normal 1 0 0
    outer loop
      vertex 26.75 7.87025 2.475
      vertex 26.75 3.3 6
      vertex 26.75 3.3 2.475
    endloop
  endfacet
  facet normal 1 -0 0
    outer loop
      vertex 26.75 22.1297 6
      vertex 26.75 26.65 2.475
      vertex 26.75 26.65 6
    endloop
  endfacet
  facet normal 1 0 0
    outer loop
      vertex 26.75 26.65 2.475
      vertex 26.75 22.1297 6
      vertex 26.75 22.1297 2.475
    endloop
  endfacet
  facet normal 0 1 -0
    outer loop
      vertex 26.75 26.65 2.475
      vertex 22.2298 26.65 6
      vertex 26.75 26.65 6
    endloop
  endfacet
  facet normal 0 1 0
    outer loop
      vertex 22.2298 26.65 6
      vertex 26.75 26.65 2.475
      vertex 22.2298 26.65 2.475
    endloop
  endfacet
  facet normal 0 1 -0
    outer loop
      vertex 7.77025 26.65 2.475
      vertex 3.3 26.65 6
      vertex 7.77025 26.65 6
    endloop
  endfacet
  facet normal 0 1 0
    outer loop
      vertex 3.3 26.65 6
      vertex 7.77025 26.65 2.475
      vertex 3.3 26.65 2.475
    endloop
  endfacet
  facet normal 0 -1 0
    outer loop
      vertex 22.1797 3.3 2.475
      vertex 26.75 3.3 6
      vertex 22.1797 3.3 6
    endloop
  endfacet
  facet normal 0 -1 -0
    outer loop
      vertex 26.75 3.3 6
      vertex 22.1797 3.3 2.475
      vertex 26.75 3.3 2.475
    endloop
  endfacet
  facet normal 0 -1 0
    outer loop
      vertex 3.3 3.3 2.475
      vertex 7.82025 3.3 6
      vertex 3.3 3.3 6
    endloop
  endfacet
  facet normal 0 -1 -0
    outer loop
      vertex 7.82025 3.3 6
      vertex 3.3 3.3 2.475
      vertex 7.82025 3.3 2.475
    endloop
  endfacet
  facet normal -0.707115 -0.707099 0
    outer loop
      vertex 26.75 22.1297 2.475
      vertex 22.2298 26.65 6
      vertex 22.2298 26.65 2.475
    endloop
  endfacet
  facet normal -0.707115 -0.707099 0
    outer loop
      vertex 22.2298 26.65 6
      vertex 26.75 22.1297 2.475
      vertex 26.75 22.1297 6
    endloop
  endfacet
  facet normal 0.707111 -0.707103 0
    outer loop
      vertex 3.3 22.1797 6
      vertex 7.77025 26.65 2.475
      vertex 7.77025 26.65 6
    endloop
  endfacet
  facet normal 0.707111 -0.707103 0
    outer loop
      vertex 7.77025 26.65 2.475
      vertex 3.3 22.1797 6
      vertex 3.3 22.1797 2.475
    endloop
  endfacet
  facet normal 0.707107 0.707107 0
    outer loop
      vertex 7.82025 3.3 6
      vertex 3.3 7.82025 2.475
      vertex 3.3 7.82025 6
    endloop
  endfacet
  facet normal 0.707107 0.707107 0
    outer loop
      vertex 3.3 7.82025 2.475
      vertex 7.82025 3.3 6
      vertex 7.82025 3.3 2.475
    endloop
  endfacet
  facet normal -0.707103 0.707111 0
    outer loop
      vertex 26.75 7.87025 2.475
      vertex 22.1797 3.3 6
      vertex 26.75 7.87025 6
    endloop
  endfacet
  facet normal -0.707103 0.707111 0
    outer loop
      vertex 22.1797 3.3 6
      vertex 26.75 7.87025 2.475
      vertex 22.1797 3.3 2.475
    endloop
  endfacet
  facet normal 0 -0.707107 -0.707107
    outer loop
      vertex 0.825 0.825 0
      vertex 30 0 0.825
      vertex 0 0 0.825
    endloop
  endfacet
  facet normal 0 -0.707107 -0.707107
    outer loop
      vertex 30 0 0.825
      vertex 0.825 0.825 0
      vertex 29.175 0.825 0
    endloop
  endfacet
  facet normal -0.707107 -0 -0.707107
    outer loop
      vertex 0.825 14.25 0
      vertex 0.825 0.825 0
      vertex 0.135 14.25 0.69
    endloop
  endfacet
  facet normal -0.707107 0 -0.707107
    outer loop
      vertex 0.135 15.75 0.69
      vertex 0.825 29.175 0
      vertex 0.825 15.75 0
    endloop
  endfacet
  facet normal -0.707107 0 -0.707107
    outer loop
      vertex 0.825 29.175 0
      vertex 0.135 15.75 0.69
      vertex 0 30 0.825
    endloop
  endfacet
  facet normal -0.707107 0 -0.707107
    outer loop
      vertex 0.135 14.25 0.69
      vertex 0 30 0.825
      vertex 0.135 15.75 0.69
    endloop
  endfacet
  facet normal -0.707107 0 -0.707107
    outer loop
      vertex 0.135 14.25 0.69
      vertex 0 0 0.825
      vertex 0 30 0.825
    endloop
  endfacet
  facet normal -0.707107 0 -0.707107
    outer loop
      vertex 0 0 0.825
      vertex 0.135 14.25 0.69
      vertex 0.825 0.825 0
    endloop
  endfacet
  facet normal 0.707107 0 -0.707107
    outer loop
      vertex 30 0 0.825
      vertex 29.865 14.25 0.69
      vertex 30 30 0.825
    endloop
  endfacet
  facet normal 0.707107 8.08987e-17 -0.707107
    outer loop
      vertex 29.175 0.825 0
      vertex 29.865 14.25 0.69
      vertex 30 0 0.825
    endloop
  endfacet
  facet normal 0.707107 0 -0.707107
    outer loop
      vertex 29.865 14.25 0.69
      vertex 29.175 0.825 0
      vertex 29.175 14.25 0
    endloop
  endfacet
  facet normal 0.707107 0 -0.707107
    outer loop
      vertex 29.865 15.75 0.69
      vertex 30 30 0.825
      vertex 29.865 14.25 0.69
    endloop
  endfacet
  facet normal 0.707107 0 -0.707107
    outer loop
      vertex 29.175 29.175 0
      vertex 29.865 15.75 0.69
      vertex 29.175 15.75 0
    endloop
  endfacet
  facet normal 0.707107 -8.25841e-17 -0.707107
    outer loop
      vertex 29.865 15.75 0.69
      vertex 29.175 29.175 0
      vertex 30 30 0.825
    endloop
  endfacet
  facet normal 0 0.707107 -0.707107
    outer loop
      vertex 14.25 29.175 0
      vertex 0.825 29.175 0
      vertex 14.25 29.865 0.69
    endloop
  endfacet
  facet normal 0 0.707107 -0.707107
    outer loop
      vertex 15.75 29.865 0.69
      vertex 29.175 29.175 0
      vertex 15.75 29.175 0
    endloop
  endfacet
  facet normal -8.08987e-17 0.707107 -0.707107
    outer loop
      vertex 29.175 29.175 0
      vertex 15.75 29.865 0.69
      vertex 30 30 0.825
    endloop
  endfacet
  facet normal 0 0.707107 -0.707107
    outer loop
      vertex 14.25 29.865 0.69
      vertex 30 30 0.825
      vertex 15.75 29.865 0.69
    endloop
  endfacet
  facet normal 0 0.707107 -0.707107
    outer loop
      vertex 14.25 29.865 0.69
      vertex 0 30 0.825
      vertex 30 30 0.825
    endloop
  endfacet
  facet normal 8.34268e-17 0.707107 -0.707107
    outer loop
      vertex 0 30 0.825
      vertex 14.25 29.865 0.69
      vertex 0.825 29.175 0
    endloop
  endfacet
  facet normal 0 0 -1
    outer loop
      vertex 6 14.25 0.69
      vertex 4.5 15.75 0.69
      vertex 6 18.25 0.69
    endloop
  endfacet
  facet normal 0 0 -1
    outer loop
      vertex 0.135 14.25 0.69
      vertex 4.5 15.75 0.69
      vertex 6 14.25 0.69
    endloop
  endfacet
  facet normal -0 0 -1
    outer loop
      vertex 4.5 15.75 0.69
      vertex 0.135 14.25 0.69
      vertex 0.135 15.75 0.69
    endloop
  endfacet
  facet normal 0 0 -1
    outer loop
      vertex 6 18.25 0.69
      vertex 9 19.75 0.69
      vertex 9 18.25 0.69
    endloop
  endfacet
  facet normal 0 0 -1
    outer loop
      vertex 6 18.25 0.69
      vertex 4.5 19.75 0.69
      vertex 9 19.75 0.69
    endloop
  endfacet
  facet normal 0 0 -1
    outer loop
      vertex 4.5 19.75 0.69
      vertex 6 18.25 0.69
      vertex 4.5 15.75 0.69
    endloop
  endfacet
  facet normal 0 0 -1
    outer loop
      vertex 11.541 25.9672 0.69
      vertex 14.25 24.8646 0.69
      vertex 14.5304 22 0.69
    endloop
  endfacet
  facet normal 0 0 -1
    outer loop
      vertex 14.25 24.8646 0.69
      vertex 11.541 25.9672 0.69
      vertex 12.7389 26.8699 0.69
    endloop
  endfacet
  facet normal 0 0 -1
    outer loop
      vertex 19.5 17.5 0.69
      vertex 21 18.25 0.69
      vertex 21 16 0.69
    endloop
  endfacet
  facet normal -0 0 -1
    outer loop
      vertex 21 18.25 0.69
      vertex 19.5 17.5 0.69
      vertex 21 19.75 0.69
    endloop
  endfacet
  facet normal 0 0 -1
    outer loop
      vertex 19.5 20.5 0.69
      vertex 21 19.75 0.69
      vertex 19.5 17.5 0.69
    endloop
  endfacet
  facet normal 0 0 -1
    outer loop
      vertex 21 16 0.69
      vertex 10.5 17.5 0.69
      vertex 19.5 17.5 0.69
    endloop
  endfacet
  facet normal 0 0 -1
    outer loop
      vertex 9 18.25 0.69
      vertex 10.5 17.5 0.69
      vertex 9 16 0.69
    endloop
  endfacet
  facet normal 0 0 -1
    outer loop
      vertex 9 16 0.69
      vertex 10.5 17.5 0.69
      vertex 21 16 0.69
    endloop
  endfacet
  facet normal 0 0 -1
    outer loop
      vertex 29.865 14.25 0.69
      vertex 25.5 15.75 0.69
      vertex 29.865 15.75 0.69
    endloop
  endfacet
  facet normal 0 0 -1
    outer loop
      vertex 24 14.25 0.69
      vertex 25.5 15.75 0.69
      vertex 29.865 14.25 0.69
    endloop
  endfacet
  facet normal 0 0 -1
    outer loop
      vertex 24 18.25 0.69
      vertex 25.5 15.75 0.69
      vertex 24 14.25 0.69
    endloop
  endfacet
  facet normal 0 0 -1
    outer loop
      vertex 25.5 15.75 0.69
      vertex 24 18.25 0.69
      vertex 25.5 19.75 0.69
    endloop
  endfacet
  facet normal 0 0 -1
    outer loop
      vertex 21 19.75 0.69
      vertex 24 18.25 0.69
      vertex 21 18.25 0.69
    endloop
  endfacet
  facet normal 0 0 -1
    outer loop
      vertex 24 18.25 0.69
      vertex 21 19.75 0.69
      vertex 25.5 19.75 0.69
    endloop
  endfacet
  facet normal 0 0 -1
    outer loop
      vertex 21 19.75 0.69
      vertex 19.5 20.5 0.69
      vertex 21 22 0.69
    endloop
  endfacet
  facet normal 0 0 -1
    outer loop
      vertex 19.5 20.5 0.69
      vertex 15.4696 22 0.69
      vertex 21 22 0.69
    endloop
  endfacet
  facet normal 0 0 -1
    outer loop
      vertex 19.5 20.5 0.69
      vertex 14.5304 22 0.69
      vertex 15.4696 22 0.69
    endloop
  endfacet
  facet normal 0 0 -1
    outer loop
      vertex 10.5 20.5 0.69
      vertex 14.5304 22 0.69
      vertex 19.5 20.5 0.69
    endloop
  endfacet
  facet normal 0 0 -1
    outer loop
      vertex 10.5 17.5 0.69
      vertex 9 18.25 0.69
      vertex 10.5 20.5 0.69
    endloop
  endfacet
  facet normal 0 0 -1
    outer loop
      vertex 9 19.75 0.69
      vertex 10.5 20.5 0.69
      vertex 9 18.25 0.69
    endloop
  endfacet
  facet normal 0 0 -1
    outer loop
      vertex 10.5 20.5 0.69
      vertex 9 22 0.69
      vertex 14.5304 22 0.69
    endloop
  endfacet
  facet normal 0 0 -1
    outer loop
      vertex 9 22 0.69
      vertex 10.5 20.5 0.69
      vertex 9 19.75 0.69
    endloop
  endfacet
  facet normal -0 0 -1
    outer loop
      vertex 18.459 25.9672 0.69
      vertex 15.75 24.8646 0.69
      vertex 17.2611 26.8699 0.69
    endloop
  endfacet
  facet normal 0 0 -1
    outer loop
      vertex 15.4696 22 0.69
      vertex 15.75 24.8646 0.69
      vertex 18.459 25.9672 0.69
    endloop
  endfacet
  facet normal 0 0 -1
    outer loop
      vertex 14.25 24.8646 0.69
      vertex 15.75 24.8646 0.69
      vertex 15.4696 22 0.69
    endloop
  endfacet
  facet normal 0 0 -1
    outer loop
      vertex 14.25 24.8646 0.69
      vertex 15.4696 22 0.69
      vertex 14.5304 22 0.69
    endloop
  endfacet
  facet normal 0 0 -1
    outer loop
      vertex 15.75 24.8646 0.69
      vertex 14.25 24.8646 0.69
      vertex 15.75 29.865 0.69
    endloop
  endfacet
  facet normal -0 0 -1
    outer loop
      vertex 15.75 29.865 0.69
      vertex 14.25 24.8646 0.69
      vertex 14.25 29.865 0.69
    endloop
  endfacet
  facet normal 1 -0 0
    outer loop
      vertex 4.5 15.75 0.69
      vertex 4.5 19.75 0
      vertex 4.5 19.75 0.69
    endloop
  endfacet
  facet normal 1 0 0
    outer loop
      vertex 4.5 19.75 0
      vertex 4.5 15.75 0.69
      vertex 4.5 15.75 0
    endloop
  endfacet
  facet normal 0 -1 0
    outer loop
      vertex 0.825 15.75 0
      vertex 4.5 15.75 0.69
      vertex 0.135 15.75 0.69
    endloop
  endfacet
  facet normal 0 -1 -0
    outer loop
      vertex 4.5 15.75 0.69
      vertex 0.825 15.75 0
      vertex 4.5 15.75 0
    endloop
  endfacet
  facet normal 0 1 0
    outer loop
      vertex 0.825 14.25 0
      vertex 6 14.25 0.69
      vertex 6 14.25 0
    endloop
  endfacet
  facet normal 0 1 0
    outer loop
      vertex 6 14.25 0.69
      vertex 0.825 14.25 0
      vertex 0.135 14.25 0.69
    endloop
  endfacet
  facet normal -1 0 0
    outer loop
      vertex 6 14.25 0
      vertex 6 18.25 0.69
      vertex 6 18.25 0
    endloop
  endfacet
  facet normal -1 -0 0
    outer loop
      vertex 6 18.25 0.69
      vertex 6 14.25 0
      vertex 6 14.25 0.69
    endloop
  endfacet
  facet normal 0 1 -0
    outer loop
      vertex 9 18.25 0
      vertex 6 18.25 0.69
      vertex 9 18.25 0.69
    endloop
  endfacet
  facet normal 0 1 0
    outer loop
      vertex 6 18.25 0.69
      vertex 9 18.25 0
      vertex 6 18.25 0
    endloop
  endfacet
  facet normal 1 -0 0
    outer loop
      vertex 9 16 0.69
      vertex 9 18.25 0
      vertex 9 18.25 0.69
    endloop
  endfacet
  facet normal 1 0 0
    outer loop
      vertex 9 18.25 0
      vertex 9 16 0.69
      vertex 9 16 0
    endloop
  endfacet
  facet normal 1 -0 0
    outer loop
      vertex 9 19.75 0.69
      vertex 9 22 0
      vertex 9 22 0.69
    endloop
  endfacet
  facet normal 1 0 0
    outer loop
      vertex 9 22 0
      vertex 9 19.75 0.69
      vertex 9 19.75 0
    endloop
  endfacet
  facet normal 0 -1 0
    outer loop
      vertex 4.5 19.75 0
      vertex 9 19.75 0.69
      vertex 4.5 19.75 0.69
    endloop
  endfacet
  facet normal 0 -1 -0
    outer loop
      vertex 9 19.75 0.69
      vertex 4.5 19.75 0
      vertex 9 19.75 0
    endloop
  endfacet
  facet normal -1 0 0
    outer loop
      vertex 25.5 15.75 0
      vertex 25.5 19.75 0.69
      vertex 25.5 19.75 0
    endloop
  endfacet
  facet normal -1 -0 0
    outer loop
      vertex 25.5 19.75 0.69
      vertex 25.5 15.75 0
      vertex 25.5 15.75 0.69
    endloop
  endfacet
  facet normal 0 -1 0
    outer loop
      vertex 29.175 15.75 0
      vertex 25.5 15.75 0.69
      vertex 25.5 15.75 0
    endloop
  endfacet
  facet normal 0 -1 0
    outer loop
      vertex 25.5 15.75 0.69
      vertex 29.175 15.75 0
      vertex 29.865 15.75 0.69
    endloop
  endfacet
  facet normal 0 1 -0
    outer loop
      vertex 29.175 14.25 0
      vertex 24 14.25 0.69
      vertex 29.865 14.25 0.69
    endloop
  endfacet
  facet normal 0 1 0
    outer loop
      vertex 24 14.25 0.69
      vertex 29.175 14.25 0
      vertex 24 14.25 0
    endloop
  endfacet
  facet normal 1 -0 0
    outer loop
      vertex 24 14.25 0.69
      vertex 24 18.25 0
      vertex 24 18.25 0.69
    endloop
  endfacet
  facet normal 1 0 0
    outer loop
      vertex 24 18.25 0
      vertex 24 14.25 0.69
      vertex 24 14.25 0
    endloop
  endfacet
  facet normal 0 1 -0
    outer loop
      vertex 24 18.25 0
      vertex 21 18.25 0.69
      vertex 24 18.25 0.69
    endloop
  endfacet
  facet normal 0 1 0
    outer loop
      vertex 21 18.25 0.69
      vertex 24 18.25 0
      vertex 21 18.25 0
    endloop
  endfacet
  facet normal -1 0 0
    outer loop
      vertex 21 16 0
      vertex 21 18.25 0.69
      vertex 21 18.25 0
    endloop
  endfacet
  facet normal -1 -0 0
    outer loop
      vertex 21 18.25 0.69
      vertex 21 16 0
      vertex 21 16 0.69
    endloop
  endfacet
  facet normal -1 0 0
    outer loop
      vertex 21 19.75 0
      vertex 21 22 0.69
      vertex 21 22 0
    endloop
  endfacet
  facet normal -1 -0 0
    outer loop
      vertex 21 22 0.69
      vertex 21 19.75 0
      vertex 21 19.75 0.69
    endloop
  endfacet
  facet normal 0 -1 0
    outer loop
      vertex 21 19.75 0
      vertex 25.5 19.75 0.69
      vertex 21 19.75 0.69
    endloop
  endfacet
  facet normal 0 -1 -0
    outer loop
      vertex 25.5 19.75 0.69
      vertex 21 19.75 0
      vertex 25.5 19.75 0
    endloop
  endfacet
  facet normal -1 0 0
    outer loop
      vertex 15.75 24.8646 0.69
      vertex 15.75 29.175 0
      vertex 15.75 24.8646 0
    endloop
  endfacet
  facet normal -1 0 0
    outer loop
      vertex 15.75 29.175 0
      vertex 15.75 24.8646 0.69
      vertex 15.75 29.865 0.69
    endloop
  endfacet
  facet normal 1 -0 0
    outer loop
      vertex 14.25 24.8646 0.69
      vertex 14.25 29.175 0
      vertex 14.25 29.865 0.69
    endloop
  endfacet
  facet normal 1 0 0
    outer loop
      vertex 14.25 29.175 0
      vertex 14.25 24.8646 0.69
      vertex 14.25 24.8646 0
    endloop
  endfacet
  facet normal 0.601823 -0.79863 0
    outer loop
      vertex 11.541 25.9672 0
      vertex 12.7389 26.8699 0.69
      vertex 11.541 25.9672 0.69
    endloop
  endfacet
  facet normal 0.601823 -0.79863 0
    outer loop
      vertex 12.7389 26.8699 0.69
      vertex 11.541 25.9672 0
      vertex 12.7389 26.8699 0
    endloop
  endfacet
  facet normal 0.798645 0.601802 0
    outer loop
      vertex 14.5304 22 0.69
      vertex 11.541 25.9672 0
      vertex 11.541 25.9672 0.69
    endloop
  endfacet
  facet normal 0.798645 0.601802 0
    outer loop
      vertex 11.541 25.9672 0
      vertex 14.5304 22 0.69
      vertex 14.5304 22 0
    endloop
  endfacet
  facet normal -0.798636 -0.601815 0
    outer loop
      vertex 14.25 24.8646 0
      vertex 12.7389 26.8699 0.69
      vertex 12.7389 26.8699 0
    endloop
  endfacet
  facet normal -0.798636 -0.601815 0
    outer loop
      vertex 12.7389 26.8699 0.69
      vertex 14.25 24.8646 0
      vertex 14.25 24.8646 0.69
    endloop
  endfacet
  facet normal -0.601823 -0.79863 0
    outer loop
      vertex 17.2611 26.8699 0
      vertex 18.459 25.9672 0.69
      vertex 17.2611 26.8699 0.69
    endloop
  endfacet
  facet normal -0.601823 -0.79863 -0
    outer loop
      vertex 18.459 25.9672 0.69
      vertex 17.2611 26.8699 0
      vertex 18.459 25.9672 0
    endloop
  endfacet
  facet normal -0.798645 0.601802 0
    outer loop
      vertex 15.4696 22 0
      vertex 18.459 25.9672 0.69
      vertex 18.459 25.9672 0
    endloop
  endfacet
  facet normal -0.798645 0.601802 0
    outer loop
      vertex 18.459 25.9672 0.69
      vertex 15.4696 22 0
      vertex 15.4696 22 0.69
    endloop
  endfacet
  facet normal 0.798636 -0.601815 0
    outer loop
      vertex 15.75 24.8646 0.69
      vertex 17.2611 26.8699 0
      vertex 17.2611 26.8699 0.69
    endloop
  endfacet
  facet normal 0.798636 -0.601815 0
    outer loop
      vertex 17.2611 26.8699 0
      vertex 15.75 24.8646 0.69
      vertex 15.75 24.8646 0
    endloop
  endfacet
  facet normal -1 0 0
    outer loop
      vertex 10.5 17.5 0
      vertex 10.5 20.5 0.69
      vertex 10.5 20.5 0
    endloop
  endfacet
  facet normal -1 -0 0
    outer loop
      vertex 10.5 20.5 0.69
      vertex 10.5 17.5 0
      vertex 10.5 17.5 0.69
    endloop
  endfacet
  facet normal 0 -1 0
    outer loop
      vertex 9 22 0
      vertex 14.5304 22 0.69
      vertex 9 22 0.69
    endloop
  endfacet
  facet normal 0 -1 -0
    outer loop
      vertex 14.5304 22 0.69
      vertex 9 22 0
      vertex 14.5304 22 0
    endloop
  endfacet
  facet normal 0 -1 0
    outer loop
      vertex 15.4696 22 0
      vertex 21 22 0.69
      vertex 15.4696 22 0.69
    endloop
  endfacet
  facet normal 0 -1 -0
    outer loop
      vertex 21 22 0.69
      vertex 15.4696 22 0
      vertex 21 22 0
    endloop
  endfacet
  facet normal 0 1 -0
    outer loop
      vertex 21 16 0
      vertex 9 16 0.69
      vertex 21 16 0.69
    endloop
  endfacet
  facet normal 0 1 0
    outer loop
      vertex 9 16 0.69
      vertex 21 16 0
      vertex 9 16 0
    endloop
  endfacet
  facet normal 1 -0 0
    outer loop
      vertex 19.5 17.5 0.69
      vertex 19.5 20.5 0
      vertex 19.5 20.5 0.69
    endloop
  endfacet
  facet normal 1 0 0
    outer loop
      vertex 19.5 20.5 0
      vertex 19.5 17.5 0.69
      vertex 19.5 17.5 0
    endloop
  endfacet
  facet normal 0 -1 0
    outer loop
      vertex 10.5 17.5 0
      vertex 19.5 17.5 0.69
      vertex 10.5 17.5 0.69
    endloop
  endfacet
  facet normal 0 -1 -0
    outer loop
      vertex 19.5 17.5 0.69
      vertex 10.5 17.5 0
      vertex 19.5 17.5 0
    endloop
  endfacet
  facet normal 0 1 -0
    outer loop
      vertex 19.5 20.5 0
      vertex 10.5 20.5 0.69
      vertex 19.5 20.5 0.69
    endloop
  endfacet
  facet normal 0 1 0
    outer loop
      vertex 10.5 20.5 0.69
      vertex 19.5 20.5 0
      vertex 10.5 20.5 0
    endloop
  endfacet
endsolid OpenSCAD_Model
