solid OpenSCAD_Model
  facet normal -1 0 0
    outer loop
      vertex 0 30 0.825
      vertex 0 18.8797 2.475
      vertex 0 30 2.475
    endloop
  endfacet
  facet normal -1 0 0
    outer loop
      vertex 0 30 0.825
      vertex 0 11.1202 2.475
      vertex 0 18.8797 2.475
    endloop
  endfacet
  facet normal -1 0 0
    outer loop
      vertex 0 0 0.825
      vertex 0 11.1202 2.475
      vertex 0 30 0.825
    endloop
  endfacet
  facet normal -1 -0 0
    outer loop
      vertex 0 11.1202 2.475
      vertex 0 0 0.825
      vertex 0 0 2.475
    endloop
  endfacet
  facet normal -0 0 1
    outer loop
      vertex 26.7 7.82025 2.475
      vertex 30 0 2.475
      vertex 30 11.1202 2.475
    endloop
  endfacet
  facet normal -0 0 1
    outer loop
      vertex 26.7 3.3 2.475
      vertex 30 0 2.475
      vertex 26.7 7.82025 2.475
    endloop
  endfacet
  facet normal -0 0 1
    outer loop
      vertex 22.1797 3.3 2.475
      vertex 30 0 2.475
      vertex 26.7 3.3 2.475
    endloop
  endfacet
  facet normal 0 0 1
    outer loop
      vertex 30 0 2.475
      vertex 22.1797 3.3 2.475
      vertex 18.8797 0 2.475
    endloop
  endfacet
  facet normal 0 0 1
    outer loop
      vertex 3.3 7.82025 2.475
      vertex 0 11.1202 2.475
      vertex 3.3 3.3 2.475
    endloop
  endfacet
  facet normal -0 0 1
    outer loop
      vertex 3.3 3.3 2.475
      vertex 11.1202 0 2.475
      vertex 7.82025 3.3 2.475
    endloop
  endfacet
  facet normal 0 0 1
    outer loop
      vertex 3.3 3.3 2.475
      vertex 0 0 2.475
      vertex 11.1202 0 2.475
    endloop
  endfacet
  facet normal 0 0 1
    outer loop
      vertex 0 0 2.475
      vertex 3.3 3.3 2.475
      vertex 0 11.1202 2.475
    endloop
  endfacet
  facet normal 0 0 1
    outer loop
      vertex 30 30 2.475
      vertex 26.7 26.7 2.475
      vertex 30 18.8797 2.475
    endloop
  endfacet
  facet normal 0 0 1
    outer loop
      vertex 30 30 2.475
      vertex 22.1798 26.7 2.475
      vertex 26.7 26.7 2.475
    endloop
  endfacet
  facet normal 0 -0 1
    outer loop
      vertex 22.1798 26.7 2.475
      vertex 30 30 2.475
      vertex 18.8797 30 2.475
    endloop
  endfacet
  facet normal 0 0 1
    outer loop
      vertex 30 18.8797 2.475
      vertex 26.7 26.7 2.475
      vertex 26.7 22.1798 2.475
    endloop
  endfacet
  facet normal 0 0 1
    outer loop
      vertex 11.1202 30 2.475
      vertex 3.3 26.7 2.475
      vertex 7.82025 26.7 2.475
    endloop
  endfacet
  facet normal -0 0 1
    outer loop
      vertex 0 30 2.475
      vertex 3.3 26.7 2.475
      vertex 11.1202 30 2.475
    endloop
  endfacet
  facet normal 0 0 1
    outer loop
      vertex 0 30 2.475
      vertex 3.3 22.1797 2.475
      vertex 3.3 26.7 2.475
    endloop
  endfacet
  facet normal 0 0 1
    outer loop
      vertex 3.3 22.1797 2.475
      vertex 0 30 2.475
      vertex 0 18.8797 2.475
    endloop
  endfacet
  facet normal 0 0 1
    outer loop
      vertex 26.7 22.1798 2.475
      vertex 30 11.1202 2.475
      vertex 30 18.8797 2.475
    endloop
  endfacet
  facet normal 0 0 1
    outer loop
      vertex 26.7 22.1798 2.475
      vertex 26.7 7.82025 2.475
      vertex 30 11.1202 2.475
    endloop
  endfacet
  facet normal 0 0 1
    outer loop
      vertex 22.1798 26.7 2.475
      vertex 26.7 7.82025 2.475
      vertex 26.7 22.1798 2.475
    endloop
  endfacet
  facet normal 0 0 1
    outer loop
      vertex 22.1798 26.7 2.475
      vertex 22.1797 3.3 2.475
      vertex 26.7 7.82025 2.475
    endloop
  endfacet
  facet normal 0 0 1
    outer loop
      vertex 7.82025 26.7 2.475
      vertex 22.1798 26.7 2.475
      vertex 18.8797 30 2.475
    endloop
  endfacet
  facet normal 0 0 1
    outer loop
      vertex 22.1798 26.7 2.475
      vertex 7.82025 26.7 2.475
      vertex 22.1797 3.3 2.475
    endloop
  endfacet
  facet normal 0 0 1
    outer loop
      vertex 7.82025 26.7 2.475
      vertex 18.8797 30 2.475
      vertex 11.1202 30 2.475
    endloop
  endfacet
  facet normal 0 0 1
    outer loop
      vertex 7.82025 3.3 2.475
      vertex 22.1797 3.3 2.475
      vertex 7.82025 26.7 2.475
    endloop
  endfacet
  facet normal 0 0 1
    outer loop
      vertex 18.8797 0 2.475
      vertex 7.82025 3.3 2.475
      vertex 11.1202 0 2.475
    endloop
  endfacet
  facet normal 0 0 1
    outer loop
      vertex 22.1797 3.3 2.475
      vertex 7.82025 3.3 2.475
      vertex 18.8797 0 2.475
    endloop
  endfacet
  facet normal -0 0 1
    outer loop
      vertex 3.3 22.1797 2.475
      vertex 7.82025 3.3 2.475
      vertex 7.82025 26.7 2.475
    endloop
  endfacet
  facet normal 0 0 1
    outer loop
      vertex 3.3 22.1797 2.475
      vertex 3.3 7.82025 2.475
      vertex 7.82025 3.3 2.475
    endloop
  endfacet
  facet normal -0 0 1
    outer loop
      vertex 0 18.8797 2.475
      vertex 3.3 7.82025 2.475
      vertex 3.3 22.1797 2.475
    endloop
  endfacet
  facet normal 0 0 1
    outer loop
      vertex 3.3 7.82025 2.475
      vertex 0 18.8797 2.475
      vertex 0 11.1202 2.475
    endloop
  endfacet
  facet normal 1 -0 0
    outer loop
      vertex 30 18.8797 2.475
      vertex 30 30 0.825
      vertex 30 30 2.475
    endloop
  endfacet
  facet normal 1 -0 0
    outer loop
      vertex 30 11.1202 2.475
      vertex 30 30 0.825
      vertex 30 18.8797 2.475
    endloop
  endfacet
  facet normal 1 0 0
    outer loop
      vertex 30 0 0.825
      vertex 30 11.1202 2.475
      vertex 30 0 2.475
    endloop
  endfacet
  facet normal 1 0 0
    outer loop
      vertex 30 11.1202 2.475
      vertex 30 0 0.825
      vertex 30 30 0.825
    endloop
  endfacet
  facet normal 0 1 -0
    outer loop
      vertex 30 30 0.825
      vertex 18.8797 30 2.475
      vertex 30 30 2.475
    endloop
  endfacet
  facet normal 0 1 0
    outer loop
      vertex 18.8797 30 2.475
      vertex 30 30 0.825
      vertex 11.1202 30 2.475
    endloop
  endfacet
  facet normal 0 1 0
    outer loop
      vertex 0 30 0.825
      vertex 11.1202 30 2.475
      vertex 30 30 0.825
    endloop
  endfacet
  facet normal 0 1 0
    outer loop
      vertex 11.1202 30 2.475
      vertex 0 30 0.825
      vertex 0 30 2.475
    endloop
  endfacet
  facet normal 0 0 -1
    outer loop
      vertex 23.742 12.9397 0
      vertex 29.175 15 0
      vertex 29.175 0.825 0
    endloop
  endfacet
  facet normal -0 0 -1
    outer loop
      vertex 29.175 15 0
      vertex 24.6487 14.51 0
      vertex 24.7132 15 0
    endloop
  endfacet
  facet normal 0 0 -1
    outer loop
      vertex 29.175 15 0
      vertex 24.2987 13.6652 0
      vertex 24.6487 14.51 0
    endloop
  endfacet
  facet normal 0 0 -1
    outer loop
      vertex 29.175 15 0
      vertex 23.742 12.9397 0
      vertex 24.2987 13.6652 0
    endloop
  endfacet
  facet normal 0 0 -1
    outer loop
      vertex 29.175 0.825 0
      vertex 23.0165 12.383 0
      vertex 23.742 12.9397 0
    endloop
  endfacet
  facet normal 0 0 -1
    outer loop
      vertex 29.175 0.825 0
      vertex 22.1716 12.033 0
      vertex 23.0165 12.383 0
    endloop
  endfacet
  facet normal 0 0 -1
    outer loop
      vertex 29.175 0.825 0
      vertex 21.265 11.9137 0
      vertex 22.1716 12.033 0
    endloop
  endfacet
  facet normal 0 0 -1
    outer loop
      vertex 29.175 0.825 0
      vertex 20.3584 12.033 0
      vertex 21.265 11.9137 0
    endloop
  endfacet
  facet normal 0 0 -1
    outer loop
      vertex 15.6656 12.033 0
      vertex 20.3584 12.033 0
      vertex 29.175 0.825 0
    endloop
  endfacet
  facet normal 0 0 -1
    outer loop
      vertex 20.3584 12.033 0
      vertex 15.6656 12.033 0
      vertex 19.5135 12.383 0
    endloop
  endfacet
  facet normal 0 0 -1
    outer loop
      vertex 18.2313 13.6652 0
      vertex 17.7927 13.6652 0
      vertex 18.012 14.1947 0
    endloop
  endfacet
  facet normal 0 0 -1
    outer loop
      vertex 18.788 12.9397 0
      vertex 17.7927 13.6652 0
      vertex 18.2313 13.6652 0
    endloop
  endfacet
  facet normal 0 0 -1
    outer loop
      vertex 19.5135 12.383 0
      vertex 16.5105 12.383 0
      vertex 18.788 12.9397 0
    endloop
  endfacet
  facet normal 0 0 -1
    outer loop
      vertex 18.788 12.9397 0
      vertex 17.236 12.9397 0
      vertex 17.7927 13.6652 0
    endloop
  endfacet
  facet normal -0 0 -1
    outer loop
      vertex 18.788 12.9397 0
      vertex 16.5105 12.383 0
      vertex 17.236 12.9397 0
    endloop
  endfacet
  facet normal -0 0 -1
    outer loop
      vertex 19.5135 12.383 0
      vertex 15.6656 12.033 0
      vertex 16.5105 12.383 0
    endloop
  endfacet
  facet normal 0 0 -1
    outer loop
      vertex 29.175 0.825 0
      vertex 14.759 11.9137 0
      vertex 15.6656 12.033 0
    endloop
  endfacet
  facet normal 0 0 -1
    outer loop
      vertex 0.825 0.825 0
      vertex 14.759 11.9137 0
      vertex 29.175 0.825 0
    endloop
  endfacet
  facet normal -0 0 -1
    outer loop
      vertex 14.759 11.9137 0
      vertex 0.825 0.825 0
      vertex 13.8524 12.033 0
    endloop
  endfacet
  facet normal 0 0 -1
    outer loop
      vertex 11.7253 13.6652 0
      vertex 11.2867 13.6652 0
      vertex 11.506 14.1947 0
    endloop
  endfacet
  facet normal 0 0 -1
    outer loop
      vertex 12.282 12.9397 0
      vertex 11.2867 13.6652 0
      vertex 11.7253 13.6652 0
    endloop
  endfacet
  facet normal 0 0 -1
    outer loop
      vertex 10.73 12.9397 0
      vertex 12.282 12.9397 0
      vertex 13.0075 12.383 0
    endloop
  endfacet
  facet normal 0 0 -1
    outer loop
      vertex 12.282 12.9397 0
      vertex 10.73 12.9397 0
      vertex 11.2867 13.6652 0
    endloop
  endfacet
  facet normal 0 -0 -1
    outer loop
      vertex 9.15963 12.033 0
      vertex 13.8524 12.033 0
      vertex 0.825 0.825 0
    endloop
  endfacet
  facet normal 0 0 -1
    outer loop
      vertex 13.0075 12.383 0
      vertex 10.0045 12.383 0
      vertex 10.73 12.9397 0
    endloop
  endfacet
  facet normal -0 0 -1
    outer loop
      vertex 13.0075 12.383 0
      vertex 9.15963 12.033 0
      vertex 10.0045 12.383 0
    endloop
  endfacet
  facet normal 0 0 -1
    outer loop
      vertex 13.8524 12.033 0
      vertex 9.15963 12.033 0
      vertex 13.0075 12.383 0
    endloop
  endfacet
  facet normal 0 0 -1
    outer loop
      vertex 9.15963 12.033 0
      vertex 0.825 0.825 0
      vertex 8.253 11.9137 0
    endloop
  endfacet
  facet normal -0 0 -1
    outer loop
      vertex 8.253 11.9137 0
      vertex 0.825 0.825 0
      vertex 7.34637 12.033 0
    endloop
  endfacet
  facet normal -0 0 -1
    outer loop
      vertex 7.34637 12.033 0
      vertex 0.825 0.825 0
      vertex 6.50151 12.383 0
    endloop
  endfacet
  facet normal 0 0 -1
    outer loop
      vertex 0.825 0.825 0
      vertex 5.77601 12.9397 0
      vertex 6.50151 12.383 0
    endloop
  endfacet
  facet normal 0 0 -1
    outer loop
      vertex 0.825 15 0
      vertex 5.77601 12.9397 0
      vertex 0.825 0.825 0
    endloop
  endfacet
  facet normal 0 0 -1
    outer loop
      vertex 5.77601 12.9397 0
      vertex 0.825 15 0
      vertex 5.21933 13.6652 0
    endloop
  endfacet
  facet normal 0 0 -1
    outer loop
      vertex 5.21933 13.6652 0
      vertex 0.825 15 0
      vertex 4.86937 14.51 0
    endloop
  endfacet
  facet normal 0 0 -1
    outer loop
      vertex 4.86937 14.51 0
      vertex 0.825 15 0
      vertex 4.80486 15 0
    endloop
  endfacet
  facet normal 0 0 -1
    outer loop
      vertex 24 15.4167 0
      vertex 23.768 15.4167 0
      vertex 24 16 0
    endloop
  endfacet
  facet normal 0 0 -1
    outer loop
      vertex 24 16 0
      vertex 29.175 29.175 0
      vertex 29.175 16 0
    endloop
  endfacet
  facet normal 0 0 -1
    outer loop
      vertex 18.762 15.4167 0
      vertex 24 16 0
      vertex 23.768 15.4167 0
    endloop
  endfacet
  facet normal 0 0 -1
    outer loop
      vertex 23.4327 14.1652 0
      vertex 23.768 15.4167 0
      vertex 23.6827 14.7689 0
    endloop
  endfacet
  facet normal 0 0 -1
    outer loop
      vertex 23.0349 13.6468 0
      vertex 23.768 15.4167 0
      vertex 23.4327 14.1652 0
    endloop
  endfacet
  facet normal 0 0 -1
    outer loop
      vertex 18.762 15.4167 0
      vertex 23.768 15.4167 0
      vertex 23.0349 13.6468 0
    endloop
  endfacet
  facet normal 0 0 -1
    outer loop
      vertex 18.762 15.4167 0
      vertex 23.0349 13.6468 0
      vertex 22.5165 13.249 0
    endloop
  endfacet
  facet normal 0 0 -1
    outer loop
      vertex 18.762 15.4167 0
      vertex 22.5165 13.249 0
      vertex 21.9128 12.999 0
    endloop
  endfacet
  facet normal 0 0 -1
    outer loop
      vertex 18.762 15.4167 0
      vertex 21.9128 12.999 0
      vertex 21.265 12.9137 0
    endloop
  endfacet
  facet normal 0 0 -1
    outer loop
      vertex 18.762 15.4167 0
      vertex 21.265 12.9137 0
      vertex 20.6172 12.999 0
    endloop
  endfacet
  facet normal 0 0 -1
    outer loop
      vertex 18.762 15.4167 0
      vertex 20.6172 12.999 0
      vertex 20.0135 13.249 0
    endloop
  endfacet
  facet normal 0 0 -1
    outer loop
      vertex 18.762 15.4167 0
      vertex 20.0135 13.249 0
      vertex 19.4951 13.6468 0
    endloop
  endfacet
  facet normal 0 0 -1
    outer loop
      vertex 18.762 15.4167 0
      vertex 19.4951 13.6468 0
      vertex 19.0974 14.1652 0
    endloop
  endfacet
  facet normal 0 0 -1
    outer loop
      vertex 18.762 15.4167 0
      vertex 19.0974 14.1652 0
      vertex 18.8473 14.7689 0
    endloop
  endfacet
  facet normal -0 0 -1
    outer loop
      vertex 24 16 0
      vertex 18.762 15.4167 0
      vertex 29.175 29.175 0
    endloop
  endfacet
  facet normal 0 0 -1
    outer loop
      vertex 17.262 15.4167 0
      vertex 29.175 29.175 0
      vertex 18.762 15.4167 0
    endloop
  endfacet
  facet normal 0 0 -1
    outer loop
      vertex 16.9267 14.1652 0
      vertex 17.262 15.4167 0
      vertex 17.1767 14.7689 0
    endloop
  endfacet
  facet normal 0 0 -1
    outer loop
      vertex 16.5289 13.6468 0
      vertex 17.262 15.4167 0
      vertex 16.9267 14.1652 0
    endloop
  endfacet
  facet normal 0 0 -1
    outer loop
      vertex 16.0105 13.249 0
      vertex 17.262 15.4167 0
      vertex 16.5289 13.6468 0
    endloop
  endfacet
  facet normal 0 0 -1
    outer loop
      vertex 15.4068 12.999 0
      vertex 17.262 15.4167 0
      vertex 16.0105 13.249 0
    endloop
  endfacet
  facet normal 0 0 -1
    outer loop
      vertex 14.759 12.9137 0
      vertex 17.262 15.4167 0
      vertex 15.4068 12.999 0
    endloop
  endfacet
  facet normal 0 0 -1
    outer loop
      vertex 12.256 15.4167 0
      vertex 17.262 15.4167 0
      vertex 14.759 12.9137 0
    endloop
  endfacet
  facet normal 0 0 -1
    outer loop
      vertex 12.256 15.4167 0
      vertex 14.759 12.9137 0
      vertex 14.1112 12.999 0
    endloop
  endfacet
  facet normal 0 0 -1
    outer loop
      vertex 12.256 15.4167 0
      vertex 14.1112 12.999 0
      vertex 13.5075 13.249 0
    endloop
  endfacet
  facet normal 0 0 -1
    outer loop
      vertex 12.256 15.4167 0
      vertex 13.5075 13.249 0
      vertex 12.9891 13.6468 0
    endloop
  endfacet
  facet normal 0 0 -1
    outer loop
      vertex 12.256 15.4167 0
      vertex 12.9891 13.6468 0
      vertex 12.5913 14.1652 0
    endloop
  endfacet
  facet normal 0 0 -1
    outer loop
      vertex 12.256 15.4167 0
      vertex 12.5913 14.1652 0
      vertex 12.3413 14.7689 0
    endloop
  endfacet
  facet normal 0 0 -1
    outer loop
      vertex 0.825 29.175 0
      vertex 17.262 15.4167 0
      vertex 12.256 15.4167 0
    endloop
  endfacet
  facet normal 0 0 -1
    outer loop
      vertex 0.825 29.175 0
      vertex 12.256 15.4167 0
      vertex 10.756 15.4167 0
    endloop
  endfacet
  facet normal 0 0 -1
    outer loop
      vertex 6 15 0
      vertex 10.6707 14.7689 0
      vertex 10.4207 14.1652 0
    endloop
  endfacet
  facet normal 0 0 -1
    outer loop
      vertex 6 15 0
      vertex 10.4207 14.1652 0
      vertex 10.0229 13.6468 0
    endloop
  endfacet
  facet normal 0 0 -1
    outer loop
      vertex 6 15 0
      vertex 10.0229 13.6468 0
      vertex 9.5045 13.249 0
    endloop
  endfacet
  facet normal 0 0 -1
    outer loop
      vertex 6 15 0
      vertex 9.5045 13.249 0
      vertex 8.90081 12.999 0
    endloop
  endfacet
  facet normal 0 0 -1
    outer loop
      vertex 6 15 0
      vertex 8.90081 12.999 0
      vertex 8.253 12.9137 0
    endloop
  endfacet
  facet normal 0 0 -1
    outer loop
      vertex 6 15 0
      vertex 8.253 12.9137 0
      vertex 7.60519 12.999 0
    endloop
  endfacet
  facet normal 0 0 -1
    outer loop
      vertex 6 15 0
      vertex 7.60519 12.999 0
      vertex 7.00151 13.249 0
    endloop
  endfacet
  facet normal 0 0 -1
    outer loop
      vertex 10.6707 14.7689 0
      vertex 6 15 0
      vertex 10.756 15.4167 0
    endloop
  endfacet
  facet normal 0 0 -1
    outer loop
      vertex 6 15 0
      vertex 7.00151 13.249 0
      vertex 6.48312 13.6468 0
    endloop
  endfacet
  facet normal 0 0 -1
    outer loop
      vertex 6 15 0
      vertex 6.48312 13.6468 0
      vertex 6.08534 14.1652 0
    endloop
  endfacet
  facet normal -0 0 -1
    outer loop
      vertex 10.756 15.4167 0
      vertex 6 15 0
      vertex 6 16 0
    endloop
  endfacet
  facet normal 0 0 -1
    outer loop
      vertex 0.825 29.175 0
      vertex 10.756 15.4167 0
      vertex 6 16 0
    endloop
  endfacet
  facet normal 0 0 -1
    outer loop
      vertex 0.825 29.175 0
      vertex 6 16 0
      vertex 0.825 16 0
    endloop
  endfacet
  facet normal 0 0 -1
    outer loop
      vertex 17.262 15.4167 0
      vertex 0.825 29.175 0
      vertex 29.175 29.175 0
    endloop
  endfacet
  facet normal 0 0 -1
    outer loop
      vertex 5.83529 14.7689 0
      vertex 6 15 0
      vertex 6.08534 14.1652 0
    endloop
  endfacet
  facet normal -0 0 -1
    outer loop
      vertex 6 15 0
      vertex 5.83529 14.7689 0
      vertex 5.80486 15 0
    endloop
  endfacet
  facet normal 0 -1 0
    outer loop
      vertex 0 0 0.825
      vertex 11.1202 0 2.475
      vertex 0 0 2.475
    endloop
  endfacet
  facet normal 0 -1 -0
    outer loop
      vertex 11.1202 0 2.475
      vertex 0 0 0.825
      vertex 18.8797 0 2.475
    endloop
  endfacet
  facet normal 0 -1 0
    outer loop
      vertex 18.8797 0 2.475
      vertex 30 0 0.825
      vertex 30 0 2.475
    endloop
  endfacet
  facet normal 0 -1 0
    outer loop
      vertex 30 0 0.825
      vertex 18.8797 0 2.475
      vertex 0 0 0.825
    endloop
  endfacet
  facet normal -1 0 0
    outer loop
      vertex 3.3 3.3 2.475
      vertex 3.3 7.82025 6
      vertex 3.3 7.82025 2.475
    endloop
  endfacet
  facet normal -1 -0 0
    outer loop
      vertex 3.3 7.82025 6
      vertex 3.3 3.3 2.475
      vertex 3.3 3.3 6
    endloop
  endfacet
  facet normal -1 0 0
    outer loop
      vertex 3.3 22.1797 2.475
      vertex 3.3 26.7 6
      vertex 3.3 26.7 2.475
    endloop
  endfacet
  facet normal -1 -0 0
    outer loop
      vertex 3.3 26.7 6
      vertex 3.3 22.1797 2.475
      vertex 3.3 22.1797 6
    endloop
  endfacet
  facet normal 0 0 1
    outer loop
      vertex 26.7 7.82025 6
      vertex 22.1797 3.3 6
      vertex 26.7 3.3 6
    endloop
  endfacet
  facet normal 0 0 1
    outer loop
      vertex 3.3 7.82025 6
      vertex 3.3 3.3 6
      vertex 7.82025 3.3 6
    endloop
  endfacet
  facet normal 0 0 1
    outer loop
      vertex 26.7 26.7 6
      vertex 22.1798 26.7 6
      vertex 26.7 22.1798 6
    endloop
  endfacet
  facet normal -0 0 1
    outer loop
      vertex 3.3 26.7 6
      vertex 3.3 22.1797 6
      vertex 7.82025 26.7 6
    endloop
  endfacet
  facet normal 1 -0 0
    outer loop
      vertex 26.7 3.3 6
      vertex 26.7 7.82025 2.475
      vertex 26.7 7.82025 6
    endloop
  endfacet
  facet normal 1 0 0
    outer loop
      vertex 26.7 7.82025 2.475
      vertex 26.7 3.3 6
      vertex 26.7 3.3 2.475
    endloop
  endfacet
  facet normal 1 -0 0
    outer loop
      vertex 26.7 22.1798 6
      vertex 26.7 26.7 2.475
      vertex 26.7 26.7 6
    endloop
  endfacet
  facet normal 1 0 0
    outer loop
      vertex 26.7 26.7 2.475
      vertex 26.7 22.1798 6
      vertex 26.7 22.1798 2.475
    endloop
  endfacet
  facet normal 0 -1 0
    outer loop
      vertex 22.1797 3.3 2.475
      vertex 26.7 3.3 6
      vertex 22.1797 3.3 6
    endloop
  endfacet
  facet normal 0 -1 -0
    outer loop
      vertex 26.7 3.3 6
      vertex 22.1797 3.3 2.475
      vertex 26.7 3.3 2.475
    endloop
  endfacet
  facet normal 0 -1 0
    outer loop
      vertex 3.3 3.3 2.475
      vertex 7.82025 3.3 6
      vertex 3.3 3.3 6
    endloop
  endfacet
  facet normal 0 -1 -0
    outer loop
      vertex 7.82025 3.3 6
      vertex 3.3 3.3 2.475
      vertex 7.82025 3.3 2.475
    endloop
  endfacet
  facet normal 0 1 -0
    outer loop
      vertex 26.7 26.7 2.475
      vertex 22.1798 26.7 6
      vertex 26.7 26.7 6
    endloop
  endfacet
  facet normal 0 1 0
    outer loop
      vertex 22.1798 26.7 6
      vertex 26.7 26.7 2.475
      vertex 22.1798 26.7 2.475
    endloop
  endfacet
  facet normal 0 1 -0
    outer loop
      vertex 7.82025 26.7 2.475
      vertex 3.3 26.7 6
      vertex 7.82025 26.7 6
    endloop
  endfacet
  facet normal 0 1 0
    outer loop
      vertex 3.3 26.7 6
      vertex 7.82025 26.7 2.475
      vertex 3.3 26.7 2.475
    endloop
  endfacet
  facet normal -0.707107 -0.707107 0
    outer loop
      vertex 26.7 22.1798 2.475
      vertex 22.1798 26.7 6
      vertex 22.1798 26.7 2.475
    endloop
  endfacet
  facet normal -0.707107 -0.707107 0
    outer loop
      vertex 22.1798 26.7 6
      vertex 26.7 22.1798 2.475
      vertex 26.7 22.1798 6
    endloop
  endfacet
  facet normal 0.707111 -0.707103 0
    outer loop
      vertex 3.3 22.1797 6
      vertex 7.82025 26.7 2.475
      vertex 7.82025 26.7 6
    endloop
  endfacet
  facet normal 0.707111 -0.707103 0
    outer loop
      vertex 7.82025 26.7 2.475
      vertex 3.3 22.1797 6
      vertex 3.3 22.1797 2.475
    endloop
  endfacet
  facet normal 0.707107 0.707107 0
    outer loop
      vertex 7.82025 3.3 6
      vertex 3.3 7.82025 2.475
      vertex 3.3 7.82025 6
    endloop
  endfacet
  facet normal 0.707107 0.707107 0
    outer loop
      vertex 3.3 7.82025 2.475
      vertex 7.82025 3.3 6
      vertex 7.82025 3.3 2.475
    endloop
  endfacet
  facet normal -0.707103 0.707111 0
    outer loop
      vertex 26.7 7.82025 2.475
      vertex 22.1797 3.3 6
      vertex 26.7 7.82025 6
    endloop
  endfacet
  facet normal -0.707103 0.707111 0
    outer loop
      vertex 22.1797 3.3 6
      vertex 26.7 7.82025 2.475
      vertex 22.1797 3.3 2.475
    endloop
  endfacet
  facet normal 0 -0.707107 -0.707107
    outer loop
      vertex 0.825 0.825 0
      vertex 30 0 0.825
      vertex 0 0 0.825
    endloop
  endfacet
  facet normal 0 -0.707107 -0.707107
    outer loop
      vertex 30 0 0.825
      vertex 0.825 0.825 0
      vertex 29.175 0.825 0
    endloop
  endfacet
  facet normal -0.707107 -0 -0.707107
    outer loop
      vertex 0.825 15 0
      vertex 0.825 0.825 0
      vertex 0.335 15 0.49
    endloop
  endfacet
  facet normal -0.707107 0 -0.707107
    outer loop
      vertex 0.335 16 0.49
      vertex 0.825 29.175 0
      vertex 0.825 16 0
    endloop
  endfacet
  facet normal -0.707107 -3.48178e-18 -0.707107
    outer loop
      vertex 0.825 29.175 0
      vertex 0.335 16 0.49
      vertex 0 30 0.825
    endloop
  endfacet
  facet normal -0.707107 0 -0.707107
    outer loop
      vertex 0.335 15 0.49
      vertex 0 30 0.825
      vertex 0.335 16 0.49
    endloop
  endfacet
  facet normal -0.707107 0 -0.707107
    outer loop
      vertex 0.335 15 0.49
      vertex 0 0 0.825
      vertex 0 30 0.825
    endloop
  endfacet
  facet normal -0.707107 0 -0.707107
    outer loop
      vertex 0 0 0.825
      vertex 0.335 15 0.49
      vertex 0.825 0.825 0
    endloop
  endfacet
  facet normal 0.707107 0 -0.707107
    outer loop
      vertex 30 0 0.825
      vertex 29.665 15 0.49
      vertex 30 30 0.825
    endloop
  endfacet
  facet normal 0.707107 5.83985e-17 -0.707107
    outer loop
      vertex 29.175 0.825 0
      vertex 29.665 15 0.49
      vertex 30 0 0.825
    endloop
  endfacet
  facet normal 0.707107 0 -0.707107
    outer loop
      vertex 29.665 15 0.49
      vertex 29.175 0.825 0
      vertex 29.175 15 0
    endloop
  endfacet
  facet normal 0.707107 0 -0.707107
    outer loop
      vertex 29.665 16 0.49
      vertex 30 30 0.825
      vertex 29.665 15 0.49
    endloop
  endfacet
  facet normal 0.707107 0 -0.707107
    outer loop
      vertex 29.175 29.175 0
      vertex 29.665 16 0.49
      vertex 29.175 16 0
    endloop
  endfacet
  facet normal 0.707107 -5.91903e-17 -0.707107
    outer loop
      vertex 29.665 16 0.49
      vertex 29.175 29.175 0
      vertex 30 30 0.825
    endloop
  endfacet
  facet normal 0 0.707107 -0.707107
    outer loop
      vertex 0.825 29.175 0
      vertex 30 30 0.825
      vertex 29.175 29.175 0
    endloop
  endfacet
  facet normal 0 0.707107 -0.707107
    outer loop
      vertex 30 30 0.825
      vertex 0.825 29.175 0
      vertex 0 30 0.825
    endloop
  endfacet
  facet normal 0 0 -1
    outer loop
      vertex 23.6827 14.7689 0.99
      vertex 24.6487 14.51 0.99
      vertex 24.2987 13.6652 0.99
    endloop
  endfacet
  facet normal 0 0 -1
    outer loop
      vertex 24.6487 14.51 0.99
      vertex 23.6827 14.7689 0.99
      vertex 24.768 15.4167 0.99
    endloop
  endfacet
  facet normal 0 0 -1
    outer loop
      vertex 23.4327 14.1652 0.99
      vertex 24.2987 13.6652 0.99
      vertex 23.742 12.9397 0.99
    endloop
  endfacet
  facet normal -0 0 -1
    outer loop
      vertex 24.768 15.4167 0.99
      vertex 23.6827 14.7689 0.99
      vertex 23.768 15.4167 0.99
    endloop
  endfacet
  facet normal 0 0 -1
    outer loop
      vertex 24.2987 13.6652 0.99
      vertex 23.4327 14.1652 0.99
      vertex 23.6827 14.7689 0.99
    endloop
  endfacet
  facet normal 0 0 -1
    outer loop
      vertex 23.742 12.9397 0.99
      vertex 23.0349 13.6468 0.99
      vertex 23.4327 14.1652 0.99
    endloop
  endfacet
  facet normal 0 0 -1
    outer loop
      vertex 23.0165 12.383 0.99
      vertex 23.0349 13.6468 0.99
      vertex 23.742 12.9397 0.99
    endloop
  endfacet
  facet normal 0 0 -1
    outer loop
      vertex 23.0165 12.383 0.99
      vertex 22.5165 13.249 0.99
      vertex 23.0349 13.6468 0.99
    endloop
  endfacet
  facet normal 0 0 -1
    outer loop
      vertex 22.1716 12.033 0.99
      vertex 22.5165 13.249 0.99
      vertex 23.0165 12.383 0.99
    endloop
  endfacet
  facet normal 0 0 -1
    outer loop
      vertex 22.1716 12.033 0.99
      vertex 21.9128 12.999 0.99
      vertex 22.5165 13.249 0.99
    endloop
  endfacet
  facet normal 0 0 -1
    outer loop
      vertex 21.265 11.9137 0.99
      vertex 21.9128 12.999 0.99
      vertex 22.1716 12.033 0.99
    endloop
  endfacet
  facet normal 0 0 -1
    outer loop
      vertex 21.265 11.9137 0.99
      vertex 21.265 12.9137 0.99
      vertex 21.9128 12.999 0.99
    endloop
  endfacet
  facet normal 0 0 -1
    outer loop
      vertex 21.265 11.9137 0.99
      vertex 20.6172 12.999 0.99
      vertex 21.265 12.9137 0.99
    endloop
  endfacet
  facet normal 0 0 -1
    outer loop
      vertex 20.3584 12.033 0.99
      vertex 20.6172 12.999 0.99
      vertex 21.265 11.9137 0.99
    endloop
  endfacet
  facet normal 0 0 -1
    outer loop
      vertex 20.3584 12.033 0.99
      vertex 20.0135 13.249 0.99
      vertex 20.6172 12.999 0.99
    endloop
  endfacet
  facet normal 0 0 -1
    outer loop
      vertex 19.5135 12.383 0.99
      vertex 20.0135 13.249 0.99
      vertex 20.3584 12.033 0.99
    endloop
  endfacet
  facet normal 0 0 -1
    outer loop
      vertex 19.5135 12.383 0.99
      vertex 19.4951 13.6468 0.99
      vertex 20.0135 13.249 0.99
    endloop
  endfacet
  facet normal 0 0 -1
    outer loop
      vertex 18.788 12.9397 0.99
      vertex 19.4951 13.6468 0.99
      vertex 19.5135 12.383 0.99
    endloop
  endfacet
  facet normal -0 0 -1
    outer loop
      vertex 19.4951 13.6468 0.99
      vertex 18.788 12.9397 0.99
      vertex 19.0974 14.1652 0.99
    endloop
  endfacet
  facet normal 0 0 -1
    outer loop
      vertex 18.2313 13.6652 0.99
      vertex 19.0974 14.1652 0.99
      vertex 18.788 12.9397 0.99
    endloop
  endfacet
  facet normal 0 0 -1
    outer loop
      vertex 18.012 14.1947 0.99
      vertex 19.0974 14.1652 0.99
      vertex 18.2313 13.6652 0.99
    endloop
  endfacet
  facet normal 0 0 -1
    outer loop
      vertex 19.0974 14.1652 0.99
      vertex 18.012 14.1947 0.99
      vertex 18.8473 14.7689 0.99
    endloop
  endfacet
  facet normal -0 0 -1
    outer loop
      vertex 18.8473 14.7689 0.99
      vertex 18.012 14.1947 0.99
      vertex 18.762 15.4167 0.99
    endloop
  endfacet
  facet normal 0 0 -1
    outer loop
      vertex 18.012 14.1947 0.99
      vertex 17.262 15.4167 0.99
      vertex 18.762 15.4167 0.99
    endloop
  endfacet
  facet normal 0 0 -1
    outer loop
      vertex 16.9267 14.1652 0.99
      vertex 18.012 14.1947 0.99
      vertex 17.7927 13.6652 0.99
    endloop
  endfacet
  facet normal 0 0 -1
    outer loop
      vertex 16.9267 14.1652 0.99
      vertex 17.7927 13.6652 0.99
      vertex 17.236 12.9397 0.99
    endloop
  endfacet
  facet normal 0 0 -1
    outer loop
      vertex 18.012 14.1947 0.99
      vertex 17.1767 14.7689 0.99
      vertex 17.262 15.4167 0.99
    endloop
  endfacet
  facet normal -0 0 -1
    outer loop
      vertex 18.012 14.1947 0.99
      vertex 16.9267 14.1652 0.99
      vertex 17.1767 14.7689 0.99
    endloop
  endfacet
  facet normal 0 0 -1
    outer loop
      vertex 17.236 12.9397 0.99
      vertex 16.5289 13.6468 0.99
      vertex 16.9267 14.1652 0.99
    endloop
  endfacet
  facet normal 0 0 -1
    outer loop
      vertex 16.5105 12.383 0.99
      vertex 16.5289 13.6468 0.99
      vertex 17.236 12.9397 0.99
    endloop
  endfacet
  facet normal 0 0 -1
    outer loop
      vertex 16.5105 12.383 0.99
      vertex 16.0105 13.249 0.99
      vertex 16.5289 13.6468 0.99
    endloop
  endfacet
  facet normal 0 0 -1
    outer loop
      vertex 15.6656 12.033 0.99
      vertex 16.0105 13.249 0.99
      vertex 16.5105 12.383 0.99
    endloop
  endfacet
  facet normal 0 0 -1
    outer loop
      vertex 15.6656 12.033 0.99
      vertex 15.4068 12.999 0.99
      vertex 16.0105 13.249 0.99
    endloop
  endfacet
  facet normal 0 0 -1
    outer loop
      vertex 14.759 11.9137 0.99
      vertex 15.4068 12.999 0.99
      vertex 15.6656 12.033 0.99
    endloop
  endfacet
  facet normal 0 0 -1
    outer loop
      vertex 14.759 11.9137 0.99
      vertex 14.759 12.9137 0.99
      vertex 15.4068 12.999 0.99
    endloop
  endfacet
  facet normal 0 0 -1
    outer loop
      vertex 14.759 11.9137 0.99
      vertex 14.1112 12.999 0.99
      vertex 14.759 12.9137 0.99
    endloop
  endfacet
  facet normal 0 0 -1
    outer loop
      vertex 13.8524 12.033 0.99
      vertex 14.1112 12.999 0.99
      vertex 14.759 11.9137 0.99
    endloop
  endfacet
  facet normal 0 0 -1
    outer loop
      vertex 13.8524 12.033 0.99
      vertex 13.5075 13.249 0.99
      vertex 14.1112 12.999 0.99
    endloop
  endfacet
  facet normal 0 0 -1
    outer loop
      vertex 13.0075 12.383 0.99
      vertex 13.5075 13.249 0.99
      vertex 13.8524 12.033 0.99
    endloop
  endfacet
  facet normal 0 0 -1
    outer loop
      vertex 13.0075 12.383 0.99
      vertex 12.9891 13.6468 0.99
      vertex 13.5075 13.249 0.99
    endloop
  endfacet
  facet normal 0 0 -1
    outer loop
      vertex 12.282 12.9397 0.99
      vertex 12.9891 13.6468 0.99
      vertex 13.0075 12.383 0.99
    endloop
  endfacet
  facet normal -0 0 -1
    outer loop
      vertex 12.9891 13.6468 0.99
      vertex 12.282 12.9397 0.99
      vertex 12.5913 14.1652 0.99
    endloop
  endfacet
  facet normal 0 0 -1
    outer loop
      vertex 11.7253 13.6652 0.99
      vertex 12.5913 14.1652 0.99
      vertex 12.282 12.9397 0.99
    endloop
  endfacet
  facet normal 0 0 -1
    outer loop
      vertex 11.506 14.1947 0.99
      vertex 12.5913 14.1652 0.99
      vertex 11.7253 13.6652 0.99
    endloop
  endfacet
  facet normal 0 0 -1
    outer loop
      vertex 12.5913 14.1652 0.99
      vertex 11.506 14.1947 0.99
      vertex 12.3413 14.7689 0.99
    endloop
  endfacet
  facet normal -0 0 -1
    outer loop
      vertex 12.3413 14.7689 0.99
      vertex 11.506 14.1947 0.99
      vertex 12.256 15.4167 0.99
    endloop
  endfacet
  facet normal 0 0 -1
    outer loop
      vertex 11.506 14.1947 0.99
      vertex 10.756 15.4167 0.99
      vertex 12.256 15.4167 0.99
    endloop
  endfacet
  facet normal 0 0 -1
    outer loop
      vertex 10.4207 14.1652 0.99
      vertex 11.506 14.1947 0.99
      vertex 11.2867 13.6652 0.99
    endloop
  endfacet
  facet normal 0 0 -1
    outer loop
      vertex 10.4207 14.1652 0.99
      vertex 11.2867 13.6652 0.99
      vertex 10.73 12.9397 0.99
    endloop
  endfacet
  facet normal 0 0 -1
    outer loop
      vertex 11.506 14.1947 0.99
      vertex 10.6707 14.7689 0.99
      vertex 10.756 15.4167 0.99
    endloop
  endfacet
  facet normal -0 0 -1
    outer loop
      vertex 11.506 14.1947 0.99
      vertex 10.4207 14.1652 0.99
      vertex 10.6707 14.7689 0.99
    endloop
  endfacet
  facet normal 0 0 -1
    outer loop
      vertex 10.73 12.9397 0.99
      vertex 10.0229 13.6468 0.99
      vertex 10.4207 14.1652 0.99
    endloop
  endfacet
  facet normal 0 0 -1
    outer loop
      vertex 10.0045 12.383 0.99
      vertex 10.0229 13.6468 0.99
      vertex 10.73 12.9397 0.99
    endloop
  endfacet
  facet normal 0 0 -1
    outer loop
      vertex 10.0045 12.383 0.99
      vertex 9.5045 13.249 0.99
      vertex 10.0229 13.6468 0.99
    endloop
  endfacet
  facet normal 0 0 -1
    outer loop
      vertex 9.15963 12.033 0.99
      vertex 9.5045 13.249 0.99
      vertex 10.0045 12.383 0.99
    endloop
  endfacet
  facet normal 0 0 -1
    outer loop
      vertex 9.15963 12.033 0.99
      vertex 8.90081 12.999 0.99
      vertex 9.5045 13.249 0.99
    endloop
  endfacet
  facet normal 0 0 -1
    outer loop
      vertex 8.253 11.9137 0.99
      vertex 8.90081 12.999 0.99
      vertex 9.15963 12.033 0.99
    endloop
  endfacet
  facet normal 0 0 -1
    outer loop
      vertex 8.253 11.9137 0.99
      vertex 8.253 12.9137 0.99
      vertex 8.90081 12.999 0.99
    endloop
  endfacet
  facet normal 0 0 -1
    outer loop
      vertex 8.253 11.9137 0.99
      vertex 7.60519 12.999 0.99
      vertex 8.253 12.9137 0.99
    endloop
  endfacet
  facet normal 0 0 -1
    outer loop
      vertex 7.34637 12.033 0.99
      vertex 7.60519 12.999 0.99
      vertex 8.253 11.9137 0.99
    endloop
  endfacet
  facet normal 0 0 -1
    outer loop
      vertex 7.34637 12.033 0.99
      vertex 7.00151 13.249 0.99
      vertex 7.60519 12.999 0.99
    endloop
  endfacet
  facet normal 0 0 -1
    outer loop
      vertex 6.50151 12.383 0.99
      vertex 7.00151 13.249 0.99
      vertex 7.34637 12.033 0.99
    endloop
  endfacet
  facet normal 0 0 -1
    outer loop
      vertex 6.50151 12.383 0.99
      vertex 6.48312 13.6468 0.99
      vertex 7.00151 13.249 0.99
    endloop
  endfacet
  facet normal 0 0 -1
    outer loop
      vertex 5.77601 12.9397 0.99
      vertex 6.48312 13.6468 0.99
      vertex 6.50151 12.383 0.99
    endloop
  endfacet
  facet normal -0 0 -1
    outer loop
      vertex 6.48312 13.6468 0.99
      vertex 5.77601 12.9397 0.99
      vertex 6.08534 14.1652 0.99
    endloop
  endfacet
  facet normal 0 0 -1
    outer loop
      vertex 5.21933 13.6652 0.99
      vertex 6.08534 14.1652 0.99
      vertex 5.77601 12.9397 0.99
    endloop
  endfacet
  facet normal -0 0 -1
    outer loop
      vertex 6.08534 14.1652 0.99
      vertex 5.21933 13.6652 0.99
      vertex 5.83529 14.7689 0.99
    endloop
  endfacet
  facet normal 0 0 -1
    outer loop
      vertex 4.86937 14.51 0.99
      vertex 5.83529 14.7689 0.99
      vertex 5.21933 13.6652 0.99
    endloop
  endfacet
  facet normal -0 0 -1
    outer loop
      vertex 5.83529 14.7689 0.99
      vertex 4.86937 14.51 0.99
      vertex 5.75001 15.4167 0.99
    endloop
  endfacet
  facet normal -0 0 -1
    outer loop
      vertex 5.75001 15.4167 0.99
      vertex 4.86937 14.51 0.99
      vertex 4.75001 15.4167 0.99
    endloop
  endfacet
  facet normal 0.923867 0.382714 0
    outer loop
      vertex 5.21933 13.6652 0.99
      vertex 4.86937 14.51 0
      vertex 4.86937 14.51 0.99
    endloop
  endfacet
  facet normal 0.923867 0.382714 0
    outer loop
      vertex 4.86937 14.51 0
      vertex 5.21933 13.6652 0.99
      vertex 5.21933 13.6652 0
    endloop
  endfacet
  facet normal 0.793362 0.608751 0
    outer loop
      vertex 5.77601 12.9397 0.99
      vertex 5.21933 13.6652 0
      vertex 5.21933 13.6652 0.99
    endloop
  endfacet
  facet normal 0.793362 0.608751 0
    outer loop
      vertex 5.21933 13.6652 0
      vertex 5.77601 12.9397 0.99
      vertex 5.77601 12.9397 0
    endloop
  endfacet
  facet normal 0.608764 0.793351 -0
    outer loop
      vertex 6.50151 12.383 0
      vertex 5.77601 12.9397 0.99
      vertex 6.50151 12.383 0.99
    endloop
  endfacet
  facet normal 0.608764 0.793351 0
    outer loop
      vertex 5.77601 12.9397 0.99
      vertex 6.50151 12.383 0
      vertex 5.77601 12.9397 0
    endloop
  endfacet
  facet normal 0.382728 0.923861 -0
    outer loop
      vertex 7.34637 12.033 0
      vertex 6.50151 12.383 0.99
      vertex 7.34637 12.033 0.99
    endloop
  endfacet
  facet normal 0.382728 0.923861 0
    outer loop
      vertex 6.50151 12.383 0.99
      vertex 7.34637 12.033 0
      vertex 6.50151 12.383 0
    endloop
  endfacet
  facet normal 0.130462 0.991453 -0
    outer loop
      vertex 8.253 11.9137 0
      vertex 7.34637 12.033 0.99
      vertex 8.253 11.9137 0.99
    endloop
  endfacet
  facet normal 0.130462 0.991453 0
    outer loop
      vertex 7.34637 12.033 0.99
      vertex 8.253 11.9137 0
      vertex 7.34637 12.033 0
    endloop
  endfacet
  facet normal -0.130462 0.991453 0
    outer loop
      vertex 9.15963 12.033 0
      vertex 8.253 11.9137 0.99
      vertex 9.15963 12.033 0.99
    endloop
  endfacet
  facet normal -0.130462 0.991453 0
    outer loop
      vertex 8.253 11.9137 0.99
      vertex 9.15963 12.033 0
      vertex 8.253 11.9137 0
    endloop
  endfacet
  facet normal -0.382724 0.923863 0
    outer loop
      vertex 10.0045 12.383 0
      vertex 9.15963 12.033 0.99
      vertex 10.0045 12.383 0.99
    endloop
  endfacet
  facet normal -0.382724 0.923863 0
    outer loop
      vertex 9.15963 12.033 0.99
      vertex 10.0045 12.383 0
      vertex 9.15963 12.033 0
    endloop
  endfacet
  facet normal -0.608764 0.793351 0
    outer loop
      vertex 10.73 12.9397 0
      vertex 10.0045 12.383 0.99
      vertex 10.73 12.9397 0.99
    endloop
  endfacet
  facet normal -0.608764 0.793351 0
    outer loop
      vertex 10.0045 12.383 0.99
      vertex 10.73 12.9397 0
      vertex 10.0045 12.383 0
    endloop
  endfacet
  facet normal -0.793351 0.608764 0
    outer loop
      vertex 10.73 12.9397 0
      vertex 11.2867 13.6652 0.99
      vertex 11.2867 13.6652 0
    endloop
  endfacet
  facet normal -0.793351 0.608764 0
    outer loop
      vertex 11.2867 13.6652 0.99
      vertex 10.73 12.9397 0
      vertex 10.73 12.9397 0.99
    endloop
  endfacet
  facet normal -0.923896 0.382645 0
    outer loop
      vertex 11.2867 13.6652 0
      vertex 11.506 14.1947 0.99
      vertex 11.506 14.1947 0
    endloop
  endfacet
  facet normal -0.923896 0.382645 0
    outer loop
      vertex 11.506 14.1947 0.99
      vertex 11.2867 13.6652 0
      vertex 11.2867 13.6652 0.99
    endloop
  endfacet
  facet normal 0 -1 0
    outer loop
      vertex 10.756 15.4167 0
      vertex 12.256 15.4167 0.99
      vertex 10.756 15.4167 0.99
    endloop
  endfacet
  facet normal 0 -1 -0
    outer loop
      vertex 12.256 15.4167 0.99
      vertex 10.756 15.4167 0
      vertex 12.256 15.4167 0
    endloop
  endfacet
  facet normal 0.991442 -0.13055 0
    outer loop
      vertex 10.6707 14.7689 0.99
      vertex 10.756 15.4167 0
      vertex 10.756 15.4167 0.99
    endloop
  endfacet
  facet normal 0.991442 -0.13055 0
    outer loop
      vertex 10.756 15.4167 0
      vertex 10.6707 14.7689 0.99
      vertex 10.6707 14.7689 0
    endloop
  endfacet
  facet normal 0.923912 -0.382604 0
    outer loop
      vertex 10.4207 14.1652 0.99
      vertex 10.6707 14.7689 0
      vertex 10.6707 14.7689 0.99
    endloop
  endfacet
  facet normal 0.923912 -0.382604 0
    outer loop
      vertex 10.6707 14.7689 0
      vertex 10.4207 14.1652 0.99
      vertex 10.4207 14.1652 0
    endloop
  endfacet
  facet normal 0.79334 -0.608778 0
    outer loop
      vertex 10.0229 13.6468 0.99
      vertex 10.4207 14.1652 0
      vertex 10.4207 14.1652 0.99
    endloop
  endfacet
  facet normal 0.79334 -0.608778 0
    outer loop
      vertex 10.4207 14.1652 0
      vertex 10.0229 13.6468 0.99
      vertex 10.0229 13.6468 0
    endloop
  endfacet
  facet normal 0.608778 -0.79334 0
    outer loop
      vertex 9.5045 13.249 0
      vertex 10.0229 13.6468 0.99
      vertex 9.5045 13.249 0.99
    endloop
  endfacet
  facet normal 0.608778 -0.79334 0
    outer loop
      vertex 10.0229 13.6468 0.99
      vertex 9.5045 13.249 0
      vertex 10.0229 13.6468 0
    endloop
  endfacet
  facet normal 0.38261 -0.92391 0
    outer loop
      vertex 8.90081 12.999 0
      vertex 9.5045 13.249 0.99
      vertex 8.90081 12.999 0.99
    endloop
  endfacet
  facet normal 0.38261 -0.92391 0
    outer loop
      vertex 9.5045 13.249 0.99
      vertex 8.90081 12.999 0
      vertex 9.5045 13.249 0
    endloop
  endfacet
  facet normal 0.130548 -0.991442 0
    outer loop
      vertex 8.253 12.9137 0
      vertex 8.90081 12.999 0.99
      vertex 8.253 12.9137 0.99
    endloop
  endfacet
  facet normal 0.130548 -0.991442 0
    outer loop
      vertex 8.90081 12.999 0.99
      vertex 8.253 12.9137 0
      vertex 8.90081 12.999 0
    endloop
  endfacet
  facet normal -0.130548 -0.991442 0
    outer loop
      vertex 7.60519 12.999 0
      vertex 8.253 12.9137 0.99
      vertex 7.60519 12.999 0.99
    endloop
  endfacet
  facet normal -0.130548 -0.991442 -0
    outer loop
      vertex 8.253 12.9137 0.99
      vertex 7.60519 12.999 0
      vertex 8.253 12.9137 0
    endloop
  endfacet
  facet normal -0.382615 -0.923908 0
    outer loop
      vertex 7.00151 13.249 0
      vertex 7.60519 12.999 0.99
      vertex 7.00151 13.249 0.99
    endloop
  endfacet
  facet normal -0.382615 -0.923908 -0
    outer loop
      vertex 7.60519 12.999 0.99
      vertex 7.00151 13.249 0
      vertex 7.60519 12.999 0
    endloop
  endfacet
  facet normal -0.608786 -0.793335 0
    outer loop
      vertex 6.48312 13.6468 0
      vertex 7.00151 13.249 0.99
      vertex 6.48312 13.6468 0.99
    endloop
  endfacet
  facet normal -0.608786 -0.793335 -0
    outer loop
      vertex 7.00151 13.249 0.99
      vertex 6.48312 13.6468 0
      vertex 7.00151 13.249 0
    endloop
  endfacet
  facet normal -0.793355 -0.608759 0
    outer loop
      vertex 6.48312 13.6468 0
      vertex 6.08534 14.1652 0.99
      vertex 6.08534 14.1652 0
    endloop
  endfacet
  facet normal -0.793355 -0.608759 0
    outer loop
      vertex 6.08534 14.1652 0.99
      vertex 6.48312 13.6468 0
      vertex 6.48312 13.6468 0.99
    endloop
  endfacet
  facet normal -0.923885 -0.382669 0
    outer loop
      vertex 6.08534 14.1652 0
      vertex 5.83529 14.7689 0.99
      vertex 5.83529 14.7689 0
    endloop
  endfacet
  facet normal -0.923885 -0.382669 0
    outer loop
      vertex 5.83529 14.7689 0.99
      vertex 6.08534 14.1652 0
      vertex 6.08534 14.1652 0.99
    endloop
  endfacet
  facet normal -0.991442 -0.130548 0
    outer loop
      vertex 5.80486 15 0
      vertex 5.83529 14.7689 0
      vertex 5.80486 15 0.49
    endloop
  endfacet
  facet normal -0.991448 -0.130504 0
    outer loop
      vertex 5.80486 15 0.49
      vertex 5.75001 15.4167 0.99
      vertex 5.75001 15.4167 0.49
    endloop
  endfacet
  facet normal -0.991446 -0.130519 1.33029e-05
    outer loop
      vertex 5.80486 15 0.49
      vertex 5.83529 14.7689 0.99
      vertex 5.75001 15.4167 0.99
    endloop
  endfacet
  facet normal -0.991442 -0.130548 -0
    outer loop
      vertex 5.83529 14.7689 0.99
      vertex 5.80486 15 0.49
      vertex 5.83529 14.7689 0
    endloop
  endfacet
  facet normal 0 -1 0
    outer loop
      vertex 4.75001 15.4167 0.49
      vertex 5.75001 15.4167 0.99
      vertex 4.75001 15.4167 0.99
    endloop
  endfacet
  facet normal 0 -1 -0
    outer loop
      vertex 5.75001 15.4167 0.99
      vertex 4.75001 15.4167 0.49
      vertex 5.75001 15.4167 0.49
    endloop
  endfacet
  facet normal 0.991448 0.130504 0
    outer loop
      vertex 4.75001 15.4167 0.99
      vertex 4.80486 15 0.49
      vertex 4.75001 15.4167 0.49
    endloop
  endfacet
  facet normal 0.991446 0.130516 -1.05345e-05
    outer loop
      vertex 4.86937 14.51 0.99
      vertex 4.80486 15 0.49
      vertex 4.75001 15.4167 0.99
    endloop
  endfacet
  facet normal 0.991445 0.130527 -0
    outer loop
      vertex 4.86937 14.51 0
      vertex 4.80486 15 0.49
      vertex 4.86937 14.51 0.99
    endloop
  endfacet
  facet normal 0.991445 0.130527 0
    outer loop
      vertex 4.80486 15 0.49
      vertex 4.86937 14.51 0
      vertex 4.80486 15 0
    endloop
  endfacet
  facet normal 0.923896 0.382645 0
    outer loop
      vertex 11.7253 13.6652 0.99
      vertex 11.506 14.1947 0
      vertex 11.506 14.1947 0.99
    endloop
  endfacet
  facet normal 0.923896 0.382645 0
    outer loop
      vertex 11.506 14.1947 0
      vertex 11.7253 13.6652 0.99
      vertex 11.7253 13.6652 0
    endloop
  endfacet
  facet normal 0.793351 0.608764 0
    outer loop
      vertex 12.282 12.9397 0.99
      vertex 11.7253 13.6652 0
      vertex 11.7253 13.6652 0.99
    endloop
  endfacet
  facet normal 0.793351 0.608764 0
    outer loop
      vertex 11.7253 13.6652 0
      vertex 12.282 12.9397 0.99
      vertex 12.282 12.9397 0
    endloop
  endfacet
  facet normal 0.608764 0.793351 -0
    outer loop
      vertex 13.0075 12.383 0
      vertex 12.282 12.9397 0.99
      vertex 13.0075 12.383 0.99
    endloop
  endfacet
  facet normal 0.608764 0.793351 0
    outer loop
      vertex 12.282 12.9397 0.99
      vertex 13.0075 12.383 0
      vertex 12.282 12.9397 0
    endloop
  endfacet
  facet normal 0.382712 0.923868 -0
    outer loop
      vertex 13.8524 12.033 0
      vertex 13.0075 12.383 0.99
      vertex 13.8524 12.033 0.99
    endloop
  endfacet
  facet normal 0.382712 0.923868 0
    outer loop
      vertex 13.0075 12.383 0.99
      vertex 13.8524 12.033 0
      vertex 13.0075 12.383 0
    endloop
  endfacet
  facet normal 0.130466 0.991453 -0
    outer loop
      vertex 14.759 11.9137 0
      vertex 13.8524 12.033 0.99
      vertex 14.759 11.9137 0.99
    endloop
  endfacet
  facet normal 0.130466 0.991453 0
    outer loop
      vertex 13.8524 12.033 0.99
      vertex 14.759 11.9137 0
      vertex 13.8524 12.033 0
    endloop
  endfacet
  facet normal -0.130466 0.991453 0
    outer loop
      vertex 15.6656 12.033 0
      vertex 14.759 11.9137 0.99
      vertex 15.6656 12.033 0.99
    endloop
  endfacet
  facet normal -0.130466 0.991453 0
    outer loop
      vertex 14.759 11.9137 0.99
      vertex 15.6656 12.033 0
      vertex 14.759 11.9137 0
    endloop
  endfacet
  facet normal -0.382712 0.923868 0
    outer loop
      vertex 16.5105 12.383 0
      vertex 15.6656 12.033 0.99
      vertex 16.5105 12.383 0.99
    endloop
  endfacet
  facet normal -0.382712 0.923868 0
    outer loop
      vertex 15.6656 12.033 0.99
      vertex 16.5105 12.383 0
      vertex 15.6656 12.033 0
    endloop
  endfacet
  facet normal -0.608764 0.793351 0
    outer loop
      vertex 17.236 12.9397 0
      vertex 16.5105 12.383 0.99
      vertex 17.236 12.9397 0.99
    endloop
  endfacet
  facet normal -0.608764 0.793351 0
    outer loop
      vertex 16.5105 12.383 0.99
      vertex 17.236 12.9397 0
      vertex 16.5105 12.383 0
    endloop
  endfacet
  facet normal -0.793351 0.608764 0
    outer loop
      vertex 17.236 12.9397 0
      vertex 17.7927 13.6652 0.99
      vertex 17.7927 13.6652 0
    endloop
  endfacet
  facet normal -0.793351 0.608764 0
    outer loop
      vertex 17.7927 13.6652 0.99
      vertex 17.236 12.9397 0
      vertex 17.236 12.9397 0.99
    endloop
  endfacet
  facet normal -0.923896 0.382645 0
    outer loop
      vertex 17.7927 13.6652 0
      vertex 18.012 14.1947 0.99
      vertex 18.012 14.1947 0
    endloop
  endfacet
  facet normal -0.923896 0.382645 0
    outer loop
      vertex 18.012 14.1947 0.99
      vertex 17.7927 13.6652 0
      vertex 17.7927 13.6652 0.99
    endloop
  endfacet
  facet normal 0 -1 0
    outer loop
      vertex 17.262 15.4167 0
      vertex 18.762 15.4167 0.99
      vertex 17.262 15.4167 0.99
    endloop
  endfacet
  facet normal 0 -1 -0
    outer loop
      vertex 18.762 15.4167 0.99
      vertex 17.262 15.4167 0
      vertex 18.762 15.4167 0
    endloop
  endfacet
  facet normal 0.991442 -0.13055 0
    outer loop
      vertex 17.1767 14.7689 0.99
      vertex 17.262 15.4167 0
      vertex 17.262 15.4167 0.99
    endloop
  endfacet
  facet normal 0.991442 -0.13055 0
    outer loop
      vertex 17.262 15.4167 0
      vertex 17.1767 14.7689 0.99
      vertex 17.1767 14.7689 0
    endloop
  endfacet
  facet normal 0.923912 -0.382604 0
    outer loop
      vertex 16.9267 14.1652 0.99
      vertex 17.1767 14.7689 0
      vertex 17.1767 14.7689 0.99
    endloop
  endfacet
  facet normal 0.923912 -0.382604 0
    outer loop
      vertex 17.1767 14.7689 0
      vertex 16.9267 14.1652 0.99
      vertex 16.9267 14.1652 0
    endloop
  endfacet
  facet normal 0.79334 -0.608778 0
    outer loop
      vertex 16.5289 13.6468 0.99
      vertex 16.9267 14.1652 0
      vertex 16.9267 14.1652 0.99
    endloop
  endfacet
  facet normal 0.79334 -0.608778 0
    outer loop
      vertex 16.9267 14.1652 0
      vertex 16.5289 13.6468 0.99
      vertex 16.5289 13.6468 0
    endloop
  endfacet
  facet normal 0.608778 -0.79334 0
    outer loop
      vertex 16.0105 13.249 0
      vertex 16.5289 13.6468 0.99
      vertex 16.0105 13.249 0.99
    endloop
  endfacet
  facet normal 0.608778 -0.79334 0
    outer loop
      vertex 16.5289 13.6468 0.99
      vertex 16.0105 13.249 0
      vertex 16.5289 13.6468 0
    endloop
  endfacet
  facet normal 0.382604 -0.923912 0
    outer loop
      vertex 15.4068 12.999 0
      vertex 16.0105 13.249 0.99
      vertex 15.4068 12.999 0.99
    endloop
  endfacet
  facet normal 0.382604 -0.923912 0
    outer loop
      vertex 16.0105 13.249 0.99
      vertex 15.4068 12.999 0
      vertex 16.0105 13.249 0
    endloop
  endfacet
  facet normal 0.13055 -0.991442 0
    outer loop
      vertex 14.759 12.9137 0
      vertex 15.4068 12.999 0.99
      vertex 14.759 12.9137 0.99
    endloop
  endfacet
  facet normal 0.13055 -0.991442 0
    outer loop
      vertex 15.4068 12.999 0.99
      vertex 14.759 12.9137 0
      vertex 15.4068 12.999 0
    endloop
  endfacet
  facet normal -0.13055 -0.991442 0
    outer loop
      vertex 14.1112 12.999 0
      vertex 14.759 12.9137 0.99
      vertex 14.1112 12.999 0.99
    endloop
  endfacet
  facet normal -0.13055 -0.991442 -0
    outer loop
      vertex 14.759 12.9137 0.99
      vertex 14.1112 12.999 0
      vertex 14.759 12.9137 0
    endloop
  endfacet
  facet normal -0.382604 -0.923912 0
    outer loop
      vertex 13.5075 13.249 0
      vertex 14.1112 12.999 0.99
      vertex 13.5075 13.249 0.99
    endloop
  endfacet
  facet normal -0.382604 -0.923912 -0
    outer loop
      vertex 14.1112 12.999 0.99
      vertex 13.5075 13.249 0
      vertex 14.1112 12.999 0
    endloop
  endfacet
  facet normal -0.608778 -0.79334 0
    outer loop
      vertex 12.9891 13.6468 0
      vertex 13.5075 13.249 0.99
      vertex 12.9891 13.6468 0.99
    endloop
  endfacet
  facet normal -0.608778 -0.79334 -0
    outer loop
      vertex 13.5075 13.249 0.99
      vertex 12.9891 13.6468 0
      vertex 13.5075 13.249 0
    endloop
  endfacet
  facet normal -0.79334 -0.608778 0
    outer loop
      vertex 12.9891 13.6468 0
      vertex 12.5913 14.1652 0.99
      vertex 12.5913 14.1652 0
    endloop
  endfacet
  facet normal -0.79334 -0.608778 0
    outer loop
      vertex 12.5913 14.1652 0.99
      vertex 12.9891 13.6468 0
      vertex 12.9891 13.6468 0.99
    endloop
  endfacet
  facet normal -0.923912 -0.382604 0
    outer loop
      vertex 12.5913 14.1652 0
      vertex 12.3413 14.7689 0.99
      vertex 12.3413 14.7689 0
    endloop
  endfacet
  facet normal -0.923912 -0.382604 0
    outer loop
      vertex 12.3413 14.7689 0.99
      vertex 12.5913 14.1652 0
      vertex 12.5913 14.1652 0.99
    endloop
  endfacet
  facet normal -0.991442 -0.13055 0
    outer loop
      vertex 12.3413 14.7689 0
      vertex 12.256 15.4167 0.99
      vertex 12.256 15.4167 0
    endloop
  endfacet
  facet normal -0.991442 -0.13055 0
    outer loop
      vertex 12.256 15.4167 0.99
      vertex 12.3413 14.7689 0
      vertex 12.3413 14.7689 0.99
    endloop
  endfacet
  facet normal 0.923896 0.382645 0
    outer loop
      vertex 18.2313 13.6652 0.99
      vertex 18.012 14.1947 0
      vertex 18.012 14.1947 0.99
    endloop
  endfacet
  facet normal 0.923896 0.382645 0
    outer loop
      vertex 18.012 14.1947 0
      vertex 18.2313 13.6652 0.99
      vertex 18.2313 13.6652 0
    endloop
  endfacet
  facet normal 0.793351 0.608764 0
    outer loop
      vertex 18.788 12.9397 0.99
      vertex 18.2313 13.6652 0
      vertex 18.2313 13.6652 0.99
    endloop
  endfacet
  facet normal 0.793351 0.608764 0
    outer loop
      vertex 18.2313 13.6652 0
      vertex 18.788 12.9397 0.99
      vertex 18.788 12.9397 0
    endloop
  endfacet
  facet normal 0.608764 0.793351 -0
    outer loop
      vertex 19.5135 12.383 0
      vertex 18.788 12.9397 0.99
      vertex 19.5135 12.383 0.99
    endloop
  endfacet
  facet normal 0.608764 0.793351 0
    outer loop
      vertex 18.788 12.9397 0.99
      vertex 19.5135 12.383 0
      vertex 18.788 12.9397 0
    endloop
  endfacet
  facet normal 0.382712 0.923868 -0
    outer loop
      vertex 20.3584 12.033 0
      vertex 19.5135 12.383 0.99
      vertex 20.3584 12.033 0.99
    endloop
  endfacet
  facet normal 0.382712 0.923868 0
    outer loop
      vertex 19.5135 12.383 0.99
      vertex 20.3584 12.033 0
      vertex 19.5135 12.383 0
    endloop
  endfacet
  facet normal 0.130466 0.991453 -0
    outer loop
      vertex 21.265 11.9137 0
      vertex 20.3584 12.033 0.99
      vertex 21.265 11.9137 0.99
    endloop
  endfacet
  facet normal 0.130466 0.991453 0
    outer loop
      vertex 20.3584 12.033 0.99
      vertex 21.265 11.9137 0
      vertex 20.3584 12.033 0
    endloop
  endfacet
  facet normal -0.130466 0.991453 0
    outer loop
      vertex 22.1716 12.033 0
      vertex 21.265 11.9137 0.99
      vertex 22.1716 12.033 0.99
    endloop
  endfacet
  facet normal -0.130466 0.991453 0
    outer loop
      vertex 21.265 11.9137 0.99
      vertex 22.1716 12.033 0
      vertex 21.265 11.9137 0
    endloop
  endfacet
  facet normal -0.382712 0.923868 0
    outer loop
      vertex 23.0165 12.383 0
      vertex 22.1716 12.033 0.99
      vertex 23.0165 12.383 0.99
    endloop
  endfacet
  facet normal -0.382712 0.923868 0
    outer loop
      vertex 22.1716 12.033 0.99
      vertex 23.0165 12.383 0
      vertex 22.1716 12.033 0
    endloop
  endfacet
  facet normal -0.608764 0.793351 0
    outer loop
      vertex 23.742 12.9397 0
      vertex 23.0165 12.383 0.99
      vertex 23.742 12.9397 0.99
    endloop
  endfacet
  facet normal -0.608764 0.793351 0
    outer loop
      vertex 23.0165 12.383 0.99
      vertex 23.742 12.9397 0
      vertex 23.0165 12.383 0
    endloop
  endfacet
  facet normal -0.793351 0.608764 0
    outer loop
      vertex 23.742 12.9397 0
      vertex 24.2987 13.6652 0.99
      vertex 24.2987 13.6652 0
    endloop
  endfacet
  facet normal -0.793351 0.608764 0
    outer loop
      vertex 24.2987 13.6652 0.99
      vertex 23.742 12.9397 0
      vertex 23.742 12.9397 0.99
    endloop
  endfacet
  facet normal -0.923852 0.382751 0
    outer loop
      vertex 24.2987 13.6652 0
      vertex 24.6487 14.51 0.99
      vertex 24.6487 14.51 0
    endloop
  endfacet
  facet normal -0.923852 0.382751 0
    outer loop
      vertex 24.6487 14.51 0.99
      vertex 24.2987 13.6652 0
      vertex 24.2987 13.6652 0.99
    endloop
  endfacet
  facet normal -0.991447 0.130507 0
    outer loop
      vertex 24.7132 15 0
      vertex 24.6487 14.51 0
      vertex 24.7132 15 0.49
    endloop
  endfacet
  facet normal -0.991463 0.130387 0
    outer loop
      vertex 24.7132 15 0.49
      vertex 24.768 15.4167 0.99
      vertex 24.768 15.4167 0.49
    endloop
  endfacet
  facet normal -0.991447 0.130507 0
    outer loop
      vertex 24.6487 14.51 0.99
      vertex 24.7132 15 0.49
      vertex 24.6487 14.51 0
    endloop
  endfacet
  facet normal -0.991455 0.130452 -5.50018e-05
    outer loop
      vertex 24.7132 15 0.49
      vertex 24.6487 14.51 0.99
      vertex 24.768 15.4167 0.99
    endloop
  endfacet
  facet normal 0 -1 0
    outer loop
      vertex 23.768 15.4167 0.99
      vertex 24 15.4167 0.49
      vertex 24.768 15.4167 0.99
    endloop
  endfacet
  facet normal 0 -1 0
    outer loop
      vertex 23.768 15.4167 0
      vertex 24 15.4167 0.49
      vertex 23.768 15.4167 0.99
    endloop
  endfacet
  facet normal 0 -1 -0
    outer loop
      vertex 24 15.4167 0.49
      vertex 23.768 15.4167 0
      vertex 24 15.4167 0
    endloop
  endfacet
  facet normal 0 -1 -0
    outer loop
      vertex 24.768 15.4167 0.99
      vertex 24 15.4167 0.49
      vertex 24.768 15.4167 0.49
    endloop
  endfacet
  facet normal 0.991442 -0.13055 0
    outer loop
      vertex 23.6827 14.7689 0.99
      vertex 23.768 15.4167 0
      vertex 23.768 15.4167 0.99
    endloop
  endfacet
  facet normal 0.991442 -0.13055 0
    outer loop
      vertex 23.768 15.4167 0
      vertex 23.6827 14.7689 0.99
      vertex 23.6827 14.7689 0
    endloop
  endfacet
  facet normal 0.923912 -0.382604 0
    outer loop
      vertex 23.4327 14.1652 0.99
      vertex 23.6827 14.7689 0
      vertex 23.6827 14.7689 0.99
    endloop
  endfacet
  facet normal 0.923912 -0.382604 0
    outer loop
      vertex 23.6827 14.7689 0
      vertex 23.4327 14.1652 0.99
      vertex 23.4327 14.1652 0
    endloop
  endfacet
  facet normal 0.79334 -0.608778 0
    outer loop
      vertex 23.0349 13.6468 0.99
      vertex 23.4327 14.1652 0
      vertex 23.4327 14.1652 0.99
    endloop
  endfacet
  facet normal 0.79334 -0.608778 0
    outer loop
      vertex 23.4327 14.1652 0
      vertex 23.0349 13.6468 0.99
      vertex 23.0349 13.6468 0
    endloop
  endfacet
  facet normal 0.608778 -0.79334 0
    outer loop
      vertex 22.5165 13.249 0
      vertex 23.0349 13.6468 0.99
      vertex 22.5165 13.249 0.99
    endloop
  endfacet
  facet normal 0.608778 -0.79334 0
    outer loop
      vertex 23.0349 13.6468 0.99
      vertex 22.5165 13.249 0
      vertex 23.0349 13.6468 0
    endloop
  endfacet
  facet normal 0.382604 -0.923912 0
    outer loop
      vertex 21.9128 12.999 0
      vertex 22.5165 13.249 0.99
      vertex 21.9128 12.999 0.99
    endloop
  endfacet
  facet normal 0.382604 -0.923912 0
    outer loop
      vertex 22.5165 13.249 0.99
      vertex 21.9128 12.999 0
      vertex 22.5165 13.249 0
    endloop
  endfacet
  facet normal 0.13055 -0.991442 0
    outer loop
      vertex 21.265 12.9137 0
      vertex 21.9128 12.999 0.99
      vertex 21.265 12.9137 0.99
    endloop
  endfacet
  facet normal 0.13055 -0.991442 0
    outer loop
      vertex 21.9128 12.999 0.99
      vertex 21.265 12.9137 0
      vertex 21.9128 12.999 0
    endloop
  endfacet
  facet normal -0.13055 -0.991442 0
    outer loop
      vertex 20.6172 12.999 0
      vertex 21.265 12.9137 0.99
      vertex 20.6172 12.999 0.99
    endloop
  endfacet
  facet normal -0.13055 -0.991442 -0
    outer loop
      vertex 21.265 12.9137 0.99
      vertex 20.6172 12.999 0
      vertex 21.265 12.9137 0
    endloop
  endfacet
  facet normal -0.382604 -0.923912 0
    outer loop
      vertex 20.0135 13.249 0
      vertex 20.6172 12.999 0.99
      vertex 20.0135 13.249 0.99
    endloop
  endfacet
  facet normal -0.382604 -0.923912 -0
    outer loop
      vertex 20.6172 12.999 0.99
      vertex 20.0135 13.249 0
      vertex 20.6172 12.999 0
    endloop
  endfacet
  facet normal -0.608778 -0.79334 0
    outer loop
      vertex 19.4951 13.6468 0
      vertex 20.0135 13.249 0.99
      vertex 19.4951 13.6468 0.99
    endloop
  endfacet
  facet normal -0.608778 -0.79334 -0
    outer loop
      vertex 20.0135 13.249 0.99
      vertex 19.4951 13.6468 0
      vertex 20.0135 13.249 0
    endloop
  endfacet
  facet normal -0.793414 -0.608682 0
    outer loop
      vertex 19.4951 13.6468 0
      vertex 19.0974 14.1652 0.99
      vertex 19.0974 14.1652 0
    endloop
  endfacet
  facet normal -0.793414 -0.608682 0
    outer loop
      vertex 19.0974 14.1652 0.99
      vertex 19.4951 13.6468 0
      vertex 19.4951 13.6468 0.99
    endloop
  endfacet
  facet normal -0.923858 -0.382735 0
    outer loop
      vertex 19.0974 14.1652 0
      vertex 18.8473 14.7689 0.99
      vertex 18.8473 14.7689 0
    endloop
  endfacet
  facet normal -0.923858 -0.382735 0
    outer loop
      vertex 18.8473 14.7689 0.99
      vertex 19.0974 14.1652 0
      vertex 19.0974 14.1652 0.99
    endloop
  endfacet
  facet normal -0.991442 -0.13055 0
    outer loop
      vertex 18.8473 14.7689 0
      vertex 18.762 15.4167 0.99
      vertex 18.762 15.4167 0
    endloop
  endfacet
  facet normal -0.991442 -0.13055 0
    outer loop
      vertex 18.762 15.4167 0.99
      vertex 18.8473 14.7689 0
      vertex 18.8473 14.7689 0.99
    endloop
  endfacet
  facet normal 0 0 -1
    outer loop
      vertex 4.80486 15 0.49
      vertex 0.335 15 0.49
      vertex 4.75001 15.4167 0.49
    endloop
  endfacet
  facet normal 0 0 -1
    outer loop
      vertex 5.75001 15.4167 0.49
      vertex 6 15 0.49
      vertex 5.80486 15 0.49
    endloop
  endfacet
  facet normal 0 0 -1
    outer loop
      vertex 6 15 0.49
      vertex 5.75001 15.4167 0.49
      vertex 6 16 0.49
    endloop
  endfacet
  facet normal 0 0 -1
    outer loop
      vertex 4.75001 15.4167 0.49
      vertex 6 16 0.49
      vertex 5.75001 15.4167 0.49
    endloop
  endfacet
  facet normal 0 0 -1
    outer loop
      vertex 0.335 16 0.49
      vertex 4.75001 15.4167 0.49
      vertex 0.335 15 0.49
    endloop
  endfacet
  facet normal 0 0 -1
    outer loop
      vertex 4.75001 15.4167 0.49
      vertex 0.335 16 0.49
      vertex 6 16 0.49
    endloop
  endfacet
  facet normal -1 0 0
    outer loop
      vertex 6 15 0
      vertex 6 16 0.49
      vertex 6 16 0
    endloop
  endfacet
  facet normal -1 -0 0
    outer loop
      vertex 6 16 0.49
      vertex 6 15 0
      vertex 6 15 0.49
    endloop
  endfacet
  facet normal 0 -1 0
    outer loop
      vertex 0.825 16 0
      vertex 6 16 0.49
      vertex 0.335 16 0.49
    endloop
  endfacet
  facet normal 0 -1 -0
    outer loop
      vertex 6 16 0.49
      vertex 0.825 16 0
      vertex 6 16 0
    endloop
  endfacet
  facet normal 0 1 -0
    outer loop
      vertex 6 15 0
      vertex 5.80486 15 0.49
      vertex 6 15 0.49
    endloop
  endfacet
  facet normal 0 1 0
    outer loop
      vertex 5.80486 15 0.49
      vertex 6 15 0
      vertex 5.80486 15 0
    endloop
  endfacet
  facet normal 0 1 0
    outer loop
      vertex 0.825 15 0
      vertex 4.80486 15 0.49
      vertex 4.80486 15 0
    endloop
  endfacet
  facet normal 0 1 0
    outer loop
      vertex 4.80486 15 0.49
      vertex 0.825 15 0
      vertex 0.335 15 0.49
    endloop
  endfacet
  facet normal 1 -0 0
    outer loop
      vertex 24 15.4167 0.49
      vertex 24 16 0
      vertex 24 16 0.49
    endloop
  endfacet
  facet normal 1 0 0
    outer loop
      vertex 24 16 0
      vertex 24 15.4167 0.49
      vertex 24 15.4167 0
    endloop
  endfacet
  facet normal 0 0 -1
    outer loop
      vertex 29.665 15 0.49
      vertex 24.768 15.4167 0.49
      vertex 29.665 16 0.49
    endloop
  endfacet
  facet normal 0 -0 -1
    outer loop
      vertex 24.768 15.4167 0.49
      vertex 29.665 15 0.49
      vertex 24.7132 15 0.49
    endloop
  endfacet
  facet normal 0 0 -1
    outer loop
      vertex 24 16 0.49
      vertex 24.768 15.4167 0.49
      vertex 24 15.4167 0.49
    endloop
  endfacet
  facet normal 0 0 -1
    outer loop
      vertex 24.768 15.4167 0.49
      vertex 24 16 0.49
      vertex 29.665 16 0.49
    endloop
  endfacet
  facet normal 0 -1 0
    outer loop
      vertex 29.175 16 0
      vertex 24 16 0.49
      vertex 24 16 0
    endloop
  endfacet
  facet normal 0 -1 0
    outer loop
      vertex 24 16 0.49
      vertex 29.175 16 0
      vertex 29.665 16 0.49
    endloop
  endfacet
  facet normal 0 1 -0
    outer loop
      vertex 29.175 15 0
      vertex 24.7132 15 0.49
      vertex 29.665 15 0.49
    endloop
  endfacet
  facet normal 0 1 0
    outer loop
      vertex 24.7132 15 0.49
      vertex 29.175 15 0
      vertex 24.7132 15 0
    endloop
  endfacet
endsolid OpenSCAD_Model
