solid OpenSCAD_Model
  facet normal -1 0 0
    outer loop
      vertex 0 30 0.825
      vertex 0 18.8797 2.475
      vertex 0 30 2.475
    endloop
  endfacet
  facet normal -1 0 0
    outer loop
      vertex 0 30 0.825
      vertex 0 11.1202 2.475
      vertex 0 18.8797 2.475
    endloop
  endfacet
  facet normal -1 0 0
    outer loop
      vertex 0 0 0.825
      vertex 0 11.1202 2.475
      vertex 0 30 0.825
    endloop
  endfacet
  facet normal -1 -0 0
    outer loop
      vertex 0 11.1202 2.475
      vertex 0 0 0.825
      vertex 0 0 2.475
    endloop
  endfacet
  facet normal -0 0 1
    outer loop
      vertex 26.75 7.87025 2.475
      vertex 30 0 2.475
      vertex 30 11.1202 2.475
    endloop
  endfacet
  facet normal -0 0 1
    outer loop
      vertex 26.75 3.3 2.475
      vertex 30 0 2.475
      vertex 26.75 7.87025 2.475
    endloop
  endfacet
  facet normal -0 0 1
    outer loop
      vertex 22.1797 3.3 2.475
      vertex 30 0 2.475
      vertex 26.75 3.3 2.475
    endloop
  endfacet
  facet normal 0 0 1
    outer loop
      vertex 30 0 2.475
      vertex 22.1797 3.3 2.475
      vertex 18.8797 0 2.475
    endloop
  endfacet
  facet normal 0 0 1
    outer loop
      vertex 3.3 7.82025 2.475
      vertex 0 11.1202 2.475
      vertex 3.3 3.3 2.475
    endloop
  endfacet
  facet normal -0 0 1
    outer loop
      vertex 3.3 3.3 2.475
      vertex 11.1202 0 2.475
      vertex 7.82025 3.3 2.475
    endloop
  endfacet
  facet normal 0 0 1
    outer loop
      vertex 3.3 3.3 2.475
      vertex 0 0 2.475
      vertex 11.1202 0 2.475
    endloop
  endfacet
  facet normal 0 0 1
    outer loop
      vertex 0 0 2.475
      vertex 3.3 3.3 2.475
      vertex 0 11.1202 2.475
    endloop
  endfacet
  facet normal 0 0 1
    outer loop
      vertex 30 30 2.475
      vertex 26.75 26.65 2.475
      vertex 30 18.8797 2.475
    endloop
  endfacet
  facet normal 0 0 1
    outer loop
      vertex 30 30 2.475
      vertex 22.2298 26.65 2.475
      vertex 26.75 26.65 2.475
    endloop
  endfacet
  facet normal 0 -0 1
    outer loop
      vertex 22.2298 26.65 2.475
      vertex 30 30 2.475
      vertex 18.8797 30 2.475
    endloop
  endfacet
  facet normal 0 0 1
    outer loop
      vertex 30 18.8797 2.475
      vertex 26.75 26.65 2.475
      vertex 26.75 22.1297 2.475
    endloop
  endfacet
  facet normal 0 0 1
    outer loop
      vertex 11.1202 30 2.475
      vertex 3.3 26.65 2.475
      vertex 7.77025 26.65 2.475
    endloop
  endfacet
  facet normal -0 0 1
    outer loop
      vertex 0 30 2.475
      vertex 3.3 26.65 2.475
      vertex 11.1202 30 2.475
    endloop
  endfacet
  facet normal 0 0 1
    outer loop
      vertex 0 30 2.475
      vertex 3.3 22.1797 2.475
      vertex 3.3 26.65 2.475
    endloop
  endfacet
  facet normal 0 0 1
    outer loop
      vertex 3.3 22.1797 2.475
      vertex 0 30 2.475
      vertex 0 18.8797 2.475
    endloop
  endfacet
  facet normal 0 0 1
    outer loop
      vertex 26.75 22.1297 2.475
      vertex 30 11.1202 2.475
      vertex 30 18.8797 2.475
    endloop
  endfacet
  facet normal 0 0 1
    outer loop
      vertex 26.75 22.1297 2.475
      vertex 26.75 7.87025 2.475
      vertex 30 11.1202 2.475
    endloop
  endfacet
  facet normal 0 0 1
    outer loop
      vertex 22.2298 26.65 2.475
      vertex 26.75 7.87025 2.475
      vertex 26.75 22.1297 2.475
    endloop
  endfacet
  facet normal 0 0 1
    outer loop
      vertex 22.2298 26.65 2.475
      vertex 22.1797 3.3 2.475
      vertex 26.75 7.87025 2.475
    endloop
  endfacet
  facet normal 0 0 1
    outer loop
      vertex 7.77025 26.65 2.475
      vertex 22.2298 26.65 2.475
      vertex 18.8797 30 2.475
    endloop
  endfacet
  facet normal 0 0 1
    outer loop
      vertex 22.2298 26.65 2.475
      vertex 7.77025 26.65 2.475
      vertex 22.1797 3.3 2.475
    endloop
  endfacet
  facet normal 0 0 1
    outer loop
      vertex 7.77025 26.65 2.475
      vertex 18.8797 30 2.475
      vertex 11.1202 30 2.475
    endloop
  endfacet
  facet normal 0 -0 1
    outer loop
      vertex 7.82025 3.3 2.475
      vertex 22.1797 3.3 2.475
      vertex 7.77025 26.65 2.475
    endloop
  endfacet
  facet normal 0 0 1
    outer loop
      vertex 18.8797 0 2.475
      vertex 7.82025 3.3 2.475
      vertex 11.1202 0 2.475
    endloop
  endfacet
  facet normal 0 0 1
    outer loop
      vertex 22.1797 3.3 2.475
      vertex 7.82025 3.3 2.475
      vertex 18.8797 0 2.475
    endloop
  endfacet
  facet normal -0 0 1
    outer loop
      vertex 3.3 22.1797 2.475
      vertex 7.82025 3.3 2.475
      vertex 7.77025 26.65 2.475
    endloop
  endfacet
  facet normal 0 0 1
    outer loop
      vertex 3.3 22.1797 2.475
      vertex 3.3 7.82025 2.475
      vertex 7.82025 3.3 2.475
    endloop
  endfacet
  facet normal -0 0 1
    outer loop
      vertex 0 18.8797 2.475
      vertex 3.3 7.82025 2.475
      vertex 3.3 22.1797 2.475
    endloop
  endfacet
  facet normal 0 0 1
    outer loop
      vertex 3.3 7.82025 2.475
      vertex 0 18.8797 2.475
      vertex 0 11.1202 2.475
    endloop
  endfacet
  facet normal 1 -0 0
    outer loop
      vertex 30 18.8797 2.475
      vertex 30 30 0.825
      vertex 30 30 2.475
    endloop
  endfacet
  facet normal 1 -0 0
    outer loop
      vertex 30 11.1202 2.475
      vertex 30 30 0.825
      vertex 30 18.8797 2.475
    endloop
  endfacet
  facet normal 1 0 0
    outer loop
      vertex 30 0 0.825
      vertex 30 11.1202 2.475
      vertex 30 0 2.475
    endloop
  endfacet
  facet normal 1 0 0
    outer loop
      vertex 30 11.1202 2.475
      vertex 30 0 0.825
      vertex 30 30 0.825
    endloop
  endfacet
  facet normal 0 1 -0
    outer loop
      vertex 30 30 0.825
      vertex 18.8797 30 2.475
      vertex 30 30 2.475
    endloop
  endfacet
  facet normal 0 1 0
    outer loop
      vertex 18.8797 30 2.475
      vertex 30 30 0.825
      vertex 11.1202 30 2.475
    endloop
  endfacet
  facet normal 0 1 0
    outer loop
      vertex 0 30 0.825
      vertex 11.1202 30 2.475
      vertex 30 30 0.825
    endloop
  endfacet
  facet normal 0 1 0
    outer loop
      vertex 11.1202 30 2.475
      vertex 0 30 0.825
      vertex 0 30 2.475
    endloop
  endfacet
  facet normal 0 0 -1
    outer loop
      vertex 10.403 14.5978 0
      vertex 14.65 19.6039 0
      vertex 14.65 0.825 0
    endloop
  endfacet
  facet normal 0 -0 -1
    outer loop
      vertex 12.675 19.027 0
      vertex 14.65 19.6039 0
      vertex 10.403 14.5978 0
    endloop
  endfacet
  facet normal 0 0 -1
    outer loop
      vertex 14.65 19.6039 0
      vertex 12.675 19.027 0
      vertex 13.7965 19.4915 0
    endloop
  endfacet
  facet normal 0 0 -1
    outer loop
      vertex 12.675 19.027 0
      vertex 10.403 14.5978 0
      vertex 11.712 18.288 0
    endloop
  endfacet
  facet normal 0 0 -1
    outer loop
      vertex 11.712 18.288 0
      vertex 10.403 14.5978 0
      vertex 10.973 17.325 0
    endloop
  endfacet
  facet normal 0 0 -1
    outer loop
      vertex 10.973 17.325 0
      vertex 10.403 14.5978 0
      vertex 10.5085 16.2035 0
    endloop
  endfacet
  facet normal 0 0 -1
    outer loop
      vertex 14.65 0.825 0
      vertex 9.71092 14.5373 0
      vertex 10.403 14.5978 0
    endloop
  endfacet
  facet normal 0 0 -1
    outer loop
      vertex 0.825 0.825 0
      vertex 9.71092 14.5373 0
      vertex 14.65 0.825 0
    endloop
  endfacet
  facet normal 0 0 -1
    outer loop
      vertex 0.825 14.65 0
      vertex 9.71092 14.5373 0
      vertex 0.825 0.825 0
    endloop
  endfacet
  facet normal 0 0 -1
    outer loop
      vertex 9.71092 14.5373 0
      vertex 0.825 14.65 0
      vertex 9.69608 14.65 0
    endloop
  endfacet
  facet normal 0 0 -1
    outer loop
      vertex 10.5085 16.2035 0
      vertex 10.403 14.5978 0
      vertex 10.35 15 0
    endloop
  endfacet
  facet normal 0 0 -1
    outer loop
      vertex 13.6153 20.1677 0
      vertex 14.65 29.175 0
      vertex 14.65 20.3039 0
    endloop
  endfacet
  facet normal 0 0 -1
    outer loop
      vertex 12.325 19.6332 0
      vertex 14.65 29.175 0
      vertex 13.6153 20.1677 0
    endloop
  endfacet
  facet normal 0 0 -1
    outer loop
      vertex 0.825 29.175 0
      vertex 12.325 19.6332 0
      vertex 11.217 18.783 0
    endloop
  endfacet
  facet normal 0 0 -1
    outer loop
      vertex 0.825 29.175 0
      vertex 11.217 18.783 0
      vertex 10.3668 17.675 0
    endloop
  endfacet
  facet normal 0 0 -1
    outer loop
      vertex 0.825 15.35 0
      vertex 10.3668 17.675 0
      vertex 9.83231 16.3847 0
    endloop
  endfacet
  facet normal 0 0 -1
    outer loop
      vertex 0.825 15.35 0
      vertex 9.83231 16.3847 0
      vertex 9.69609 15.35 0
    endloop
  endfacet
  facet normal -0 0 -1
    outer loop
      vertex 10.3668 17.675 0
      vertex 0.825 15.35 0
      vertex 0.825 29.175 0
    endloop
  endfacet
  facet normal 0 0 -1
    outer loop
      vertex 12.325 19.6332 0
      vertex 0.825 29.175 0
      vertex 14.65 29.175 0
    endloop
  endfacet
  facet normal 0 0 -1
    outer loop
      vertex 20.1677 16.3847 0
      vertex 29.175 15.35 0
      vertex 20.3039 15.35 0
    endloop
  endfacet
  facet normal 0 0 -1
    outer loop
      vertex 19.6332 17.675 0
      vertex 29.175 15.35 0
      vertex 20.1677 16.3847 0
    endloop
  endfacet
  facet normal 0 0 -1
    outer loop
      vertex 29.175 15.35 0
      vertex 19.6332 17.675 0
      vertex 29.175 29.175 0
    endloop
  endfacet
  facet normal 0 0 -1
    outer loop
      vertex 18.783 18.783 0
      vertex 29.175 29.175 0
      vertex 19.6332 17.675 0
    endloop
  endfacet
  facet normal 0 0 -1
    outer loop
      vertex 17.675 19.6332 0
      vertex 29.175 29.175 0
      vertex 18.783 18.783 0
    endloop
  endfacet
  facet normal 0 0 -1
    outer loop
      vertex 15.35 29.175 0
      vertex 17.675 19.6332 0
      vertex 16.3847 20.1677 0
    endloop
  endfacet
  facet normal 0 0 -1
    outer loop
      vertex 15.35 29.175 0
      vertex 16.3847 20.1677 0
      vertex 15.35 20.3039 0
    endloop
  endfacet
  facet normal 0 0 -1
    outer loop
      vertex 17.675 19.6332 0
      vertex 15.35 29.175 0
      vertex 29.175 29.175 0
    endloop
  endfacet
  facet normal 0 0 -1
    outer loop
      vertex 20.2891 14.5373 0
      vertex 29.175 14.65 0
      vertex 29.175 0.825 0
    endloop
  endfacet
  facet normal -0 0 -1
    outer loop
      vertex 29.175 14.65 0
      vertex 20.2891 14.5373 0
      vertex 20.3039 14.65 0
    endloop
  endfacet
  facet normal 0 0 -1
    outer loop
      vertex 15.35 0.825 0
      vertex 20.2891 14.5373 0
      vertex 29.175 0.825 0
    endloop
  endfacet
  facet normal 0 0 -1
    outer loop
      vertex 19.597 14.5978 0
      vertex 19.027 17.325 0
      vertex 19.4915 16.2035 0
    endloop
  endfacet
  facet normal 0 0 -1
    outer loop
      vertex 19.597 14.5978 0
      vertex 18.288 18.288 0
      vertex 19.027 17.325 0
    endloop
  endfacet
  facet normal 0 0 -1
    outer loop
      vertex 19.597 14.5978 0
      vertex 17.325 19.027 0
      vertex 18.288 18.288 0
    endloop
  endfacet
  facet normal 0 0 -1
    outer loop
      vertex 15.35 19.6039 0
      vertex 17.325 19.027 0
      vertex 19.597 14.5978 0
    endloop
  endfacet
  facet normal -0 0 -1
    outer loop
      vertex 20.2891 14.5373 0
      vertex 15.35 0.825 0
      vertex 19.597 14.5978 0
    endloop
  endfacet
  facet normal 0 0 -1
    outer loop
      vertex 15.35 19.6039 0
      vertex 19.597 14.5978 0
      vertex 15.35 0.825 0
    endloop
  endfacet
  facet normal 0 0 -1
    outer loop
      vertex 17.325 19.027 0
      vertex 15.35 19.6039 0
      vertex 16.2035 19.4915 0
    endloop
  endfacet
  facet normal -0 0 -1
    outer loop
      vertex 19.65 15 0
      vertex 19.597 14.5978 0
      vertex 19.4915 16.2035 0
    endloop
  endfacet
  facet normal 0 -1 0
    outer loop
      vertex 0 0 0.825
      vertex 11.1202 0 2.475
      vertex 0 0 2.475
    endloop
  endfacet
  facet normal 0 -1 -0
    outer loop
      vertex 11.1202 0 2.475
      vertex 0 0 0.825
      vertex 18.8797 0 2.475
    endloop
  endfacet
  facet normal 0 -1 0
    outer loop
      vertex 18.8797 0 2.475
      vertex 30 0 0.825
      vertex 30 0 2.475
    endloop
  endfacet
  facet normal 0 -1 0
    outer loop
      vertex 30 0 0.825
      vertex 18.8797 0 2.475
      vertex 0 0 0.825
    endloop
  endfacet
  facet normal -1 0 0
    outer loop
      vertex 3.3 3.3 2.475
      vertex 3.3 7.82025 6
      vertex 3.3 7.82025 2.475
    endloop
  endfacet
  facet normal -1 -0 0
    outer loop
      vertex 3.3 7.82025 6
      vertex 3.3 3.3 2.475
      vertex 3.3 3.3 6
    endloop
  endfacet
  facet normal -1 0 0
    outer loop
      vertex 3.3 22.1797 2.475
      vertex 3.3 26.65 6
      vertex 3.3 26.65 2.475
    endloop
  endfacet
  facet normal -1 -0 0
    outer loop
      vertex 3.3 26.65 6
      vertex 3.3 22.1797 2.475
      vertex 3.3 22.1797 6
    endloop
  endfacet
  facet normal 0 0 1
    outer loop
      vertex 26.75 7.87025 6
      vertex 22.1797 3.3 6
      vertex 26.75 3.3 6
    endloop
  endfacet
  facet normal 0 0 1
    outer loop
      vertex 3.3 7.82025 6
      vertex 3.3 3.3 6
      vertex 7.82025 3.3 6
    endloop
  endfacet
  facet normal 0 0 1
    outer loop
      vertex 26.75 26.65 6
      vertex 22.2298 26.65 6
      vertex 26.75 22.1297 6
    endloop
  endfacet
  facet normal -0 0 1
    outer loop
      vertex 3.3 26.65 6
      vertex 3.3 22.1797 6
      vertex 7.77025 26.65 6
    endloop
  endfacet
  facet normal 1 -0 0
    outer loop
      vertex 26.75 3.3 6
      vertex 26.75 7.87025 2.475
      vertex 26.75 7.87025 6
    endloop
  endfacet
  facet normal 1 0 0
    outer loop
      vertex 26.75 7.87025 2.475
      vertex 26.75 3.3 6
      vertex 26.75 3.3 2.475
    endloop
  endfacet
  facet normal 1 -0 0
    outer loop
      vertex 26.75 22.1297 6
      vertex 26.75 26.65 2.475
      vertex 26.75 26.65 6
    endloop
  endfacet
  facet normal 1 0 0
    outer loop
      vertex 26.75 26.65 2.475
      vertex 26.75 22.1297 6
      vertex 26.75 22.1297 2.475
    endloop
  endfacet
  facet normal 0 -1 0
    outer loop
      vertex 22.1797 3.3 2.475
      vertex 26.75 3.3 6
      vertex 22.1797 3.3 6
    endloop
  endfacet
  facet normal 0 -1 -0
    outer loop
      vertex 26.75 3.3 6
      vertex 22.1797 3.3 2.475
      vertex 26.75 3.3 2.475
    endloop
  endfacet
  facet normal 0 -1 0
    outer loop
      vertex 3.3 3.3 2.475
      vertex 7.82025 3.3 6
      vertex 3.3 3.3 6
    endloop
  endfacet
  facet normal 0 -1 -0
    outer loop
      vertex 7.82025 3.3 6
      vertex 3.3 3.3 2.475
      vertex 7.82025 3.3 2.475
    endloop
  endfacet
  facet normal 0 1 -0
    outer loop
      vertex 26.75 26.65 2.475
      vertex 22.2298 26.65 6
      vertex 26.75 26.65 6
    endloop
  endfacet
  facet normal 0 1 0
    outer loop
      vertex 22.2298 26.65 6
      vertex 26.75 26.65 2.475
      vertex 22.2298 26.65 2.475
    endloop
  endfacet
  facet normal 0 1 -0
    outer loop
      vertex 7.77025 26.65 2.475
      vertex 3.3 26.65 6
      vertex 7.77025 26.65 6
    endloop
  endfacet
  facet normal 0 1 0
    outer loop
      vertex 3.3 26.65 6
      vertex 7.77025 26.65 2.475
      vertex 3.3 26.65 2.475
    endloop
  endfacet
  facet normal -0.707115 -0.707099 0
    outer loop
      vertex 26.75 22.1297 2.475
      vertex 22.2298 26.65 6
      vertex 22.2298 26.65 2.475
    endloop
  endfacet
  facet normal -0.707115 -0.707099 0
    outer loop
      vertex 22.2298 26.65 6
      vertex 26.75 22.1297 2.475
      vertex 26.75 22.1297 6
    endloop
  endfacet
  facet normal 0.707111 -0.707103 0
    outer loop
      vertex 3.3 22.1797 6
      vertex 7.77025 26.65 2.475
      vertex 7.77025 26.65 6
    endloop
  endfacet
  facet normal 0.707111 -0.707103 0
    outer loop
      vertex 7.77025 26.65 2.475
      vertex 3.3 22.1797 6
      vertex 3.3 22.1797 2.475
    endloop
  endfacet
  facet normal 0.707107 0.707107 0
    outer loop
      vertex 7.82025 3.3 6
      vertex 3.3 7.82025 2.475
      vertex 3.3 7.82025 6
    endloop
  endfacet
  facet normal 0.707107 0.707107 0
    outer loop
      vertex 3.3 7.82025 2.475
      vertex 7.82025 3.3 6
      vertex 7.82025 3.3 2.475
    endloop
  endfacet
  facet normal -0.707103 0.707111 0
    outer loop
      vertex 26.75 7.87025 2.475
      vertex 22.1797 3.3 6
      vertex 26.75 7.87025 6
    endloop
  endfacet
  facet normal -0.707103 0.707111 0
    outer loop
      vertex 22.1797 3.3 6
      vertex 26.75 7.87025 2.475
      vertex 22.1797 3.3 2.475
    endloop
  endfacet
  facet normal 0 -0.707107 -0.707107
    outer loop
      vertex 0 0 0.825
      vertex 14.65 0.135 0.69
      vertex 30 0 0.825
    endloop
  endfacet
  facet normal 0 -0.707107 -0.707107
    outer loop
      vertex 0.825 0.825 0
      vertex 14.65 0.135 0.69
      vertex 0 0 0.825
    endloop
  endfacet
  facet normal 0 -0.707107 -0.707107
    outer loop
      vertex 14.65 0.135 0.69
      vertex 0.825 0.825 0
      vertex 14.65 0.825 0
    endloop
  endfacet
  facet normal -0 -0.707107 -0.707107
    outer loop
      vertex 15.35 0.135 0.69
      vertex 30 0 0.825
      vertex 14.65 0.135 0.69
    endloop
  endfacet
  facet normal -0 -0.707107 -0.707107
    outer loop
      vertex 29.175 0.825 0
      vertex 15.35 0.135 0.69
      vertex 15.35 0.825 0
    endloop
  endfacet
  facet normal 0 -0.707107 -0.707107
    outer loop
      vertex 15.35 0.135 0.69
      vertex 29.175 0.825 0
      vertex 30 0 0.825
    endloop
  endfacet
  facet normal -0.707107 -0 -0.707107
    outer loop
      vertex 0.825 14.65 0
      vertex 0.825 0.825 0
      vertex 0.135 14.65 0.69
    endloop
  endfacet
  facet normal -0.707107 0 -0.707107
    outer loop
      vertex 0.135 15.35 0.69
      vertex 0.825 29.175 0
      vertex 0.825 15.35 0
    endloop
  endfacet
  facet normal -0.707107 0 -0.707107
    outer loop
      vertex 0.825 29.175 0
      vertex 0.135 15.35 0.69
      vertex 0 30 0.825
    endloop
  endfacet
  facet normal -0.707107 0 -0.707107
    outer loop
      vertex 0.135 14.65 0.69
      vertex 0 30 0.825
      vertex 0.135 15.35 0.69
    endloop
  endfacet
  facet normal -0.707107 0 -0.707107
    outer loop
      vertex 0.135 14.65 0.69
      vertex 0 0 0.825
      vertex 0 30 0.825
    endloop
  endfacet
  facet normal -0.707107 0 -0.707107
    outer loop
      vertex 0 0 0.825
      vertex 0.135 14.65 0.69
      vertex 0.825 0.825 0
    endloop
  endfacet
  facet normal 0.707107 0 -0.707107
    outer loop
      vertex 30 0 0.825
      vertex 29.865 14.65 0.69
      vertex 30 30 0.825
    endloop
  endfacet
  facet normal 0.707107 7.86693e-17 -0.707107
    outer loop
      vertex 29.175 0.825 0
      vertex 29.865 14.65 0.69
      vertex 30 0 0.825
    endloop
  endfacet
  facet normal 0.707107 0 -0.707107
    outer loop
      vertex 29.865 14.65 0.69
      vertex 29.175 0.825 0
      vertex 29.175 14.65 0
    endloop
  endfacet
  facet normal 0.707107 0 -0.707107
    outer loop
      vertex 29.865 15.35 0.69
      vertex 30 30 0.825
      vertex 29.865 14.65 0.69
    endloop
  endfacet
  facet normal 0.707107 0 -0.707107
    outer loop
      vertex 29.175 29.175 0
      vertex 29.865 15.35 0.69
      vertex 29.175 15.35 0
    endloop
  endfacet
  facet normal 0.707107 -8.03083e-17 -0.707107
    outer loop
      vertex 29.865 15.35 0.69
      vertex 29.175 29.175 0
      vertex 30 30 0.825
    endloop
  endfacet
  facet normal 0 0.707107 -0.707107
    outer loop
      vertex 14.65 29.175 0
      vertex 0.825 29.175 0
      vertex 14.65 29.865 0.69
    endloop
  endfacet
  facet normal 0 0.707107 -0.707107
    outer loop
      vertex 15.35 29.865 0.69
      vertex 29.175 29.175 0
      vertex 15.35 29.175 0
    endloop
  endfacet
  facet normal -7.86693e-17 0.707107 -0.707107
    outer loop
      vertex 29.175 29.175 0
      vertex 15.35 29.865 0.69
      vertex 30 30 0.825
    endloop
  endfacet
  facet normal 0 0.707107 -0.707107
    outer loop
      vertex 14.65 29.865 0.69
      vertex 30 30 0.825
      vertex 15.35 29.865 0.69
    endloop
  endfacet
  facet normal 0 0.707107 -0.707107
    outer loop
      vertex 14.65 29.865 0.69
      vertex 0 30 0.825
      vertex 30 30 0.825
    endloop
  endfacet
  facet normal 8.11278e-17 0.707107 -0.707107
    outer loop
      vertex 0 30 0.825
      vertex 14.65 29.865 0.69
      vertex 0.825 29.175 0
    endloop
  endfacet
  facet normal 0 0 -1
    outer loop
      vertex 9.69608 14.65 0.69
      vertex 10.35 15 0.69
      vertex 10.403 14.5978 0.69
    endloop
  endfacet
  facet normal 0 0 -1
    outer loop
      vertex 9.69608 14.65 0.69
      vertex 10.403 14.5978 0.69
      vertex 9.71092 14.5373 0.69
    endloop
  endfacet
  facet normal 0 0 -1
    outer loop
      vertex 10.35 15 0.69
      vertex 9.69609 15.35 0.69
      vertex 9.83231 16.3847 0.69
    endloop
  endfacet
  facet normal -0 0 -1
    outer loop
      vertex 10.35 15 0.69
      vertex 9.69608 14.65 0.69
      vertex 9.69609 15.35 0.69
    endloop
  endfacet
  facet normal 0 0 -1
    outer loop
      vertex 0.135 14.65 0.69
      vertex 9.69609 15.35 0.69
      vertex 9.69608 14.65 0.69
    endloop
  endfacet
  facet normal -0 0 -1
    outer loop
      vertex 9.69609 15.35 0.69
      vertex 0.135 14.65 0.69
      vertex 0.135 15.35 0.69
    endloop
  endfacet
  facet normal 0 0 -1
    outer loop
      vertex 13.7965 19.4915 0.69
      vertex 14.65 20.3039 0.69
      vertex 14.65 19.6039 0.69
    endloop
  endfacet
  facet normal 0 0 -1
    outer loop
      vertex 13.7965 19.4915 0.69
      vertex 13.6153 20.1677 0.69
      vertex 14.65 20.3039 0.69
    endloop
  endfacet
  facet normal 0 0 -1
    outer loop
      vertex 12.675 19.027 0.69
      vertex 13.6153 20.1677 0.69
      vertex 13.7965 19.4915 0.69
    endloop
  endfacet
  facet normal 0 0 -1
    outer loop
      vertex 12.675 19.027 0.69
      vertex 12.325 19.6332 0.69
      vertex 13.6153 20.1677 0.69
    endloop
  endfacet
  facet normal 0 0 -1
    outer loop
      vertex 11.712 18.288 0.69
      vertex 12.325 19.6332 0.69
      vertex 12.675 19.027 0.69
    endloop
  endfacet
  facet normal 0 0 -1
    outer loop
      vertex 11.712 18.288 0.69
      vertex 11.217 18.783 0.69
      vertex 12.325 19.6332 0.69
    endloop
  endfacet
  facet normal 0 0 -1
    outer loop
      vertex 10.973 17.325 0.69
      vertex 11.217 18.783 0.69
      vertex 11.712 18.288 0.69
    endloop
  endfacet
  facet normal 0 0 -1
    outer loop
      vertex 10.3668 17.675 0.69
      vertex 10.973 17.325 0.69
      vertex 10.5085 16.2035 0.69
    endloop
  endfacet
  facet normal 0 0 -1
    outer loop
      vertex 10.973 17.325 0.69
      vertex 10.3668 17.675 0.69
      vertex 11.217 18.783 0.69
    endloop
  endfacet
  facet normal 0 0 -1
    outer loop
      vertex 9.83231 16.3847 0.69
      vertex 10.5085 16.2035 0.69
      vertex 10.35 15 0.69
    endloop
  endfacet
  facet normal 0 0 -1
    outer loop
      vertex 10.5085 16.2035 0.69
      vertex 9.83231 16.3847 0.69
      vertex 10.3668 17.675 0.69
    endloop
  endfacet
  facet normal 0 0 -1
    outer loop
      vertex 14.65 19.6039 0.69
      vertex 15.35 19.6039 0.69
      vertex 15.35 0.135 0.69
    endloop
  endfacet
  facet normal 0 0 -1
    outer loop
      vertex 15.35 19.6039 0.69
      vertex 14.65 19.6039 0.69
      vertex 15.35 20.3039 0.69
    endloop
  endfacet
  facet normal 0 0 -1
    outer loop
      vertex 14.65 19.6039 0.69
      vertex 15.35 0.135 0.69
      vertex 14.65 0.135 0.69
    endloop
  endfacet
  facet normal 0 0 -1
    outer loop
      vertex 14.65 20.3039 0.69
      vertex 15.35 20.3039 0.69
      vertex 14.65 19.6039 0.69
    endloop
  endfacet
  facet normal 0 0 -1
    outer loop
      vertex 15.35 20.3039 0.69
      vertex 14.65 20.3039 0.69
      vertex 15.35 29.865 0.69
    endloop
  endfacet
  facet normal -0 0 -1
    outer loop
      vertex 15.35 29.865 0.69
      vertex 14.65 20.3039 0.69
      vertex 14.65 29.865 0.69
    endloop
  endfacet
  facet normal 0 0 -1
    outer loop
      vertex 20.3039 14.65 0.69
      vertex 29.865 15.35 0.69
      vertex 29.865 14.65 0.69
    endloop
  endfacet
  facet normal 0 0 -1
    outer loop
      vertex 20.3039 14.65 0.69
      vertex 20.3039 15.35 0.69
      vertex 29.865 15.35 0.69
    endloop
  endfacet
  facet normal 0 0 -1
    outer loop
      vertex 19.597 14.5978 0.69
      vertex 20.3039 14.65 0.69
      vertex 20.2891 14.5373 0.69
    endloop
  endfacet
  facet normal 0 0 -1
    outer loop
      vertex 20.3039 14.65 0.69
      vertex 19.65 15 0.69
      vertex 20.3039 15.35 0.69
    endloop
  endfacet
  facet normal 0 0 -1
    outer loop
      vertex 19.4915 16.2035 0.69
      vertex 20.3039 15.35 0.69
      vertex 19.65 15 0.69
    endloop
  endfacet
  facet normal -0 0 -1
    outer loop
      vertex 20.3039 14.65 0.69
      vertex 19.597 14.5978 0.69
      vertex 19.65 15 0.69
    endloop
  endfacet
  facet normal 0 0 -1
    outer loop
      vertex 20.3039 15.35 0.69
      vertex 19.4915 16.2035 0.69
      vertex 20.1677 16.3847 0.69
    endloop
  endfacet
  facet normal -0 0 -1
    outer loop
      vertex 20.1677 16.3847 0.69
      vertex 19.4915 16.2035 0.69
      vertex 19.6332 17.675 0.69
    endloop
  endfacet
  facet normal 0 0 -1
    outer loop
      vertex 19.027 17.325 0.69
      vertex 19.6332 17.675 0.69
      vertex 19.4915 16.2035 0.69
    endloop
  endfacet
  facet normal 0 0 -1
    outer loop
      vertex 19.027 17.325 0.69
      vertex 18.783 18.783 0.69
      vertex 19.6332 17.675 0.69
    endloop
  endfacet
  facet normal 0 0 -1
    outer loop
      vertex 18.288 18.288 0.69
      vertex 18.783 18.783 0.69
      vertex 19.027 17.325 0.69
    endloop
  endfacet
  facet normal 0 0 -1
    outer loop
      vertex 18.288 18.288 0.69
      vertex 17.675 19.6332 0.69
      vertex 18.783 18.783 0.69
    endloop
  endfacet
  facet normal 0 0 -1
    outer loop
      vertex 17.325 19.027 0.69
      vertex 17.675 19.6332 0.69
      vertex 18.288 18.288 0.69
    endloop
  endfacet
  facet normal 0 0 -1
    outer loop
      vertex 17.325 19.027 0.69
      vertex 16.3847 20.1677 0.69
      vertex 17.675 19.6332 0.69
    endloop
  endfacet
  facet normal 0 0 -1
    outer loop
      vertex 16.2035 19.4915 0.69
      vertex 16.3847 20.1677 0.69
      vertex 17.325 19.027 0.69
    endloop
  endfacet
  facet normal 0 0 -1
    outer loop
      vertex 15.35 19.6039 0.69
      vertex 16.3847 20.1677 0.69
      vertex 16.2035 19.4915 0.69
    endloop
  endfacet
  facet normal -0 0 -1
    outer loop
      vertex 16.3847 20.1677 0.69
      vertex 15.35 19.6039 0.69
      vertex 15.35 20.3039 0.69
    endloop
  endfacet
  facet normal 0 1 0
    outer loop
      vertex 0.825 14.65 0
      vertex 9.69608 14.65 0.69
      vertex 9.69608 14.65 0
    endloop
  endfacet
  facet normal 0 1 0
    outer loop
      vertex 9.69608 14.65 0.69
      vertex 0.825 14.65 0
      vertex 0.135 14.65 0.69
    endloop
  endfacet
  facet normal 0 -1 0
    outer loop
      vertex 0.825 15.35 0
      vertex 9.69609 15.35 0.69
      vertex 0.135 15.35 0.69
    endloop
  endfacet
  facet normal 0 -1 -0
    outer loop
      vertex 9.69609 15.35 0.69
      vertex 0.825 15.35 0
      vertex 9.69609 15.35 0
    endloop
  endfacet
  facet normal 0 1 -0
    outer loop
      vertex 29.175 14.65 0
      vertex 20.3039 14.65 0.69
      vertex 29.865 14.65 0.69
    endloop
  endfacet
  facet normal 0 1 0
    outer loop
      vertex 20.3039 14.65 0.69
      vertex 29.175 14.65 0
      vertex 20.3039 14.65 0
    endloop
  endfacet
  facet normal 0 -1 0
    outer loop
      vertex 29.175 15.35 0
      vertex 20.3039 15.35 0.69
      vertex 20.3039 15.35 0
    endloop
  endfacet
  facet normal 0 -1 0
    outer loop
      vertex 20.3039 15.35 0.69
      vertex 29.175 15.35 0
      vertex 29.865 15.35 0.69
    endloop
  endfacet
  facet normal 1 -0 0
    outer loop
      vertex 14.65 20.3039 0.69
      vertex 14.65 29.175 0
      vertex 14.65 29.865 0.69
    endloop
  endfacet
  facet normal 1 0 0
    outer loop
      vertex 14.65 29.175 0
      vertex 14.65 20.3039 0.69
      vertex 14.65 20.3039 0
    endloop
  endfacet
  facet normal 1 0 0
    outer loop
      vertex 14.65 19.6039 0.69
      vertex 14.65 0.825 0
      vertex 14.65 19.6039 0
    endloop
  endfacet
  facet normal 1 0 -0
    outer loop
      vertex 14.65 0.825 0
      vertex 14.65 19.6039 0.69
      vertex 14.65 0.135 0.69
    endloop
  endfacet
  facet normal -1 0 0
    outer loop
      vertex 15.35 20.3039 0.69
      vertex 15.35 29.175 0
      vertex 15.35 20.3039 0
    endloop
  endfacet
  facet normal -1 0 0
    outer loop
      vertex 15.35 29.175 0
      vertex 15.35 20.3039 0.69
      vertex 15.35 29.865 0.69
    endloop
  endfacet
  facet normal -1 0 0
    outer loop
      vertex 15.35 0.825 0
      vertex 15.35 19.6039 0.69
      vertex 15.35 19.6039 0
    endloop
  endfacet
  facet normal -1 -0 0
    outer loop
      vertex 15.35 19.6039 0.69
      vertex 15.35 0.825 0
      vertex 15.35 0.135 0.69
    endloop
  endfacet
  facet normal -0.0870855 0.996201 0
    outer loop
      vertex 10.403 14.5978 0
      vertex 9.71092 14.5373 0.69
      vertex 10.403 14.5978 0.69
    endloop
  endfacet
  facet normal -0.0870855 0.996201 0
    outer loop
      vertex 9.71092 14.5373 0.69
      vertex 10.403 14.5978 0
      vertex 9.71092 14.5373 0
    endloop
  endfacet
  facet normal -0.991429 -0.130646 0
    outer loop
      vertex 10.403 14.5978 0
      vertex 10.35 15 0.69
      vertex 10.35 15 0
    endloop
  endfacet
  facet normal -0.991429 -0.130646 0
    outer loop
      vertex 10.35 15 0.69
      vertex 10.403 14.5978 0
      vertex 10.403 14.5978 0.69
    endloop
  endfacet
  facet normal -0.991439 0.130572 0
    outer loop
      vertex 10.35 15 0
      vertex 10.5085 16.2035 0.69
      vertex 10.5085 16.2035 0
    endloop
  endfacet
  facet normal -0.991439 0.130572 0
    outer loop
      vertex 10.5085 16.2035 0.69
      vertex 10.35 15 0
      vertex 10.35 15 0.69
    endloop
  endfacet
  facet normal -0.923891 0.382655 0
    outer loop
      vertex 10.5085 16.2035 0
      vertex 10.973 17.325 0.69
      vertex 10.973 17.325 0
    endloop
  endfacet
  facet normal -0.923891 0.382655 0
    outer loop
      vertex 10.973 17.325 0.69
      vertex 10.5085 16.2035 0
      vertex 10.5085 16.2035 0.69
    endloop
  endfacet
  facet normal -0.793328 0.608795 0
    outer loop
      vertex 10.973 17.325 0
      vertex 11.712 18.288 0.69
      vertex 11.712 18.288 0
    endloop
  endfacet
  facet normal -0.793328 0.608795 0
    outer loop
      vertex 11.712 18.288 0.69
      vertex 10.973 17.325 0
      vertex 10.973 17.325 0.69
    endloop
  endfacet
  facet normal -0.608795 0.793328 0
    outer loop
      vertex 12.675 19.027 0
      vertex 11.712 18.288 0.69
      vertex 12.675 19.027 0.69
    endloop
  endfacet
  facet normal -0.608795 0.793328 0
    outer loop
      vertex 11.712 18.288 0.69
      vertex 12.675 19.027 0
      vertex 11.712 18.288 0
    endloop
  endfacet
  facet normal -0.382655 0.923891 0
    outer loop
      vertex 13.7965 19.4915 0
      vertex 12.675 19.027 0.69
      vertex 13.7965 19.4915 0.69
    endloop
  endfacet
  facet normal -0.382655 0.923891 0
    outer loop
      vertex 12.675 19.027 0.69
      vertex 13.7965 19.4915 0
      vertex 12.675 19.027 0
    endloop
  endfacet
  facet normal -0.130566 0.99144 0
    outer loop
      vertex 14.65 19.6039 0
      vertex 13.7965 19.4915 0.69
      vertex 14.65 19.6039 0.69
    endloop
  endfacet
  facet normal -0.130566 0.99144 0
    outer loop
      vertex 13.7965 19.4915 0.69
      vertex 14.65 19.6039 0
      vertex 13.7965 19.4915 0
    endloop
  endfacet
  facet normal 0.130566 0.99144 -0
    outer loop
      vertex 16.2035 19.4915 0
      vertex 15.35 19.6039 0.69
      vertex 16.2035 19.4915 0.69
    endloop
  endfacet
  facet normal 0.130566 0.99144 0
    outer loop
      vertex 15.35 19.6039 0.69
      vertex 16.2035 19.4915 0
      vertex 15.35 19.6039 0
    endloop
  endfacet
  facet normal 0.382655 0.923891 -0
    outer loop
      vertex 17.325 19.027 0
      vertex 16.2035 19.4915 0.69
      vertex 17.325 19.027 0.69
    endloop
  endfacet
  facet normal 0.382655 0.923891 0
    outer loop
      vertex 16.2035 19.4915 0.69
      vertex 17.325 19.027 0
      vertex 16.2035 19.4915 0
    endloop
  endfacet
  facet normal 0.608795 0.793328 -0
    outer loop
      vertex 18.288 18.288 0
      vertex 17.325 19.027 0.69
      vertex 18.288 18.288 0.69
    endloop
  endfacet
  facet normal 0.608795 0.793328 0
    outer loop
      vertex 17.325 19.027 0.69
      vertex 18.288 18.288 0
      vertex 17.325 19.027 0
    endloop
  endfacet
  facet normal 0.793328 0.608795 0
    outer loop
      vertex 19.027 17.325 0.69
      vertex 18.288 18.288 0
      vertex 18.288 18.288 0.69
    endloop
  endfacet
  facet normal 0.793328 0.608795 0
    outer loop
      vertex 18.288 18.288 0
      vertex 19.027 17.325 0.69
      vertex 19.027 17.325 0
    endloop
  endfacet
  facet normal 0.923891 0.382655 0
    outer loop
      vertex 19.4915 16.2035 0.69
      vertex 19.027 17.325 0
      vertex 19.027 17.325 0.69
    endloop
  endfacet
  facet normal 0.923891 0.382655 0
    outer loop
      vertex 19.027 17.325 0
      vertex 19.4915 16.2035 0.69
      vertex 19.4915 16.2035 0
    endloop
  endfacet
  facet normal 0.991439 0.130572 0
    outer loop
      vertex 19.65 15 0.69
      vertex 19.4915 16.2035 0
      vertex 19.4915 16.2035 0.69
    endloop
  endfacet
  facet normal 0.991439 0.130572 0
    outer loop
      vertex 19.4915 16.2035 0
      vertex 19.65 15 0.69
      vertex 19.65 15 0
    endloop
  endfacet
  facet normal 0.991429 -0.130646 0
    outer loop
      vertex 19.597 14.5978 0.69
      vertex 19.65 15 0
      vertex 19.65 15 0.69
    endloop
  endfacet
  facet normal 0.991429 -0.130646 0
    outer loop
      vertex 19.65 15 0
      vertex 19.597 14.5978 0.69
      vertex 19.597 14.5978 0
    endloop
  endfacet
  facet normal 0.087083 0.996201 -0
    outer loop
      vertex 20.2891 14.5373 0
      vertex 19.597 14.5978 0.69
      vertex 20.2891 14.5373 0.69
    endloop
  endfacet
  facet normal 0.087083 0.996201 0
    outer loop
      vertex 19.597 14.5978 0.69
      vertex 20.2891 14.5373 0
      vertex 19.597 14.5978 0
    endloop
  endfacet
  facet normal -0.991487 0.130204 0
    outer loop
      vertex 20.2891 14.5373 0
      vertex 20.3039 14.65 0.69
      vertex 20.3039 14.65 0
    endloop
  endfacet
  facet normal -0.991487 0.130204 0
    outer loop
      vertex 20.3039 14.65 0.69
      vertex 20.2891 14.5373 0
      vertex 20.2891 14.5373 0.69
    endloop
  endfacet
  facet normal -0.991447 -0.130507 0
    outer loop
      vertex 20.3039 15.35 0
      vertex 20.1677 16.3847 0.69
      vertex 20.1677 16.3847 0
    endloop
  endfacet
  facet normal -0.991447 -0.130507 0
    outer loop
      vertex 20.1677 16.3847 0.69
      vertex 20.3039 15.35 0
      vertex 20.3039 15.35 0.69
    endloop
  endfacet
  facet normal -0.923869 -0.382708 0
    outer loop
      vertex 20.1677 16.3847 0
      vertex 19.6332 17.675 0.69
      vertex 19.6332 17.675 0
    endloop
  endfacet
  facet normal -0.923869 -0.382708 0
    outer loop
      vertex 19.6332 17.675 0.69
      vertex 20.1677 16.3847 0
      vertex 20.1677 16.3847 0.69
    endloop
  endfacet
  facet normal -0.793353 -0.608762 0
    outer loop
      vertex 19.6332 17.675 0
      vertex 18.783 18.783 0.69
      vertex 18.783 18.783 0
    endloop
  endfacet
  facet normal -0.793353 -0.608762 0
    outer loop
      vertex 18.783 18.783 0.69
      vertex 19.6332 17.675 0
      vertex 19.6332 17.675 0.69
    endloop
  endfacet
  facet normal -0.608762 -0.793353 0
    outer loop
      vertex 17.675 19.6332 0
      vertex 18.783 18.783 0.69
      vertex 17.675 19.6332 0.69
    endloop
  endfacet
  facet normal -0.608762 -0.793353 -0
    outer loop
      vertex 18.783 18.783 0.69
      vertex 17.675 19.6332 0
      vertex 18.783 18.783 0
    endloop
  endfacet
  facet normal -0.382708 -0.923869 0
    outer loop
      vertex 16.3847 20.1677 0
      vertex 17.675 19.6332 0.69
      vertex 16.3847 20.1677 0.69
    endloop
  endfacet
  facet normal -0.382708 -0.923869 -0
    outer loop
      vertex 17.675 19.6332 0.69
      vertex 16.3847 20.1677 0
      vertex 17.675 19.6332 0
    endloop
  endfacet
  facet normal -0.130507 -0.991447 0
    outer loop
      vertex 15.35 20.3039 0
      vertex 16.3847 20.1677 0.69
      vertex 15.35 20.3039 0.69
    endloop
  endfacet
  facet normal -0.130507 -0.991447 -0
    outer loop
      vertex 16.3847 20.1677 0.69
      vertex 15.35 20.3039 0
      vertex 16.3847 20.1677 0
    endloop
  endfacet
  facet normal 0.130507 -0.991447 0
    outer loop
      vertex 13.6153 20.1677 0
      vertex 14.65 20.3039 0.69
      vertex 13.6153 20.1677 0.69
    endloop
  endfacet
  facet normal 0.130507 -0.991447 0
    outer loop
      vertex 14.65 20.3039 0.69
      vertex 13.6153 20.1677 0
      vertex 14.65 20.3039 0
    endloop
  endfacet
  facet normal 0.382708 -0.923869 0
    outer loop
      vertex 12.325 19.6332 0
      vertex 13.6153 20.1677 0.69
      vertex 12.325 19.6332 0.69
    endloop
  endfacet
  facet normal 0.382708 -0.923869 0
    outer loop
      vertex 13.6153 20.1677 0.69
      vertex 12.325 19.6332 0
      vertex 13.6153 20.1677 0
    endloop
  endfacet
  facet normal 0.608762 -0.793353 0
    outer loop
      vertex 11.217 18.783 0
      vertex 12.325 19.6332 0.69
      vertex 11.217 18.783 0.69
    endloop
  endfacet
  facet normal 0.608762 -0.793353 0
    outer loop
      vertex 12.325 19.6332 0.69
      vertex 11.217 18.783 0
      vertex 12.325 19.6332 0
    endloop
  endfacet
  facet normal 0.793353 -0.608762 0
    outer loop
      vertex 10.3668 17.675 0.69
      vertex 11.217 18.783 0
      vertex 11.217 18.783 0.69
    endloop
  endfacet
  facet normal 0.793353 -0.608762 0
    outer loop
      vertex 11.217 18.783 0
      vertex 10.3668 17.675 0.69
      vertex 10.3668 17.675 0
    endloop
  endfacet
  facet normal 0.923872 -0.382702 0
    outer loop
      vertex 9.83231 16.3847 0.69
      vertex 10.3668 17.675 0
      vertex 10.3668 17.675 0.69
    endloop
  endfacet
  facet normal 0.923872 -0.382702 0
    outer loop
      vertex 10.3668 17.675 0
      vertex 9.83231 16.3847 0.69
      vertex 9.83231 16.3847 0
    endloop
  endfacet
  facet normal 0.991445 -0.130525 0
    outer loop
      vertex 9.69609 15.35 0.69
      vertex 9.83231 16.3847 0
      vertex 9.83231 16.3847 0.69
    endloop
  endfacet
  facet normal 0.991445 -0.130525 0
    outer loop
      vertex 9.83231 16.3847 0
      vertex 9.69609 15.35 0.69
      vertex 9.69609 15.35 0
    endloop
  endfacet
  facet normal 0.991442 0.13055 0
    outer loop
      vertex 9.71092 14.5373 0.69
      vertex 9.69608 14.65 0
      vertex 9.69608 14.65 0.69
    endloop
  endfacet
  facet normal 0.991442 0.13055 0
    outer loop
      vertex 9.69608 14.65 0
      vertex 9.71092 14.5373 0.69
      vertex 9.71092 14.5373 0
    endloop
  endfacet
endsolid OpenSCAD_Model
