solid OpenSCAD_Model
  facet normal -1 0 0
    outer loop
      vertex 0 30 0.825
      vertex 0 18.8797 2.475
      vertex 0 30 2.475
    endloop
  endfacet
  facet normal -1 0 0
    outer loop
      vertex 0 30 0.825
      vertex 0 11.1202 2.475
      vertex 0 18.8797 2.475
    endloop
  endfacet
  facet normal -1 0 0
    outer loop
      vertex 0 0 0.825
      vertex 0 11.1202 2.475
      vertex 0 30 0.825
    endloop
  endfacet
  facet normal -1 -0 0
    outer loop
      vertex 0 11.1202 2.475
      vertex 0 0 0.825
      vertex 0 0 2.475
    endloop
  endfacet
  facet normal -0 0 1
    outer loop
      vertex 26.75 7.87025 2.475
      vertex 30 0 2.475
      vertex 30 11.1202 2.475
    endloop
  endfacet
  facet normal -0 0 1
    outer loop
      vertex 26.75 3.3 2.475
      vertex 30 0 2.475
      vertex 26.75 7.87025 2.475
    endloop
  endfacet
  facet normal -0 0 1
    outer loop
      vertex 22.1797 3.3 2.475
      vertex 30 0 2.475
      vertex 26.75 3.3 2.475
    endloop
  endfacet
  facet normal 0 0 1
    outer loop
      vertex 30 0 2.475
      vertex 22.1797 3.3 2.475
      vertex 18.8797 0 2.475
    endloop
  endfacet
  facet normal 0 0 1
    outer loop
      vertex 3.3 7.82025 2.475
      vertex 0 11.1202 2.475
      vertex 3.3 3.3 2.475
    endloop
  endfacet
  facet normal -0 0 1
    outer loop
      vertex 3.3 3.3 2.475
      vertex 11.1202 0 2.475
      vertex 7.82025 3.3 2.475
    endloop
  endfacet
  facet normal 0 0 1
    outer loop
      vertex 3.3 3.3 2.475
      vertex 0 0 2.475
      vertex 11.1202 0 2.475
    endloop
  endfacet
  facet normal 0 0 1
    outer loop
      vertex 0 0 2.475
      vertex 3.3 3.3 2.475
      vertex 0 11.1202 2.475
    endloop
  endfacet
  facet normal 0 0 1
    outer loop
      vertex 30 30 2.475
      vertex 26.75 26.65 2.475
      vertex 30 18.8797 2.475
    endloop
  endfacet
  facet normal 0 0 1
    outer loop
      vertex 30 30 2.475
      vertex 22.2298 26.65 2.475
      vertex 26.75 26.65 2.475
    endloop
  endfacet
  facet normal 0 -0 1
    outer loop
      vertex 22.2298 26.65 2.475
      vertex 30 30 2.475
      vertex 18.8797 30 2.475
    endloop
  endfacet
  facet normal 0 0 1
    outer loop
      vertex 30 18.8797 2.475
      vertex 26.75 26.65 2.475
      vertex 26.75 22.1297 2.475
    endloop
  endfacet
  facet normal 0 0 1
    outer loop
      vertex 11.1202 30 2.475
      vertex 3.3 26.65 2.475
      vertex 7.77025 26.65 2.475
    endloop
  endfacet
  facet normal -0 0 1
    outer loop
      vertex 0 30 2.475
      vertex 3.3 26.65 2.475
      vertex 11.1202 30 2.475
    endloop
  endfacet
  facet normal 0 0 1
    outer loop
      vertex 0 30 2.475
      vertex 3.3 22.1797 2.475
      vertex 3.3 26.65 2.475
    endloop
  endfacet
  facet normal 0 0 1
    outer loop
      vertex 3.3 22.1797 2.475
      vertex 0 30 2.475
      vertex 0 18.8797 2.475
    endloop
  endfacet
  facet normal 0 0 1
    outer loop
      vertex 26.75 22.1297 2.475
      vertex 30 11.1202 2.475
      vertex 30 18.8797 2.475
    endloop
  endfacet
  facet normal 0 0 1
    outer loop
      vertex 26.75 22.1297 2.475
      vertex 26.75 7.87025 2.475
      vertex 30 11.1202 2.475
    endloop
  endfacet
  facet normal 0 0 1
    outer loop
      vertex 22.2298 26.65 2.475
      vertex 26.75 7.87025 2.475
      vertex 26.75 22.1297 2.475
    endloop
  endfacet
  facet normal 0 0 1
    outer loop
      vertex 22.2298 26.65 2.475
      vertex 22.1797 3.3 2.475
      vertex 26.75 7.87025 2.475
    endloop
  endfacet
  facet normal 0 0 1
    outer loop
      vertex 7.77025 26.65 2.475
      vertex 22.2298 26.65 2.475
      vertex 18.8797 30 2.475
    endloop
  endfacet
  facet normal 0 0 1
    outer loop
      vertex 22.2298 26.65 2.475
      vertex 7.77025 26.65 2.475
      vertex 22.1797 3.3 2.475
    endloop
  endfacet
  facet normal 0 0 1
    outer loop
      vertex 7.77025 26.65 2.475
      vertex 18.8797 30 2.475
      vertex 11.1202 30 2.475
    endloop
  endfacet
  facet normal 0 -0 1
    outer loop
      vertex 7.82025 3.3 2.475
      vertex 22.1797 3.3 2.475
      vertex 7.77025 26.65 2.475
    endloop
  endfacet
  facet normal 0 0 1
    outer loop
      vertex 18.8797 0 2.475
      vertex 7.82025 3.3 2.475
      vertex 11.1202 0 2.475
    endloop
  endfacet
  facet normal 0 0 1
    outer loop
      vertex 22.1797 3.3 2.475
      vertex 7.82025 3.3 2.475
      vertex 18.8797 0 2.475
    endloop
  endfacet
  facet normal -0 0 1
    outer loop
      vertex 3.3 22.1797 2.475
      vertex 7.82025 3.3 2.475
      vertex 7.77025 26.65 2.475
    endloop
  endfacet
  facet normal 0 0 1
    outer loop
      vertex 3.3 22.1797 2.475
      vertex 3.3 7.82025 2.475
      vertex 7.82025 3.3 2.475
    endloop
  endfacet
  facet normal -0 0 1
    outer loop
      vertex 0 18.8797 2.475
      vertex 3.3 7.82025 2.475
      vertex 3.3 22.1797 2.475
    endloop
  endfacet
  facet normal 0 0 1
    outer loop
      vertex 3.3 7.82025 2.475
      vertex 0 18.8797 2.475
      vertex 0 11.1202 2.475
    endloop
  endfacet
  facet normal 1 -0 0
    outer loop
      vertex 30 18.8797 2.475
      vertex 30 30 0.825
      vertex 30 30 2.475
    endloop
  endfacet
  facet normal 1 -0 0
    outer loop
      vertex 30 11.1202 2.475
      vertex 30 30 0.825
      vertex 30 18.8797 2.475
    endloop
  endfacet
  facet normal 1 0 0
    outer loop
      vertex 30 0 0.825
      vertex 30 11.1202 2.475
      vertex 30 0 2.475
    endloop
  endfacet
  facet normal 1 0 0
    outer loop
      vertex 30 11.1202 2.475
      vertex 30 0 0.825
      vertex 30 30 0.825
    endloop
  endfacet
  facet normal 0 1 -0
    outer loop
      vertex 30 30 0.825
      vertex 18.8797 30 2.475
      vertex 30 30 2.475
    endloop
  endfacet
  facet normal 0 1 0
    outer loop
      vertex 18.8797 30 2.475
      vertex 30 30 0.825
      vertex 11.1202 30 2.475
    endloop
  endfacet
  facet normal 0 1 0
    outer loop
      vertex 0 30 0.825
      vertex 11.1202 30 2.475
      vertex 30 30 0.825
    endloop
  endfacet
  facet normal 0 1 0
    outer loop
      vertex 11.1202 30 2.475
      vertex 0 30 0.825
      vertex 0 30 2.475
    endloop
  endfacet
  facet normal 0 0 -1
    outer loop
      vertex 26.088 12.462 0
      vertex 29.175 14.25 0
      vertex 29.175 0.825 0
    endloop
  endfacet
  facet normal -0 0 -1
    outer loop
      vertex 29.175 14.25 0
      vertex 26.827 13.425 0
      vertex 27.1687 14.25 0
    endloop
  endfacet
  facet normal 0 0 -1
    outer loop
      vertex 29.175 14.25 0
      vertex 26.088 12.462 0
      vertex 26.827 13.425 0
    endloop
  endfacet
  facet normal 0 0 -1
    outer loop
      vertex 29.175 0.825 0
      vertex 25.125 11.723 0
      vertex 26.088 12.462 0
    endloop
  endfacet
  facet normal 0 0 -1
    outer loop
      vertex 29.175 0.825 0
      vertex 24.0035 11.2585 0
      vertex 25.125 11.723 0
    endloop
  endfacet
  facet normal 0 0 -1
    outer loop
      vertex 29.175 0.825 0
      vertex 22.8 11.1 0
      vertex 24.0035 11.2585 0
    endloop
  endfacet
  facet normal 0 0 -1
    outer loop
      vertex 29.175 0.825 0
      vertex 21.5965 11.2585 0
      vertex 22.8 11.1 0
    endloop
  endfacet
  facet normal 0 0 -1
    outer loop
      vertex 16.2035 11.2585 0
      vertex 21.5965 11.2585 0
      vertex 29.175 0.825 0
    endloop
  endfacet
  facet normal 0 0 -1
    outer loop
      vertex 21.5965 11.2585 0
      vertex 16.2035 11.2585 0
      vertex 20.475 11.723 0
    endloop
  endfacet
  facet normal 0 0 -1
    outer loop
      vertex 19.512 12.462 0
      vertex 18.288 12.462 0
      vertex 18.9 13.2595 0
    endloop
  endfacet
  facet normal 0 0 -1
    outer loop
      vertex 20.475 11.723 0
      vertex 17.325 11.723 0
      vertex 19.512 12.462 0
    endloop
  endfacet
  facet normal -0 0 -1
    outer loop
      vertex 19.512 12.462 0
      vertex 17.325 11.723 0
      vertex 18.288 12.462 0
    endloop
  endfacet
  facet normal -0 0 -1
    outer loop
      vertex 20.475 11.723 0
      vertex 16.2035 11.2585 0
      vertex 17.325 11.723 0
    endloop
  endfacet
  facet normal 0 0 -1
    outer loop
      vertex 29.175 0.825 0
      vertex 15 11.1 0
      vertex 16.2035 11.2585 0
    endloop
  endfacet
  facet normal 0 0 -1
    outer loop
      vertex 0.825 0.825 0
      vertex 15 11.1 0
      vertex 29.175 0.825 0
    endloop
  endfacet
  facet normal -0 0 -1
    outer loop
      vertex 15 11.1 0
      vertex 0.825 0.825 0
      vertex 13.7965 11.2585 0
    endloop
  endfacet
  facet normal 0 0 -1
    outer loop
      vertex 11.712 12.462 0
      vertex 10.488 12.462 0
      vertex 11.1 13.2595 0
    endloop
  endfacet
  facet normal 0 0 -1
    outer loop
      vertex 12.675 11.723 0
      vertex 10.488 12.462 0
      vertex 11.712 12.462 0
    endloop
  endfacet
  facet normal 0 -0 -1
    outer loop
      vertex 8.40351 11.2585 0
      vertex 13.7965 11.2585 0
      vertex 0.825 0.825 0
    endloop
  endfacet
  facet normal 0 0 -1
    outer loop
      vertex 12.675 11.723 0
      vertex 9.525 11.723 0
      vertex 10.488 12.462 0
    endloop
  endfacet
  facet normal 0 0 -1
    outer loop
      vertex 13.7965 11.2585 0
      vertex 8.40351 11.2585 0
      vertex 12.675 11.723 0
    endloop
  endfacet
  facet normal -0 0 -1
    outer loop
      vertex 12.675 11.723 0
      vertex 8.40351 11.2585 0
      vertex 9.525 11.723 0
    endloop
  endfacet
  facet normal 0 0 -1
    outer loop
      vertex 8.40351 11.2585 0
      vertex 0.825 0.825 0
      vertex 7.2 11.1 0
    endloop
  endfacet
  facet normal -0 0 -1
    outer loop
      vertex 7.2 11.1 0
      vertex 0.825 0.825 0
      vertex 5.99649 11.2585 0
    endloop
  endfacet
  facet normal -0 0 -1
    outer loop
      vertex 5.99649 11.2585 0
      vertex 0.825 0.825 0
      vertex 4.875 11.723 0
    endloop
  endfacet
  facet normal 0 0 -1
    outer loop
      vertex 0.825 0.825 0
      vertex 3.91196 12.462 0
      vertex 4.875 11.723 0
    endloop
  endfacet
  facet normal 0 0 -1
    outer loop
      vertex 0.825 14.25 0
      vertex 3.91196 12.462 0
      vertex 0.825 0.825 0
    endloop
  endfacet
  facet normal 0 0 -1
    outer loop
      vertex 3.91196 12.462 0
      vertex 0.825 14.25 0
      vertex 3.17299 13.425 0
    endloop
  endfacet
  facet normal 0 0 -1
    outer loop
      vertex 3.17299 13.425 0
      vertex 0.825 14.25 0
      vertex 2.83127 14.25 0
    endloop
  endfacet
  facet normal 0 0 -1
    outer loop
      vertex 25.95 15.75 0
      vertex 29.175 29.175 0
      vertex 29.175 15.75 0
    endloop
  endfacet
  facet normal 0 0 -1
    outer loop
      vertex 25.528 14.175 0
      vertex 25.95 15.75 0
      vertex 25.8427 14.9347 0
    endloop
  endfacet
  facet normal 0 0 -1
    outer loop
      vertex 19.65 15.75 0
      vertex 25.95 15.75 0
      vertex 25.528 14.175 0
    endloop
  endfacet
  facet normal 0 0 -1
    outer loop
      vertex 19.65 15.75 0
      vertex 25.528 14.175 0
      vertex 25.0274 13.5226 0
    endloop
  endfacet
  facet normal 0 0 -1
    outer loop
      vertex 19.65 15.75 0
      vertex 25.0274 13.5226 0
      vertex 24.375 13.022 0
    endloop
  endfacet
  facet normal 0 0 -1
    outer loop
      vertex 19.65 15.75 0
      vertex 24.375 13.022 0
      vertex 23.6153 12.7073 0
    endloop
  endfacet
  facet normal 0 0 -1
    outer loop
      vertex 19.65 15.75 0
      vertex 23.6153 12.7073 0
      vertex 22.8 12.6 0
    endloop
  endfacet
  facet normal 0 0 -1
    outer loop
      vertex 19.65 15.75 0
      vertex 22.8 12.6 0
      vertex 21.9847 12.7073 0
    endloop
  endfacet
  facet normal 0 0 -1
    outer loop
      vertex 19.65 15.75 0
      vertex 21.9847 12.7073 0
      vertex 21.225 13.022 0
    endloop
  endfacet
  facet normal 0 0 -1
    outer loop
      vertex 19.65 15.75 0
      vertex 21.225 13.022 0
      vertex 20.5726 13.5226 0
    endloop
  endfacet
  facet normal 0 0 -1
    outer loop
      vertex 19.65 15.75 0
      vertex 20.5726 13.5226 0
      vertex 20.072 14.175 0
    endloop
  endfacet
  facet normal 0 0 -1
    outer loop
      vertex 19.65 15.75 0
      vertex 20.072 14.175 0
      vertex 19.7573 14.9347 0
    endloop
  endfacet
  facet normal 0 0 -1
    outer loop
      vertex 25.95 15.75 0
      vertex 19.65 15.75 0
      vertex 29.175 29.175 0
    endloop
  endfacet
  facet normal 0 0 -1
    outer loop
      vertex 18.15 15.75 0
      vertex 29.175 29.175 0
      vertex 19.65 15.75 0
    endloop
  endfacet
  facet normal 0 0 -1
    outer loop
      vertex 17.728 14.175 0
      vertex 18.15 15.75 0
      vertex 18.0427 14.9347 0
    endloop
  endfacet
  facet normal 0 0 -1
    outer loop
      vertex 17.2274 13.5226 0
      vertex 18.15 15.75 0
      vertex 17.728 14.175 0
    endloop
  endfacet
  facet normal 0 0 -1
    outer loop
      vertex 16.575 13.022 0
      vertex 18.15 15.75 0
      vertex 17.2274 13.5226 0
    endloop
  endfacet
  facet normal 0 0 -1
    outer loop
      vertex 15.8153 12.7073 0
      vertex 18.15 15.75 0
      vertex 16.575 13.022 0
    endloop
  endfacet
  facet normal 0 0 -1
    outer loop
      vertex 15 12.6 0
      vertex 18.15 15.75 0
      vertex 15.8153 12.7073 0
    endloop
  endfacet
  facet normal 0 0 -1
    outer loop
      vertex 11.85 15.75 0
      vertex 18.15 15.75 0
      vertex 15 12.6 0
    endloop
  endfacet
  facet normal 0 0 -1
    outer loop
      vertex 11.85 15.75 0
      vertex 15 12.6 0
      vertex 14.1847 12.7073 0
    endloop
  endfacet
  facet normal 0 0 -1
    outer loop
      vertex 11.85 15.75 0
      vertex 14.1847 12.7073 0
      vertex 13.425 13.022 0
    endloop
  endfacet
  facet normal 0 0 -1
    outer loop
      vertex 11.85 15.75 0
      vertex 13.425 13.022 0
      vertex 12.7726 13.5226 0
    endloop
  endfacet
  facet normal 0 0 -1
    outer loop
      vertex 11.85 15.75 0
      vertex 12.7726 13.5226 0
      vertex 12.272 14.175 0
    endloop
  endfacet
  facet normal 0 0 -1
    outer loop
      vertex 11.85 15.75 0
      vertex 12.272 14.175 0
      vertex 11.9573 14.9347 0
    endloop
  endfacet
  facet normal 0 0 -1
    outer loop
      vertex 18.15 15.75 0
      vertex 11.85 15.75 0
      vertex 29.175 29.175 0
    endloop
  endfacet
  facet normal 0 0 -1
    outer loop
      vertex 0.825 29.175 0
      vertex 11.85 15.75 0
      vertex 10.35 15.75 0
    endloop
  endfacet
  facet normal 0 0 -1
    outer loop
      vertex 9.92797 14.175 0
      vertex 10.35 15.75 0
      vertex 10.2427 14.9347 0
    endloop
  endfacet
  facet normal 0 0 -1
    outer loop
      vertex 9.42737 13.5226 0
      vertex 10.35 15.75 0
      vertex 9.92797 14.175 0
    endloop
  endfacet
  facet normal 0 0 -1
    outer loop
      vertex 8.775 13.022 0
      vertex 10.35 15.75 0
      vertex 9.42737 13.5226 0
    endloop
  endfacet
  facet normal 0 0 -1
    outer loop
      vertex 8.01528 12.7073 0
      vertex 10.35 15.75 0
      vertex 8.775 13.022 0
    endloop
  endfacet
  facet normal 0 0 -1
    outer loop
      vertex 7.2 12.6 0
      vertex 10.35 15.75 0
      vertex 8.01528 12.7073 0
    endloop
  endfacet
  facet normal 0 0 -1
    outer loop
      vertex 6.38472 12.7073 0
      vertex 10.35 15.75 0
      vertex 7.2 12.6 0
    endloop
  endfacet
  facet normal 0 0 -1
    outer loop
      vertex 5.625 13.022 0
      vertex 10.35 15.75 0
      vertex 6.38472 12.7073 0
    endloop
  endfacet
  facet normal 0 0 -1
    outer loop
      vertex 4.05001 15.75 0
      vertex 10.35 15.75 0
      vertex 5.625 13.022 0
    endloop
  endfacet
  facet normal 0 0 -1
    outer loop
      vertex 4.05001 15.75 0
      vertex 5.625 13.022 0
      vertex 4.97263 13.5226 0
    endloop
  endfacet
  facet normal 0 0 -1
    outer loop
      vertex 4.05001 15.75 0
      vertex 4.97263 13.5226 0
      vertex 4.47203 14.175 0
    endloop
  endfacet
  facet normal 0 0 -1
    outer loop
      vertex 4.05001 15.75 0
      vertex 4.47203 14.175 0
      vertex 4.15734 14.9347 0
    endloop
  endfacet
  facet normal 0 0 -1
    outer loop
      vertex 0.825 29.175 0
      vertex 10.35 15.75 0
      vertex 4.05001 15.75 0
    endloop
  endfacet
  facet normal 0 0 -1
    outer loop
      vertex 0.825 29.175 0
      vertex 4.05001 15.75 0
      vertex 0.825 15.75 0
    endloop
  endfacet
  facet normal 0 0 -1
    outer loop
      vertex 11.85 15.75 0
      vertex 0.825 29.175 0
      vertex 29.175 29.175 0
    endloop
  endfacet
  facet normal 0 -1 0
    outer loop
      vertex 0 0 0.825
      vertex 11.1202 0 2.475
      vertex 0 0 2.475
    endloop
  endfacet
  facet normal 0 -1 -0
    outer loop
      vertex 11.1202 0 2.475
      vertex 0 0 0.825
      vertex 18.8797 0 2.475
    endloop
  endfacet
  facet normal 0 -1 0
    outer loop
      vertex 18.8797 0 2.475
      vertex 30 0 0.825
      vertex 30 0 2.475
    endloop
  endfacet
  facet normal 0 -1 0
    outer loop
      vertex 30 0 0.825
      vertex 18.8797 0 2.475
      vertex 0 0 0.825
    endloop
  endfacet
  facet normal -1 0 0
    outer loop
      vertex 3.3 3.3 2.475
      vertex 3.3 7.82025 6
      vertex 3.3 7.82025 2.475
    endloop
  endfacet
  facet normal -1 -0 0
    outer loop
      vertex 3.3 7.82025 6
      vertex 3.3 3.3 2.475
      vertex 3.3 3.3 6
    endloop
  endfacet
  facet normal -1 0 0
    outer loop
      vertex 3.3 22.1797 2.475
      vertex 3.3 26.65 6
      vertex 3.3 26.65 2.475
    endloop
  endfacet
  facet normal -1 -0 0
    outer loop
      vertex 3.3 26.65 6
      vertex 3.3 22.1797 2.475
      vertex 3.3 22.1797 6
    endloop
  endfacet
  facet normal 0 0 1
    outer loop
      vertex 26.75 7.87025 6
      vertex 22.1797 3.3 6
      vertex 26.75 3.3 6
    endloop
  endfacet
  facet normal 0 0 1
    outer loop
      vertex 3.3 7.82025 6
      vertex 3.3 3.3 6
      vertex 7.82025 3.3 6
    endloop
  endfacet
  facet normal 0 0 1
    outer loop
      vertex 26.75 26.65 6
      vertex 22.2298 26.65 6
      vertex 26.75 22.1297 6
    endloop
  endfacet
  facet normal -0 0 1
    outer loop
      vertex 3.3 26.65 6
      vertex 3.3 22.1797 6
      vertex 7.77025 26.65 6
    endloop
  endfacet
  facet normal 1 -0 0
    outer loop
      vertex 26.75 3.3 6
      vertex 26.75 7.87025 2.475
      vertex 26.75 7.87025 6
    endloop
  endfacet
  facet normal 1 0 0
    outer loop
      vertex 26.75 7.87025 2.475
      vertex 26.75 3.3 6
      vertex 26.75 3.3 2.475
    endloop
  endfacet
  facet normal 1 -0 0
    outer loop
      vertex 26.75 22.1297 6
      vertex 26.75 26.65 2.475
      vertex 26.75 26.65 6
    endloop
  endfacet
  facet normal 1 0 0
    outer loop
      vertex 26.75 26.65 2.475
      vertex 26.75 22.1297 6
      vertex 26.75 22.1297 2.475
    endloop
  endfacet
  facet normal 0 -1 0
    outer loop
      vertex 22.1797 3.3 2.475
      vertex 26.75 3.3 6
      vertex 22.1797 3.3 6
    endloop
  endfacet
  facet normal 0 -1 -0
    outer loop
      vertex 26.75 3.3 6
      vertex 22.1797 3.3 2.475
      vertex 26.75 3.3 2.475
    endloop
  endfacet
  facet normal 0 -1 0
    outer loop
      vertex 3.3 3.3 2.475
      vertex 7.82025 3.3 6
      vertex 3.3 3.3 6
    endloop
  endfacet
  facet normal 0 -1 -0
    outer loop
      vertex 7.82025 3.3 6
      vertex 3.3 3.3 2.475
      vertex 7.82025 3.3 2.475
    endloop
  endfacet
  facet normal 0 1 -0
    outer loop
      vertex 26.75 26.65 2.475
      vertex 22.2298 26.65 6
      vertex 26.75 26.65 6
    endloop
  endfacet
  facet normal 0 1 0
    outer loop
      vertex 22.2298 26.65 6
      vertex 26.75 26.65 2.475
      vertex 22.2298 26.65 2.475
    endloop
  endfacet
  facet normal 0 1 -0
    outer loop
      vertex 7.77025 26.65 2.475
      vertex 3.3 26.65 6
      vertex 7.77025 26.65 6
    endloop
  endfacet
  facet normal 0 1 0
    outer loop
      vertex 3.3 26.65 6
      vertex 7.77025 26.65 2.475
      vertex 3.3 26.65 2.475
    endloop
  endfacet
  facet normal -0.707115 -0.707099 0
    outer loop
      vertex 26.75 22.1297 2.475
      vertex 22.2298 26.65 6
      vertex 22.2298 26.65 2.475
    endloop
  endfacet
  facet normal -0.707115 -0.707099 0
    outer loop
      vertex 22.2298 26.65 6
      vertex 26.75 22.1297 2.475
      vertex 26.75 22.1297 6
    endloop
  endfacet
  facet normal 0.707111 -0.707103 0
    outer loop
      vertex 3.3 22.1797 6
      vertex 7.77025 26.65 2.475
      vertex 7.77025 26.65 6
    endloop
  endfacet
  facet normal 0.707111 -0.707103 0
    outer loop
      vertex 7.77025 26.65 2.475
      vertex 3.3 22.1797 6
      vertex 3.3 22.1797 2.475
    endloop
  endfacet
  facet normal 0.707107 0.707107 0
    outer loop
      vertex 7.82025 3.3 6
      vertex 3.3 7.82025 2.475
      vertex 3.3 7.82025 6
    endloop
  endfacet
  facet normal 0.707107 0.707107 0
    outer loop
      vertex 3.3 7.82025 2.475
      vertex 7.82025 3.3 6
      vertex 7.82025 3.3 2.475
    endloop
  endfacet
  facet normal -0.707103 0.707111 0
    outer loop
      vertex 26.75 7.87025 2.475
      vertex 22.1797 3.3 6
      vertex 26.75 7.87025 6
    endloop
  endfacet
  facet normal -0.707103 0.707111 0
    outer loop
      vertex 22.1797 3.3 6
      vertex 26.75 7.87025 2.475
      vertex 22.1797 3.3 2.475
    endloop
  endfacet
  facet normal 0 -0.707107 -0.707107
    outer loop
      vertex 0.825 0.825 0
      vertex 30 0 0.825
      vertex 0 0 0.825
    endloop
  endfacet
  facet normal 0 -0.707107 -0.707107
    outer loop
      vertex 30 0 0.825
      vertex 0.825 0.825 0
      vertex 29.175 0.825 0
    endloop
  endfacet
  facet normal -0.707107 -0 -0.707107
    outer loop
      vertex 0.825 14.25 0
      vertex 0.825 0.825 0
      vertex 0.135 14.25 0.69
    endloop
  endfacet
  facet normal -0.707107 0 -0.707107
    outer loop
      vertex 0.135 15.75 0.69
      vertex 0.825 29.175 0
      vertex 0.825 15.75 0
    endloop
  endfacet
  facet normal -0.707107 0 -0.707107
    outer loop
      vertex 0.825 29.175 0
      vertex 0.135 15.75 0.69
      vertex 0 30 0.825
    endloop
  endfacet
  facet normal -0.707107 0 -0.707107
    outer loop
      vertex 0.135 14.25 0.69
      vertex 0 30 0.825
      vertex 0.135 15.75 0.69
    endloop
  endfacet
  facet normal -0.707107 0 -0.707107
    outer loop
      vertex 0.135 14.25 0.69
      vertex 0 0 0.825
      vertex 0 30 0.825
    endloop
  endfacet
  facet normal -0.707107 0 -0.707107
    outer loop
      vertex 0 0 0.825
      vertex 0.135 14.25 0.69
      vertex 0.825 0.825 0
    endloop
  endfacet
  facet normal 0.707107 0 -0.707107
    outer loop
      vertex 30 0 0.825
      vertex 29.865 14.25 0.69
      vertex 30 30 0.825
    endloop
  endfacet
  facet normal 0.707107 8.08987e-17 -0.707107
    outer loop
      vertex 29.175 0.825 0
      vertex 29.865 14.25 0.69
      vertex 30 0 0.825
    endloop
  endfacet
  facet normal 0.707107 0 -0.707107
    outer loop
      vertex 29.865 14.25 0.69
      vertex 29.175 0.825 0
      vertex 29.175 14.25 0
    endloop
  endfacet
  facet normal 0.707107 0 -0.707107
    outer loop
      vertex 29.865 15.75 0.69
      vertex 30 30 0.825
      vertex 29.865 14.25 0.69
    endloop
  endfacet
  facet normal 0.707107 0 -0.707107
    outer loop
      vertex 29.175 29.175 0
      vertex 29.865 15.75 0.69
      vertex 29.175 15.75 0
    endloop
  endfacet
  facet normal 0.707107 -8.25841e-17 -0.707107
    outer loop
      vertex 29.865 15.75 0.69
      vertex 29.175 29.175 0
      vertex 30 30 0.825
    endloop
  endfacet
  facet normal 0 0.707107 -0.707107
    outer loop
      vertex 0.825 29.175 0
      vertex 30 30 0.825
      vertex 29.175 29.175 0
    endloop
  endfacet
  facet normal 0 0.707107 -0.707107
    outer loop
      vertex 30 30 0.825
      vertex 0.825 29.175 0
      vertex 0 30 0.825
    endloop
  endfacet
  facet normal 0 0 -1
    outer loop
      vertex 27.1687 14.25 0.69
      vertex 29.865 15.75 0.69
      vertex 29.865 14.25 0.69
    endloop
  endfacet
  facet normal 0 0 -1
    outer loop
      vertex 25.528 14.175 0.69
      vertex 26.827 13.425 0.69
      vertex 26.088 12.462 0.69
    endloop
  endfacet
  facet normal 0 0 -1
    outer loop
      vertex 27.1687 14.25 0.69
      vertex 25.95 15.75 0.69
      vertex 29.865 15.75 0.69
    endloop
  endfacet
  facet normal 0 0 -1
    outer loop
      vertex 26.827 13.425 0.69
      vertex 25.528 14.175 0.69
      vertex 27.1687 14.25 0.69
    endloop
  endfacet
  facet normal 0 0 -1
    outer loop
      vertex 27.1687 14.25 0.69
      vertex 25.8427 14.9347 0.69
      vertex 25.95 15.75 0.69
    endloop
  endfacet
  facet normal -0 0 -1
    outer loop
      vertex 27.1687 14.25 0.69
      vertex 25.528 14.175 0.69
      vertex 25.8427 14.9347 0.69
    endloop
  endfacet
  facet normal 0 0 -1
    outer loop
      vertex 25.0274 13.5226 0.69
      vertex 26.088 12.462 0.69
      vertex 25.125 11.723 0.69
    endloop
  endfacet
  facet normal 0 0 -1
    outer loop
      vertex 26.088 12.462 0.69
      vertex 25.0274 13.5226 0.69
      vertex 25.528 14.175 0.69
    endloop
  endfacet
  facet normal 0 0 -1
    outer loop
      vertex 25.125 11.723 0.69
      vertex 24.375 13.022 0.69
      vertex 25.0274 13.5226 0.69
    endloop
  endfacet
  facet normal 0 0 -1
    outer loop
      vertex 24.0035 11.2585 0.69
      vertex 24.375 13.022 0.69
      vertex 25.125 11.723 0.69
    endloop
  endfacet
  facet normal 0 0 -1
    outer loop
      vertex 24.0035 11.2585 0.69
      vertex 23.6153 12.7073 0.69
      vertex 24.375 13.022 0.69
    endloop
  endfacet
  facet normal 0 0 -1
    outer loop
      vertex 22.8 11.1 0.69
      vertex 23.6153 12.7073 0.69
      vertex 24.0035 11.2585 0.69
    endloop
  endfacet
  facet normal 0 0 -1
    outer loop
      vertex 22.8 11.1 0.69
      vertex 22.8 12.6 0.69
      vertex 23.6153 12.7073 0.69
    endloop
  endfacet
  facet normal 0 0 -1
    outer loop
      vertex 22.8 11.1 0.69
      vertex 21.9847 12.7073 0.69
      vertex 22.8 12.6 0.69
    endloop
  endfacet
  facet normal 0 0 -1
    outer loop
      vertex 21.5965 11.2585 0.69
      vertex 21.9847 12.7073 0.69
      vertex 22.8 11.1 0.69
    endloop
  endfacet
  facet normal 0 0 -1
    outer loop
      vertex 21.5965 11.2585 0.69
      vertex 21.225 13.022 0.69
      vertex 21.9847 12.7073 0.69
    endloop
  endfacet
  facet normal 0 0 -1
    outer loop
      vertex 20.475 11.723 0.69
      vertex 21.225 13.022 0.69
      vertex 21.5965 11.2585 0.69
    endloop
  endfacet
  facet normal -0 0 -1
    outer loop
      vertex 21.225 13.022 0.69
      vertex 20.475 11.723 0.69
      vertex 20.5726 13.5226 0.69
    endloop
  endfacet
  facet normal 0 0 -1
    outer loop
      vertex 19.512 12.462 0.69
      vertex 20.5726 13.5226 0.69
      vertex 20.475 11.723 0.69
    endloop
  endfacet
  facet normal 0 0 -1
    outer loop
      vertex 18.9 13.2595 0.69
      vertex 20.5726 13.5226 0.69
      vertex 19.512 12.462 0.69
    endloop
  endfacet
  facet normal -0 0 -1
    outer loop
      vertex 20.5726 13.5226 0.69
      vertex 18.9 13.2595 0.69
      vertex 20.072 14.175 0.69
    endloop
  endfacet
  facet normal -0 0 -1
    outer loop
      vertex 20.072 14.175 0.69
      vertex 18.9 13.2595 0.69
      vertex 19.7573 14.9347 0.69
    endloop
  endfacet
  facet normal 0 0 -1
    outer loop
      vertex 18.0427 14.9347 0.69
      vertex 19.7573 14.9347 0.69
      vertex 18.9 13.2595 0.69
    endloop
  endfacet
  facet normal 0 0 -1
    outer loop
      vertex 17.2274 13.5226 0.69
      vertex 18.9 13.2595 0.69
      vertex 18.288 12.462 0.69
    endloop
  endfacet
  facet normal 0 0 -1
    outer loop
      vertex 19.7573 14.9347 0.69
      vertex 18.0427 14.9347 0.69
      vertex 19.65 15.75 0.69
    endloop
  endfacet
  facet normal -0 0 -1
    outer loop
      vertex 19.65 15.75 0.69
      vertex 18.0427 14.9347 0.69
      vertex 18.15 15.75 0.69
    endloop
  endfacet
  facet normal 0 0 -1
    outer loop
      vertex 18.9 13.2595 0.69
      vertex 17.728 14.175 0.69
      vertex 18.0427 14.9347 0.69
    endloop
  endfacet
  facet normal 0 0 -1
    outer loop
      vertex 17.2274 13.5226 0.69
      vertex 18.288 12.462 0.69
      vertex 17.325 11.723 0.69
    endloop
  endfacet
  facet normal 0 0 -1
    outer loop
      vertex 18.9 13.2595 0.69
      vertex 17.2274 13.5226 0.69
      vertex 17.728 14.175 0.69
    endloop
  endfacet
  facet normal 0 0 -1
    outer loop
      vertex 17.325 11.723 0.69
      vertex 16.575 13.022 0.69
      vertex 17.2274 13.5226 0.69
    endloop
  endfacet
  facet normal 0 0 -1
    outer loop
      vertex 16.2035 11.2585 0.69
      vertex 16.575 13.022 0.69
      vertex 17.325 11.723 0.69
    endloop
  endfacet
  facet normal 0 0 -1
    outer loop
      vertex 16.2035 11.2585 0.69
      vertex 15.8153 12.7073 0.69
      vertex 16.575 13.022 0.69
    endloop
  endfacet
  facet normal 0 0 -1
    outer loop
      vertex 15 11.1 0.69
      vertex 15.8153 12.7073 0.69
      vertex 16.2035 11.2585 0.69
    endloop
  endfacet
  facet normal 0 0 -1
    outer loop
      vertex 15 11.1 0.69
      vertex 15 12.6 0.69
      vertex 15.8153 12.7073 0.69
    endloop
  endfacet
  facet normal 0 0 -1
    outer loop
      vertex 15 11.1 0.69
      vertex 14.1847 12.7073 0.69
      vertex 15 12.6 0.69
    endloop
  endfacet
  facet normal 0 0 -1
    outer loop
      vertex 13.7965 11.2585 0.69
      vertex 14.1847 12.7073 0.69
      vertex 15 11.1 0.69
    endloop
  endfacet
  facet normal 0 0 -1
    outer loop
      vertex 13.7965 11.2585 0.69
      vertex 13.425 13.022 0.69
      vertex 14.1847 12.7073 0.69
    endloop
  endfacet
  facet normal 0 0 -1
    outer loop
      vertex 12.675 11.723 0.69
      vertex 13.425 13.022 0.69
      vertex 13.7965 11.2585 0.69
    endloop
  endfacet
  facet normal -0 0 -1
    outer loop
      vertex 13.425 13.022 0.69
      vertex 12.675 11.723 0.69
      vertex 12.7726 13.5226 0.69
    endloop
  endfacet
  facet normal 0 0 -1
    outer loop
      vertex 11.712 12.462 0.69
      vertex 12.7726 13.5226 0.69
      vertex 12.675 11.723 0.69
    endloop
  endfacet
  facet normal 0 0 -1
    outer loop
      vertex 11.1 13.2595 0.69
      vertex 12.7726 13.5226 0.69
      vertex 11.712 12.462 0.69
    endloop
  endfacet
  facet normal -0 0 -1
    outer loop
      vertex 12.7726 13.5226 0.69
      vertex 11.1 13.2595 0.69
      vertex 12.272 14.175 0.69
    endloop
  endfacet
  facet normal -0 0 -1
    outer loop
      vertex 12.272 14.175 0.69
      vertex 11.1 13.2595 0.69
      vertex 11.9573 14.9347 0.69
    endloop
  endfacet
  facet normal 0 0 -1
    outer loop
      vertex 10.2427 14.9347 0.69
      vertex 11.9573 14.9347 0.69
      vertex 11.1 13.2595 0.69
    endloop
  endfacet
  facet normal 0 0 -1
    outer loop
      vertex 9.42737 13.5226 0.69
      vertex 11.1 13.2595 0.69
      vertex 10.488 12.462 0.69
    endloop
  endfacet
  facet normal 0 0 -1
    outer loop
      vertex 11.9573 14.9347 0.69
      vertex 10.2427 14.9347 0.69
      vertex 11.85 15.75 0.69
    endloop
  endfacet
  facet normal -0 0 -1
    outer loop
      vertex 11.85 15.75 0.69
      vertex 10.2427 14.9347 0.69
      vertex 10.35 15.75 0.69
    endloop
  endfacet
  facet normal 0 0 -1
    outer loop
      vertex 11.1 13.2595 0.69
      vertex 9.92797 14.175 0.69
      vertex 10.2427 14.9347 0.69
    endloop
  endfacet
  facet normal 0 0 -1
    outer loop
      vertex 9.42737 13.5226 0.69
      vertex 10.488 12.462 0.69
      vertex 9.525 11.723 0.69
    endloop
  endfacet
  facet normal 0 0 -1
    outer loop
      vertex 11.1 13.2595 0.69
      vertex 9.42737 13.5226 0.69
      vertex 9.92797 14.175 0.69
    endloop
  endfacet
  facet normal 0 0 -1
    outer loop
      vertex 9.525 11.723 0.69
      vertex 8.775 13.022 0.69
      vertex 9.42737 13.5226 0.69
    endloop
  endfacet
  facet normal 0 0 -1
    outer loop
      vertex 8.40351 11.2585 0.69
      vertex 8.775 13.022 0.69
      vertex 9.525 11.723 0.69
    endloop
  endfacet
  facet normal 0 0 -1
    outer loop
      vertex 8.40351 11.2585 0.69
      vertex 8.01528 12.7073 0.69
      vertex 8.775 13.022 0.69
    endloop
  endfacet
  facet normal 0 0 -1
    outer loop
      vertex 7.2 11.1 0.69
      vertex 8.01528 12.7073 0.69
      vertex 8.40351 11.2585 0.69
    endloop
  endfacet
  facet normal 0 0 -1
    outer loop
      vertex 7.2 11.1 0.69
      vertex 7.2 12.6 0.69
      vertex 8.01528 12.7073 0.69
    endloop
  endfacet
  facet normal 0 0 -1
    outer loop
      vertex 7.2 11.1 0.69
      vertex 6.38472 12.7073 0.69
      vertex 7.2 12.6 0.69
    endloop
  endfacet
  facet normal 0 0 -1
    outer loop
      vertex 5.99649 11.2585 0.69
      vertex 6.38472 12.7073 0.69
      vertex 7.2 11.1 0.69
    endloop
  endfacet
  facet normal 0 0 -1
    outer loop
      vertex 5.99649 11.2585 0.69
      vertex 5.625 13.022 0.69
      vertex 6.38472 12.7073 0.69
    endloop
  endfacet
  facet normal 0 0 -1
    outer loop
      vertex 4.875 11.723 0.69
      vertex 5.625 13.022 0.69
      vertex 5.99649 11.2585 0.69
    endloop
  endfacet
  facet normal -0 0 -1
    outer loop
      vertex 5.625 13.022 0.69
      vertex 4.875 11.723 0.69
      vertex 4.97263 13.5226 0.69
    endloop
  endfacet
  facet normal 0 0 -1
    outer loop
      vertex 3.91196 12.462 0.69
      vertex 4.97263 13.5226 0.69
      vertex 4.875 11.723 0.69
    endloop
  endfacet
  facet normal -0 0 -1
    outer loop
      vertex 4.97263 13.5226 0.69
      vertex 3.91196 12.462 0.69
      vertex 4.47203 14.175 0.69
    endloop
  endfacet
  facet normal 0 0 -1
    outer loop
      vertex 3.17299 13.425 0.69
      vertex 4.47203 14.175 0.69
      vertex 3.91196 12.462 0.69
    endloop
  endfacet
  facet normal 0 0 -1
    outer loop
      vertex 2.83127 14.25 0.69
      vertex 4.47203 14.175 0.69
      vertex 3.17299 13.425 0.69
    endloop
  endfacet
  facet normal 0 0 -1
    outer loop
      vertex 4.47203 14.175 0.69
      vertex 2.83127 14.25 0.69
      vertex 4.15734 14.9347 0.69
    endloop
  endfacet
  facet normal -0 0 -1
    outer loop
      vertex 4.15734 14.9347 0.69
      vertex 2.83127 14.25 0.69
      vertex 4.05001 15.75 0.69
    endloop
  endfacet
  facet normal 0 0 -1
    outer loop
      vertex 0.135 15.75 0.69
      vertex 2.83127 14.25 0.69
      vertex 0.135 14.25 0.69
    endloop
  endfacet
  facet normal 0 0 -1
    outer loop
      vertex 2.83127 14.25 0.69
      vertex 0.135 15.75 0.69
      vertex 4.05001 15.75 0.69
    endloop
  endfacet
  facet normal 0.923882 0.382678 0
    outer loop
      vertex 3.17299 13.425 0.69
      vertex 2.83127 14.25 0
      vertex 2.83127 14.25 0.69
    endloop
  endfacet
  facet normal 0.923882 0.382678 0
    outer loop
      vertex 2.83127 14.25 0
      vertex 3.17299 13.425 0.69
      vertex 3.17299 13.425 0
    endloop
  endfacet
  facet normal 0.79334 0.608779 0
    outer loop
      vertex 3.91196 12.462 0.69
      vertex 3.17299 13.425 0
      vertex 3.17299 13.425 0.69
    endloop
  endfacet
  facet normal 0.79334 0.608779 0
    outer loop
      vertex 3.17299 13.425 0
      vertex 3.91196 12.462 0.69
      vertex 3.91196 12.462 0
    endloop
  endfacet
  facet normal 0.608779 0.79334 -0
    outer loop
      vertex 4.875 11.723 0
      vertex 3.91196 12.462 0.69
      vertex 4.875 11.723 0.69
    endloop
  endfacet
  facet normal 0.608779 0.79334 0
    outer loop
      vertex 3.91196 12.462 0.69
      vertex 4.875 11.723 0
      vertex 3.91196 12.462 0
    endloop
  endfacet
  facet normal 0.382658 0.92389 -0
    outer loop
      vertex 5.99649 11.2585 0
      vertex 4.875 11.723 0.69
      vertex 5.99649 11.2585 0.69
    endloop
  endfacet
  facet normal 0.382658 0.92389 0
    outer loop
      vertex 4.875 11.723 0.69
      vertex 5.99649 11.2585 0
      vertex 4.875 11.723 0
    endloop
  endfacet
  facet normal 0.130571 0.991439 -0
    outer loop
      vertex 7.2 11.1 0
      vertex 5.99649 11.2585 0.69
      vertex 7.2 11.1 0.69
    endloop
  endfacet
  facet normal 0.130571 0.991439 0
    outer loop
      vertex 5.99649 11.2585 0.69
      vertex 7.2 11.1 0
      vertex 5.99649 11.2585 0
    endloop
  endfacet
  facet normal -0.130571 0.991439 0
    outer loop
      vertex 8.40351 11.2585 0
      vertex 7.2 11.1 0.69
      vertex 8.40351 11.2585 0.69
    endloop
  endfacet
  facet normal -0.130571 0.991439 0
    outer loop
      vertex 7.2 11.1 0.69
      vertex 8.40351 11.2585 0
      vertex 7.2 11.1 0
    endloop
  endfacet
  facet normal -0.382658 0.92389 0
    outer loop
      vertex 9.525 11.723 0
      vertex 8.40351 11.2585 0.69
      vertex 9.525 11.723 0.69
    endloop
  endfacet
  facet normal -0.382658 0.92389 0
    outer loop
      vertex 8.40351 11.2585 0.69
      vertex 9.525 11.723 0
      vertex 8.40351 11.2585 0
    endloop
  endfacet
  facet normal -0.608795 0.793328 0
    outer loop
      vertex 10.488 12.462 0
      vertex 9.525 11.723 0.69
      vertex 10.488 12.462 0.69
    endloop
  endfacet
  facet normal -0.608795 0.793328 0
    outer loop
      vertex 9.525 11.723 0.69
      vertex 10.488 12.462 0
      vertex 9.525 11.723 0
    endloop
  endfacet
  facet normal -0.793326 0.608797 0
    outer loop
      vertex 10.488 12.462 0
      vertex 11.1 13.2595 0.69
      vertex 11.1 13.2595 0
    endloop
  endfacet
  facet normal -0.793326 0.608797 0
    outer loop
      vertex 11.1 13.2595 0.69
      vertex 10.488 12.462 0
      vertex 10.488 12.462 0.69
    endloop
  endfacet
  facet normal 0 -1 0
    outer loop
      vertex 10.35 15.75 0
      vertex 11.85 15.75 0.69
      vertex 10.35 15.75 0.69
    endloop
  endfacet
  facet normal 0 -1 -0
    outer loop
      vertex 11.85 15.75 0.69
      vertex 10.35 15.75 0
      vertex 11.85 15.75 0
    endloop
  endfacet
  facet normal 0.991451 -0.130483 0
    outer loop
      vertex 10.2427 14.9347 0.69
      vertex 10.35 15.75 0
      vertex 10.35 15.75 0.69
    endloop
  endfacet
  facet normal 0.991451 -0.130483 0
    outer loop
      vertex 10.35 15.75 0
      vertex 10.2427 14.9347 0.69
      vertex 10.2427 14.9347 0
    endloop
  endfacet
  facet normal 0.923857 -0.382737 0
    outer loop
      vertex 9.92797 14.175 0.69
      vertex 10.2427 14.9347 0
      vertex 10.2427 14.9347 0.69
    endloop
  endfacet
  facet normal 0.923857 -0.382737 0
    outer loop
      vertex 10.2427 14.9347 0
      vertex 9.92797 14.175 0.69
      vertex 9.92797 14.175 0
    endloop
  endfacet
  facet normal 0.793356 -0.608758 0
    outer loop
      vertex 9.42737 13.5226 0.69
      vertex 9.92797 14.175 0
      vertex 9.92797 14.175 0.69
    endloop
  endfacet
  facet normal 0.793356 -0.608758 0
    outer loop
      vertex 9.92797 14.175 0
      vertex 9.42737 13.5226 0.69
      vertex 9.42737 13.5226 0
    endloop
  endfacet
  facet normal 0.608776 -0.793342 0
    outer loop
      vertex 8.775 13.022 0
      vertex 9.42737 13.5226 0.69
      vertex 8.775 13.022 0.69
    endloop
  endfacet
  facet normal 0.608776 -0.793342 0
    outer loop
      vertex 9.42737 13.5226 0.69
      vertex 8.775 13.022 0
      vertex 9.42737 13.5226 0
    endloop
  endfacet
  facet normal 0.382698 -0.923874 0
    outer loop
      vertex 8.01528 12.7073 0
      vertex 8.775 13.022 0.69
      vertex 8.01528 12.7073 0.69
    endloop
  endfacet
  facet normal 0.382698 -0.923874 0
    outer loop
      vertex 8.775 13.022 0.69
      vertex 8.01528 12.7073 0
      vertex 8.775 13.022 0
    endloop
  endfacet
  facet normal 0.130486 -0.99145 0
    outer loop
      vertex 7.2 12.6 0
      vertex 8.01528 12.7073 0.69
      vertex 7.2 12.6 0.69
    endloop
  endfacet
  facet normal 0.130486 -0.99145 0
    outer loop
      vertex 8.01528 12.7073 0.69
      vertex 7.2 12.6 0
      vertex 8.01528 12.7073 0
    endloop
  endfacet
  facet normal -0.130486 -0.99145 0
    outer loop
      vertex 6.38472 12.7073 0
      vertex 7.2 12.6 0.69
      vertex 6.38472 12.7073 0.69
    endloop
  endfacet
  facet normal -0.130486 -0.99145 -0
    outer loop
      vertex 7.2 12.6 0.69
      vertex 6.38472 12.7073 0
      vertex 7.2 12.6 0
    endloop
  endfacet
  facet normal -0.382698 -0.923874 0
    outer loop
      vertex 5.625 13.022 0
      vertex 6.38472 12.7073 0.69
      vertex 5.625 13.022 0.69
    endloop
  endfacet
  facet normal -0.382698 -0.923874 -0
    outer loop
      vertex 6.38472 12.7073 0.69
      vertex 5.625 13.022 0
      vertex 6.38472 12.7073 0
    endloop
  endfacet
  facet normal -0.608776 -0.793342 0
    outer loop
      vertex 4.97263 13.5226 0
      vertex 5.625 13.022 0.69
      vertex 4.97263 13.5226 0.69
    endloop
  endfacet
  facet normal -0.608776 -0.793342 -0
    outer loop
      vertex 5.625 13.022 0.69
      vertex 4.97263 13.5226 0
      vertex 5.625 13.022 0
    endloop
  endfacet
  facet normal -0.793356 -0.608758 0
    outer loop
      vertex 4.97263 13.5226 0
      vertex 4.47203 14.175 0.69
      vertex 4.47203 14.175 0
    endloop
  endfacet
  facet normal -0.793356 -0.608758 0
    outer loop
      vertex 4.47203 14.175 0.69
      vertex 4.97263 13.5226 0
      vertex 4.97263 13.5226 0.69
    endloop
  endfacet
  facet normal -0.923874 -0.382696 0
    outer loop
      vertex 4.47203 14.175 0
      vertex 4.15734 14.9347 0.69
      vertex 4.15734 14.9347 0
    endloop
  endfacet
  facet normal -0.923874 -0.382696 0
    outer loop
      vertex 4.15734 14.9347 0.69
      vertex 4.47203 14.175 0
      vertex 4.47203 14.175 0.69
    endloop
  endfacet
  facet normal -0.991446 -0.130519 0
    outer loop
      vertex 4.15734 14.9347 0
      vertex 4.05001 15.75 0.69
      vertex 4.05001 15.75 0
    endloop
  endfacet
  facet normal -0.991446 -0.130519 0
    outer loop
      vertex 4.05001 15.75 0.69
      vertex 4.15734 14.9347 0
      vertex 4.15734 14.9347 0.69
    endloop
  endfacet
  facet normal 0 -1 0
    outer loop
      vertex 0.825 15.75 0
      vertex 4.05001 15.75 0.69
      vertex 0.135 15.75 0.69
    endloop
  endfacet
  facet normal 0 -1 -0
    outer loop
      vertex 4.05001 15.75 0.69
      vertex 0.825 15.75 0
      vertex 4.05001 15.75 0
    endloop
  endfacet
  facet normal 0.793326 0.608797 0
    outer loop
      vertex 11.712 12.462 0.69
      vertex 11.1 13.2595 0
      vertex 11.1 13.2595 0.69
    endloop
  endfacet
  facet normal 0.793326 0.608797 0
    outer loop
      vertex 11.1 13.2595 0
      vertex 11.712 12.462 0.69
      vertex 11.712 12.462 0
    endloop
  endfacet
  facet normal 0.608795 0.793328 -0
    outer loop
      vertex 12.675 11.723 0
      vertex 11.712 12.462 0.69
      vertex 12.675 11.723 0.69
    endloop
  endfacet
  facet normal 0.608795 0.793328 0
    outer loop
      vertex 11.712 12.462 0.69
      vertex 12.675 11.723 0
      vertex 11.712 12.462 0
    endloop
  endfacet
  facet normal 0.382655 0.923891 -0
    outer loop
      vertex 13.7965 11.2585 0
      vertex 12.675 11.723 0.69
      vertex 13.7965 11.2585 0.69
    endloop
  endfacet
  facet normal 0.382655 0.923891 0
    outer loop
      vertex 12.675 11.723 0.69
      vertex 13.7965 11.2585 0
      vertex 12.675 11.723 0
    endloop
  endfacet
  facet normal 0.130572 0.991439 -0
    outer loop
      vertex 15 11.1 0
      vertex 13.7965 11.2585 0.69
      vertex 15 11.1 0.69
    endloop
  endfacet
  facet normal 0.130572 0.991439 0
    outer loop
      vertex 13.7965 11.2585 0.69
      vertex 15 11.1 0
      vertex 13.7965 11.2585 0
    endloop
  endfacet
  facet normal -0.130572 0.991439 0
    outer loop
      vertex 16.2035 11.2585 0
      vertex 15 11.1 0.69
      vertex 16.2035 11.2585 0.69
    endloop
  endfacet
  facet normal -0.130572 0.991439 0
    outer loop
      vertex 15 11.1 0.69
      vertex 16.2035 11.2585 0
      vertex 15 11.1 0
    endloop
  endfacet
  facet normal -0.382655 0.923891 0
    outer loop
      vertex 17.325 11.723 0
      vertex 16.2035 11.2585 0.69
      vertex 17.325 11.723 0.69
    endloop
  endfacet
  facet normal -0.382655 0.923891 0
    outer loop
      vertex 16.2035 11.2585 0.69
      vertex 17.325 11.723 0
      vertex 16.2035 11.2585 0
    endloop
  endfacet
  facet normal -0.608795 0.793328 0
    outer loop
      vertex 18.288 12.462 0
      vertex 17.325 11.723 0.69
      vertex 18.288 12.462 0.69
    endloop
  endfacet
  facet normal -0.608795 0.793328 0
    outer loop
      vertex 17.325 11.723 0.69
      vertex 18.288 12.462 0
      vertex 17.325 11.723 0
    endloop
  endfacet
  facet normal -0.793326 0.608797 0
    outer loop
      vertex 18.288 12.462 0
      vertex 18.9 13.2595 0.69
      vertex 18.9 13.2595 0
    endloop
  endfacet
  facet normal -0.793326 0.608797 0
    outer loop
      vertex 18.9 13.2595 0.69
      vertex 18.288 12.462 0
      vertex 18.288 12.462 0.69
    endloop
  endfacet
  facet normal 0 -1 0
    outer loop
      vertex 18.15 15.75 0
      vertex 19.65 15.75 0.69
      vertex 18.15 15.75 0.69
    endloop
  endfacet
  facet normal 0 -1 -0
    outer loop
      vertex 19.65 15.75 0.69
      vertex 18.15 15.75 0
      vertex 19.65 15.75 0
    endloop
  endfacet
  facet normal 0.991451 -0.130483 0
    outer loop
      vertex 18.0427 14.9347 0.69
      vertex 18.15 15.75 0
      vertex 18.15 15.75 0.69
    endloop
  endfacet
  facet normal 0.991451 -0.130483 0
    outer loop
      vertex 18.15 15.75 0
      vertex 18.0427 14.9347 0.69
      vertex 18.0427 14.9347 0
    endloop
  endfacet
  facet normal 0.92387 -0.382706 0
    outer loop
      vertex 17.728 14.175 0.69
      vertex 18.0427 14.9347 0
      vertex 18.0427 14.9347 0.69
    endloop
  endfacet
  facet normal 0.92387 -0.382706 0
    outer loop
      vertex 18.0427 14.9347 0
      vertex 17.728 14.175 0.69
      vertex 17.728 14.175 0
    endloop
  endfacet
  facet normal 0.793356 -0.608758 0
    outer loop
      vertex 17.2274 13.5226 0.69
      vertex 17.728 14.175 0
      vertex 17.728 14.175 0.69
    endloop
  endfacet
  facet normal 0.793356 -0.608758 0
    outer loop
      vertex 17.728 14.175 0
      vertex 17.2274 13.5226 0.69
      vertex 17.2274 13.5226 0
    endloop
  endfacet
  facet normal 0.608758 -0.793356 0
    outer loop
      vertex 16.575 13.022 0
      vertex 17.2274 13.5226 0.69
      vertex 16.575 13.022 0.69
    endloop
  endfacet
  facet normal 0.608758 -0.793356 0
    outer loop
      vertex 17.2274 13.5226 0.69
      vertex 16.575 13.022 0
      vertex 17.2274 13.5226 0
    endloop
  endfacet
  facet normal 0.382706 -0.92387 0
    outer loop
      vertex 15.8153 12.7073 0
      vertex 16.575 13.022 0.69
      vertex 15.8153 12.7073 0.69
    endloop
  endfacet
  facet normal 0.382706 -0.92387 0
    outer loop
      vertex 16.575 13.022 0.69
      vertex 15.8153 12.7073 0
      vertex 16.575 13.022 0
    endloop
  endfacet
  facet normal 0.130483 -0.991451 0
    outer loop
      vertex 15 12.6 0
      vertex 15.8153 12.7073 0.69
      vertex 15 12.6 0.69
    endloop
  endfacet
  facet normal 0.130483 -0.991451 0
    outer loop
      vertex 15.8153 12.7073 0.69
      vertex 15 12.6 0
      vertex 15.8153 12.7073 0
    endloop
  endfacet
  facet normal -0.130483 -0.991451 0
    outer loop
      vertex 14.1847 12.7073 0
      vertex 15 12.6 0.69
      vertex 14.1847 12.7073 0.69
    endloop
  endfacet
  facet normal -0.130483 -0.991451 -0
    outer loop
      vertex 15 12.6 0.69
      vertex 14.1847 12.7073 0
      vertex 15 12.6 0
    endloop
  endfacet
  facet normal -0.382706 -0.92387 0
    outer loop
      vertex 13.425 13.022 0
      vertex 14.1847 12.7073 0.69
      vertex 13.425 13.022 0.69
    endloop
  endfacet
  facet normal -0.382706 -0.92387 -0
    outer loop
      vertex 14.1847 12.7073 0.69
      vertex 13.425 13.022 0
      vertex 14.1847 12.7073 0
    endloop
  endfacet
  facet normal -0.608758 -0.793356 0
    outer loop
      vertex 12.7726 13.5226 0
      vertex 13.425 13.022 0.69
      vertex 12.7726 13.5226 0.69
    endloop
  endfacet
  facet normal -0.608758 -0.793356 -0
    outer loop
      vertex 13.425 13.022 0.69
      vertex 12.7726 13.5226 0
      vertex 13.425 13.022 0
    endloop
  endfacet
  facet normal -0.793356 -0.608758 0
    outer loop
      vertex 12.7726 13.5226 0
      vertex 12.272 14.175 0.69
      vertex 12.272 14.175 0
    endloop
  endfacet
  facet normal -0.793356 -0.608758 0
    outer loop
      vertex 12.272 14.175 0.69
      vertex 12.7726 13.5226 0
      vertex 12.7726 13.5226 0.69
    endloop
  endfacet
  facet normal -0.92387 -0.382706 0
    outer loop
      vertex 12.272 14.175 0
      vertex 11.9573 14.9347 0.69
      vertex 11.9573 14.9347 0
    endloop
  endfacet
  facet normal -0.92387 -0.382706 0
    outer loop
      vertex 11.9573 14.9347 0.69
      vertex 12.272 14.175 0
      vertex 12.272 14.175 0.69
    endloop
  endfacet
  facet normal -0.991451 -0.130483 0
    outer loop
      vertex 11.9573 14.9347 0
      vertex 11.85 15.75 0.69
      vertex 11.85 15.75 0
    endloop
  endfacet
  facet normal -0.991451 -0.130483 0
    outer loop
      vertex 11.85 15.75 0.69
      vertex 11.9573 14.9347 0
      vertex 11.9573 14.9347 0.69
    endloop
  endfacet
  facet normal 0.793326 0.608797 0
    outer loop
      vertex 19.512 12.462 0.69
      vertex 18.9 13.2595 0
      vertex 18.9 13.2595 0.69
    endloop
  endfacet
  facet normal 0.793326 0.608797 0
    outer loop
      vertex 18.9 13.2595 0
      vertex 19.512 12.462 0.69
      vertex 19.512 12.462 0
    endloop
  endfacet
  facet normal 0.608795 0.793328 -0
    outer loop
      vertex 20.475 11.723 0
      vertex 19.512 12.462 0.69
      vertex 20.475 11.723 0.69
    endloop
  endfacet
  facet normal 0.608795 0.793328 0
    outer loop
      vertex 19.512 12.462 0.69
      vertex 20.475 11.723 0
      vertex 19.512 12.462 0
    endloop
  endfacet
  facet normal 0.382655 0.923891 -0
    outer loop
      vertex 21.5965 11.2585 0
      vertex 20.475 11.723 0.69
      vertex 21.5965 11.2585 0.69
    endloop
  endfacet
  facet normal 0.382655 0.923891 0
    outer loop
      vertex 20.475 11.723 0.69
      vertex 21.5965 11.2585 0
      vertex 20.475 11.723 0
    endloop
  endfacet
  facet normal 0.130572 0.991439 -0
    outer loop
      vertex 22.8 11.1 0
      vertex 21.5965 11.2585 0.69
      vertex 22.8 11.1 0.69
    endloop
  endfacet
  facet normal 0.130572 0.991439 0
    outer loop
      vertex 21.5965 11.2585 0.69
      vertex 22.8 11.1 0
      vertex 21.5965 11.2585 0
    endloop
  endfacet
  facet normal -0.130572 0.991439 0
    outer loop
      vertex 24.0035 11.2585 0
      vertex 22.8 11.1 0.69
      vertex 24.0035 11.2585 0.69
    endloop
  endfacet
  facet normal -0.130572 0.991439 0
    outer loop
      vertex 22.8 11.1 0.69
      vertex 24.0035 11.2585 0
      vertex 22.8 11.1 0
    endloop
  endfacet
  facet normal -0.382655 0.923891 0
    outer loop
      vertex 25.125 11.723 0
      vertex 24.0035 11.2585 0.69
      vertex 25.125 11.723 0.69
    endloop
  endfacet
  facet normal -0.382655 0.923891 0
    outer loop
      vertex 24.0035 11.2585 0.69
      vertex 25.125 11.723 0
      vertex 24.0035 11.2585 0
    endloop
  endfacet
  facet normal -0.608795 0.793328 0
    outer loop
      vertex 26.088 12.462 0
      vertex 25.125 11.723 0.69
      vertex 26.088 12.462 0.69
    endloop
  endfacet
  facet normal -0.608795 0.793328 0
    outer loop
      vertex 25.125 11.723 0.69
      vertex 26.088 12.462 0
      vertex 25.125 11.723 0
    endloop
  endfacet
  facet normal -0.793328 0.608795 0
    outer loop
      vertex 26.088 12.462 0
      vertex 26.827 13.425 0.69
      vertex 26.827 13.425 0
    endloop
  endfacet
  facet normal -0.793328 0.608795 0
    outer loop
      vertex 26.827 13.425 0.69
      vertex 26.088 12.462 0
      vertex 26.088 12.462 0.69
    endloop
  endfacet
  facet normal -0.92389 0.382658 0
    outer loop
      vertex 26.827 13.425 0
      vertex 27.1687 14.25 0.69
      vertex 27.1687 14.25 0
    endloop
  endfacet
  facet normal -0.92389 0.382658 0
    outer loop
      vertex 27.1687 14.25 0.69
      vertex 26.827 13.425 0
      vertex 26.827 13.425 0.69
    endloop
  endfacet
  facet normal 0 -1 0
    outer loop
      vertex 29.175 15.75 0
      vertex 25.95 15.75 0.69
      vertex 25.95 15.75 0
    endloop
  endfacet
  facet normal 0 -1 0
    outer loop
      vertex 25.95 15.75 0.69
      vertex 29.175 15.75 0
      vertex 29.865 15.75 0.69
    endloop
  endfacet
  facet normal 0.991451 -0.130483 0
    outer loop
      vertex 25.8427 14.9347 0.69
      vertex 25.95 15.75 0
      vertex 25.95 15.75 0.69
    endloop
  endfacet
  facet normal 0.991451 -0.130483 0
    outer loop
      vertex 25.95 15.75 0
      vertex 25.8427 14.9347 0.69
      vertex 25.8427 14.9347 0
    endloop
  endfacet
  facet normal 0.92387 -0.382706 0
    outer loop
      vertex 25.528 14.175 0.69
      vertex 25.8427 14.9347 0
      vertex 25.8427 14.9347 0.69
    endloop
  endfacet
  facet normal 0.92387 -0.382706 0
    outer loop
      vertex 25.8427 14.9347 0
      vertex 25.528 14.175 0.69
      vertex 25.528 14.175 0
    endloop
  endfacet
  facet normal 0.793356 -0.608758 0
    outer loop
      vertex 25.0274 13.5226 0.69
      vertex 25.528 14.175 0
      vertex 25.528 14.175 0.69
    endloop
  endfacet
  facet normal 0.793356 -0.608758 0
    outer loop
      vertex 25.528 14.175 0
      vertex 25.0274 13.5226 0.69
      vertex 25.0274 13.5226 0
    endloop
  endfacet
  facet normal 0.608758 -0.793356 0
    outer loop
      vertex 24.375 13.022 0
      vertex 25.0274 13.5226 0.69
      vertex 24.375 13.022 0.69
    endloop
  endfacet
  facet normal 0.608758 -0.793356 0
    outer loop
      vertex 25.0274 13.5226 0.69
      vertex 24.375 13.022 0
      vertex 25.0274 13.5226 0
    endloop
  endfacet
  facet normal 0.382706 -0.92387 0
    outer loop
      vertex 23.6153 12.7073 0
      vertex 24.375 13.022 0.69
      vertex 23.6153 12.7073 0.69
    endloop
  endfacet
  facet normal 0.382706 -0.92387 0
    outer loop
      vertex 24.375 13.022 0.69
      vertex 23.6153 12.7073 0
      vertex 24.375 13.022 0
    endloop
  endfacet
  facet normal 0.130483 -0.991451 0
    outer loop
      vertex 22.8 12.6 0
      vertex 23.6153 12.7073 0.69
      vertex 22.8 12.6 0.69
    endloop
  endfacet
  facet normal 0.130483 -0.991451 0
    outer loop
      vertex 23.6153 12.7073 0.69
      vertex 22.8 12.6 0
      vertex 23.6153 12.7073 0
    endloop
  endfacet
  facet normal -0.130483 -0.991451 0
    outer loop
      vertex 21.9847 12.7073 0
      vertex 22.8 12.6 0.69
      vertex 21.9847 12.7073 0.69
    endloop
  endfacet
  facet normal -0.130483 -0.991451 -0
    outer loop
      vertex 22.8 12.6 0.69
      vertex 21.9847 12.7073 0
      vertex 22.8 12.6 0
    endloop
  endfacet
  facet normal -0.382706 -0.92387 0
    outer loop
      vertex 21.225 13.022 0
      vertex 21.9847 12.7073 0.69
      vertex 21.225 13.022 0.69
    endloop
  endfacet
  facet normal -0.382706 -0.92387 -0
    outer loop
      vertex 21.9847 12.7073 0.69
      vertex 21.225 13.022 0
      vertex 21.9847 12.7073 0
    endloop
  endfacet
  facet normal -0.608758 -0.793356 0
    outer loop
      vertex 20.5726 13.5226 0
      vertex 21.225 13.022 0.69
      vertex 20.5726 13.5226 0.69
    endloop
  endfacet
  facet normal -0.608758 -0.793356 -0
    outer loop
      vertex 21.225 13.022 0.69
      vertex 20.5726 13.5226 0
      vertex 21.225 13.022 0
    endloop
  endfacet
  facet normal -0.793356 -0.608758 0
    outer loop
      vertex 20.5726 13.5226 0
      vertex 20.072 14.175 0.69
      vertex 20.072 14.175 0
    endloop
  endfacet
  facet normal -0.793356 -0.608758 0
    outer loop
      vertex 20.072 14.175 0.69
      vertex 20.5726 13.5226 0
      vertex 20.5726 13.5226 0.69
    endloop
  endfacet
  facet normal -0.92387 -0.382706 0
    outer loop
      vertex 20.072 14.175 0
      vertex 19.7573 14.9347 0.69
      vertex 19.7573 14.9347 0
    endloop
  endfacet
  facet normal -0.92387 -0.382706 0
    outer loop
      vertex 19.7573 14.9347 0.69
      vertex 20.072 14.175 0
      vertex 20.072 14.175 0.69
    endloop
  endfacet
  facet normal -0.991451 -0.130483 0
    outer loop
      vertex 19.7573 14.9347 0
      vertex 19.65 15.75 0.69
      vertex 19.65 15.75 0
    endloop
  endfacet
  facet normal -0.991451 -0.130483 0
    outer loop
      vertex 19.65 15.75 0.69
      vertex 19.7573 14.9347 0
      vertex 19.7573 14.9347 0.69
    endloop
  endfacet
  facet normal 0 1 -0
    outer loop
      vertex 29.175 14.25 0
      vertex 27.1687 14.25 0.69
      vertex 29.865 14.25 0.69
    endloop
  endfacet
  facet normal 0 1 0
    outer loop
      vertex 27.1687 14.25 0.69
      vertex 29.175 14.25 0
      vertex 27.1687 14.25 0
    endloop
  endfacet
  facet normal 0 1 0
    outer loop
      vertex 0.825 14.25 0
      vertex 2.83127 14.25 0.69
      vertex 2.83127 14.25 0
    endloop
  endfacet
  facet normal 0 1 0
    outer loop
      vertex 2.83127 14.25 0.69
      vertex 0.825 14.25 0
      vertex 0.135 14.25 0.69
    endloop
  endfacet
endsolid OpenSCAD_Model
