solid OpenSCAD_Model
  facet normal -1 0 0
    outer loop
      vertex 0 30 0.825
      vertex 0 18.8797 2.475
      vertex 0 30 2.475
    endloop
  endfacet
  facet normal -1 0 0
    outer loop
      vertex 0 30 0.825
      vertex 0 11.1202 2.475
      vertex 0 18.8797 2.475
    endloop
  endfacet
  facet normal -1 0 0
    outer loop
      vertex 0 0 0.825
      vertex 0 11.1202 2.475
      vertex 0 30 0.825
    endloop
  endfacet
  facet normal -1 -0 0
    outer loop
      vertex 0 11.1202 2.475
      vertex 0 0 0.825
      vertex 0 0 2.475
    endloop
  endfacet
  facet normal -0 0 1
    outer loop
      vertex 26.75 7.87025 2.475
      vertex 30 0 2.475
      vertex 30 11.1202 2.475
    endloop
  endfacet
  facet normal -0 0 1
    outer loop
      vertex 26.75 3.3 2.475
      vertex 30 0 2.475
      vertex 26.75 7.87025 2.475
    endloop
  endfacet
  facet normal -0 0 1
    outer loop
      vertex 22.1797 3.3 2.475
      vertex 30 0 2.475
      vertex 26.75 3.3 2.475
    endloop
  endfacet
  facet normal 0 0 1
    outer loop
      vertex 30 0 2.475
      vertex 22.1797 3.3 2.475
      vertex 18.8797 0 2.475
    endloop
  endfacet
  facet normal 0 0 1
    outer loop
      vertex 3.3 7.82025 2.475
      vertex 0 11.1202 2.475
      vertex 3.3 3.3 2.475
    endloop
  endfacet
  facet normal -0 0 1
    outer loop
      vertex 3.3 3.3 2.475
      vertex 11.1202 0 2.475
      vertex 7.82025 3.3 2.475
    endloop
  endfacet
  facet normal 0 0 1
    outer loop
      vertex 3.3 3.3 2.475
      vertex 0 0 2.475
      vertex 11.1202 0 2.475
    endloop
  endfacet
  facet normal 0 0 1
    outer loop
      vertex 0 0 2.475
      vertex 3.3 3.3 2.475
      vertex 0 11.1202 2.475
    endloop
  endfacet
  facet normal 0 0 1
    outer loop
      vertex 30 30 2.475
      vertex 26.75 26.65 2.475
      vertex 30 18.8797 2.475
    endloop
  endfacet
  facet normal 0 0 1
    outer loop
      vertex 30 30 2.475
      vertex 22.2298 26.65 2.475
      vertex 26.75 26.65 2.475
    endloop
  endfacet
  facet normal 0 -0 1
    outer loop
      vertex 22.2298 26.65 2.475
      vertex 30 30 2.475
      vertex 18.8797 30 2.475
    endloop
  endfacet
  facet normal 0 0 1
    outer loop
      vertex 30 18.8797 2.475
      vertex 26.75 26.65 2.475
      vertex 26.75 22.1297 2.475
    endloop
  endfacet
  facet normal 0 0 1
    outer loop
      vertex 11.1202 30 2.475
      vertex 3.3 26.65 2.475
      vertex 7.77025 26.65 2.475
    endloop
  endfacet
  facet normal -0 0 1
    outer loop
      vertex 0 30 2.475
      vertex 3.3 26.65 2.475
      vertex 11.1202 30 2.475
    endloop
  endfacet
  facet normal 0 0 1
    outer loop
      vertex 0 30 2.475
      vertex 3.3 22.1797 2.475
      vertex 3.3 26.65 2.475
    endloop
  endfacet
  facet normal 0 0 1
    outer loop
      vertex 3.3 22.1797 2.475
      vertex 0 30 2.475
      vertex 0 18.8797 2.475
    endloop
  endfacet
  facet normal 0 0 1
    outer loop
      vertex 26.75 22.1297 2.475
      vertex 30 11.1202 2.475
      vertex 30 18.8797 2.475
    endloop
  endfacet
  facet normal 0 0 1
    outer loop
      vertex 26.75 22.1297 2.475
      vertex 26.75 7.87025 2.475
      vertex 30 11.1202 2.475
    endloop
  endfacet
  facet normal 0 0 1
    outer loop
      vertex 22.2298 26.65 2.475
      vertex 26.75 7.87025 2.475
      vertex 26.75 22.1297 2.475
    endloop
  endfacet
  facet normal 0 0 1
    outer loop
      vertex 22.2298 26.65 2.475
      vertex 22.1797 3.3 2.475
      vertex 26.75 7.87025 2.475
    endloop
  endfacet
  facet normal 0 0 1
    outer loop
      vertex 7.77025 26.65 2.475
      vertex 22.2298 26.65 2.475
      vertex 18.8797 30 2.475
    endloop
  endfacet
  facet normal 0 0 1
    outer loop
      vertex 22.2298 26.65 2.475
      vertex 7.77025 26.65 2.475
      vertex 22.1797 3.3 2.475
    endloop
  endfacet
  facet normal 0 0 1
    outer loop
      vertex 7.77025 26.65 2.475
      vertex 18.8797 30 2.475
      vertex 11.1202 30 2.475
    endloop
  endfacet
  facet normal 0 -0 1
    outer loop
      vertex 7.82025 3.3 2.475
      vertex 22.1797 3.3 2.475
      vertex 7.77025 26.65 2.475
    endloop
  endfacet
  facet normal 0 0 1
    outer loop
      vertex 18.8797 0 2.475
      vertex 7.82025 3.3 2.475
      vertex 11.1202 0 2.475
    endloop
  endfacet
  facet normal 0 0 1
    outer loop
      vertex 22.1797 3.3 2.475
      vertex 7.82025 3.3 2.475
      vertex 18.8797 0 2.475
    endloop
  endfacet
  facet normal -0 0 1
    outer loop
      vertex 3.3 22.1797 2.475
      vertex 7.82025 3.3 2.475
      vertex 7.77025 26.65 2.475
    endloop
  endfacet
  facet normal 0 0 1
    outer loop
      vertex 3.3 22.1797 2.475
      vertex 3.3 7.82025 2.475
      vertex 7.82025 3.3 2.475
    endloop
  endfacet
  facet normal -0 0 1
    outer loop
      vertex 0 18.8797 2.475
      vertex 3.3 7.82025 2.475
      vertex 3.3 22.1797 2.475
    endloop
  endfacet
  facet normal 0 0 1
    outer loop
      vertex 3.3 7.82025 2.475
      vertex 0 18.8797 2.475
      vertex 0 11.1202 2.475
    endloop
  endfacet
  facet normal 1 -0 0
    outer loop
      vertex 30 18.8797 2.475
      vertex 30 30 0.825
      vertex 30 30 2.475
    endloop
  endfacet
  facet normal 1 -0 0
    outer loop
      vertex 30 11.1202 2.475
      vertex 30 30 0.825
      vertex 30 18.8797 2.475
    endloop
  endfacet
  facet normal 1 0 0
    outer loop
      vertex 30 0 0.825
      vertex 30 11.1202 2.475
      vertex 30 0 2.475
    endloop
  endfacet
  facet normal 1 0 0
    outer loop
      vertex 30 11.1202 2.475
      vertex 30 0 0.825
      vertex 30 30 0.825
    endloop
  endfacet
  facet normal 0 0 -1
    outer loop
      vertex 14.25 0.825 0
      vertex 5.125 8.75 0
      vertex 14.25 4.56699 0
    endloop
  endfacet
  facet normal 0 0 -1
    outer loop
      vertex 0.825 0.825 0
      vertex 5.125 8.75 0
      vertex 14.25 0.825 0
    endloop
  endfacet
  facet normal -0 0 -1
    outer loop
      vertex 5.125 8.75 0
      vertex 0.825 0.825 0
      vertex 3.625 8.75 0
    endloop
  endfacet
  facet normal 0 0 -1
    outer loop
      vertex 0.825 14.25 0
      vertex 3.625 8.75 0
      vertex 0.825 0.825 0
    endloop
  endfacet
  facet normal 0 0 -1
    outer loop
      vertex 3.625 8.75 0
      vertex 0.825 14.25 0
      vertex 3.625 14.25 0
    endloop
  endfacet
  facet normal 0 0 -1
    outer loop
      vertex 14.25 4.56699 0
      vertex 5.125 8.75 0
      vertex 5.125 9.83531 0
    endloop
  endfacet
  facet normal 0 0 -1
    outer loop
      vertex 3.625 15.75 0
      vertex 0.825 15.75 0
      vertex 3.625 21.25 0
    endloop
  endfacet
  facet normal -0 0 -1
    outer loop
      vertex 12.1442 24.2172 0
      vertex 5.125 20.1647 0
      vertex 10.3964 24.4318 0
    endloop
  endfacet
  facet normal 0 0 -1
    outer loop
      vertex 10.5792 25.9206 0
      vertex 14.25 29.175 0
      vertex 14.25 25.4699 0
    endloop
  endfacet
  facet normal 0 0 -1
    outer loop
      vertex 5.125 21.25 0
      vertex 10.3964 24.4318 0
      vertex 5.125 20.1647 0
    endloop
  endfacet
  facet normal -0 0 -1
    outer loop
      vertex 10.3964 24.4318 0
      vertex 5.125 21.25 0
      vertex 10.5792 25.9206 0
    endloop
  endfacet
  facet normal 0 0 -1
    outer loop
      vertex 0.825 29.175 0
      vertex 10.5792 25.9206 0
      vertex 5.125 21.25 0
    endloop
  endfacet
  facet normal 0 0 -1
    outer loop
      vertex 0.825 29.175 0
      vertex 5.125 21.25 0
      vertex 3.625 21.25 0
    endloop
  endfacet
  facet normal 0 0 -1
    outer loop
      vertex 10.5792 25.9206 0
      vertex 0.825 29.175 0
      vertex 14.25 29.175 0
    endloop
  endfacet
  facet normal 0 0 -1
    outer loop
      vertex 0.825 29.175 0
      vertex 3.625 21.25 0
      vertex 0.825 15.75 0
    endloop
  endfacet
  facet normal 0 0 -1
    outer loop
      vertex 13.5869 20.7112 0
      vertex 29.175 0.825 0
      vertex 15.375 5.64952 0
    endloop
  endfacet
  facet normal 0 -0 -1
    outer loop
      vertex 15.375 5.64952 0
      vertex 15.75 5 0
      vertex 15 5 0
    endloop
  endfacet
  facet normal 0 0 -1
    outer loop
      vertex 15.75 5 0
      vertex 29.175 0.825 0
      vertex 15.75 0.825 0
    endloop
  endfacet
  facet normal 0 0 -1
    outer loop
      vertex 15.375 5.64952 0
      vertex 29.175 0.825 0
      vertex 15.75 5 0
    endloop
  endfacet
  facet normal 0 0 -1
    outer loop
      vertex 29.175 0.825 0
      vertex 15.75 24.75 0
      vertex 29.175 29.175 0
    endloop
  endfacet
  facet normal -0 0 -1
    outer loop
      vertex 29.175 29.175 0
      vertex 15.75 24.75 0
      vertex 15.75 29.175 0
    endloop
  endfacet
  facet normal 0 0 -1
    outer loop
      vertex 29.175 0.825 0
      vertex 13.5869 20.7112 0
      vertex 15.75 24.75 0
    endloop
  endfacet
  facet normal -0 0 -1
    outer loop
      vertex 15.75 24.75 0
      vertex 13.5869 20.7112 0
      vertex 15.3013 24.75 0
    endloop
  endfacet
  facet normal 0 0 -1
    outer loop
      vertex 5.125 11.5674 0
      vertex 13.5869 20.7112 0
      vertex 15.375 5.64952 0
    endloop
  endfacet
  facet normal 0 0 -1
    outer loop
      vertex 5.125 18.4326 0
      vertex 13.5869 20.7112 0
      vertex 5.125 11.5674 0
    endloop
  endfacet
  facet normal -0 0 -1
    outer loop
      vertex 13.5869 20.7112 0
      vertex 5.125 18.4326 0
      vertex 12.2061 21.2973 0
    endloop
  endfacet
  facet normal -0 0 -1
    outer loop
      vertex 12.2061 21.2973 0
      vertex 5.125 18.4326 0
      vertex 12.8942 22.9182 0
    endloop
  endfacet
  facet normal 0 -1 0
    outer loop
      vertex 0 0 0.825
      vertex 11.1202 0 2.475
      vertex 0 0 2.475
    endloop
  endfacet
  facet normal 0 -1 -0
    outer loop
      vertex 11.1202 0 2.475
      vertex 0 0 0.825
      vertex 18.8797 0 2.475
    endloop
  endfacet
  facet normal 0 -1 0
    outer loop
      vertex 18.8797 0 2.475
      vertex 30 0 0.825
      vertex 30 0 2.475
    endloop
  endfacet
  facet normal 0 -1 0
    outer loop
      vertex 30 0 0.825
      vertex 18.8797 0 2.475
      vertex 0 0 0.825
    endloop
  endfacet
  facet normal 0 1 -0
    outer loop
      vertex 30 30 0.825
      vertex 18.8797 30 2.475
      vertex 30 30 2.475
    endloop
  endfacet
  facet normal 0 1 0
    outer loop
      vertex 18.8797 30 2.475
      vertex 30 30 0.825
      vertex 11.1202 30 2.475
    endloop
  endfacet
  facet normal 0 1 0
    outer loop
      vertex 0 30 0.825
      vertex 11.1202 30 2.475
      vertex 30 30 0.825
    endloop
  endfacet
  facet normal 0 1 0
    outer loop
      vertex 11.1202 30 2.475
      vertex 0 30 0.825
      vertex 0 30 2.475
    endloop
  endfacet
  facet normal -1 0 0
    outer loop
      vertex 3.3 3.3 2.475
      vertex 3.3 7.82025 6
      vertex 3.3 7.82025 2.475
    endloop
  endfacet
  facet normal -1 -0 0
    outer loop
      vertex 3.3 7.82025 6
      vertex 3.3 3.3 2.475
      vertex 3.3 3.3 6
    endloop
  endfacet
  facet normal -1 0 0
    outer loop
      vertex 3.3 22.1797 2.475
      vertex 3.3 26.65 6
      vertex 3.3 26.65 2.475
    endloop
  endfacet
  facet normal -1 -0 0
    outer loop
      vertex 3.3 26.65 6
      vertex 3.3 22.1797 2.475
      vertex 3.3 22.1797 6
    endloop
  endfacet
  facet normal 0 0 1
    outer loop
      vertex 26.75 7.87025 6
      vertex 22.1797 3.3 6
      vertex 26.75 3.3 6
    endloop
  endfacet
  facet normal 0 0 1
    outer loop
      vertex 3.3 7.82025 6
      vertex 3.3 3.3 6
      vertex 7.82025 3.3 6
    endloop
  endfacet
  facet normal 0 0 1
    outer loop
      vertex 26.75 26.65 6
      vertex 22.2298 26.65 6
      vertex 26.75 22.1297 6
    endloop
  endfacet
  facet normal -0 0 1
    outer loop
      vertex 3.3 26.65 6
      vertex 3.3 22.1797 6
      vertex 7.77025 26.65 6
    endloop
  endfacet
  facet normal 1 -0 0
    outer loop
      vertex 26.75 3.3 6
      vertex 26.75 7.87025 2.475
      vertex 26.75 7.87025 6
    endloop
  endfacet
  facet normal 1 0 0
    outer loop
      vertex 26.75 7.87025 2.475
      vertex 26.75 3.3 6
      vertex 26.75 3.3 2.475
    endloop
  endfacet
  facet normal 1 -0 0
    outer loop
      vertex 26.75 22.1297 6
      vertex 26.75 26.65 2.475
      vertex 26.75 26.65 6
    endloop
  endfacet
  facet normal 1 0 0
    outer loop
      vertex 26.75 26.65 2.475
      vertex 26.75 22.1297 6
      vertex 26.75 22.1297 2.475
    endloop
  endfacet
  facet normal 0 1 -0
    outer loop
      vertex 26.75 26.65 2.475
      vertex 22.2298 26.65 6
      vertex 26.75 26.65 6
    endloop
  endfacet
  facet normal 0 1 0
    outer loop
      vertex 22.2298 26.65 6
      vertex 26.75 26.65 2.475
      vertex 22.2298 26.65 2.475
    endloop
  endfacet
  facet normal 0 1 -0
    outer loop
      vertex 7.77025 26.65 2.475
      vertex 3.3 26.65 6
      vertex 7.77025 26.65 6
    endloop
  endfacet
  facet normal 0 1 0
    outer loop
      vertex 3.3 26.65 6
      vertex 7.77025 26.65 2.475
      vertex 3.3 26.65 2.475
    endloop
  endfacet
  facet normal 0 -1 0
    outer loop
      vertex 22.1797 3.3 2.475
      vertex 26.75 3.3 6
      vertex 22.1797 3.3 6
    endloop
  endfacet
  facet normal 0 -1 -0
    outer loop
      vertex 26.75 3.3 6
      vertex 22.1797 3.3 2.475
      vertex 26.75 3.3 2.475
    endloop
  endfacet
  facet normal 0 -1 0
    outer loop
      vertex 3.3 3.3 2.475
      vertex 7.82025 3.3 6
      vertex 3.3 3.3 6
    endloop
  endfacet
  facet normal 0 -1 -0
    outer loop
      vertex 7.82025 3.3 6
      vertex 3.3 3.3 2.475
      vertex 7.82025 3.3 2.475
    endloop
  endfacet
  facet normal -0.707115 -0.707099 0
    outer loop
      vertex 26.75 22.1297 2.475
      vertex 22.2298 26.65 6
      vertex 22.2298 26.65 2.475
    endloop
  endfacet
  facet normal -0.707115 -0.707099 0
    outer loop
      vertex 22.2298 26.65 6
      vertex 26.75 22.1297 2.475
      vertex 26.75 22.1297 6
    endloop
  endfacet
  facet normal 0.707111 -0.707103 0
    outer loop
      vertex 3.3 22.1797 6
      vertex 7.77025 26.65 2.475
      vertex 7.77025 26.65 6
    endloop
  endfacet
  facet normal 0.707111 -0.707103 0
    outer loop
      vertex 7.77025 26.65 2.475
      vertex 3.3 22.1797 6
      vertex 3.3 22.1797 2.475
    endloop
  endfacet
  facet normal 0.707107 0.707107 0
    outer loop
      vertex 7.82025 3.3 6
      vertex 3.3 7.82025 2.475
      vertex 3.3 7.82025 6
    endloop
  endfacet
  facet normal 0.707107 0.707107 0
    outer loop
      vertex 3.3 7.82025 2.475
      vertex 7.82025 3.3 6
      vertex 7.82025 3.3 2.475
    endloop
  endfacet
  facet normal -0.707103 0.707111 0
    outer loop
      vertex 26.75 7.87025 2.475
      vertex 22.1797 3.3 6
      vertex 26.75 7.87025 6
    endloop
  endfacet
  facet normal -0.707103 0.707111 0
    outer loop
      vertex 22.1797 3.3 6
      vertex 26.75 7.87025 2.475
      vertex 22.1797 3.3 2.475
    endloop
  endfacet
  facet normal 0 -0.707107 -0.707107
    outer loop
      vertex 0 0 0.825
      vertex 14.25 0.135 0.69
      vertex 30 0 0.825
    endloop
  endfacet
  facet normal 0 -0.707107 -0.707107
    outer loop
      vertex 0.825 0.825 0
      vertex 14.25 0.135 0.69
      vertex 0 0 0.825
    endloop
  endfacet
  facet normal 0 -0.707107 -0.707107
    outer loop
      vertex 14.25 0.135 0.69
      vertex 0.825 0.825 0
      vertex 14.25 0.825 0
    endloop
  endfacet
  facet normal -0 -0.707107 -0.707107
    outer loop
      vertex 15.75 0.135 0.69
      vertex 30 0 0.825
      vertex 14.25 0.135 0.69
    endloop
  endfacet
  facet normal -0 -0.707107 -0.707107
    outer loop
      vertex 29.175 0.825 0
      vertex 15.75 0.135 0.69
      vertex 15.75 0.825 0
    endloop
  endfacet
  facet normal 0 -0.707107 -0.707107
    outer loop
      vertex 15.75 0.135 0.69
      vertex 29.175 0.825 0
      vertex 30 0 0.825
    endloop
  endfacet
  facet normal -0.707107 -0 -0.707107
    outer loop
      vertex 0.825 14.25 0
      vertex 0.825 0.825 0
      vertex 0.135 14.25 0.69
    endloop
  endfacet
  facet normal -0.707107 0 -0.707107
    outer loop
      vertex 0.135 15.75 0.69
      vertex 0.825 29.175 0
      vertex 0.825 15.75 0
    endloop
  endfacet
  facet normal -0.707107 0 -0.707107
    outer loop
      vertex 0.825 29.175 0
      vertex 0.135 15.75 0.69
      vertex 0 30 0.825
    endloop
  endfacet
  facet normal -0.707107 0 -0.707107
    outer loop
      vertex 0.135 14.25 0.69
      vertex 0 30 0.825
      vertex 0.135 15.75 0.69
    endloop
  endfacet
  facet normal -0.707107 0 -0.707107
    outer loop
      vertex 0.135 14.25 0.69
      vertex 0 0 0.825
      vertex 0 30 0.825
    endloop
  endfacet
  facet normal -0.707107 0 -0.707107
    outer loop
      vertex 0 0 0.825
      vertex 0.135 14.25 0.69
      vertex 0.825 0.825 0
    endloop
  endfacet
  facet normal 0.707107 0 -0.707107
    outer loop
      vertex 29.175 0.825 0
      vertex 30 30 0.825
      vertex 30 0 0.825
    endloop
  endfacet
  facet normal 0.707107 0 -0.707107
    outer loop
      vertex 30 30 0.825
      vertex 29.175 0.825 0
      vertex 29.175 29.175 0
    endloop
  endfacet
  facet normal 0 0.707107 -0.707107
    outer loop
      vertex 14.25 29.175 0
      vertex 0.825 29.175 0
      vertex 14.25 29.865 0.69
    endloop
  endfacet
  facet normal 0 0.707107 -0.707107
    outer loop
      vertex 15.75 29.865 0.69
      vertex 29.175 29.175 0
      vertex 15.75 29.175 0
    endloop
  endfacet
  facet normal -8.08987e-17 0.707107 -0.707107
    outer loop
      vertex 29.175 29.175 0
      vertex 15.75 29.865 0.69
      vertex 30 30 0.825
    endloop
  endfacet
  facet normal 0 0.707107 -0.707107
    outer loop
      vertex 14.25 29.865 0.69
      vertex 30 30 0.825
      vertex 15.75 29.865 0.69
    endloop
  endfacet
  facet normal 0 0.707107 -0.707107
    outer loop
      vertex 14.25 29.865 0.69
      vertex 0 30 0.825
      vertex 30 30 0.825
    endloop
  endfacet
  facet normal 8.34268e-17 0.707107 -0.707107
    outer loop
      vertex 0 30 0.825
      vertex 14.25 29.865 0.69
      vertex 0.825 29.175 0
    endloop
  endfacet
  facet normal 0 0 -1
    outer loop
      vertex 14.25 4.56699 0.69
      vertex 15.75 5 0.69
      vertex 15.75 0.135 0.69
    endloop
  endfacet
  facet normal 0 0 -1
    outer loop
      vertex 14.25 4.56699 0.69
      vertex 15.75 0.135 0.69
      vertex 14.25 0.135 0.69
    endloop
  endfacet
  facet normal -0 0 -1
    outer loop
      vertex 15.75 5 0.69
      vertex 14.25 4.56699 0.69
      vertex 15 5 0.69
    endloop
  endfacet
  facet normal 0 0 -1
    outer loop
      vertex 14.25 4.56699 0.69
      vertex 15.375 5.64952 0.69
      vertex 15 5 0.69
    endloop
  endfacet
  facet normal 0 0 -1
    outer loop
      vertex 5.125 9.83531 0.69
      vertex 15.375 5.64952 0.69
      vertex 14.25 4.56699 0.69
    endloop
  endfacet
  facet normal 0 0 -1
    outer loop
      vertex 15.375 5.64952 0.69
      vertex 5.125 9.83531 0.69
      vertex 5.125 11.5674 0.69
    endloop
  endfacet
  facet normal 0 0 -1
    outer loop
      vertex 0.135 14.25 0.69
      vertex 3.625 15.75 0.69
      vertex 3.625 14.25 0.69
    endloop
  endfacet
  facet normal -0 0 -1
    outer loop
      vertex 3.625 15.75 0.69
      vertex 0.135 14.25 0.69
      vertex 0.135 15.75 0.69
    endloop
  endfacet
  facet normal 0 0 -1
    outer loop
      vertex 3.625 8.75 0.69
      vertex 5.125 9.83531 0.69
      vertex 5.125 8.75 0.69
    endloop
  endfacet
  facet normal -0 0 -1
    outer loop
      vertex 5.125 9.83531 0.69
      vertex 3.625 8.75 0.69
      vertex 5.125 11.5674 0.69
    endloop
  endfacet
  facet normal 0 0 -1
    outer loop
      vertex 5.125 11.5674 0.69
      vertex 3.625 14.25 0.69
      vertex 5.125 18.4326 0.69
    endloop
  endfacet
  facet normal 0 0 -1
    outer loop
      vertex 3.625 15.75 0.69
      vertex 5.125 18.4326 0.69
      vertex 3.625 14.25 0.69
    endloop
  endfacet
  facet normal -0 0 -1
    outer loop
      vertex 5.125 11.5674 0.69
      vertex 3.625 8.75 0.69
      vertex 3.625 14.25 0.69
    endloop
  endfacet
  facet normal 0 0 -1
    outer loop
      vertex 3.625 21.25 0.69
      vertex 5.125 18.4326 0.69
      vertex 3.625 15.75 0.69
    endloop
  endfacet
  facet normal 0 0 -1
    outer loop
      vertex 5.125 18.4326 0.69
      vertex 3.625 21.25 0.69
      vertex 5.125 20.1647 0.69
    endloop
  endfacet
  facet normal 0 0 -1
    outer loop
      vertex 5.125 20.1647 0.69
      vertex 3.625 21.25 0.69
      vertex 5.125 21.25 0.69
    endloop
  endfacet
  facet normal 0 0 -1
    outer loop
      vertex 5.125 20.1647 0.69
      vertex 12.8942 22.9182 0.69
      vertex 5.125 18.4326 0.69
    endloop
  endfacet
  facet normal -0 0 -1
    outer loop
      vertex 12.8942 22.9182 0.69
      vertex 5.125 20.1647 0.69
      vertex 12.1442 24.2172 0.69
    endloop
  endfacet
  facet normal 0 0 -1
    outer loop
      vertex 13.5869 20.7112 0.69
      vertex 12.2061 21.2973 0.69
      vertex 12.8942 22.9182 0.69
    endloop
  endfacet
  facet normal 0 0 -1
    outer loop
      vertex 12.8942 22.9182 0.69
      vertex 15.3013 24.75 0.69
      vertex 13.5869 20.7112 0.69
    endloop
  endfacet
  facet normal -0 0 -1
    outer loop
      vertex 15.3013 24.75 0.69
      vertex 12.8942 22.9182 0.69
      vertex 14.25 25.4699 0.69
    endloop
  endfacet
  facet normal 0 0 -1
    outer loop
      vertex 12.1442 24.2172 0.69
      vertex 14.25 25.4699 0.69
      vertex 12.8942 22.9182 0.69
    endloop
  endfacet
  facet normal 0 0 -1
    outer loop
      vertex 12.1442 24.2172 0.69
      vertex 10.5792 25.9206 0.69
      vertex 14.25 25.4699 0.69
    endloop
  endfacet
  facet normal 0 -0 -1
    outer loop
      vertex 10.5792 25.9206 0.69
      vertex 12.1442 24.2172 0.69
      vertex 10.3964 24.4318 0.69
    endloop
  endfacet
  facet normal 0 0 -1
    outer loop
      vertex 14.25 25.4699 0.69
      vertex 15.75 24.75 0.69
      vertex 15.3013 24.75 0.69
    endloop
  endfacet
  facet normal 0 0 -1
    outer loop
      vertex 15.75 24.75 0.69
      vertex 14.25 25.4699 0.69
      vertex 15.75 29.865 0.69
    endloop
  endfacet
  facet normal -0 0 -1
    outer loop
      vertex 15.75 29.865 0.69
      vertex 14.25 25.4699 0.69
      vertex 14.25 29.865 0.69
    endloop
  endfacet
  facet normal 0.499997 -0.866027 0
    outer loop
      vertex 5.125 20.1647 0
      vertex 12.1442 24.2172 0.69
      vertex 5.125 20.1647 0.69
    endloop
  endfacet
  facet normal 0.499997 -0.866027 0
    outer loop
      vertex 12.1442 24.2172 0.69
      vertex 5.125 20.1647 0
      vertex 12.1442 24.2172 0
    endloop
  endfacet
  facet normal -0.500004 0.866023 0
    outer loop
      vertex 12.8942 22.9182 0
      vertex 5.125 18.4326 0.69
      vertex 12.8942 22.9182 0.69
    endloop
  endfacet
  facet normal -0.500004 0.866023 0
    outer loop
      vertex 5.125 18.4326 0.69
      vertex 12.8942 22.9182 0
      vertex 5.125 18.4326 0
    endloop
  endfacet
  facet normal 0.992546 -0.121868 0
    outer loop
      vertex 10.3964 24.4318 0.69
      vertex 10.5792 25.9206 0
      vertex 10.5792 25.9206 0.69
    endloop
  endfacet
  facet normal 0.992546 -0.121868 0
    outer loop
      vertex 10.5792 25.9206 0
      vertex 10.3964 24.4318 0.69
      vertex 10.3964 24.4318 0
    endloop
  endfacet
  facet normal -0.121865 -0.992547 0
    outer loop
      vertex 10.5792 25.9206 0
      vertex 14.25 25.4699 0.69
      vertex 10.5792 25.9206 0.69
    endloop
  endfacet
  facet normal -0.121865 -0.992547 -0
    outer loop
      vertex 14.25 25.4699 0.69
      vertex 10.5792 25.9206 0
      vertex 14.25 25.4699 0
    endloop
  endfacet
  facet normal 0.121868 0.992546 -0
    outer loop
      vertex 12.1442 24.2172 0
      vertex 10.3964 24.4318 0.69
      vertex 12.1442 24.2172 0.69
    endloop
  endfacet
  facet normal 0.121868 0.992546 0
    outer loop
      vertex 10.3964 24.4318 0.69
      vertex 12.1442 24.2172 0
      vertex 10.3964 24.4318 0
    endloop
  endfacet
  facet normal 0.390723 0.920508 -0
    outer loop
      vertex 13.5869 20.7112 0
      vertex 12.2061 21.2973 0.69
      vertex 13.5869 20.7112 0.69
    endloop
  endfacet
  facet normal 0.390723 0.920508 0
    outer loop
      vertex 12.2061 21.2973 0.69
      vertex 13.5869 20.7112 0
      vertex 12.2061 21.2973 0
    endloop
  endfacet
  facet normal -0.920502 0.390737 0
    outer loop
      vertex 13.5869 20.7112 0
      vertex 15.3013 24.75 0.69
      vertex 15.3013 24.75 0
    endloop
  endfacet
  facet normal -0.920502 0.390737 0
    outer loop
      vertex 15.3013 24.75 0.69
      vertex 13.5869 20.7112 0
      vertex 13.5869 20.7112 0.69
    endloop
  endfacet
  facet normal 0.920491 -0.390764 0
    outer loop
      vertex 12.2061 21.2973 0.69
      vertex 12.8942 22.9182 0
      vertex 12.8942 22.9182 0.69
    endloop
  endfacet
  facet normal 0.920491 -0.390764 0
    outer loop
      vertex 12.8942 22.9182 0
      vertex 12.2061 21.2973 0.69
      vertex 12.2061 21.2973 0
    endloop
  endfacet
  facet normal 1 -0 0
    outer loop
      vertex 3.625 15.75 0.69
      vertex 3.625 21.25 0
      vertex 3.625 21.25 0.69
    endloop
  endfacet
  facet normal 1 0 0
    outer loop
      vertex 3.625 21.25 0
      vertex 3.625 15.75 0.69
      vertex 3.625 15.75 0
    endloop
  endfacet
  facet normal 1 -0 0
    outer loop
      vertex 3.625 8.75 0.69
      vertex 3.625 14.25 0
      vertex 3.625 14.25 0.69
    endloop
  endfacet
  facet normal 1 0 0
    outer loop
      vertex 3.625 14.25 0
      vertex 3.625 8.75 0.69
      vertex 3.625 8.75 0
    endloop
  endfacet
  facet normal -1 0 0
    outer loop
      vertex 5.125 20.1647 0
      vertex 5.125 21.25 0.69
      vertex 5.125 21.25 0
    endloop
  endfacet
  facet normal -1 -0 0
    outer loop
      vertex 5.125 21.25 0.69
      vertex 5.125 20.1647 0
      vertex 5.125 20.1647 0.69
    endloop
  endfacet
  facet normal -1 0 0
    outer loop
      vertex 5.125 8.75 0
      vertex 5.125 9.83531 0.69
      vertex 5.125 9.83531 0
    endloop
  endfacet
  facet normal -1 -0 0
    outer loop
      vertex 5.125 9.83531 0.69
      vertex 5.125 8.75 0
      vertex 5.125 8.75 0.69
    endloop
  endfacet
  facet normal -1 0 0
    outer loop
      vertex 5.125 11.5674 0
      vertex 5.125 18.4326 0.69
      vertex 5.125 18.4326 0
    endloop
  endfacet
  facet normal -1 -0 0
    outer loop
      vertex 5.125 18.4326 0.69
      vertex 5.125 11.5674 0
      vertex 5.125 11.5674 0.69
    endloop
  endfacet
  facet normal 0 1 -0
    outer loop
      vertex 5.125 8.75 0
      vertex 3.625 8.75 0.69
      vertex 5.125 8.75 0.69
    endloop
  endfacet
  facet normal 0 1 0
    outer loop
      vertex 3.625 8.75 0.69
      vertex 5.125 8.75 0
      vertex 3.625 8.75 0
    endloop
  endfacet
  facet normal 0 -1 0
    outer loop
      vertex 3.625 21.25 0
      vertex 5.125 21.25 0.69
      vertex 3.625 21.25 0.69
    endloop
  endfacet
  facet normal 0 -1 -0
    outer loop
      vertex 5.125 21.25 0.69
      vertex 3.625 21.25 0
      vertex 5.125 21.25 0
    endloop
  endfacet
  facet normal 0.5 0.866025 -0
    outer loop
      vertex 14.25 4.56699 0
      vertex 5.125 9.83531 0.69
      vertex 14.25 4.56699 0.69
    endloop
  endfacet
  facet normal 0.5 0.866025 0
    outer loop
      vertex 5.125 9.83531 0.69
      vertex 14.25 4.56699 0
      vertex 5.125 9.83531 0
    endloop
  endfacet
  facet normal -0.866026 0.499999 0
    outer loop
      vertex 15 5 0
      vertex 15.375 5.64952 0.69
      vertex 15.375 5.64952 0
    endloop
  endfacet
  facet normal -0.866026 0.499999 0
    outer loop
      vertex 15.375 5.64952 0.69
      vertex 15 5 0
      vertex 15 5 0.69
    endloop
  endfacet
  facet normal -0.500003 -0.866024 0
    outer loop
      vertex 5.125 11.5674 0
      vertex 15.375 5.64952 0.69
      vertex 5.125 11.5674 0.69
    endloop
  endfacet
  facet normal -0.500003 -0.866024 -0
    outer loop
      vertex 15.375 5.64952 0.69
      vertex 5.125 11.5674 0
      vertex 15.375 5.64952 0
    endloop
  endfacet
  facet normal 0 1 0
    outer loop
      vertex 0.825 14.25 0
      vertex 3.625 14.25 0.69
      vertex 3.625 14.25 0
    endloop
  endfacet
  facet normal 0 1 0
    outer loop
      vertex 3.625 14.25 0.69
      vertex 0.825 14.25 0
      vertex 0.135 14.25 0.69
    endloop
  endfacet
  facet normal 0 -1 0
    outer loop
      vertex 0.825 15.75 0
      vertex 3.625 15.75 0.69
      vertex 0.135 15.75 0.69
    endloop
  endfacet
  facet normal 0 -1 -0
    outer loop
      vertex 3.625 15.75 0.69
      vertex 0.825 15.75 0
      vertex 3.625 15.75 0
    endloop
  endfacet
  facet normal 1 -0 0
    outer loop
      vertex 14.25 25.4699 0.69
      vertex 14.25 29.175 0
      vertex 14.25 29.865 0.69
    endloop
  endfacet
  facet normal 1 0 0
    outer loop
      vertex 14.25 29.175 0
      vertex 14.25 25.4699 0.69
      vertex 14.25 25.4699 0
    endloop
  endfacet
  facet normal -1 0 0
    outer loop
      vertex 15.75 24.75 0.69
      vertex 15.75 29.175 0
      vertex 15.75 24.75 0
    endloop
  endfacet
  facet normal -1 0 0
    outer loop
      vertex 15.75 29.175 0
      vertex 15.75 24.75 0.69
      vertex 15.75 29.865 0.69
    endloop
  endfacet
  facet normal 0 1 -0
    outer loop
      vertex 15.75 24.75 0
      vertex 15.3013 24.75 0.69
      vertex 15.75 24.75 0.69
    endloop
  endfacet
  facet normal 0 1 0
    outer loop
      vertex 15.3013 24.75 0.69
      vertex 15.75 24.75 0
      vertex 15.3013 24.75 0
    endloop
  endfacet
  facet normal 1 0 0
    outer loop
      vertex 14.25 4.56699 0.69
      vertex 14.25 0.825 0
      vertex 14.25 4.56699 0
    endloop
  endfacet
  facet normal 1 0 -0
    outer loop
      vertex 14.25 0.825 0
      vertex 14.25 4.56699 0.69
      vertex 14.25 0.135 0.69
    endloop
  endfacet
  facet normal -1 0 0
    outer loop
      vertex 15.75 0.825 0
      vertex 15.75 5 0.69
      vertex 15.75 5 0
    endloop
  endfacet
  facet normal -1 -0 0
    outer loop
      vertex 15.75 5 0.69
      vertex 15.75 0.825 0
      vertex 15.75 0.135 0.69
    endloop
  endfacet
  facet normal 0 -1 0
    outer loop
      vertex 15 5 0
      vertex 15.75 5 0.69
      vertex 15 5 0.69
    endloop
  endfacet
  facet normal 0 -1 -0
    outer loop
      vertex 15.75 5 0.69
      vertex 15 5 0
      vertex 15.75 5 0
    endloop
  endfacet
endsolid OpenSCAD_Model
