solid OpenSCAD_Model
  facet normal -1 0 0
    outer loop
      vertex 0 30 0.825
      vertex 0 18.8797 2.475
      vertex 0 30 2.475
    endloop
  endfacet
  facet normal -1 0 0
    outer loop
      vertex 0 30 0.825
      vertex 0 11.1202 2.475
      vertex 0 18.8797 2.475
    endloop
  endfacet
  facet normal -1 0 0
    outer loop
      vertex 0 0 0.825
      vertex 0 11.1202 2.475
      vertex 0 30 0.825
    endloop
  endfacet
  facet normal -1 -0 0
    outer loop
      vertex 0 11.1202 2.475
      vertex 0 0 0.825
      vertex 0 0 2.475
    endloop
  endfacet
  facet normal -0 0 1
    outer loop
      vertex 26.7 7.82025 2.475
      vertex 30 0 2.475
      vertex 30 11.1202 2.475
    endloop
  endfacet
  facet normal -0 0 1
    outer loop
      vertex 26.7 3.3 2.475
      vertex 30 0 2.475
      vertex 26.7 7.82025 2.475
    endloop
  endfacet
  facet normal -0 0 1
    outer loop
      vertex 22.1797 3.3 2.475
      vertex 30 0 2.475
      vertex 26.7 3.3 2.475
    endloop
  endfacet
  facet normal 0 0 1
    outer loop
      vertex 30 0 2.475
      vertex 22.1797 3.3 2.475
      vertex 18.8797 0 2.475
    endloop
  endfacet
  facet normal 0 0 1
    outer loop
      vertex 3.3 7.82025 2.475
      vertex 0 11.1202 2.475
      vertex 3.3 3.3 2.475
    endloop
  endfacet
  facet normal -0 0 1
    outer loop
      vertex 3.3 3.3 2.475
      vertex 11.1202 0 2.475
      vertex 7.82025 3.3 2.475
    endloop
  endfacet
  facet normal 0 0 1
    outer loop
      vertex 3.3 3.3 2.475
      vertex 0 0 2.475
      vertex 11.1202 0 2.475
    endloop
  endfacet
  facet normal 0 0 1
    outer loop
      vertex 0 0 2.475
      vertex 3.3 3.3 2.475
      vertex 0 11.1202 2.475
    endloop
  endfacet
  facet normal 0 0 1
    outer loop
      vertex 30 30 2.475
      vertex 26.7 26.7 2.475
      vertex 30 18.8797 2.475
    endloop
  endfacet
  facet normal 0 0 1
    outer loop
      vertex 30 30 2.475
      vertex 22.1798 26.7 2.475
      vertex 26.7 26.7 2.475
    endloop
  endfacet
  facet normal 0 -0 1
    outer loop
      vertex 22.1798 26.7 2.475
      vertex 30 30 2.475
      vertex 18.8797 30 2.475
    endloop
  endfacet
  facet normal 0 0 1
    outer loop
      vertex 30 18.8797 2.475
      vertex 26.7 26.7 2.475
      vertex 26.7 22.1798 2.475
    endloop
  endfacet
  facet normal 0 0 1
    outer loop
      vertex 11.1202 30 2.475
      vertex 3.3 26.7 2.475
      vertex 7.82025 26.7 2.475
    endloop
  endfacet
  facet normal -0 0 1
    outer loop
      vertex 0 30 2.475
      vertex 3.3 26.7 2.475
      vertex 11.1202 30 2.475
    endloop
  endfacet
  facet normal 0 0 1
    outer loop
      vertex 0 30 2.475
      vertex 3.3 22.1797 2.475
      vertex 3.3 26.7 2.475
    endloop
  endfacet
  facet normal 0 0 1
    outer loop
      vertex 3.3 22.1797 2.475
      vertex 0 30 2.475
      vertex 0 18.8797 2.475
    endloop
  endfacet
  facet normal 0 0 1
    outer loop
      vertex 26.7 22.1798 2.475
      vertex 30 11.1202 2.475
      vertex 30 18.8797 2.475
    endloop
  endfacet
  facet normal 0 0 1
    outer loop
      vertex 26.7 22.1798 2.475
      vertex 26.7 7.82025 2.475
      vertex 30 11.1202 2.475
    endloop
  endfacet
  facet normal 0 0 1
    outer loop
      vertex 22.1798 26.7 2.475
      vertex 26.7 7.82025 2.475
      vertex 26.7 22.1798 2.475
    endloop
  endfacet
  facet normal 0 0 1
    outer loop
      vertex 22.1798 26.7 2.475
      vertex 22.1797 3.3 2.475
      vertex 26.7 7.82025 2.475
    endloop
  endfacet
  facet normal 0 0 1
    outer loop
      vertex 7.82025 26.7 2.475
      vertex 22.1798 26.7 2.475
      vertex 18.8797 30 2.475
    endloop
  endfacet
  facet normal 0 0 1
    outer loop
      vertex 22.1798 26.7 2.475
      vertex 7.82025 26.7 2.475
      vertex 22.1797 3.3 2.475
    endloop
  endfacet
  facet normal 0 0 1
    outer loop
      vertex 7.82025 26.7 2.475
      vertex 18.8797 30 2.475
      vertex 11.1202 30 2.475
    endloop
  endfacet
  facet normal 0 0 1
    outer loop
      vertex 7.82025 3.3 2.475
      vertex 22.1797 3.3 2.475
      vertex 7.82025 26.7 2.475
    endloop
  endfacet
  facet normal 0 0 1
    outer loop
      vertex 18.8797 0 2.475
      vertex 7.82025 3.3 2.475
      vertex 11.1202 0 2.475
    endloop
  endfacet
  facet normal 0 0 1
    outer loop
      vertex 22.1797 3.3 2.475
      vertex 7.82025 3.3 2.475
      vertex 18.8797 0 2.475
    endloop
  endfacet
  facet normal -0 0 1
    outer loop
      vertex 3.3 22.1797 2.475
      vertex 7.82025 3.3 2.475
      vertex 7.82025 26.7 2.475
    endloop
  endfacet
  facet normal 0 0 1
    outer loop
      vertex 3.3 22.1797 2.475
      vertex 3.3 7.82025 2.475
      vertex 7.82025 3.3 2.475
    endloop
  endfacet
  facet normal -0 0 1
    outer loop
      vertex 0 18.8797 2.475
      vertex 3.3 7.82025 2.475
      vertex 3.3 22.1797 2.475
    endloop
  endfacet
  facet normal 0 0 1
    outer loop
      vertex 3.3 7.82025 2.475
      vertex 0 18.8797 2.475
      vertex 0 11.1202 2.475
    endloop
  endfacet
  facet normal 1 -0 0
    outer loop
      vertex 30 18.8797 2.475
      vertex 30 30 0.825
      vertex 30 30 2.475
    endloop
  endfacet
  facet normal 1 -0 0
    outer loop
      vertex 30 11.1202 2.475
      vertex 30 30 0.825
      vertex 30 18.8797 2.475
    endloop
  endfacet
  facet normal 1 0 0
    outer loop
      vertex 30 0 0.825
      vertex 30 11.1202 2.475
      vertex 30 0 2.475
    endloop
  endfacet
  facet normal 1 0 0
    outer loop
      vertex 30 11.1202 2.475
      vertex 30 0 0.825
      vertex 30 30 0.825
    endloop
  endfacet
  facet normal 0 1 -0
    outer loop
      vertex 30 30 0.825
      vertex 18.8797 30 2.475
      vertex 30 30 2.475
    endloop
  endfacet
  facet normal 0 1 0
    outer loop
      vertex 18.8797 30 2.475
      vertex 30 30 0.825
      vertex 11.1202 30 2.475
    endloop
  endfacet
  facet normal 0 1 0
    outer loop
      vertex 0 30 0.825
      vertex 11.1202 30 2.475
      vertex 30 30 0.825
    endloop
  endfacet
  facet normal 0 1 0
    outer loop
      vertex 11.1202 30 2.475
      vertex 0 30 0.825
      vertex 0 30 2.475
    endloop
  endfacet
  facet normal 0 0 -1
    outer loop
      vertex 12.9 15.5 0
      vertex 1.65 15.5 0
      vertex 12.9 18.75 0
    endloop
  endfacet
  facet normal 0 0 -1
    outer loop
      vertex 29.175 0.825 0
      vertex 27.9 14.5 0
      vertex 29.175 29.175 0
    endloop
  endfacet
  facet normal 0 0 -1
    outer loop
      vertex 29.175 0.825 0
      vertex 17.65 11.25 0
      vertex 27.9 14.5 0
    endloop
  endfacet
  facet normal 0 0 -1
    outer loop
      vertex 29.175 0.825 0
      vertex 16.65 11.25 0
      vertex 17.65 11.25 0
    endloop
  endfacet
  facet normal 0 0 -1
    outer loop
      vertex 16.65 11.25 0
      vertex 13.9 11.25 0
      vertex 16.65 18.75 0
    endloop
  endfacet
  facet normal 0 0 -1
    outer loop
      vertex 29.175 0.825 0
      vertex 13.9 11.25 0
      vertex 16.65 11.25 0
    endloop
  endfacet
  facet normal 0 0 -1
    outer loop
      vertex 0.825 0.825 0
      vertex 13.9 11.25 0
      vertex 29.175 0.825 0
    endloop
  endfacet
  facet normal 0 0 -1
    outer loop
      vertex 12.9 11.25 0
      vertex 1.65 14.5 0
      vertex 12.9 14.5 0
    endloop
  endfacet
  facet normal -0 0 -1
    outer loop
      vertex 13.9 11.25 0
      vertex 0.825 0.825 0
      vertex 12.9 11.25 0
    endloop
  endfacet
  facet normal -0 0 -1
    outer loop
      vertex 1.65 14.5 0
      vertex 0.825 0.825 0
      vertex 1.65 15.5 0
    endloop
  endfacet
  facet normal -0 0 -1
    outer loop
      vertex 12.9 11.25 0
      vertex 0.825 0.825 0
      vertex 1.65 14.5 0
    endloop
  endfacet
  facet normal 0 0 -1
    outer loop
      vertex 27.9 15.5 0
      vertex 29.175 29.175 0
      vertex 27.9 14.5 0
    endloop
  endfacet
  facet normal 0 0 -1
    outer loop
      vertex 17.65 18.75 0
      vertex 27.9 15.5 0
      vertex 17.65 15.5 0
    endloop
  endfacet
  facet normal 0 0 -1
    outer loop
      vertex 27.9 15.5 0
      vertex 17.65 18.75 0
      vertex 29.175 29.175 0
    endloop
  endfacet
  facet normal 0 0 -1
    outer loop
      vertex 16.65 18.75 0
      vertex 29.175 29.175 0
      vertex 17.65 18.75 0
    endloop
  endfacet
  facet normal 0 0 -1
    outer loop
      vertex 13.9 18.75 0
      vertex 16.65 18.75 0
      vertex 13.9 11.25 0
    endloop
  endfacet
  facet normal 0 0 -1
    outer loop
      vertex 13.9 18.75 0
      vertex 29.175 29.175 0
      vertex 16.65 18.75 0
    endloop
  endfacet
  facet normal 0 0 -1
    outer loop
      vertex 0.825 29.175 0
      vertex 13.9 18.75 0
      vertex 12.9 18.75 0
    endloop
  endfacet
  facet normal 0 0 -1
    outer loop
      vertex 0.825 29.175 0
      vertex 12.9 18.75 0
      vertex 1.65 15.5 0
    endloop
  endfacet
  facet normal 0 0 -1
    outer loop
      vertex 13.9 18.75 0
      vertex 0.825 29.175 0
      vertex 29.175 29.175 0
    endloop
  endfacet
  facet normal 0 0 -1
    outer loop
      vertex 0.825 29.175 0
      vertex 1.65 15.5 0
      vertex 0.825 0.825 0
    endloop
  endfacet
  facet normal -0 0 -1
    outer loop
      vertex 27.9 14.5 0
      vertex 17.65 11.25 0
      vertex 17.65 14.5 0
    endloop
  endfacet
  facet normal 0 -1 0
    outer loop
      vertex 0 0 0.825
      vertex 11.1202 0 2.475
      vertex 0 0 2.475
    endloop
  endfacet
  facet normal 0 -1 -0
    outer loop
      vertex 11.1202 0 2.475
      vertex 0 0 0.825
      vertex 18.8797 0 2.475
    endloop
  endfacet
  facet normal 0 -1 0
    outer loop
      vertex 18.8797 0 2.475
      vertex 30 0 0.825
      vertex 30 0 2.475
    endloop
  endfacet
  facet normal 0 -1 0
    outer loop
      vertex 30 0 0.825
      vertex 18.8797 0 2.475
      vertex 0 0 0.825
    endloop
  endfacet
  facet normal -1 0 0
    outer loop
      vertex 3.3 3.3 2.475
      vertex 3.3 7.82025 6
      vertex 3.3 7.82025 2.475
    endloop
  endfacet
  facet normal -1 -0 0
    outer loop
      vertex 3.3 7.82025 6
      vertex 3.3 3.3 2.475
      vertex 3.3 3.3 6
    endloop
  endfacet
  facet normal -1 0 0
    outer loop
      vertex 3.3 22.1797 2.475
      vertex 3.3 26.7 6
      vertex 3.3 26.7 2.475
    endloop
  endfacet
  facet normal -1 -0 0
    outer loop
      vertex 3.3 26.7 6
      vertex 3.3 22.1797 2.475
      vertex 3.3 22.1797 6
    endloop
  endfacet
  facet normal 0 0 1
    outer loop
      vertex 26.7 7.82025 6
      vertex 22.1797 3.3 6
      vertex 26.7 3.3 6
    endloop
  endfacet
  facet normal 0 0 1
    outer loop
      vertex 3.3 7.82025 6
      vertex 3.3 3.3 6
      vertex 7.82025 3.3 6
    endloop
  endfacet
  facet normal 0 0 1
    outer loop
      vertex 26.7 26.7 6
      vertex 22.1798 26.7 6
      vertex 26.7 22.1798 6
    endloop
  endfacet
  facet normal -0 0 1
    outer loop
      vertex 3.3 26.7 6
      vertex 3.3 22.1797 6
      vertex 7.82025 26.7 6
    endloop
  endfacet
  facet normal 1 -0 0
    outer loop
      vertex 26.7 3.3 6
      vertex 26.7 7.82025 2.475
      vertex 26.7 7.82025 6
    endloop
  endfacet
  facet normal 1 0 0
    outer loop
      vertex 26.7 7.82025 2.475
      vertex 26.7 3.3 6
      vertex 26.7 3.3 2.475
    endloop
  endfacet
  facet normal 1 -0 0
    outer loop
      vertex 26.7 22.1798 6
      vertex 26.7 26.7 2.475
      vertex 26.7 26.7 6
    endloop
  endfacet
  facet normal 1 0 0
    outer loop
      vertex 26.7 26.7 2.475
      vertex 26.7 22.1798 6
      vertex 26.7 22.1798 2.475
    endloop
  endfacet
  facet normal 0 1 -0
    outer loop
      vertex 26.7 26.7 2.475
      vertex 22.1798 26.7 6
      vertex 26.7 26.7 6
    endloop
  endfacet
  facet normal 0 1 0
    outer loop
      vertex 22.1798 26.7 6
      vertex 26.7 26.7 2.475
      vertex 22.1798 26.7 2.475
    endloop
  endfacet
  facet normal 0 1 -0
    outer loop
      vertex 7.82025 26.7 2.475
      vertex 3.3 26.7 6
      vertex 7.82025 26.7 6
    endloop
  endfacet
  facet normal 0 1 0
    outer loop
      vertex 3.3 26.7 6
      vertex 7.82025 26.7 2.475
      vertex 3.3 26.7 2.475
    endloop
  endfacet
  facet normal 0 -1 0
    outer loop
      vertex 22.1797 3.3 2.475
      vertex 26.7 3.3 6
      vertex 22.1797 3.3 6
    endloop
  endfacet
  facet normal 0 -1 -0
    outer loop
      vertex 26.7 3.3 6
      vertex 22.1797 3.3 2.475
      vertex 26.7 3.3 2.475
    endloop
  endfacet
  facet normal 0 -1 0
    outer loop
      vertex 3.3 3.3 2.475
      vertex 7.82025 3.3 6
      vertex 3.3 3.3 6
    endloop
  endfacet
  facet normal 0 -1 -0
    outer loop
      vertex 7.82025 3.3 6
      vertex 3.3 3.3 2.475
      vertex 7.82025 3.3 2.475
    endloop
  endfacet
  facet normal -0.707107 -0.707107 0
    outer loop
      vertex 26.7 22.1798 2.475
      vertex 22.1798 26.7 6
      vertex 22.1798 26.7 2.475
    endloop
  endfacet
  facet normal -0.707107 -0.707107 0
    outer loop
      vertex 22.1798 26.7 6
      vertex 26.7 22.1798 2.475
      vertex 26.7 22.1798 6
    endloop
  endfacet
  facet normal 0.707107 0.707107 0
    outer loop
      vertex 7.82025 3.3 6
      vertex 3.3 7.82025 2.475
      vertex 3.3 7.82025 6
    endloop
  endfacet
  facet normal 0.707107 0.707107 0
    outer loop
      vertex 3.3 7.82025 2.475
      vertex 7.82025 3.3 6
      vertex 7.82025 3.3 2.475
    endloop
  endfacet
  facet normal -0.707103 0.707111 0
    outer loop
      vertex 26.7 7.82025 2.475
      vertex 22.1797 3.3 6
      vertex 26.7 7.82025 6
    endloop
  endfacet
  facet normal -0.707103 0.707111 0
    outer loop
      vertex 22.1797 3.3 6
      vertex 26.7 7.82025 2.475
      vertex 22.1797 3.3 2.475
    endloop
  endfacet
  facet normal 0.707111 -0.707103 0
    outer loop
      vertex 3.3 22.1797 6
      vertex 7.82025 26.7 2.475
      vertex 7.82025 26.7 6
    endloop
  endfacet
  facet normal 0.707111 -0.707103 0
    outer loop
      vertex 7.82025 26.7 2.475
      vertex 3.3 22.1797 6
      vertex 3.3 22.1797 2.475
    endloop
  endfacet
  facet normal 0 -0.707107 -0.707107
    outer loop
      vertex 0.825 0.825 0
      vertex 30 0 0.825
      vertex 0 0 0.825
    endloop
  endfacet
  facet normal 0 -0.707107 -0.707107
    outer loop
      vertex 30 0 0.825
      vertex 0.825 0.825 0
      vertex 29.175 0.825 0
    endloop
  endfacet
  facet normal -0.707107 0 -0.707107
    outer loop
      vertex 0.825 0.825 0
      vertex 0 30 0.825
      vertex 0.825 29.175 0
    endloop
  endfacet
  facet normal -0.707107 -0 -0.707107
    outer loop
      vertex 0 30 0.825
      vertex 0.825 0.825 0
      vertex 0 0 0.825
    endloop
  endfacet
  facet normal 0.707107 0 -0.707107
    outer loop
      vertex 29.175 0.825 0
      vertex 30 30 0.825
      vertex 30 0 0.825
    endloop
  endfacet
  facet normal 0.707107 0 -0.707107
    outer loop
      vertex 30 30 0.825
      vertex 29.175 0.825 0
      vertex 29.175 29.175 0
    endloop
  endfacet
  facet normal 0 0.707107 -0.707107
    outer loop
      vertex 0.825 29.175 0
      vertex 30 30 0.825
      vertex 29.175 29.175 0
    endloop
  endfacet
  facet normal 0 0.707107 -0.707107
    outer loop
      vertex 30 30 0.825
      vertex 0.825 29.175 0
      vertex 0 30 0.825
    endloop
  endfacet
  facet normal 1 -0 0
    outer loop
      vertex 1.65 14.5 0.49
      vertex 1.65 15.5 0
      vertex 1.65 15.5 0.49
    endloop
  endfacet
  facet normal 1 0 0
    outer loop
      vertex 1.65 15.5 0
      vertex 1.65 14.5 0.49
      vertex 1.65 14.5 0
    endloop
  endfacet
  facet normal 0 0 -1
    outer loop
      vertex 1.65 14.5 0.49
      vertex 12.9 15.5 0.49
      vertex 12.9 14.5 0.49
    endloop
  endfacet
  facet normal -0 0 -1
    outer loop
      vertex 12.9 15.5 0.49
      vertex 1.65 14.5 0.49
      vertex 1.65 15.5 0.49
    endloop
  endfacet
  facet normal 0 0 -1
    outer loop
      vertex 12.9 14.5 0.49
      vertex 13.9 11.25 0.49
      vertex 12.9 11.25 0.49
    endloop
  endfacet
  facet normal 0 0 -1
    outer loop
      vertex 13.9 11.25 0.49
      vertex 12.9 14.5 0.49
      vertex 13.9 18.75 0.49
    endloop
  endfacet
  facet normal 0 0 -1
    outer loop
      vertex 12.9 15.5 0.49
      vertex 13.9 18.75 0.49
      vertex 12.9 14.5 0.49
    endloop
  endfacet
  facet normal -0 0 -1
    outer loop
      vertex 13.9 18.75 0.49
      vertex 12.9 15.5 0.49
      vertex 12.9 18.75 0.49
    endloop
  endfacet
  facet normal 1 -0 0
    outer loop
      vertex 12.9 11.25 0.49
      vertex 12.9 14.5 0
      vertex 12.9 14.5 0.49
    endloop
  endfacet
  facet normal 1 0 0
    outer loop
      vertex 12.9 14.5 0
      vertex 12.9 11.25 0.49
      vertex 12.9 11.25 0
    endloop
  endfacet
  facet normal 1 -0 0
    outer loop
      vertex 12.9 15.5 0.49
      vertex 12.9 18.75 0
      vertex 12.9 18.75 0.49
    endloop
  endfacet
  facet normal 1 0 0
    outer loop
      vertex 12.9 18.75 0
      vertex 12.9 15.5 0.49
      vertex 12.9 15.5 0
    endloop
  endfacet
  facet normal 0 1 -0
    outer loop
      vertex 12.9 14.5 0
      vertex 1.65 14.5 0.49
      vertex 12.9 14.5 0.49
    endloop
  endfacet
  facet normal 0 1 0
    outer loop
      vertex 1.65 14.5 0.49
      vertex 12.9 14.5 0
      vertex 1.65 14.5 0
    endloop
  endfacet
  facet normal 0 -1 0
    outer loop
      vertex 1.65 15.5 0
      vertex 12.9 15.5 0.49
      vertex 1.65 15.5 0.49
    endloop
  endfacet
  facet normal 0 -1 -0
    outer loop
      vertex 12.9 15.5 0.49
      vertex 1.65 15.5 0
      vertex 12.9 15.5 0
    endloop
  endfacet
  facet normal 1 -0 0
    outer loop
      vertex 16.65 11.25 0.49
      vertex 16.65 18.75 0
      vertex 16.65 18.75 0.49
    endloop
  endfacet
  facet normal 1 0 0
    outer loop
      vertex 16.65 18.75 0
      vertex 16.65 11.25 0.49
      vertex 16.65 11.25 0
    endloop
  endfacet
  facet normal 0 0 -1
    outer loop
      vertex 16.65 11.25 0.49
      vertex 17.65 14.5 0.49
      vertex 17.65 11.25 0.49
    endloop
  endfacet
  facet normal -0 0 -1
    outer loop
      vertex 17.65 14.5 0.49
      vertex 16.65 11.25 0.49
      vertex 17.65 15.5 0.49
    endloop
  endfacet
  facet normal 0 0 -1
    outer loop
      vertex 16.65 18.75 0.49
      vertex 17.65 15.5 0.49
      vertex 16.65 11.25 0.49
    endloop
  endfacet
  facet normal 0 0 -1
    outer loop
      vertex 17.65 15.5 0.49
      vertex 16.65 18.75 0.49
      vertex 17.65 18.75 0.49
    endloop
  endfacet
  facet normal 0 0 -1
    outer loop
      vertex 17.65 14.5 0.49
      vertex 27.9 15.5 0.49
      vertex 27.9 14.5 0.49
    endloop
  endfacet
  facet normal -0 0 -1
    outer loop
      vertex 27.9 15.5 0.49
      vertex 17.65 14.5 0.49
      vertex 17.65 15.5 0.49
    endloop
  endfacet
  facet normal -1 0 0
    outer loop
      vertex 27.9 14.5 0
      vertex 27.9 15.5 0.49
      vertex 27.9 15.5 0
    endloop
  endfacet
  facet normal -1 -0 0
    outer loop
      vertex 27.9 15.5 0.49
      vertex 27.9 14.5 0
      vertex 27.9 14.5 0.49
    endloop
  endfacet
  facet normal 0 -1 0
    outer loop
      vertex 17.65 15.5 0
      vertex 27.9 15.5 0.49
      vertex 17.65 15.5 0.49
    endloop
  endfacet
  facet normal 0 -1 -0
    outer loop
      vertex 27.9 15.5 0.49
      vertex 17.65 15.5 0
      vertex 27.9 15.5 0
    endloop
  endfacet
  facet normal 0 1 -0
    outer loop
      vertex 27.9 14.5 0
      vertex 17.65 14.5 0.49
      vertex 27.9 14.5 0.49
    endloop
  endfacet
  facet normal 0 1 0
    outer loop
      vertex 17.65 14.5 0.49
      vertex 27.9 14.5 0
      vertex 17.65 14.5 0
    endloop
  endfacet
  facet normal -1 0 0
    outer loop
      vertex 13.9 11.25 0
      vertex 13.9 18.75 0.49
      vertex 13.9 18.75 0
    endloop
  endfacet
  facet normal -1 -0 0
    outer loop
      vertex 13.9 18.75 0.49
      vertex 13.9 11.25 0
      vertex 13.9 11.25 0.49
    endloop
  endfacet
  facet normal 0 -1 0
    outer loop
      vertex 12.9 18.75 0
      vertex 13.9 18.75 0.49
      vertex 12.9 18.75 0.49
    endloop
  endfacet
  facet normal 0 -1 -0
    outer loop
      vertex 13.9 18.75 0.49
      vertex 12.9 18.75 0
      vertex 13.9 18.75 0
    endloop
  endfacet
  facet normal 0 1 -0
    outer loop
      vertex 13.9 11.25 0
      vertex 12.9 11.25 0.49
      vertex 13.9 11.25 0.49
    endloop
  endfacet
  facet normal 0 1 0
    outer loop
      vertex 12.9 11.25 0.49
      vertex 13.9 11.25 0
      vertex 12.9 11.25 0
    endloop
  endfacet
  facet normal -1 0 0
    outer loop
      vertex 17.65 11.25 0
      vertex 17.65 14.5 0.49
      vertex 17.65 14.5 0
    endloop
  endfacet
  facet normal -1 -0 0
    outer loop
      vertex 17.65 14.5 0.49
      vertex 17.65 11.25 0
      vertex 17.65 11.25 0.49
    endloop
  endfacet
  facet normal -1 0 0
    outer loop
      vertex 17.65 15.5 0
      vertex 17.65 18.75 0.49
      vertex 17.65 18.75 0
    endloop
  endfacet
  facet normal -1 -0 0
    outer loop
      vertex 17.65 18.75 0.49
      vertex 17.65 15.5 0
      vertex 17.65 15.5 0.49
    endloop
  endfacet
  facet normal 0 -1 0
    outer loop
      vertex 16.65 18.75 0
      vertex 17.65 18.75 0.49
      vertex 16.65 18.75 0.49
    endloop
  endfacet
  facet normal 0 -1 -0
    outer loop
      vertex 17.65 18.75 0.49
      vertex 16.65 18.75 0
      vertex 17.65 18.75 0
    endloop
  endfacet
  facet normal 0 1 -0
    outer loop
      vertex 17.65 11.25 0
      vertex 16.65 11.25 0.49
      vertex 17.65 11.25 0.49
    endloop
  endfacet
  facet normal 0 1 0
    outer loop
      vertex 16.65 11.25 0.49
      vertex 17.65 11.25 0
      vertex 16.65 11.25 0
    endloop
  endfacet
endsolid OpenSCAD_Model
